%TF.GenerationSoftware,KiCad,Pcbnew,8.0.6*%
%TF.CreationDate,2024-10-16T15:49:25-04:00*%
%TF.ProjectId,motorgo_plink,6d6f746f-7267-46f5-9f70-6c696e6b2e6b,rev?*%
%TF.SameCoordinates,Original*%
%TF.FileFunction,Soldermask,Bot*%
%TF.FilePolarity,Negative*%
%FSLAX46Y46*%
G04 Gerber Fmt 4.6, Leading zero omitted, Abs format (unit mm)*
G04 Created by KiCad (PCBNEW 8.0.6) date 2024-10-16 15:49:25*
%MOMM*%
%LPD*%
G01*
G04 APERTURE LIST*
G04 Aperture macros list*
%AMRoundRect*
0 Rectangle with rounded corners*
0 $1 Rounding radius*
0 $2 $3 $4 $5 $6 $7 $8 $9 X,Y pos of 4 corners*
0 Add a 4 corners polygon primitive as box body*
4,1,4,$2,$3,$4,$5,$6,$7,$8,$9,$2,$3,0*
0 Add four circle primitives for the rounded corners*
1,1,$1+$1,$2,$3*
1,1,$1+$1,$4,$5*
1,1,$1+$1,$6,$7*
1,1,$1+$1,$8,$9*
0 Add four rect primitives between the rounded corners*
20,1,$1+$1,$2,$3,$4,$5,0*
20,1,$1+$1,$4,$5,$6,$7,0*
20,1,$1+$1,$6,$7,$8,$9,0*
20,1,$1+$1,$8,$9,$2,$3,0*%
G04 Aperture macros list end*
%ADD10C,0.610000*%
%ADD11RoundRect,0.250000X-0.845000X0.620000X-0.845000X-0.620000X0.845000X-0.620000X0.845000X0.620000X0*%
%ADD12O,2.190000X1.740000*%
%ADD13C,0.600000*%
%ADD14O,1.200000X1.500000*%
%ADD15O,1.800000X4.200000*%
%ADD16O,4.200000X1.800000*%
%ADD17R,1.000000X3.000000*%
G04 APERTURE END LIST*
D10*
%TO.C,U4*%
X116973500Y-105650000D03*
X116973500Y-106650000D03*
X117973500Y-105650000D03*
X117973500Y-106650000D03*
%TD*%
D11*
%TO.C,J22*%
X162530000Y-105810000D03*
D12*
X162530000Y-108350000D03*
%TD*%
D11*
%TO.C,J8*%
X123530000Y-105810000D03*
D12*
X123530000Y-108350000D03*
%TD*%
D13*
%TO.C,J1*%
X170575315Y-81292881D03*
X170575315Y-73792881D03*
D14*
X168425315Y-79942881D03*
X172725315Y-79942881D03*
X168425315Y-75142881D03*
X172725315Y-75142881D03*
%TD*%
D10*
%TO.C,U9*%
X158673500Y-99525000D03*
X158673500Y-100525000D03*
X159673500Y-99525000D03*
X159673500Y-100525000D03*
%TD*%
%TO.C,U3*%
X129973500Y-105650000D03*
X129973500Y-106650000D03*
X130973500Y-105650000D03*
X130973500Y-106650000D03*
%TD*%
D11*
%TO.C,J6*%
X136530000Y-105810000D03*
D12*
X136530000Y-108350000D03*
%TD*%
D10*
%TO.C,U5*%
X142973500Y-105650000D03*
X142973500Y-106650000D03*
X143973500Y-105650000D03*
X143973500Y-106650000D03*
%TD*%
D11*
%TO.C,J10*%
X149530000Y-105810000D03*
D12*
X149530000Y-108350000D03*
%TD*%
D15*
%TO.C,J11*%
X123500000Y-94613500D03*
X117500000Y-94613500D03*
D16*
X120500000Y-99313500D03*
%TD*%
D17*
%TO.C,J7*%
X118120000Y-66540000D03*
X118120000Y-61500000D03*
X120660000Y-66540000D03*
X120660000Y-61500000D03*
X123200000Y-66540000D03*
X123200000Y-61500000D03*
X125740000Y-66540000D03*
X125740000Y-61500000D03*
X128280000Y-66540000D03*
X128280000Y-61500000D03*
X130820000Y-66540000D03*
X130820000Y-61500000D03*
X133360000Y-66540000D03*
X133360000Y-61500000D03*
X135900000Y-66540000D03*
X135900000Y-61500000D03*
X138440000Y-66540000D03*
X138440000Y-61500000D03*
X140980000Y-66540000D03*
X140980000Y-61500000D03*
X143520000Y-66540000D03*
X143520000Y-61500000D03*
X146060000Y-66540000D03*
X146060000Y-61500000D03*
X148600000Y-66540000D03*
X148600000Y-61500000D03*
X151140000Y-66540000D03*
X151140000Y-61500000D03*
X153680000Y-66540000D03*
X153680000Y-61500000D03*
X156220000Y-66540000D03*
X156220000Y-61500000D03*
X158760000Y-66540000D03*
X158760000Y-61500000D03*
X161300000Y-66540000D03*
X161300000Y-61500000D03*
X163840000Y-66540000D03*
X163840000Y-61500000D03*
X166380000Y-66540000D03*
X166380000Y-61500000D03*
%TD*%
M02*
