%TF.GenerationSoftware,KiCad,Pcbnew,8.0.6*%
%TF.CreationDate,2024-10-16T15:49:25-04:00*%
%TF.ProjectId,motorgo_plink,6d6f746f-7267-46f5-9f70-6c696e6b2e6b,rev?*%
%TF.SameCoordinates,Original*%
%TF.FileFunction,Paste,Top*%
%TF.FilePolarity,Positive*%
%FSLAX46Y46*%
G04 Gerber Fmt 4.6, Leading zero omitted, Abs format (unit mm)*
G04 Created by KiCad (PCBNEW 8.0.6) date 2024-10-16 15:49:25*
%MOMM*%
%LPD*%
G01*
G04 APERTURE LIST*
G04 Aperture macros list*
%AMRoundRect*
0 Rectangle with rounded corners*
0 $1 Rounding radius*
0 $2 $3 $4 $5 $6 $7 $8 $9 X,Y pos of 4 corners*
0 Add a 4 corners polygon primitive as box body*
4,1,4,$2,$3,$4,$5,$6,$7,$8,$9,$2,$3,0*
0 Add four circle primitives for the rounded corners*
1,1,$1+$1,$2,$3*
1,1,$1+$1,$4,$5*
1,1,$1+$1,$6,$7*
1,1,$1+$1,$8,$9*
0 Add four rect primitives between the rounded corners*
20,1,$1+$1,$2,$3,$4,$5,0*
20,1,$1+$1,$4,$5,$6,$7,0*
20,1,$1+$1,$6,$7,$8,$9,0*
20,1,$1+$1,$8,$9,$2,$3,0*%
%AMFreePoly0*
4,1,45,-0.117574,2.202426,-0.100000,2.160000,-0.100000,1.500000,0.100000,1.500000,0.100000,2.160000,0.117574,2.202426,0.160000,2.220000,0.400000,2.220000,0.442426,2.202426,0.460000,2.160000,0.460000,1.076000,1.016000,1.076000,1.058426,1.058426,1.076000,1.016000,1.076000,-1.016000,1.058426,-1.058426,1.016000,-1.076000,0.460000,-1.076000,0.460000,-2.160000,0.442426,-2.202426,
0.400000,-2.220000,0.160000,-2.220000,0.117574,-2.202426,0.100000,-2.160000,0.100000,-1.500000,-0.100000,-1.500000,-0.100000,-2.160000,-0.117574,-2.202426,-0.160000,-2.220000,-0.400000,-2.220000,-0.442426,-2.202426,-0.460000,-2.160000,-0.460000,-1.076000,-1.016000,-1.076000,-1.058426,-1.058426,-1.076000,-1.016000,-1.076000,1.016000,-1.058426,1.058426,-1.016000,1.076000,-0.460000,1.076000,
-0.460000,2.160000,-0.442426,2.202426,-0.400000,2.220000,-0.160000,2.220000,-0.117574,2.202426,-0.117574,2.202426,$1*%
G04 Aperture macros list end*
%ADD10C,0.120000*%
%ADD11RoundRect,0.079500X0.100500X-0.079500X0.100500X0.079500X-0.100500X0.079500X-0.100500X-0.079500X0*%
%ADD12RoundRect,0.135000X0.185000X-0.135000X0.185000X0.135000X-0.185000X0.135000X-0.185000X-0.135000X0*%
%ADD13RoundRect,0.135000X-0.135000X-0.185000X0.135000X-0.185000X0.135000X0.185000X-0.135000X0.185000X0*%
%ADD14RoundRect,0.140000X0.140000X0.170000X-0.140000X0.170000X-0.140000X-0.170000X0.140000X-0.170000X0*%
%ADD15RoundRect,0.135000X-0.185000X0.135000X-0.185000X-0.135000X0.185000X-0.135000X0.185000X0.135000X0*%
%ADD16RoundRect,0.140000X-0.170000X0.140000X-0.170000X-0.140000X0.170000X-0.140000X0.170000X0.140000X0*%
%ADD17O,0.343000X1.747000*%
%ADD18R,3.550000X2.460000*%
%ADD19RoundRect,0.150000X-0.625000X0.150000X-0.625000X-0.150000X0.625000X-0.150000X0.625000X0.150000X0*%
%ADD20RoundRect,0.250000X-0.650000X0.350000X-0.650000X-0.350000X0.650000X-0.350000X0.650000X0.350000X0*%
%ADD21R,1.000000X1.700000*%
%ADD22RoundRect,0.140000X0.219203X0.021213X0.021213X0.219203X-0.219203X-0.021213X-0.021213X-0.219203X0*%
%ADD23R,0.600000X1.550000*%
%ADD24R,1.200000X1.800000*%
%ADD25RoundRect,0.225000X0.250000X-0.225000X0.250000X0.225000X-0.250000X0.225000X-0.250000X-0.225000X0*%
%ADD26RoundRect,0.250000X-0.325000X-1.100000X0.325000X-1.100000X0.325000X1.100000X-0.325000X1.100000X0*%
%ADD27R,0.500000X0.375000*%
%ADD28R,0.650000X0.300000*%
%ADD29R,0.280000X0.785000*%
%ADD30R,0.785000X0.280000*%
%ADD31RoundRect,0.140000X-0.140000X-0.170000X0.140000X-0.170000X0.140000X0.170000X-0.140000X0.170000X0*%
%ADD32RoundRect,0.243750X0.243750X0.456250X-0.243750X0.456250X-0.243750X-0.456250X0.243750X-0.456250X0*%
%ADD33RoundRect,0.135000X0.135000X0.185000X-0.135000X0.185000X-0.135000X-0.185000X0.135000X-0.185000X0*%
%ADD34RoundRect,0.250000X0.475000X-0.250000X0.475000X0.250000X-0.475000X0.250000X-0.475000X-0.250000X0*%
%ADD35RoundRect,0.225000X-0.225000X-0.250000X0.225000X-0.250000X0.225000X0.250000X-0.225000X0.250000X0*%
%ADD36RoundRect,0.250000X1.750000X1.000000X-1.750000X1.000000X-1.750000X-1.000000X1.750000X-1.000000X0*%
%ADD37R,5.500000X1.430000*%
%ADD38RoundRect,0.225000X-0.250000X0.225000X-0.250000X-0.225000X0.250000X-0.225000X0.250000X0.225000X0*%
%ADD39R,2.000000X1.500000*%
%ADD40R,2.000000X3.800000*%
%ADD41R,0.870000X0.300000*%
%ADD42RoundRect,0.250000X0.325000X1.100000X-0.325000X1.100000X-0.325000X-1.100000X0.325000X-1.100000X0*%
%ADD43R,0.900000X1.500000*%
%ADD44R,1.500000X0.900000*%
%ADD45R,0.900000X0.900000*%
%ADD46R,0.390000X0.800000*%
%ADD47R,0.800000X0.280000*%
%ADD48R,0.280000X0.800000*%
%ADD49FreePoly0,0.000000*%
%ADD50R,1.000000X3.000000*%
%ADD51R,0.280000X0.500000*%
%ADD52R,0.500000X0.280000*%
%ADD53RoundRect,0.079500X-0.100500X0.079500X-0.100500X-0.079500X0.100500X-0.079500X0.100500X0.079500X0*%
G04 APERTURE END LIST*
D10*
%TO.C,J1*%
X170145315Y-78942881D02*
X169275315Y-78942881D01*
X169275315Y-78642881D01*
X170145315Y-78642881D01*
X170145315Y-78942881D01*
G36*
X170145315Y-78942881D02*
G01*
X169275315Y-78942881D01*
X169275315Y-78642881D01*
X170145315Y-78642881D01*
X170145315Y-78942881D01*
G37*
X170145315Y-80442881D02*
X169275315Y-80442881D01*
X169275315Y-80142881D01*
X170145315Y-80142881D01*
X170145315Y-80442881D01*
G36*
X170145315Y-80442881D02*
G01*
X169275315Y-80442881D01*
X169275315Y-80142881D01*
X170145315Y-80142881D01*
X170145315Y-80442881D01*
G37*
X170145315Y-74942881D02*
X169275315Y-74942881D01*
X169275315Y-74642881D01*
X170145315Y-74642881D01*
X170145315Y-74942881D01*
G36*
X170145315Y-74942881D02*
G01*
X169275315Y-74942881D01*
X169275315Y-74642881D01*
X170145315Y-74642881D01*
X170145315Y-74942881D01*
G37*
X170145315Y-76442881D02*
X169275315Y-76442881D01*
X169275315Y-76142881D01*
X170145315Y-76142881D01*
X170145315Y-76442881D01*
G36*
X170145315Y-76442881D02*
G01*
X169275315Y-76442881D01*
X169275315Y-76142881D01*
X170145315Y-76142881D01*
X170145315Y-76442881D01*
G37*
X170145315Y-76942881D02*
X169275315Y-76942881D01*
X169275315Y-76642881D01*
X170145315Y-76642881D01*
X170145315Y-76942881D01*
G36*
X170145315Y-76942881D02*
G01*
X169275315Y-76942881D01*
X169275315Y-76642881D01*
X170145315Y-76642881D01*
X170145315Y-76942881D01*
G37*
X170145315Y-77442881D02*
X169275315Y-77442881D01*
X169275315Y-77142881D01*
X170145315Y-77142881D01*
X170145315Y-77442881D01*
G36*
X170145315Y-77442881D02*
G01*
X169275315Y-77442881D01*
X169275315Y-77142881D01*
X170145315Y-77142881D01*
X170145315Y-77442881D01*
G37*
X170145315Y-77942881D02*
X169275315Y-77942881D01*
X169275315Y-77642881D01*
X170145315Y-77642881D01*
X170145315Y-77942881D01*
G36*
X170145315Y-77942881D02*
G01*
X169275315Y-77942881D01*
X169275315Y-77642881D01*
X170145315Y-77642881D01*
X170145315Y-77942881D01*
G37*
X170145315Y-78442881D02*
X169275315Y-78442881D01*
X169275315Y-78142881D01*
X170145315Y-78142881D01*
X170145315Y-78442881D01*
G36*
X170145315Y-78442881D02*
G01*
X169275315Y-78442881D01*
X169275315Y-78142881D01*
X170145315Y-78142881D01*
X170145315Y-78442881D01*
G37*
X171875315Y-78442881D02*
X171005315Y-78442881D01*
X171005315Y-78142881D01*
X171875315Y-78142881D01*
X171875315Y-78442881D01*
G36*
X171875315Y-78442881D02*
G01*
X171005315Y-78442881D01*
X171005315Y-78142881D01*
X171875315Y-78142881D01*
X171875315Y-78442881D01*
G37*
X171875315Y-78942881D02*
X171005315Y-78942881D01*
X171005315Y-78642881D01*
X171875315Y-78642881D01*
X171875315Y-78942881D01*
G36*
X171875315Y-78942881D02*
G01*
X171005315Y-78942881D01*
X171005315Y-78642881D01*
X171875315Y-78642881D01*
X171875315Y-78942881D01*
G37*
X171875315Y-80442881D02*
X171005315Y-80442881D01*
X171005315Y-80142881D01*
X171875315Y-80142881D01*
X171875315Y-80442881D01*
G36*
X171875315Y-80442881D02*
G01*
X171005315Y-80442881D01*
X171005315Y-80142881D01*
X171875315Y-80142881D01*
X171875315Y-80442881D01*
G37*
X171875315Y-74942881D02*
X171005315Y-74942881D01*
X171005315Y-74642881D01*
X171875315Y-74642881D01*
X171875315Y-74942881D01*
G36*
X171875315Y-74942881D02*
G01*
X171005315Y-74942881D01*
X171005315Y-74642881D01*
X171875315Y-74642881D01*
X171875315Y-74942881D01*
G37*
X171875315Y-76442881D02*
X171005315Y-76442881D01*
X171005315Y-76142881D01*
X171875315Y-76142881D01*
X171875315Y-76442881D01*
G36*
X171875315Y-76442881D02*
G01*
X171005315Y-76442881D01*
X171005315Y-76142881D01*
X171875315Y-76142881D01*
X171875315Y-76442881D01*
G37*
X171875315Y-76942881D02*
X171005315Y-76942881D01*
X171005315Y-76642881D01*
X171875315Y-76642881D01*
X171875315Y-76942881D01*
G36*
X171875315Y-76942881D02*
G01*
X171005315Y-76942881D01*
X171005315Y-76642881D01*
X171875315Y-76642881D01*
X171875315Y-76942881D01*
G37*
X171875315Y-77442881D02*
X171005315Y-77442881D01*
X171005315Y-77142881D01*
X171875315Y-77142881D01*
X171875315Y-77442881D01*
G36*
X171875315Y-77442881D02*
G01*
X171005315Y-77442881D01*
X171005315Y-77142881D01*
X171875315Y-77142881D01*
X171875315Y-77442881D01*
G37*
X171875315Y-77942881D02*
X171005315Y-77942881D01*
X171005315Y-77642881D01*
X171875315Y-77642881D01*
X171875315Y-77942881D01*
G36*
X171875315Y-77942881D02*
G01*
X171005315Y-77942881D01*
X171005315Y-77642881D01*
X171875315Y-77642881D01*
X171875315Y-77942881D01*
G37*
X168470315Y-74394881D02*
X168499315Y-74397881D01*
X168529315Y-74401881D01*
X168558315Y-74407881D01*
X168587315Y-74414881D01*
X168616315Y-74423881D01*
X168644315Y-74433881D01*
X168672315Y-74445881D01*
X168699315Y-74458881D01*
X168725315Y-74472881D01*
X168750315Y-74488881D01*
X168775315Y-74505881D01*
X168799315Y-74523881D01*
X168822315Y-74542881D01*
X168844315Y-74562881D01*
X168865315Y-74584881D01*
X168885315Y-74606881D01*
X168903315Y-74630881D01*
X168921315Y-74654881D01*
X168937315Y-74679881D01*
X168952315Y-74705881D01*
X168965315Y-74732881D01*
X168978315Y-74759881D01*
X168989315Y-74787881D01*
X168998315Y-74815881D01*
X169006315Y-74844881D01*
X169013315Y-74873881D01*
X169018315Y-74903881D01*
X169022315Y-74932881D01*
X169024315Y-74962881D01*
X169025315Y-74992881D01*
X169025315Y-75292881D01*
X169024315Y-75322881D01*
X169022315Y-75352881D01*
X169018315Y-75381881D01*
X169013315Y-75411881D01*
X169006315Y-75440881D01*
X168998315Y-75469881D01*
X168989315Y-75497881D01*
X168978315Y-75525881D01*
X168965315Y-75552881D01*
X168952315Y-75579881D01*
X168937315Y-75605881D01*
X168921315Y-75630881D01*
X168903315Y-75654881D01*
X168885315Y-75678881D01*
X168865315Y-75700881D01*
X168844315Y-75721881D01*
X168822315Y-75742881D01*
X168799315Y-75761881D01*
X168775315Y-75779881D01*
X168750315Y-75796881D01*
X168725315Y-75812881D01*
X168699315Y-75826881D01*
X168672315Y-75839881D01*
X168644315Y-75850881D01*
X168616315Y-75861881D01*
X168587315Y-75870881D01*
X168558315Y-75877881D01*
X168529315Y-75883881D01*
X168499315Y-75887881D01*
X168470315Y-75890881D01*
X168440315Y-75892881D01*
X168410315Y-75892881D01*
X168380315Y-75890881D01*
X168350315Y-75887881D01*
X168321315Y-75883881D01*
X168291315Y-75877881D01*
X168262315Y-75870881D01*
X168234315Y-75861881D01*
X168206315Y-75850881D01*
X168178315Y-75839881D01*
X168151315Y-75826881D01*
X168125315Y-75812881D01*
X168099315Y-75796881D01*
X168075315Y-75779881D01*
X168051315Y-75761881D01*
X168028315Y-75742881D01*
X168006315Y-75721881D01*
X167985315Y-75700881D01*
X167965315Y-75678881D01*
X167947315Y-75654881D01*
X167929315Y-75630881D01*
X167913315Y-75605881D01*
X167898315Y-75579881D01*
X167884315Y-75552881D01*
X167872315Y-75525881D01*
X167861315Y-75497881D01*
X167852315Y-75469881D01*
X167843315Y-75440881D01*
X167837315Y-75411881D01*
X167832315Y-75381881D01*
X167828315Y-75352881D01*
X167826315Y-75322881D01*
X167825315Y-75292881D01*
X167825315Y-74992881D01*
X167826315Y-74962881D01*
X167828315Y-74932881D01*
X167832315Y-74903881D01*
X167837315Y-74873881D01*
X167843315Y-74844881D01*
X167852315Y-74815881D01*
X167861315Y-74787881D01*
X167872315Y-74759881D01*
X167884315Y-74732881D01*
X167898315Y-74705881D01*
X167913315Y-74679881D01*
X167929315Y-74654881D01*
X167947315Y-74630881D01*
X167965315Y-74606881D01*
X167985315Y-74584881D01*
X168006315Y-74562881D01*
X168028315Y-74542881D01*
X168051315Y-74523881D01*
X168075315Y-74505881D01*
X168099315Y-74488881D01*
X168125315Y-74472881D01*
X168151315Y-74458881D01*
X168178315Y-74445881D01*
X168206315Y-74433881D01*
X168234315Y-74423881D01*
X168262315Y-74414881D01*
X168291315Y-74407881D01*
X168321315Y-74401881D01*
X168350315Y-74397881D01*
X168380315Y-74394881D01*
X168410315Y-74392881D01*
X168440315Y-74392881D01*
X168470315Y-74394881D01*
G36*
X168470315Y-74394881D02*
G01*
X168499315Y-74397881D01*
X168529315Y-74401881D01*
X168558315Y-74407881D01*
X168587315Y-74414881D01*
X168616315Y-74423881D01*
X168644315Y-74433881D01*
X168672315Y-74445881D01*
X168699315Y-74458881D01*
X168725315Y-74472881D01*
X168750315Y-74488881D01*
X168775315Y-74505881D01*
X168799315Y-74523881D01*
X168822315Y-74542881D01*
X168844315Y-74562881D01*
X168865315Y-74584881D01*
X168885315Y-74606881D01*
X168903315Y-74630881D01*
X168921315Y-74654881D01*
X168937315Y-74679881D01*
X168952315Y-74705881D01*
X168965315Y-74732881D01*
X168978315Y-74759881D01*
X168989315Y-74787881D01*
X168998315Y-74815881D01*
X169006315Y-74844881D01*
X169013315Y-74873881D01*
X169018315Y-74903881D01*
X169022315Y-74932881D01*
X169024315Y-74962881D01*
X169025315Y-74992881D01*
X169025315Y-75292881D01*
X169024315Y-75322881D01*
X169022315Y-75352881D01*
X169018315Y-75381881D01*
X169013315Y-75411881D01*
X169006315Y-75440881D01*
X168998315Y-75469881D01*
X168989315Y-75497881D01*
X168978315Y-75525881D01*
X168965315Y-75552881D01*
X168952315Y-75579881D01*
X168937315Y-75605881D01*
X168921315Y-75630881D01*
X168903315Y-75654881D01*
X168885315Y-75678881D01*
X168865315Y-75700881D01*
X168844315Y-75721881D01*
X168822315Y-75742881D01*
X168799315Y-75761881D01*
X168775315Y-75779881D01*
X168750315Y-75796881D01*
X168725315Y-75812881D01*
X168699315Y-75826881D01*
X168672315Y-75839881D01*
X168644315Y-75850881D01*
X168616315Y-75861881D01*
X168587315Y-75870881D01*
X168558315Y-75877881D01*
X168529315Y-75883881D01*
X168499315Y-75887881D01*
X168470315Y-75890881D01*
X168440315Y-75892881D01*
X168410315Y-75892881D01*
X168380315Y-75890881D01*
X168350315Y-75887881D01*
X168321315Y-75883881D01*
X168291315Y-75877881D01*
X168262315Y-75870881D01*
X168234315Y-75861881D01*
X168206315Y-75850881D01*
X168178315Y-75839881D01*
X168151315Y-75826881D01*
X168125315Y-75812881D01*
X168099315Y-75796881D01*
X168075315Y-75779881D01*
X168051315Y-75761881D01*
X168028315Y-75742881D01*
X168006315Y-75721881D01*
X167985315Y-75700881D01*
X167965315Y-75678881D01*
X167947315Y-75654881D01*
X167929315Y-75630881D01*
X167913315Y-75605881D01*
X167898315Y-75579881D01*
X167884315Y-75552881D01*
X167872315Y-75525881D01*
X167861315Y-75497881D01*
X167852315Y-75469881D01*
X167843315Y-75440881D01*
X167837315Y-75411881D01*
X167832315Y-75381881D01*
X167828315Y-75352881D01*
X167826315Y-75322881D01*
X167825315Y-75292881D01*
X167825315Y-74992881D01*
X167826315Y-74962881D01*
X167828315Y-74932881D01*
X167832315Y-74903881D01*
X167837315Y-74873881D01*
X167843315Y-74844881D01*
X167852315Y-74815881D01*
X167861315Y-74787881D01*
X167872315Y-74759881D01*
X167884315Y-74732881D01*
X167898315Y-74705881D01*
X167913315Y-74679881D01*
X167929315Y-74654881D01*
X167947315Y-74630881D01*
X167965315Y-74606881D01*
X167985315Y-74584881D01*
X168006315Y-74562881D01*
X168028315Y-74542881D01*
X168051315Y-74523881D01*
X168075315Y-74505881D01*
X168099315Y-74488881D01*
X168125315Y-74472881D01*
X168151315Y-74458881D01*
X168178315Y-74445881D01*
X168206315Y-74433881D01*
X168234315Y-74423881D01*
X168262315Y-74414881D01*
X168291315Y-74407881D01*
X168321315Y-74401881D01*
X168350315Y-74397881D01*
X168380315Y-74394881D01*
X168410315Y-74392881D01*
X168440315Y-74392881D01*
X168470315Y-74394881D01*
G37*
X168470315Y-79194881D02*
X168499315Y-79197881D01*
X168529315Y-79201881D01*
X168558315Y-79207881D01*
X168587315Y-79214881D01*
X168616315Y-79223881D01*
X168644315Y-79234881D01*
X168672315Y-79245881D01*
X168699315Y-79258881D01*
X168725315Y-79272881D01*
X168750315Y-79288881D01*
X168775315Y-79305881D01*
X168799315Y-79323881D01*
X168822315Y-79342881D01*
X168844315Y-79363881D01*
X168865315Y-79384881D01*
X168885315Y-79406881D01*
X168903315Y-79430881D01*
X168921315Y-79454881D01*
X168937315Y-79479881D01*
X168952315Y-79505881D01*
X168965315Y-79532881D01*
X168978315Y-79559881D01*
X168989315Y-79587881D01*
X168998315Y-79615881D01*
X169006315Y-79644881D01*
X169013315Y-79673881D01*
X169018315Y-79703881D01*
X169022315Y-79732881D01*
X169024315Y-79762881D01*
X169025315Y-79792881D01*
X169025315Y-80092881D01*
X169024315Y-80122881D01*
X169022315Y-80152881D01*
X169018315Y-80181881D01*
X169013315Y-80211881D01*
X169006315Y-80240881D01*
X168998315Y-80269881D01*
X168989315Y-80297881D01*
X168978315Y-80325881D01*
X168965315Y-80352881D01*
X168952315Y-80379881D01*
X168937315Y-80405881D01*
X168921315Y-80430881D01*
X168903315Y-80454881D01*
X168885315Y-80478881D01*
X168865315Y-80500881D01*
X168844315Y-80522881D01*
X168822315Y-80542881D01*
X168799315Y-80561881D01*
X168775315Y-80579881D01*
X168750315Y-80596881D01*
X168725315Y-80612881D01*
X168699315Y-80626881D01*
X168672315Y-80639881D01*
X168644315Y-80651881D01*
X168616315Y-80661881D01*
X168587315Y-80670881D01*
X168558315Y-80677881D01*
X168529315Y-80683881D01*
X168499315Y-80687881D01*
X168470315Y-80690881D01*
X168440315Y-80692881D01*
X168410315Y-80692881D01*
X168380315Y-80690881D01*
X168350315Y-80687881D01*
X168321315Y-80683881D01*
X168291315Y-80677881D01*
X168262315Y-80670881D01*
X168234315Y-80661881D01*
X168206315Y-80651881D01*
X168178315Y-80639881D01*
X168151315Y-80626881D01*
X168125315Y-80612881D01*
X168099315Y-80596881D01*
X168075315Y-80579881D01*
X168051315Y-80561881D01*
X168028315Y-80542881D01*
X168006315Y-80522881D01*
X167985315Y-80500881D01*
X167965315Y-80478881D01*
X167947315Y-80454881D01*
X167929315Y-80430881D01*
X167913315Y-80405881D01*
X167898315Y-80379881D01*
X167884315Y-80352881D01*
X167872315Y-80325881D01*
X167861315Y-80297881D01*
X167852315Y-80269881D01*
X167843315Y-80240881D01*
X167837315Y-80211881D01*
X167832315Y-80181881D01*
X167828315Y-80152881D01*
X167826315Y-80122881D01*
X167825315Y-80092881D01*
X167825315Y-79792881D01*
X167826315Y-79762881D01*
X167828315Y-79732881D01*
X167832315Y-79703881D01*
X167837315Y-79673881D01*
X167843315Y-79644881D01*
X167852315Y-79615881D01*
X167861315Y-79587881D01*
X167872315Y-79559881D01*
X167884315Y-79532881D01*
X167898315Y-79505881D01*
X167913315Y-79479881D01*
X167929315Y-79454881D01*
X167947315Y-79430881D01*
X167965315Y-79406881D01*
X167985315Y-79384881D01*
X168006315Y-79363881D01*
X168028315Y-79342881D01*
X168051315Y-79323881D01*
X168075315Y-79305881D01*
X168099315Y-79288881D01*
X168125315Y-79272881D01*
X168151315Y-79258881D01*
X168178315Y-79245881D01*
X168206315Y-79234881D01*
X168234315Y-79223881D01*
X168262315Y-79214881D01*
X168291315Y-79207881D01*
X168321315Y-79201881D01*
X168350315Y-79197881D01*
X168380315Y-79194881D01*
X168410315Y-79192881D01*
X168440315Y-79192881D01*
X168470315Y-79194881D01*
G36*
X168470315Y-79194881D02*
G01*
X168499315Y-79197881D01*
X168529315Y-79201881D01*
X168558315Y-79207881D01*
X168587315Y-79214881D01*
X168616315Y-79223881D01*
X168644315Y-79234881D01*
X168672315Y-79245881D01*
X168699315Y-79258881D01*
X168725315Y-79272881D01*
X168750315Y-79288881D01*
X168775315Y-79305881D01*
X168799315Y-79323881D01*
X168822315Y-79342881D01*
X168844315Y-79363881D01*
X168865315Y-79384881D01*
X168885315Y-79406881D01*
X168903315Y-79430881D01*
X168921315Y-79454881D01*
X168937315Y-79479881D01*
X168952315Y-79505881D01*
X168965315Y-79532881D01*
X168978315Y-79559881D01*
X168989315Y-79587881D01*
X168998315Y-79615881D01*
X169006315Y-79644881D01*
X169013315Y-79673881D01*
X169018315Y-79703881D01*
X169022315Y-79732881D01*
X169024315Y-79762881D01*
X169025315Y-79792881D01*
X169025315Y-80092881D01*
X169024315Y-80122881D01*
X169022315Y-80152881D01*
X169018315Y-80181881D01*
X169013315Y-80211881D01*
X169006315Y-80240881D01*
X168998315Y-80269881D01*
X168989315Y-80297881D01*
X168978315Y-80325881D01*
X168965315Y-80352881D01*
X168952315Y-80379881D01*
X168937315Y-80405881D01*
X168921315Y-80430881D01*
X168903315Y-80454881D01*
X168885315Y-80478881D01*
X168865315Y-80500881D01*
X168844315Y-80522881D01*
X168822315Y-80542881D01*
X168799315Y-80561881D01*
X168775315Y-80579881D01*
X168750315Y-80596881D01*
X168725315Y-80612881D01*
X168699315Y-80626881D01*
X168672315Y-80639881D01*
X168644315Y-80651881D01*
X168616315Y-80661881D01*
X168587315Y-80670881D01*
X168558315Y-80677881D01*
X168529315Y-80683881D01*
X168499315Y-80687881D01*
X168470315Y-80690881D01*
X168440315Y-80692881D01*
X168410315Y-80692881D01*
X168380315Y-80690881D01*
X168350315Y-80687881D01*
X168321315Y-80683881D01*
X168291315Y-80677881D01*
X168262315Y-80670881D01*
X168234315Y-80661881D01*
X168206315Y-80651881D01*
X168178315Y-80639881D01*
X168151315Y-80626881D01*
X168125315Y-80612881D01*
X168099315Y-80596881D01*
X168075315Y-80579881D01*
X168051315Y-80561881D01*
X168028315Y-80542881D01*
X168006315Y-80522881D01*
X167985315Y-80500881D01*
X167965315Y-80478881D01*
X167947315Y-80454881D01*
X167929315Y-80430881D01*
X167913315Y-80405881D01*
X167898315Y-80379881D01*
X167884315Y-80352881D01*
X167872315Y-80325881D01*
X167861315Y-80297881D01*
X167852315Y-80269881D01*
X167843315Y-80240881D01*
X167837315Y-80211881D01*
X167832315Y-80181881D01*
X167828315Y-80152881D01*
X167826315Y-80122881D01*
X167825315Y-80092881D01*
X167825315Y-79792881D01*
X167826315Y-79762881D01*
X167828315Y-79732881D01*
X167832315Y-79703881D01*
X167837315Y-79673881D01*
X167843315Y-79644881D01*
X167852315Y-79615881D01*
X167861315Y-79587881D01*
X167872315Y-79559881D01*
X167884315Y-79532881D01*
X167898315Y-79505881D01*
X167913315Y-79479881D01*
X167929315Y-79454881D01*
X167947315Y-79430881D01*
X167965315Y-79406881D01*
X167985315Y-79384881D01*
X168006315Y-79363881D01*
X168028315Y-79342881D01*
X168051315Y-79323881D01*
X168075315Y-79305881D01*
X168099315Y-79288881D01*
X168125315Y-79272881D01*
X168151315Y-79258881D01*
X168178315Y-79245881D01*
X168206315Y-79234881D01*
X168234315Y-79223881D01*
X168262315Y-79214881D01*
X168291315Y-79207881D01*
X168321315Y-79201881D01*
X168350315Y-79197881D01*
X168380315Y-79194881D01*
X168410315Y-79192881D01*
X168440315Y-79192881D01*
X168470315Y-79194881D01*
G37*
X172770315Y-74394881D02*
X172800315Y-74397881D01*
X172829315Y-74401881D01*
X172859315Y-74407881D01*
X172888315Y-74414881D01*
X172916315Y-74423881D01*
X172944315Y-74433881D01*
X172972315Y-74445881D01*
X172999315Y-74458881D01*
X173025315Y-74472881D01*
X173051315Y-74488881D01*
X173075315Y-74505881D01*
X173099315Y-74523881D01*
X173122315Y-74542881D01*
X173144315Y-74562881D01*
X173165315Y-74584881D01*
X173185315Y-74606881D01*
X173203315Y-74630881D01*
X173221315Y-74654881D01*
X173237315Y-74679881D01*
X173252315Y-74705881D01*
X173266315Y-74732881D01*
X173278315Y-74759881D01*
X173289315Y-74787881D01*
X173298315Y-74815881D01*
X173307315Y-74844881D01*
X173313315Y-74873881D01*
X173318315Y-74903881D01*
X173322315Y-74932881D01*
X173324315Y-74962881D01*
X173325315Y-74992881D01*
X173325315Y-75292881D01*
X173324315Y-75322881D01*
X173322315Y-75352881D01*
X173318315Y-75381881D01*
X173313315Y-75411881D01*
X173307315Y-75440881D01*
X173298315Y-75469881D01*
X173289315Y-75497881D01*
X173278315Y-75525881D01*
X173266315Y-75552881D01*
X173252315Y-75579881D01*
X173237315Y-75605881D01*
X173221315Y-75630881D01*
X173203315Y-75654881D01*
X173185315Y-75678881D01*
X173165315Y-75700881D01*
X173144315Y-75721881D01*
X173122315Y-75742881D01*
X173099315Y-75761881D01*
X173075315Y-75779881D01*
X173051315Y-75796881D01*
X173025315Y-75812881D01*
X172999315Y-75826881D01*
X172972315Y-75839881D01*
X172944315Y-75850881D01*
X172916315Y-75861881D01*
X172888315Y-75870881D01*
X172859315Y-75877881D01*
X172829315Y-75883881D01*
X172800315Y-75887881D01*
X172770315Y-75890881D01*
X172740315Y-75892881D01*
X172710315Y-75892881D01*
X172680315Y-75890881D01*
X172651315Y-75887881D01*
X172621315Y-75883881D01*
X172592315Y-75877881D01*
X172563315Y-75870881D01*
X172534315Y-75861881D01*
X172506315Y-75850881D01*
X172478315Y-75839881D01*
X172451315Y-75826881D01*
X172425315Y-75812881D01*
X172400315Y-75796881D01*
X172375315Y-75779881D01*
X172351315Y-75761881D01*
X172328315Y-75742881D01*
X172306315Y-75721881D01*
X172285315Y-75700881D01*
X172265315Y-75678881D01*
X172247315Y-75654881D01*
X172229315Y-75630881D01*
X172213315Y-75605881D01*
X172198315Y-75579881D01*
X172185315Y-75552881D01*
X172172315Y-75525881D01*
X172161315Y-75497881D01*
X172152315Y-75469881D01*
X172144315Y-75440881D01*
X172137315Y-75411881D01*
X172132315Y-75381881D01*
X172128315Y-75352881D01*
X172126315Y-75322881D01*
X172125315Y-75292881D01*
X172125315Y-74992881D01*
X172126315Y-74962881D01*
X172128315Y-74932881D01*
X172132315Y-74903881D01*
X172137315Y-74873881D01*
X172144315Y-74844881D01*
X172152315Y-74815881D01*
X172161315Y-74787881D01*
X172172315Y-74759881D01*
X172185315Y-74732881D01*
X172198315Y-74705881D01*
X172213315Y-74679881D01*
X172229315Y-74654881D01*
X172247315Y-74630881D01*
X172265315Y-74606881D01*
X172285315Y-74584881D01*
X172306315Y-74562881D01*
X172328315Y-74542881D01*
X172351315Y-74523881D01*
X172375315Y-74505881D01*
X172400315Y-74488881D01*
X172425315Y-74472881D01*
X172451315Y-74458881D01*
X172478315Y-74445881D01*
X172506315Y-74433881D01*
X172534315Y-74423881D01*
X172563315Y-74414881D01*
X172592315Y-74407881D01*
X172621315Y-74401881D01*
X172651315Y-74397881D01*
X172680315Y-74394881D01*
X172710315Y-74392881D01*
X172740315Y-74392881D01*
X172770315Y-74394881D01*
G36*
X172770315Y-74394881D02*
G01*
X172800315Y-74397881D01*
X172829315Y-74401881D01*
X172859315Y-74407881D01*
X172888315Y-74414881D01*
X172916315Y-74423881D01*
X172944315Y-74433881D01*
X172972315Y-74445881D01*
X172999315Y-74458881D01*
X173025315Y-74472881D01*
X173051315Y-74488881D01*
X173075315Y-74505881D01*
X173099315Y-74523881D01*
X173122315Y-74542881D01*
X173144315Y-74562881D01*
X173165315Y-74584881D01*
X173185315Y-74606881D01*
X173203315Y-74630881D01*
X173221315Y-74654881D01*
X173237315Y-74679881D01*
X173252315Y-74705881D01*
X173266315Y-74732881D01*
X173278315Y-74759881D01*
X173289315Y-74787881D01*
X173298315Y-74815881D01*
X173307315Y-74844881D01*
X173313315Y-74873881D01*
X173318315Y-74903881D01*
X173322315Y-74932881D01*
X173324315Y-74962881D01*
X173325315Y-74992881D01*
X173325315Y-75292881D01*
X173324315Y-75322881D01*
X173322315Y-75352881D01*
X173318315Y-75381881D01*
X173313315Y-75411881D01*
X173307315Y-75440881D01*
X173298315Y-75469881D01*
X173289315Y-75497881D01*
X173278315Y-75525881D01*
X173266315Y-75552881D01*
X173252315Y-75579881D01*
X173237315Y-75605881D01*
X173221315Y-75630881D01*
X173203315Y-75654881D01*
X173185315Y-75678881D01*
X173165315Y-75700881D01*
X173144315Y-75721881D01*
X173122315Y-75742881D01*
X173099315Y-75761881D01*
X173075315Y-75779881D01*
X173051315Y-75796881D01*
X173025315Y-75812881D01*
X172999315Y-75826881D01*
X172972315Y-75839881D01*
X172944315Y-75850881D01*
X172916315Y-75861881D01*
X172888315Y-75870881D01*
X172859315Y-75877881D01*
X172829315Y-75883881D01*
X172800315Y-75887881D01*
X172770315Y-75890881D01*
X172740315Y-75892881D01*
X172710315Y-75892881D01*
X172680315Y-75890881D01*
X172651315Y-75887881D01*
X172621315Y-75883881D01*
X172592315Y-75877881D01*
X172563315Y-75870881D01*
X172534315Y-75861881D01*
X172506315Y-75850881D01*
X172478315Y-75839881D01*
X172451315Y-75826881D01*
X172425315Y-75812881D01*
X172400315Y-75796881D01*
X172375315Y-75779881D01*
X172351315Y-75761881D01*
X172328315Y-75742881D01*
X172306315Y-75721881D01*
X172285315Y-75700881D01*
X172265315Y-75678881D01*
X172247315Y-75654881D01*
X172229315Y-75630881D01*
X172213315Y-75605881D01*
X172198315Y-75579881D01*
X172185315Y-75552881D01*
X172172315Y-75525881D01*
X172161315Y-75497881D01*
X172152315Y-75469881D01*
X172144315Y-75440881D01*
X172137315Y-75411881D01*
X172132315Y-75381881D01*
X172128315Y-75352881D01*
X172126315Y-75322881D01*
X172125315Y-75292881D01*
X172125315Y-74992881D01*
X172126315Y-74962881D01*
X172128315Y-74932881D01*
X172132315Y-74903881D01*
X172137315Y-74873881D01*
X172144315Y-74844881D01*
X172152315Y-74815881D01*
X172161315Y-74787881D01*
X172172315Y-74759881D01*
X172185315Y-74732881D01*
X172198315Y-74705881D01*
X172213315Y-74679881D01*
X172229315Y-74654881D01*
X172247315Y-74630881D01*
X172265315Y-74606881D01*
X172285315Y-74584881D01*
X172306315Y-74562881D01*
X172328315Y-74542881D01*
X172351315Y-74523881D01*
X172375315Y-74505881D01*
X172400315Y-74488881D01*
X172425315Y-74472881D01*
X172451315Y-74458881D01*
X172478315Y-74445881D01*
X172506315Y-74433881D01*
X172534315Y-74423881D01*
X172563315Y-74414881D01*
X172592315Y-74407881D01*
X172621315Y-74401881D01*
X172651315Y-74397881D01*
X172680315Y-74394881D01*
X172710315Y-74392881D01*
X172740315Y-74392881D01*
X172770315Y-74394881D01*
G37*
X172770315Y-79194881D02*
X172800315Y-79197881D01*
X172829315Y-79201881D01*
X172859315Y-79207881D01*
X172888315Y-79214881D01*
X172916315Y-79223881D01*
X172944315Y-79234881D01*
X172972315Y-79245881D01*
X172999315Y-79258881D01*
X173025315Y-79272881D01*
X173051315Y-79288881D01*
X173075315Y-79305881D01*
X173099315Y-79323881D01*
X173122315Y-79342881D01*
X173144315Y-79363881D01*
X173165315Y-79384881D01*
X173185315Y-79406881D01*
X173203315Y-79430881D01*
X173221315Y-79454881D01*
X173237315Y-79479881D01*
X173252315Y-79505881D01*
X173266315Y-79532881D01*
X173278315Y-79559881D01*
X173289315Y-79587881D01*
X173298315Y-79615881D01*
X173307315Y-79644881D01*
X173313315Y-79673881D01*
X173318315Y-79703881D01*
X173322315Y-79732881D01*
X173324315Y-79762881D01*
X173325315Y-79792881D01*
X173325315Y-80092881D01*
X173324315Y-80122881D01*
X173322315Y-80152881D01*
X173318315Y-80181881D01*
X173313315Y-80211881D01*
X173307315Y-80240881D01*
X173298315Y-80269881D01*
X173289315Y-80297881D01*
X173278315Y-80325881D01*
X173266315Y-80352881D01*
X173252315Y-80379881D01*
X173237315Y-80405881D01*
X173221315Y-80430881D01*
X173203315Y-80454881D01*
X173185315Y-80478881D01*
X173165315Y-80500881D01*
X173144315Y-80522881D01*
X173122315Y-80542881D01*
X173099315Y-80561881D01*
X173075315Y-80579881D01*
X173051315Y-80596881D01*
X173025315Y-80612881D01*
X172999315Y-80626881D01*
X172972315Y-80639881D01*
X172944315Y-80651881D01*
X172916315Y-80661881D01*
X172888315Y-80670881D01*
X172859315Y-80677881D01*
X172829315Y-80683881D01*
X172800315Y-80687881D01*
X172770315Y-80690881D01*
X172740315Y-80692881D01*
X172710315Y-80692881D01*
X172680315Y-80690881D01*
X172651315Y-80687881D01*
X172621315Y-80683881D01*
X172592315Y-80677881D01*
X172563315Y-80670881D01*
X172534315Y-80661881D01*
X172506315Y-80651881D01*
X172478315Y-80639881D01*
X172451315Y-80626881D01*
X172425315Y-80612881D01*
X172400315Y-80596881D01*
X172375315Y-80579881D01*
X172351315Y-80561881D01*
X172328315Y-80542881D01*
X172306315Y-80522881D01*
X172285315Y-80500881D01*
X172265315Y-80478881D01*
X172247315Y-80454881D01*
X172229315Y-80430881D01*
X172213315Y-80405881D01*
X172198315Y-80379881D01*
X172185315Y-80352881D01*
X172172315Y-80325881D01*
X172161315Y-80297881D01*
X172152315Y-80269881D01*
X172144315Y-80240881D01*
X172137315Y-80211881D01*
X172132315Y-80181881D01*
X172128315Y-80152881D01*
X172126315Y-80122881D01*
X172125315Y-80092881D01*
X172125315Y-79792881D01*
X172126315Y-79762881D01*
X172128315Y-79732881D01*
X172132315Y-79703881D01*
X172137315Y-79673881D01*
X172144315Y-79644881D01*
X172152315Y-79615881D01*
X172161315Y-79587881D01*
X172172315Y-79559881D01*
X172185315Y-79532881D01*
X172198315Y-79505881D01*
X172213315Y-79479881D01*
X172229315Y-79454881D01*
X172247315Y-79430881D01*
X172265315Y-79406881D01*
X172285315Y-79384881D01*
X172306315Y-79363881D01*
X172328315Y-79342881D01*
X172351315Y-79323881D01*
X172375315Y-79305881D01*
X172400315Y-79288881D01*
X172425315Y-79272881D01*
X172451315Y-79258881D01*
X172478315Y-79245881D01*
X172506315Y-79234881D01*
X172534315Y-79223881D01*
X172563315Y-79214881D01*
X172592315Y-79207881D01*
X172621315Y-79201881D01*
X172651315Y-79197881D01*
X172680315Y-79194881D01*
X172710315Y-79192881D01*
X172740315Y-79192881D01*
X172770315Y-79194881D01*
G36*
X172770315Y-79194881D02*
G01*
X172800315Y-79197881D01*
X172829315Y-79201881D01*
X172859315Y-79207881D01*
X172888315Y-79214881D01*
X172916315Y-79223881D01*
X172944315Y-79234881D01*
X172972315Y-79245881D01*
X172999315Y-79258881D01*
X173025315Y-79272881D01*
X173051315Y-79288881D01*
X173075315Y-79305881D01*
X173099315Y-79323881D01*
X173122315Y-79342881D01*
X173144315Y-79363881D01*
X173165315Y-79384881D01*
X173185315Y-79406881D01*
X173203315Y-79430881D01*
X173221315Y-79454881D01*
X173237315Y-79479881D01*
X173252315Y-79505881D01*
X173266315Y-79532881D01*
X173278315Y-79559881D01*
X173289315Y-79587881D01*
X173298315Y-79615881D01*
X173307315Y-79644881D01*
X173313315Y-79673881D01*
X173318315Y-79703881D01*
X173322315Y-79732881D01*
X173324315Y-79762881D01*
X173325315Y-79792881D01*
X173325315Y-80092881D01*
X173324315Y-80122881D01*
X173322315Y-80152881D01*
X173318315Y-80181881D01*
X173313315Y-80211881D01*
X173307315Y-80240881D01*
X173298315Y-80269881D01*
X173289315Y-80297881D01*
X173278315Y-80325881D01*
X173266315Y-80352881D01*
X173252315Y-80379881D01*
X173237315Y-80405881D01*
X173221315Y-80430881D01*
X173203315Y-80454881D01*
X173185315Y-80478881D01*
X173165315Y-80500881D01*
X173144315Y-80522881D01*
X173122315Y-80542881D01*
X173099315Y-80561881D01*
X173075315Y-80579881D01*
X173051315Y-80596881D01*
X173025315Y-80612881D01*
X172999315Y-80626881D01*
X172972315Y-80639881D01*
X172944315Y-80651881D01*
X172916315Y-80661881D01*
X172888315Y-80670881D01*
X172859315Y-80677881D01*
X172829315Y-80683881D01*
X172800315Y-80687881D01*
X172770315Y-80690881D01*
X172740315Y-80692881D01*
X172710315Y-80692881D01*
X172680315Y-80690881D01*
X172651315Y-80687881D01*
X172621315Y-80683881D01*
X172592315Y-80677881D01*
X172563315Y-80670881D01*
X172534315Y-80661881D01*
X172506315Y-80651881D01*
X172478315Y-80639881D01*
X172451315Y-80626881D01*
X172425315Y-80612881D01*
X172400315Y-80596881D01*
X172375315Y-80579881D01*
X172351315Y-80561881D01*
X172328315Y-80542881D01*
X172306315Y-80522881D01*
X172285315Y-80500881D01*
X172265315Y-80478881D01*
X172247315Y-80454881D01*
X172229315Y-80430881D01*
X172213315Y-80405881D01*
X172198315Y-80379881D01*
X172185315Y-80352881D01*
X172172315Y-80325881D01*
X172161315Y-80297881D01*
X172152315Y-80269881D01*
X172144315Y-80240881D01*
X172137315Y-80211881D01*
X172132315Y-80181881D01*
X172128315Y-80152881D01*
X172126315Y-80122881D01*
X172125315Y-80092881D01*
X172125315Y-79792881D01*
X172126315Y-79762881D01*
X172128315Y-79732881D01*
X172132315Y-79703881D01*
X172137315Y-79673881D01*
X172144315Y-79644881D01*
X172152315Y-79615881D01*
X172161315Y-79587881D01*
X172172315Y-79559881D01*
X172185315Y-79532881D01*
X172198315Y-79505881D01*
X172213315Y-79479881D01*
X172229315Y-79454881D01*
X172247315Y-79430881D01*
X172265315Y-79406881D01*
X172285315Y-79384881D01*
X172306315Y-79363881D01*
X172328315Y-79342881D01*
X172351315Y-79323881D01*
X172375315Y-79305881D01*
X172400315Y-79288881D01*
X172425315Y-79272881D01*
X172451315Y-79258881D01*
X172478315Y-79245881D01*
X172506315Y-79234881D01*
X172534315Y-79223881D01*
X172563315Y-79214881D01*
X172592315Y-79207881D01*
X172621315Y-79201881D01*
X172651315Y-79197881D01*
X172680315Y-79194881D01*
X172710315Y-79192881D01*
X172740315Y-79192881D01*
X172770315Y-79194881D01*
G37*
%TD*%
D11*
%TO.C,C20*%
X147400000Y-96945000D03*
X147400000Y-96255000D03*
%TD*%
D12*
%TO.C,R38*%
X153600000Y-75510000D03*
X153600000Y-74490000D03*
%TD*%
D13*
%TO.C,R4*%
X166490000Y-78425000D03*
X167510000Y-78425000D03*
%TD*%
D14*
%TO.C,C12*%
X144530000Y-100925000D03*
X143570000Y-100925000D03*
%TD*%
D15*
%TO.C,R19*%
X146200000Y-96290000D03*
X146200000Y-97310000D03*
%TD*%
D16*
%TO.C,C31*%
X159353757Y-70968755D03*
X159353757Y-71928755D03*
%TD*%
D15*
%TO.C,Rmode1*%
X130825000Y-111630000D03*
X130825000Y-112650000D03*
%TD*%
D17*
%TO.C,U4*%
X115198500Y-109023000D03*
X115848500Y-109023000D03*
X116498500Y-109023000D03*
X117148500Y-109023000D03*
X117798500Y-109023000D03*
X118448500Y-109023000D03*
X119098500Y-109023000D03*
X119748500Y-109023000D03*
X119748500Y-103277000D03*
X119098500Y-103277000D03*
X118448500Y-103277000D03*
X117798500Y-103277000D03*
X117148500Y-103277000D03*
X116498500Y-103277000D03*
X115848500Y-103277000D03*
X115198500Y-103277000D03*
D18*
X117473500Y-106150000D03*
%TD*%
D19*
%TO.C,J15*%
X170150000Y-102432000D03*
X170150000Y-103432000D03*
X170150000Y-104432000D03*
X170150000Y-105432000D03*
D20*
X172675000Y-101132000D03*
X172675000Y-106732000D03*
%TD*%
D14*
%TO.C,C30*%
X152680000Y-70100000D03*
X151720000Y-70100000D03*
%TD*%
D13*
%TO.C,R5*%
X170490000Y-72100000D03*
X171510000Y-72100000D03*
%TD*%
%TO.C,R10*%
X127765000Y-110675000D03*
X128785000Y-110675000D03*
%TD*%
D12*
%TO.C,R2*%
X114250000Y-104010000D03*
X114250000Y-102990000D03*
%TD*%
D21*
%TO.C,J2*%
X166400000Y-83850000D03*
X166400000Y-90150000D03*
X162600000Y-83850000D03*
X162600000Y-90150000D03*
%TD*%
D22*
%TO.C,C22*%
X147939411Y-90339411D03*
X147260589Y-89660589D03*
%TD*%
D13*
%TO.C,R14*%
X140765000Y-110675000D03*
X141785000Y-110675000D03*
%TD*%
D12*
%TO.C,R50*%
X155071957Y-70344954D03*
X155071957Y-69324954D03*
%TD*%
D15*
%TO.C,R11*%
X127750000Y-100890000D03*
X127750000Y-101910000D03*
%TD*%
D12*
%TO.C,Rp4*%
X158500000Y-108710000D03*
X158500000Y-107690000D03*
%TD*%
D23*
%TO.C,J18*%
X150500000Y-112225000D03*
X149500000Y-112225000D03*
X148500000Y-112225000D03*
X147500000Y-112225000D03*
X146500000Y-112225000D03*
D24*
X151800000Y-114750000D03*
X145200000Y-114750000D03*
%TD*%
D25*
%TO.C,C32*%
X150500000Y-71375000D03*
X150500000Y-69825000D03*
%TD*%
D26*
%TO.C,C10*%
X121979085Y-102242470D03*
X124929085Y-102242470D03*
%TD*%
D14*
%TO.C,C4*%
X131530000Y-100900000D03*
X130570000Y-100900000D03*
%TD*%
D27*
%TO.C,U2*%
X165397000Y-78037500D03*
D28*
X165472000Y-77500000D03*
D27*
X165397000Y-76962500D03*
X163697000Y-76962500D03*
D28*
X163622000Y-77500000D03*
D27*
X163697000Y-78037500D03*
%TD*%
D13*
%TO.C,R6*%
X161367000Y-78279000D03*
X162387000Y-78279000D03*
%TD*%
D29*
%TO.C,U11*%
X156331000Y-72242000D03*
X156831000Y-72242000D03*
X157331000Y-72242000D03*
X157831000Y-72242000D03*
D30*
X158223000Y-71350000D03*
X158223000Y-70850000D03*
X158223000Y-70350000D03*
D29*
X157831000Y-69458000D03*
X157331000Y-69458000D03*
X156831000Y-69458000D03*
X156331000Y-69458000D03*
D30*
X155939000Y-70350000D03*
X155939000Y-70850000D03*
X155939000Y-71350000D03*
%TD*%
D31*
%TO.C,C28*%
X157320000Y-95550000D03*
X158280000Y-95550000D03*
%TD*%
D32*
%TO.C,D1*%
X112937500Y-105760000D03*
X111062500Y-105760000D03*
%TD*%
D15*
%TO.C,Rp2*%
X116825000Y-111615000D03*
X116825000Y-112635000D03*
%TD*%
D19*
%TO.C,J13*%
X170150000Y-94050000D03*
X170150000Y-95050000D03*
X170150000Y-96050000D03*
X170150000Y-97050000D03*
D20*
X172675000Y-92750000D03*
X172675000Y-98350000D03*
%TD*%
D33*
%TO.C,R25*%
X144210000Y-96400000D03*
X143190000Y-96400000D03*
%TD*%
D26*
%TO.C,C29*%
X160775000Y-93100000D03*
X163725000Y-93100000D03*
%TD*%
D34*
%TO.C,C19*%
X138250000Y-92750000D03*
X138250000Y-90850000D03*
%TD*%
D31*
%TO.C,C27*%
X160981164Y-95551743D03*
X161941164Y-95551743D03*
%TD*%
%TO.C,C11*%
X143560196Y-101845085D03*
X144520196Y-101845085D03*
%TD*%
D35*
%TO.C,C17*%
X142225000Y-95100000D03*
X143775000Y-95100000D03*
%TD*%
D31*
%TO.C,C7*%
X117620000Y-101850000D03*
X118580000Y-101850000D03*
%TD*%
D15*
%TO.C,Rmode3*%
X143825000Y-111615001D03*
X143825000Y-112634999D03*
%TD*%
D13*
%TO.C,R17*%
X148390000Y-93576500D03*
X149410000Y-93576500D03*
%TD*%
D36*
%TO.C,C16*%
X135000000Y-94950000D03*
X127000000Y-94950000D03*
%TD*%
D15*
%TO.C,R15*%
X140750000Y-100890000D03*
X140750000Y-101910000D03*
%TD*%
D13*
%TO.C,R7*%
X161356000Y-77093000D03*
X162376000Y-77093000D03*
%TD*%
D34*
%TO.C,C2*%
X142250000Y-92750000D03*
X142250000Y-90850000D03*
%TD*%
D37*
%TO.C,L1*%
X152500000Y-90620000D03*
X152500000Y-86580000D03*
%TD*%
D12*
%TO.C,R1*%
X114250000Y-106010000D03*
X114250000Y-104990000D03*
%TD*%
D38*
%TO.C,C25*%
X138600000Y-84625000D03*
X138600000Y-86175000D03*
%TD*%
D39*
%TO.C,U8*%
X146950000Y-85100000D03*
X146950000Y-82800000D03*
D40*
X140650000Y-82800000D03*
D39*
X146950000Y-80500000D03*
%TD*%
D41*
%TO.C,J1*%
X169710315Y-80292881D03*
X169710315Y-78792881D03*
X169710315Y-78292881D03*
X169710315Y-77792881D03*
X169710315Y-77292881D03*
X169710315Y-76792881D03*
X169710315Y-76292881D03*
X169710315Y-74792881D03*
X171440315Y-74792881D03*
X171440315Y-76292881D03*
X171440315Y-76792881D03*
X171440315Y-77292881D03*
X171440315Y-77792881D03*
X171440315Y-78292881D03*
X171440315Y-78792881D03*
X171440315Y-80292881D03*
%TD*%
D15*
%TO.C,Rp3*%
X142850000Y-111615000D03*
X142850000Y-112635000D03*
%TD*%
D42*
%TO.C,C23*%
X152175000Y-82800000D03*
X149225000Y-82800000D03*
%TD*%
D15*
%TO.C,R36*%
X156400000Y-104290000D03*
X156400000Y-105310000D03*
%TD*%
D26*
%TO.C,C6*%
X134979085Y-102242470D03*
X137929085Y-102242470D03*
%TD*%
D12*
%TO.C,R3*%
X114261000Y-108599001D03*
X114261000Y-107579001D03*
%TD*%
D13*
%TO.C,R33*%
X160190000Y-110700000D03*
X161210000Y-110700000D03*
%TD*%
D21*
%TO.C,J3*%
X172600000Y-83850000D03*
X172600000Y-90150000D03*
X168800000Y-83850000D03*
X168800000Y-90150000D03*
%TD*%
D31*
%TO.C,C3*%
X130570000Y-101850000D03*
X131530000Y-101850000D03*
%TD*%
D23*
%TO.C,J16*%
X137500000Y-112225000D03*
X136500000Y-112225000D03*
X135500000Y-112225000D03*
X134500000Y-112225000D03*
X133500000Y-112225000D03*
D24*
X138800000Y-114750000D03*
X132200000Y-114750000D03*
%TD*%
D13*
%TO.C,R32*%
X162190000Y-110700000D03*
X163210000Y-110700000D03*
%TD*%
D43*
%TO.C,U1*%
X117500000Y-88406000D03*
X118770000Y-88406000D03*
X120040000Y-88406000D03*
X121310000Y-88406000D03*
X122580000Y-88406000D03*
X123850000Y-88406000D03*
X125120000Y-88406000D03*
X126390000Y-88406000D03*
X127660000Y-88406000D03*
X128930000Y-88406000D03*
X130200000Y-88406000D03*
X131470000Y-88406000D03*
X132740000Y-88406000D03*
X134010000Y-88406000D03*
D44*
X135260000Y-86641000D03*
X135260000Y-85371000D03*
X135260000Y-84101000D03*
X135260000Y-82831000D03*
X135260000Y-81561000D03*
X135260000Y-80291000D03*
X135260000Y-79021000D03*
X135260000Y-77751000D03*
X135260000Y-76481000D03*
X135260000Y-75211000D03*
X135260000Y-73941000D03*
X135260000Y-72671000D03*
D43*
X134010000Y-70906000D03*
X132740000Y-70906000D03*
X131470000Y-70906000D03*
X130200000Y-70906000D03*
X128930000Y-70906000D03*
X127660000Y-70906000D03*
X126390000Y-70906000D03*
X125120000Y-70906000D03*
X123850000Y-70906000D03*
X122580000Y-70906000D03*
X121310000Y-70906000D03*
X120040000Y-70906000D03*
X118770000Y-70906000D03*
X117500000Y-70906000D03*
D45*
X123820000Y-82556000D03*
X125220000Y-82556000D03*
X126620000Y-82556000D03*
X123820000Y-81156000D03*
X125220000Y-81156000D03*
X126620000Y-81156000D03*
X123820000Y-79756000D03*
X125220000Y-79756000D03*
X126620000Y-79756000D03*
%TD*%
D14*
%TO.C,C8*%
X118580000Y-100850000D03*
X117620000Y-100850000D03*
%TD*%
D32*
%TO.C,D3*%
X112937500Y-108000000D03*
X111062500Y-108000000D03*
%TD*%
D13*
%TO.C,R12*%
X115990000Y-110600000D03*
X117010000Y-110600000D03*
%TD*%
D31*
%TO.C,C26*%
X159157174Y-95547390D03*
X160117174Y-95547390D03*
%TD*%
D15*
%TO.C,Rmode2*%
X117825000Y-111615000D03*
X117825000Y-112635000D03*
%TD*%
D32*
%TO.C,D2*%
X112937500Y-103500000D03*
X111062500Y-103500000D03*
%TD*%
D12*
%TO.C,R24*%
X145200000Y-97309999D03*
X145200000Y-96290001D03*
%TD*%
D17*
%TO.C,U9*%
X156898500Y-102898000D03*
X157548500Y-102898000D03*
X158198500Y-102898000D03*
X158848500Y-102898000D03*
X159498500Y-102898000D03*
X160148500Y-102898000D03*
X160798500Y-102898000D03*
X161448500Y-102898000D03*
X161448500Y-97152000D03*
X160798500Y-97152000D03*
X160148500Y-97152000D03*
X159498500Y-97152000D03*
X158848500Y-97152000D03*
X158198500Y-97152000D03*
X157548500Y-97152000D03*
X156898500Y-97152000D03*
D18*
X159173500Y-100025000D03*
%TD*%
D13*
%TO.C,R49*%
X156352500Y-73567500D03*
X157372500Y-73567500D03*
%TD*%
%TO.C,R30*%
X166790000Y-100150000D03*
X167810000Y-100150000D03*
%TD*%
D25*
%TO.C,C24*%
X149100000Y-80475000D03*
X149100000Y-78925000D03*
%TD*%
D15*
%TO.C,Rp1*%
X129825000Y-111630000D03*
X129825000Y-112650000D03*
%TD*%
D17*
%TO.C,U3*%
X128198500Y-109023000D03*
X128848500Y-109023000D03*
X129498500Y-109023000D03*
X130148500Y-109023000D03*
X130798500Y-109023000D03*
X131448500Y-109023000D03*
X132098500Y-109023000D03*
X132748500Y-109023000D03*
X132748500Y-103277000D03*
X132098500Y-103277000D03*
X131448500Y-103277000D03*
X130798500Y-103277000D03*
X130148500Y-103277000D03*
X129498500Y-103277000D03*
X128848500Y-103277000D03*
X128198500Y-103277000D03*
D18*
X130473500Y-106150000D03*
%TD*%
D23*
%TO.C,J14*%
X124500000Y-112225000D03*
X123500000Y-112225000D03*
X122500000Y-112225000D03*
X121500000Y-112225000D03*
X120500000Y-112225000D03*
D24*
X125800000Y-114750000D03*
X119200000Y-114750000D03*
%TD*%
D46*
%TO.C,U6*%
X144795000Y-90675000D03*
D47*
X143875000Y-91400000D03*
X143875000Y-91900000D03*
X143875000Y-92400000D03*
X143875000Y-92900000D03*
X143875000Y-93400000D03*
D46*
X144795000Y-94125000D03*
X146405000Y-94125000D03*
D47*
X147325000Y-93400000D03*
X147325000Y-92900000D03*
X147325000Y-92400000D03*
X147325000Y-91900000D03*
X147325000Y-91400000D03*
D48*
X146350000Y-90675000D03*
D49*
X145600000Y-92400000D03*
%TD*%
D33*
%TO.C,R31*%
X166835000Y-99000000D03*
X165815000Y-99000000D03*
%TD*%
D50*
%TO.C,J4*%
X118114890Y-61472132D03*
X118114890Y-66512132D03*
X120654890Y-61472132D03*
X120654890Y-66512132D03*
X123194890Y-61472132D03*
X123194890Y-66512132D03*
X125734890Y-61472132D03*
X125734890Y-66512132D03*
X128274890Y-61472132D03*
X128274890Y-66512132D03*
X130814890Y-61472132D03*
X130814890Y-66512132D03*
X133354890Y-61472132D03*
X133354890Y-66512132D03*
X135894890Y-61472132D03*
X135894890Y-66512132D03*
X138434890Y-61472132D03*
X138434890Y-66512132D03*
X140974890Y-61472132D03*
X140974890Y-66512132D03*
X143514890Y-61472132D03*
X143514890Y-66512132D03*
X146054890Y-61472132D03*
X146054890Y-66512132D03*
X148594890Y-61472132D03*
X148594890Y-66512132D03*
X151134890Y-61472132D03*
X151134890Y-66512132D03*
X153674890Y-61472132D03*
X153674890Y-66512132D03*
X156214890Y-61472132D03*
X156214890Y-66512132D03*
X158754890Y-61472132D03*
X158754890Y-66512132D03*
X161294890Y-61472132D03*
X161294890Y-66512132D03*
X163834890Y-61472132D03*
X163834890Y-66512132D03*
X166374890Y-61472132D03*
X166374890Y-66512132D03*
%TD*%
D34*
%TO.C,C15*%
X140250000Y-92750000D03*
X140250000Y-90850000D03*
%TD*%
D15*
%TO.C,Rmode4*%
X158450000Y-105315000D03*
X158450000Y-106335000D03*
%TD*%
D31*
%TO.C,C13*%
X141720000Y-101850000D03*
X142680000Y-101850000D03*
%TD*%
%TO.C,C5*%
X128720000Y-101850000D03*
X129680000Y-101850000D03*
%TD*%
D33*
%TO.C,R16*%
X149410000Y-94576500D03*
X148390000Y-94576500D03*
%TD*%
D31*
%TO.C,C9*%
X115740000Y-101850000D03*
X116700000Y-101850000D03*
%TD*%
D17*
%TO.C,U5*%
X141198500Y-109023000D03*
X141848500Y-109023000D03*
X142498500Y-109023000D03*
X143148500Y-109023000D03*
X143798500Y-109023000D03*
X144448500Y-109023000D03*
X145098500Y-109023000D03*
X145748500Y-109023000D03*
X145748500Y-103277000D03*
X145098500Y-103277000D03*
X144448500Y-103277000D03*
X143798500Y-103277000D03*
X143148500Y-103277000D03*
X142498500Y-103277000D03*
X141848500Y-103277000D03*
X141198500Y-103277000D03*
D18*
X143473500Y-106150000D03*
%TD*%
D33*
%TO.C,R8*%
X166410000Y-91875000D03*
X165390000Y-91875000D03*
%TD*%
D15*
%TO.C,R37*%
X156200000Y-95590000D03*
X156200000Y-96610000D03*
%TD*%
D26*
%TO.C,C14*%
X147979085Y-102242470D03*
X150929085Y-102242470D03*
%TD*%
D11*
%TO.C,C1*%
X148500000Y-96965000D03*
X148500000Y-96275000D03*
%TD*%
D33*
%TO.C,R46*%
X151910000Y-73500000D03*
X150890000Y-73500000D03*
%TD*%
D12*
%TO.C,R18*%
X143800000Y-90059999D03*
X143800000Y-89040001D03*
%TD*%
D51*
%TO.C,U10*%
X153091957Y-70912954D03*
X152591957Y-70912954D03*
X152091957Y-70912954D03*
X151591957Y-70912954D03*
D52*
X151466957Y-71537954D03*
X151466957Y-72037954D03*
D51*
X151591957Y-72662954D03*
X152091957Y-72662954D03*
X152591957Y-72662954D03*
X153091957Y-72662954D03*
D52*
X153216957Y-72037954D03*
X153216957Y-71537954D03*
%TD*%
D13*
%TO.C,R9*%
X167365000Y-91875000D03*
X168385000Y-91875000D03*
%TD*%
D23*
%TO.C,J20*%
X163500000Y-112225000D03*
X162500000Y-112225000D03*
X161500000Y-112225000D03*
X160500000Y-112225000D03*
X159500000Y-112225000D03*
D24*
X164800000Y-114750000D03*
X158200000Y-114750000D03*
%TD*%
D15*
%TO.C,R39*%
X149700000Y-73590000D03*
X149700000Y-74610000D03*
%TD*%
D53*
%TO.C,C18*%
X147400000Y-94631500D03*
X147400000Y-95321500D03*
%TD*%
D15*
%TO.C,R13*%
X114750000Y-100890000D03*
X114750000Y-101910000D03*
%TD*%
M02*
