%TF.GenerationSoftware,KiCad,Pcbnew,8.0.6*%
%TF.CreationDate,2024-10-16T15:49:25-04:00*%
%TF.ProjectId,motorgo_plink,6d6f746f-7267-46f5-9f70-6c696e6b2e6b,rev?*%
%TF.SameCoordinates,Original*%
%TF.FileFunction,Legend,Bot*%
%TF.FilePolarity,Positive*%
%FSLAX46Y46*%
G04 Gerber Fmt 4.6, Leading zero omitted, Abs format (unit mm)*
G04 Created by KiCad (PCBNEW 8.0.6) date 2024-10-16 15:49:25*
%MOMM*%
%LPD*%
G01*
G04 APERTURE LIST*
G04 Aperture macros list*
%AMRoundRect*
0 Rectangle with rounded corners*
0 $1 Rounding radius*
0 $2 $3 $4 $5 $6 $7 $8 $9 X,Y pos of 4 corners*
0 Add a 4 corners polygon primitive as box body*
4,1,4,$2,$3,$4,$5,$6,$7,$8,$9,$2,$3,0*
0 Add four circle primitives for the rounded corners*
1,1,$1+$1,$2,$3*
1,1,$1+$1,$4,$5*
1,1,$1+$1,$6,$7*
1,1,$1+$1,$8,$9*
0 Add four rect primitives between the rounded corners*
20,1,$1+$1,$2,$3,$4,$5,0*
20,1,$1+$1,$4,$5,$6,$7,0*
20,1,$1+$1,$6,$7,$8,$9,0*
20,1,$1+$1,$8,$9,$2,$3,0*%
G04 Aperture macros list end*
%ADD10C,0.026664*%
%ADD11C,0.150000*%
%ADD12C,0.000000*%
%ADD13C,0.250000*%
%ADD14C,0.475101*%
%ADD15C,0.133323*%
%ADD16C,0.120000*%
%ADD17C,0.610000*%
%ADD18RoundRect,0.250000X-0.845000X0.620000X-0.845000X-0.620000X0.845000X-0.620000X0.845000X0.620000X0*%
%ADD19O,2.190000X1.740000*%
%ADD20C,0.600000*%
%ADD21O,1.200000X1.500000*%
%ADD22O,1.800000X4.200000*%
%ADD23O,4.200000X1.800000*%
%ADD24R,1.000000X3.000000*%
G04 APERTURE END LIST*
D10*
X136610892Y-95959171D02*
X136618182Y-95959945D01*
X136625341Y-95961115D01*
X136632358Y-95962671D01*
X136639218Y-95964601D01*
X136645907Y-95966896D01*
X136652414Y-95969545D01*
X136658723Y-95972537D01*
X136664822Y-95975863D01*
X136670697Y-95979512D01*
X136676335Y-95983473D01*
X136681722Y-95987736D01*
X136686845Y-95992290D01*
X136691691Y-95997126D01*
X136696247Y-96002232D01*
X136700498Y-96007599D01*
X136704432Y-96013215D01*
X136708034Y-96019070D01*
X136711293Y-96025155D01*
X136714193Y-96031457D01*
X136716723Y-96037968D01*
X136718867Y-96044677D01*
X136720614Y-96051572D01*
X136721950Y-96058644D01*
X136722861Y-96065883D01*
X136723333Y-96073277D01*
X136723355Y-96080817D01*
X136722911Y-96088492D01*
X136721989Y-96096291D01*
X136720694Y-96103620D01*
X136719067Y-96110458D01*
X136717132Y-96116835D01*
X136714912Y-96122783D01*
X136712429Y-96128334D01*
X136709708Y-96133520D01*
X136706772Y-96138371D01*
X136703643Y-96142918D01*
X136700345Y-96147195D01*
X136696902Y-96151231D01*
X136693336Y-96155059D01*
X136689671Y-96158709D01*
X136682135Y-96165604D01*
X136674483Y-96172167D01*
X136666898Y-96178651D01*
X136659568Y-96185306D01*
X136656056Y-96188776D01*
X136652677Y-96192384D01*
X136649456Y-96196160D01*
X136646414Y-96200136D01*
X136643575Y-96204344D01*
X136640962Y-96208815D01*
X136638599Y-96213580D01*
X136636509Y-96218671D01*
X136634715Y-96224120D01*
X136633240Y-96229957D01*
X136632108Y-96236214D01*
X136631342Y-96242923D01*
X136631017Y-96250869D01*
X136631370Y-96258340D01*
X136632354Y-96265372D01*
X136633920Y-96272003D01*
X136636022Y-96278268D01*
X136638612Y-96284204D01*
X136641643Y-96289848D01*
X136645067Y-96295237D01*
X136648837Y-96300406D01*
X136652906Y-96305393D01*
X136661749Y-96314966D01*
X136680932Y-96333530D01*
X136690513Y-96343107D01*
X136695135Y-96348097D01*
X136699582Y-96353270D01*
X136703805Y-96358663D01*
X136707758Y-96364313D01*
X136711394Y-96370255D01*
X136714664Y-96376526D01*
X136717521Y-96383164D01*
X136719919Y-96390204D01*
X136721809Y-96397684D01*
X136723144Y-96405639D01*
X136723877Y-96414107D01*
X136723961Y-96423123D01*
X136723347Y-96432725D01*
X136721989Y-96442948D01*
X136720547Y-96450397D01*
X136718779Y-96457355D01*
X136716707Y-96463853D01*
X136714356Y-96469923D01*
X136711749Y-96475596D01*
X136708910Y-96480902D01*
X136705863Y-96485873D01*
X136702631Y-96490540D01*
X136699238Y-96494935D01*
X136695708Y-96499087D01*
X136692064Y-96503029D01*
X136688331Y-96506792D01*
X136680690Y-96513903D01*
X136672974Y-96520670D01*
X136665374Y-96527341D01*
X136658079Y-96534166D01*
X136654605Y-96537713D01*
X136651279Y-96541393D01*
X136648124Y-96545235D01*
X136645163Y-96549271D01*
X136642422Y-96553533D01*
X136639922Y-96558050D01*
X136637689Y-96562855D01*
X136635745Y-96567979D01*
X136634115Y-96573452D01*
X136632822Y-96579305D01*
X136631890Y-96585571D01*
X136631342Y-96592279D01*
X136631271Y-96600111D01*
X136631841Y-96607469D01*
X136633007Y-96614388D01*
X136634723Y-96620905D01*
X136636944Y-96627056D01*
X136639624Y-96632878D01*
X136642719Y-96638405D01*
X136646183Y-96643675D01*
X136649970Y-96648724D01*
X136654035Y-96653588D01*
X136662819Y-96662905D01*
X136681726Y-96680908D01*
X136691123Y-96690173D01*
X136695650Y-96694999D01*
X136700000Y-96700000D01*
X136704130Y-96705215D01*
X136707993Y-96710678D01*
X136711544Y-96716427D01*
X136714738Y-96722496D01*
X136717530Y-96728924D01*
X136719873Y-96735744D01*
X136721724Y-96742995D01*
X136723036Y-96750711D01*
X136723763Y-96758930D01*
X136723862Y-96767687D01*
X136723285Y-96777018D01*
X136721989Y-96786960D01*
X136721124Y-96791689D01*
X136720079Y-96796348D01*
X136718859Y-96800935D01*
X136717466Y-96805445D01*
X136715905Y-96809874D01*
X136714178Y-96814219D01*
X136712291Y-96818476D01*
X136710245Y-96822642D01*
X136705696Y-96830684D01*
X136700560Y-96838317D01*
X136694867Y-96845509D01*
X136688644Y-96852232D01*
X136681923Y-96858457D01*
X136674732Y-96864154D01*
X136667100Y-96869293D01*
X136659057Y-96873846D01*
X136654890Y-96875892D01*
X136650631Y-96877781D01*
X136646284Y-96879509D01*
X136641852Y-96881072D01*
X136637339Y-96882465D01*
X136632749Y-96883686D01*
X136628086Y-96884731D01*
X136623352Y-96885596D01*
X136608383Y-96886168D01*
X136582206Y-96885128D01*
X136502176Y-96879048D01*
X136273030Y-96856783D01*
X136139462Y-96843245D01*
X136031046Y-96832256D01*
X135934967Y-96823349D01*
X135876799Y-96819300D01*
X135871353Y-96818921D01*
X135854043Y-96816813D01*
X135836940Y-96813934D01*
X135820064Y-96810303D01*
X135803433Y-96805939D01*
X135787067Y-96800860D01*
X135770984Y-96795084D01*
X135755202Y-96788631D01*
X135739742Y-96781519D01*
X135724621Y-96773767D01*
X135709859Y-96765393D01*
X135695475Y-96756416D01*
X135681487Y-96746855D01*
X135667914Y-96736728D01*
X135654775Y-96726054D01*
X135642089Y-96714852D01*
X135629875Y-96703140D01*
X135618151Y-96690936D01*
X135606937Y-96678261D01*
X135596252Y-96665131D01*
X135586113Y-96651566D01*
X135576541Y-96637585D01*
X135567554Y-96623205D01*
X135559171Y-96608447D01*
X135551410Y-96593328D01*
X135544291Y-96577866D01*
X135540382Y-96568314D01*
X135801253Y-96568314D01*
X135802032Y-96577621D01*
X135804060Y-96588849D01*
X135807137Y-96599014D01*
X135811180Y-96608138D01*
X135816101Y-96616243D01*
X135821815Y-96623353D01*
X135828236Y-96629489D01*
X135835278Y-96634675D01*
X135842855Y-96638934D01*
X135850882Y-96642287D01*
X135859272Y-96644757D01*
X135867940Y-96646368D01*
X135876799Y-96647141D01*
X135885764Y-96647099D01*
X135894749Y-96646265D01*
X135903669Y-96644662D01*
X135912436Y-96642312D01*
X135920966Y-96639237D01*
X135929173Y-96635461D01*
X135936970Y-96631006D01*
X135944271Y-96625894D01*
X135950992Y-96620149D01*
X135957045Y-96613792D01*
X135962346Y-96606847D01*
X135966807Y-96599335D01*
X135970344Y-96591281D01*
X135972871Y-96582705D01*
X135974301Y-96573632D01*
X135974549Y-96564082D01*
X135973528Y-96554080D01*
X135971154Y-96543648D01*
X135967340Y-96532808D01*
X135961999Y-96521583D01*
X135957747Y-96514458D01*
X135953026Y-96507991D01*
X135947878Y-96502174D01*
X135942344Y-96496997D01*
X135936468Y-96492453D01*
X135930291Y-96488532D01*
X135923855Y-96485226D01*
X135917203Y-96482528D01*
X135910376Y-96480427D01*
X135903417Y-96478916D01*
X135896368Y-96477986D01*
X135889270Y-96477629D01*
X135882166Y-96477836D01*
X135876622Y-96478434D01*
X135875098Y-96478598D01*
X135868109Y-96479908D01*
X135861239Y-96481756D01*
X135854532Y-96484134D01*
X135848030Y-96487034D01*
X135841774Y-96490447D01*
X135835806Y-96494364D01*
X135830169Y-96498777D01*
X135824905Y-96503678D01*
X135820056Y-96509058D01*
X135815664Y-96514908D01*
X135811771Y-96521220D01*
X135808420Y-96527985D01*
X135805651Y-96535195D01*
X135803508Y-96542842D01*
X135802033Y-96550916D01*
X135801267Y-96559410D01*
X135801253Y-96568314D01*
X135540382Y-96568314D01*
X135537832Y-96562082D01*
X135532053Y-96545993D01*
X135526972Y-96529617D01*
X135522608Y-96512974D01*
X135518980Y-96496083D01*
X135516107Y-96478961D01*
X135514007Y-96461628D01*
X135512551Y-96441361D01*
X135512161Y-96422053D01*
X136027495Y-96422053D01*
X136027575Y-96431633D01*
X136028674Y-96441626D01*
X136029021Y-96443458D01*
X136029472Y-96445321D01*
X136030023Y-96447210D01*
X136030670Y-96449123D01*
X136032233Y-96453000D01*
X136034127Y-96456923D01*
X136036318Y-96460861D01*
X136038770Y-96464781D01*
X136041448Y-96468655D01*
X136044318Y-96472449D01*
X136047345Y-96476135D01*
X136050494Y-96479681D01*
X136053730Y-96483056D01*
X136057019Y-96486229D01*
X136060325Y-96489170D01*
X136063614Y-96491847D01*
X136066852Y-96494230D01*
X136070002Y-96496288D01*
X136079452Y-96501515D01*
X136089143Y-96505881D01*
X136099026Y-96509414D01*
X136109050Y-96512142D01*
X136119164Y-96514091D01*
X136129318Y-96515290D01*
X136139462Y-96515765D01*
X136149545Y-96515544D01*
X136159517Y-96514653D01*
X136169326Y-96513120D01*
X136178924Y-96510974D01*
X136188258Y-96508239D01*
X136197280Y-96504945D01*
X136205937Y-96501118D01*
X136214181Y-96496786D01*
X136221959Y-96491976D01*
X136229223Y-96486715D01*
X136235921Y-96481030D01*
X136242002Y-96474949D01*
X136247417Y-96468499D01*
X136252115Y-96461707D01*
X136256046Y-96454601D01*
X136259159Y-96447208D01*
X136261403Y-96439555D01*
X136262728Y-96431670D01*
X136263084Y-96423579D01*
X136262420Y-96415310D01*
X136260685Y-96406891D01*
X136257830Y-96398348D01*
X136253803Y-96389709D01*
X136248555Y-96381001D01*
X136242034Y-96372252D01*
X136235642Y-96365149D01*
X136228713Y-96358738D01*
X136221299Y-96353009D01*
X136213452Y-96347953D01*
X136205225Y-96343560D01*
X136196668Y-96339821D01*
X136187834Y-96336727D01*
X136178775Y-96334268D01*
X136169543Y-96332436D01*
X136160188Y-96331220D01*
X136150765Y-96330612D01*
X136141323Y-96330601D01*
X136131916Y-96331180D01*
X136122595Y-96332338D01*
X136113412Y-96334066D01*
X136104418Y-96336354D01*
X136095666Y-96339195D01*
X136087208Y-96342577D01*
X136079095Y-96346492D01*
X136071380Y-96350931D01*
X136064114Y-96355883D01*
X136057349Y-96361341D01*
X136051136Y-96367294D01*
X136045529Y-96373733D01*
X136040579Y-96380648D01*
X136036337Y-96388032D01*
X136032856Y-96395873D01*
X136030187Y-96404163D01*
X136028383Y-96412893D01*
X136027495Y-96422053D01*
X135512161Y-96422053D01*
X135512145Y-96421248D01*
X135512767Y-96401316D01*
X135514392Y-96381594D01*
X135516997Y-96362109D01*
X135520559Y-96342888D01*
X135525052Y-96323960D01*
X135530455Y-96305353D01*
X135536338Y-96288270D01*
X135801239Y-96288270D01*
X135802032Y-96297586D01*
X135804067Y-96308821D01*
X135807146Y-96318987D01*
X135811184Y-96328107D01*
X135816096Y-96336204D01*
X135821798Y-96343301D01*
X135828202Y-96349421D01*
X135835225Y-96354588D01*
X135842781Y-96358825D01*
X135850783Y-96362155D01*
X135859148Y-96364600D01*
X135867790Y-96366185D01*
X135876622Y-96366932D01*
X135885561Y-96366864D01*
X135894520Y-96366005D01*
X135903414Y-96364378D01*
X135912159Y-96362006D01*
X135920667Y-96358911D01*
X135928855Y-96355118D01*
X135936637Y-96350650D01*
X135943927Y-96345528D01*
X135950640Y-96339777D01*
X135956691Y-96333420D01*
X135961995Y-96326480D01*
X135966465Y-96318980D01*
X135970017Y-96310944D01*
X135972566Y-96302393D01*
X135974025Y-96293352D01*
X135974310Y-96283844D01*
X135973335Y-96273892D01*
X135971016Y-96263518D01*
X135967265Y-96252747D01*
X135961999Y-96241601D01*
X135957765Y-96234471D01*
X135953059Y-96227999D01*
X135947923Y-96222176D01*
X135942399Y-96216993D01*
X135936529Y-96212443D01*
X135930356Y-96208516D01*
X135923922Y-96205205D01*
X135917270Y-96202500D01*
X135910441Y-96200394D01*
X135903479Y-96198877D01*
X135896425Y-96197942D01*
X135889321Y-96197579D01*
X135882210Y-96197781D01*
X135875135Y-96198539D01*
X135868137Y-96199844D01*
X135861259Y-96201688D01*
X135854544Y-96204063D01*
X135848032Y-96206960D01*
X135841768Y-96210370D01*
X135835792Y-96214285D01*
X135830148Y-96218697D01*
X135824878Y-96223598D01*
X135820023Y-96228978D01*
X135815627Y-96234829D01*
X135811731Y-96241143D01*
X135808379Y-96247911D01*
X135805611Y-96255125D01*
X135803471Y-96262776D01*
X135802001Y-96270857D01*
X135801243Y-96279358D01*
X135801239Y-96288270D01*
X135536338Y-96288270D01*
X135536743Y-96287093D01*
X135543893Y-96269209D01*
X135551880Y-96251729D01*
X135560682Y-96234679D01*
X135570275Y-96218089D01*
X135580635Y-96201985D01*
X135591738Y-96186395D01*
X135603562Y-96171347D01*
X135616081Y-96156869D01*
X135629274Y-96142989D01*
X135643115Y-96129733D01*
X135657581Y-96117131D01*
X135672649Y-96105209D01*
X135688296Y-96093995D01*
X135704496Y-96083518D01*
X135721228Y-96073804D01*
X135738466Y-96064882D01*
X135756189Y-96056779D01*
X135774371Y-96049523D01*
X135792989Y-96043142D01*
X135812020Y-96037663D01*
X135831440Y-96033114D01*
X135851226Y-96029523D01*
X135871353Y-96026918D01*
X136580701Y-95960243D01*
X136588377Y-95959329D01*
X136595976Y-95958853D01*
X136603485Y-95958804D01*
X136610892Y-95959171D01*
G36*
X136610892Y-95959171D02*
G01*
X136618182Y-95959945D01*
X136625341Y-95961115D01*
X136632358Y-95962671D01*
X136639218Y-95964601D01*
X136645907Y-95966896D01*
X136652414Y-95969545D01*
X136658723Y-95972537D01*
X136664822Y-95975863D01*
X136670697Y-95979512D01*
X136676335Y-95983473D01*
X136681722Y-95987736D01*
X136686845Y-95992290D01*
X136691691Y-95997126D01*
X136696247Y-96002232D01*
X136700498Y-96007599D01*
X136704432Y-96013215D01*
X136708034Y-96019070D01*
X136711293Y-96025155D01*
X136714193Y-96031457D01*
X136716723Y-96037968D01*
X136718867Y-96044677D01*
X136720614Y-96051572D01*
X136721950Y-96058644D01*
X136722861Y-96065883D01*
X136723333Y-96073277D01*
X136723355Y-96080817D01*
X136722911Y-96088492D01*
X136721989Y-96096291D01*
X136720694Y-96103620D01*
X136719067Y-96110458D01*
X136717132Y-96116835D01*
X136714912Y-96122783D01*
X136712429Y-96128334D01*
X136709708Y-96133520D01*
X136706772Y-96138371D01*
X136703643Y-96142918D01*
X136700345Y-96147195D01*
X136696902Y-96151231D01*
X136693336Y-96155059D01*
X136689671Y-96158709D01*
X136682135Y-96165604D01*
X136674483Y-96172167D01*
X136666898Y-96178651D01*
X136659568Y-96185306D01*
X136656056Y-96188776D01*
X136652677Y-96192384D01*
X136649456Y-96196160D01*
X136646414Y-96200136D01*
X136643575Y-96204344D01*
X136640962Y-96208815D01*
X136638599Y-96213580D01*
X136636509Y-96218671D01*
X136634715Y-96224120D01*
X136633240Y-96229957D01*
X136632108Y-96236214D01*
X136631342Y-96242923D01*
X136631017Y-96250869D01*
X136631370Y-96258340D01*
X136632354Y-96265372D01*
X136633920Y-96272003D01*
X136636022Y-96278268D01*
X136638612Y-96284204D01*
X136641643Y-96289848D01*
X136645067Y-96295237D01*
X136648837Y-96300406D01*
X136652906Y-96305393D01*
X136661749Y-96314966D01*
X136680932Y-96333530D01*
X136690513Y-96343107D01*
X136695135Y-96348097D01*
X136699582Y-96353270D01*
X136703805Y-96358663D01*
X136707758Y-96364313D01*
X136711394Y-96370255D01*
X136714664Y-96376526D01*
X136717521Y-96383164D01*
X136719919Y-96390204D01*
X136721809Y-96397684D01*
X136723144Y-96405639D01*
X136723877Y-96414107D01*
X136723961Y-96423123D01*
X136723347Y-96432725D01*
X136721989Y-96442948D01*
X136720547Y-96450397D01*
X136718779Y-96457355D01*
X136716707Y-96463853D01*
X136714356Y-96469923D01*
X136711749Y-96475596D01*
X136708910Y-96480902D01*
X136705863Y-96485873D01*
X136702631Y-96490540D01*
X136699238Y-96494935D01*
X136695708Y-96499087D01*
X136692064Y-96503029D01*
X136688331Y-96506792D01*
X136680690Y-96513903D01*
X136672974Y-96520670D01*
X136665374Y-96527341D01*
X136658079Y-96534166D01*
X136654605Y-96537713D01*
X136651279Y-96541393D01*
X136648124Y-96545235D01*
X136645163Y-96549271D01*
X136642422Y-96553533D01*
X136639922Y-96558050D01*
X136637689Y-96562855D01*
X136635745Y-96567979D01*
X136634115Y-96573452D01*
X136632822Y-96579305D01*
X136631890Y-96585571D01*
X136631342Y-96592279D01*
X136631271Y-96600111D01*
X136631841Y-96607469D01*
X136633007Y-96614388D01*
X136634723Y-96620905D01*
X136636944Y-96627056D01*
X136639624Y-96632878D01*
X136642719Y-96638405D01*
X136646183Y-96643675D01*
X136649970Y-96648724D01*
X136654035Y-96653588D01*
X136662819Y-96662905D01*
X136681726Y-96680908D01*
X136691123Y-96690173D01*
X136695650Y-96694999D01*
X136700000Y-96700000D01*
X136704130Y-96705215D01*
X136707993Y-96710678D01*
X136711544Y-96716427D01*
X136714738Y-96722496D01*
X136717530Y-96728924D01*
X136719873Y-96735744D01*
X136721724Y-96742995D01*
X136723036Y-96750711D01*
X136723763Y-96758930D01*
X136723862Y-96767687D01*
X136723285Y-96777018D01*
X136721989Y-96786960D01*
X136721124Y-96791689D01*
X136720079Y-96796348D01*
X136718859Y-96800935D01*
X136717466Y-96805445D01*
X136715905Y-96809874D01*
X136714178Y-96814219D01*
X136712291Y-96818476D01*
X136710245Y-96822642D01*
X136705696Y-96830684D01*
X136700560Y-96838317D01*
X136694867Y-96845509D01*
X136688644Y-96852232D01*
X136681923Y-96858457D01*
X136674732Y-96864154D01*
X136667100Y-96869293D01*
X136659057Y-96873846D01*
X136654890Y-96875892D01*
X136650631Y-96877781D01*
X136646284Y-96879509D01*
X136641852Y-96881072D01*
X136637339Y-96882465D01*
X136632749Y-96883686D01*
X136628086Y-96884731D01*
X136623352Y-96885596D01*
X136608383Y-96886168D01*
X136582206Y-96885128D01*
X136502176Y-96879048D01*
X136273030Y-96856783D01*
X136139462Y-96843245D01*
X136031046Y-96832256D01*
X135934967Y-96823349D01*
X135876799Y-96819300D01*
X135871353Y-96818921D01*
X135854043Y-96816813D01*
X135836940Y-96813934D01*
X135820064Y-96810303D01*
X135803433Y-96805939D01*
X135787067Y-96800860D01*
X135770984Y-96795084D01*
X135755202Y-96788631D01*
X135739742Y-96781519D01*
X135724621Y-96773767D01*
X135709859Y-96765393D01*
X135695475Y-96756416D01*
X135681487Y-96746855D01*
X135667914Y-96736728D01*
X135654775Y-96726054D01*
X135642089Y-96714852D01*
X135629875Y-96703140D01*
X135618151Y-96690936D01*
X135606937Y-96678261D01*
X135596252Y-96665131D01*
X135586113Y-96651566D01*
X135576541Y-96637585D01*
X135567554Y-96623205D01*
X135559171Y-96608447D01*
X135551410Y-96593328D01*
X135544291Y-96577866D01*
X135540382Y-96568314D01*
X135801253Y-96568314D01*
X135802032Y-96577621D01*
X135804060Y-96588849D01*
X135807137Y-96599014D01*
X135811180Y-96608138D01*
X135816101Y-96616243D01*
X135821815Y-96623353D01*
X135828236Y-96629489D01*
X135835278Y-96634675D01*
X135842855Y-96638934D01*
X135850882Y-96642287D01*
X135859272Y-96644757D01*
X135867940Y-96646368D01*
X135876799Y-96647141D01*
X135885764Y-96647099D01*
X135894749Y-96646265D01*
X135903669Y-96644662D01*
X135912436Y-96642312D01*
X135920966Y-96639237D01*
X135929173Y-96635461D01*
X135936970Y-96631006D01*
X135944271Y-96625894D01*
X135950992Y-96620149D01*
X135957045Y-96613792D01*
X135962346Y-96606847D01*
X135966807Y-96599335D01*
X135970344Y-96591281D01*
X135972871Y-96582705D01*
X135974301Y-96573632D01*
X135974549Y-96564082D01*
X135973528Y-96554080D01*
X135971154Y-96543648D01*
X135967340Y-96532808D01*
X135961999Y-96521583D01*
X135957747Y-96514458D01*
X135953026Y-96507991D01*
X135947878Y-96502174D01*
X135942344Y-96496997D01*
X135936468Y-96492453D01*
X135930291Y-96488532D01*
X135923855Y-96485226D01*
X135917203Y-96482528D01*
X135910376Y-96480427D01*
X135903417Y-96478916D01*
X135896368Y-96477986D01*
X135889270Y-96477629D01*
X135882166Y-96477836D01*
X135876622Y-96478434D01*
X135875098Y-96478598D01*
X135868109Y-96479908D01*
X135861239Y-96481756D01*
X135854532Y-96484134D01*
X135848030Y-96487034D01*
X135841774Y-96490447D01*
X135835806Y-96494364D01*
X135830169Y-96498777D01*
X135824905Y-96503678D01*
X135820056Y-96509058D01*
X135815664Y-96514908D01*
X135811771Y-96521220D01*
X135808420Y-96527985D01*
X135805651Y-96535195D01*
X135803508Y-96542842D01*
X135802033Y-96550916D01*
X135801267Y-96559410D01*
X135801253Y-96568314D01*
X135540382Y-96568314D01*
X135537832Y-96562082D01*
X135532053Y-96545993D01*
X135526972Y-96529617D01*
X135522608Y-96512974D01*
X135518980Y-96496083D01*
X135516107Y-96478961D01*
X135514007Y-96461628D01*
X135512551Y-96441361D01*
X135512161Y-96422053D01*
X136027495Y-96422053D01*
X136027575Y-96431633D01*
X136028674Y-96441626D01*
X136029021Y-96443458D01*
X136029472Y-96445321D01*
X136030023Y-96447210D01*
X136030670Y-96449123D01*
X136032233Y-96453000D01*
X136034127Y-96456923D01*
X136036318Y-96460861D01*
X136038770Y-96464781D01*
X136041448Y-96468655D01*
X136044318Y-96472449D01*
X136047345Y-96476135D01*
X136050494Y-96479681D01*
X136053730Y-96483056D01*
X136057019Y-96486229D01*
X136060325Y-96489170D01*
X136063614Y-96491847D01*
X136066852Y-96494230D01*
X136070002Y-96496288D01*
X136079452Y-96501515D01*
X136089143Y-96505881D01*
X136099026Y-96509414D01*
X136109050Y-96512142D01*
X136119164Y-96514091D01*
X136129318Y-96515290D01*
X136139462Y-96515765D01*
X136149545Y-96515544D01*
X136159517Y-96514653D01*
X136169326Y-96513120D01*
X136178924Y-96510974D01*
X136188258Y-96508239D01*
X136197280Y-96504945D01*
X136205937Y-96501118D01*
X136214181Y-96496786D01*
X136221959Y-96491976D01*
X136229223Y-96486715D01*
X136235921Y-96481030D01*
X136242002Y-96474949D01*
X136247417Y-96468499D01*
X136252115Y-96461707D01*
X136256046Y-96454601D01*
X136259159Y-96447208D01*
X136261403Y-96439555D01*
X136262728Y-96431670D01*
X136263084Y-96423579D01*
X136262420Y-96415310D01*
X136260685Y-96406891D01*
X136257830Y-96398348D01*
X136253803Y-96389709D01*
X136248555Y-96381001D01*
X136242034Y-96372252D01*
X136235642Y-96365149D01*
X136228713Y-96358738D01*
X136221299Y-96353009D01*
X136213452Y-96347953D01*
X136205225Y-96343560D01*
X136196668Y-96339821D01*
X136187834Y-96336727D01*
X136178775Y-96334268D01*
X136169543Y-96332436D01*
X136160188Y-96331220D01*
X136150765Y-96330612D01*
X136141323Y-96330601D01*
X136131916Y-96331180D01*
X136122595Y-96332338D01*
X136113412Y-96334066D01*
X136104418Y-96336354D01*
X136095666Y-96339195D01*
X136087208Y-96342577D01*
X136079095Y-96346492D01*
X136071380Y-96350931D01*
X136064114Y-96355883D01*
X136057349Y-96361341D01*
X136051136Y-96367294D01*
X136045529Y-96373733D01*
X136040579Y-96380648D01*
X136036337Y-96388032D01*
X136032856Y-96395873D01*
X136030187Y-96404163D01*
X136028383Y-96412893D01*
X136027495Y-96422053D01*
X135512161Y-96422053D01*
X135512145Y-96421248D01*
X135512767Y-96401316D01*
X135514392Y-96381594D01*
X135516997Y-96362109D01*
X135520559Y-96342888D01*
X135525052Y-96323960D01*
X135530455Y-96305353D01*
X135536338Y-96288270D01*
X135801239Y-96288270D01*
X135802032Y-96297586D01*
X135804067Y-96308821D01*
X135807146Y-96318987D01*
X135811184Y-96328107D01*
X135816096Y-96336204D01*
X135821798Y-96343301D01*
X135828202Y-96349421D01*
X135835225Y-96354588D01*
X135842781Y-96358825D01*
X135850783Y-96362155D01*
X135859148Y-96364600D01*
X135867790Y-96366185D01*
X135876622Y-96366932D01*
X135885561Y-96366864D01*
X135894520Y-96366005D01*
X135903414Y-96364378D01*
X135912159Y-96362006D01*
X135920667Y-96358911D01*
X135928855Y-96355118D01*
X135936637Y-96350650D01*
X135943927Y-96345528D01*
X135950640Y-96339777D01*
X135956691Y-96333420D01*
X135961995Y-96326480D01*
X135966465Y-96318980D01*
X135970017Y-96310944D01*
X135972566Y-96302393D01*
X135974025Y-96293352D01*
X135974310Y-96283844D01*
X135973335Y-96273892D01*
X135971016Y-96263518D01*
X135967265Y-96252747D01*
X135961999Y-96241601D01*
X135957765Y-96234471D01*
X135953059Y-96227999D01*
X135947923Y-96222176D01*
X135942399Y-96216993D01*
X135936529Y-96212443D01*
X135930356Y-96208516D01*
X135923922Y-96205205D01*
X135917270Y-96202500D01*
X135910441Y-96200394D01*
X135903479Y-96198877D01*
X135896425Y-96197942D01*
X135889321Y-96197579D01*
X135882210Y-96197781D01*
X135875135Y-96198539D01*
X135868137Y-96199844D01*
X135861259Y-96201688D01*
X135854544Y-96204063D01*
X135848032Y-96206960D01*
X135841768Y-96210370D01*
X135835792Y-96214285D01*
X135830148Y-96218697D01*
X135824878Y-96223598D01*
X135820023Y-96228978D01*
X135815627Y-96234829D01*
X135811731Y-96241143D01*
X135808379Y-96247911D01*
X135805611Y-96255125D01*
X135803471Y-96262776D01*
X135802001Y-96270857D01*
X135801243Y-96279358D01*
X135801239Y-96288270D01*
X135536338Y-96288270D01*
X135536743Y-96287093D01*
X135543893Y-96269209D01*
X135551880Y-96251729D01*
X135560682Y-96234679D01*
X135570275Y-96218089D01*
X135580635Y-96201985D01*
X135591738Y-96186395D01*
X135603562Y-96171347D01*
X135616081Y-96156869D01*
X135629274Y-96142989D01*
X135643115Y-96129733D01*
X135657581Y-96117131D01*
X135672649Y-96105209D01*
X135688296Y-96093995D01*
X135704496Y-96083518D01*
X135721228Y-96073804D01*
X135738466Y-96064882D01*
X135756189Y-96056779D01*
X135774371Y-96049523D01*
X135792989Y-96043142D01*
X135812020Y-96037663D01*
X135831440Y-96033114D01*
X135851226Y-96029523D01*
X135871353Y-96026918D01*
X136580701Y-95960243D01*
X136588377Y-95959329D01*
X136595976Y-95958853D01*
X136603485Y-95958804D01*
X136610892Y-95959171D01*
G37*
D11*
X120200000Y-97350000D02*
X120800000Y-97350000D01*
D12*
G36*
X142415821Y-92761450D02*
G01*
X142440496Y-92763327D01*
X142464811Y-92766417D01*
X142488736Y-92770691D01*
X142512239Y-92776117D01*
X142535292Y-92782665D01*
X142557863Y-92790305D01*
X142579921Y-92799005D01*
X142601437Y-92808735D01*
X142622379Y-92819464D01*
X142642718Y-92831162D01*
X142662424Y-92843799D01*
X142681464Y-92857342D01*
X142699810Y-92871763D01*
X142717430Y-92887030D01*
X142734295Y-92903112D01*
X142750373Y-92919979D01*
X142765635Y-92937601D01*
X142780049Y-92955946D01*
X142793586Y-92974984D01*
X142806215Y-92994685D01*
X142817906Y-93015018D01*
X142828627Y-93035952D01*
X142838350Y-93057456D01*
X142847042Y-93079500D01*
X142854674Y-93102054D01*
X142861216Y-93125086D01*
X142866637Y-93148566D01*
X142870905Y-93172463D01*
X142873992Y-93196748D01*
X142875867Y-93221388D01*
X142876498Y-93246354D01*
X142876045Y-93267537D01*
X142874696Y-93288487D01*
X142872471Y-93309188D01*
X142869388Y-93329619D01*
X142865466Y-93349763D01*
X142860723Y-93369601D01*
X142855177Y-93389114D01*
X142848847Y-93408285D01*
X142833910Y-93445522D01*
X142816060Y-93481165D01*
X142795444Y-93515064D01*
X142772210Y-93547073D01*
X142746506Y-93577042D01*
X142718481Y-93604823D01*
X142688282Y-93630267D01*
X142656058Y-93653228D01*
X142621956Y-93673556D01*
X142586125Y-93691102D01*
X142567607Y-93698786D01*
X142548712Y-93705720D01*
X142529458Y-93711884D01*
X142509865Y-93717260D01*
X142503430Y-93718859D01*
X142496954Y-93720363D01*
X142490440Y-93721774D01*
X142483890Y-93723094D01*
X142477304Y-93724324D01*
X142470686Y-93725467D01*
X142464037Y-93726525D01*
X142457359Y-93727499D01*
X142449132Y-93728485D01*
X142440896Y-93729357D01*
X142432644Y-93730109D01*
X142424365Y-93730737D01*
X142416052Y-93731234D01*
X142407695Y-93731595D01*
X142399286Y-93731816D01*
X142390816Y-93731891D01*
X142365851Y-93731259D01*
X142341212Y-93729383D01*
X142316928Y-93726294D01*
X142293031Y-93722023D01*
X142269552Y-93716599D01*
X142246520Y-93710054D01*
X142223967Y-93702418D01*
X142201923Y-93693722D01*
X142180419Y-93683996D01*
X142159485Y-93673271D01*
X142139153Y-93661577D01*
X142119452Y-93648945D01*
X142100414Y-93635405D01*
X142082068Y-93620988D01*
X142064446Y-93605725D01*
X142047579Y-93589646D01*
X142031496Y-93572782D01*
X142016229Y-93555162D01*
X142001808Y-93536819D01*
X141988264Y-93517782D01*
X141975627Y-93498082D01*
X141963929Y-93477749D01*
X141953199Y-93456814D01*
X141943468Y-93435308D01*
X141934768Y-93413261D01*
X141927128Y-93390704D01*
X141920580Y-93367667D01*
X141915153Y-93344180D01*
X141910879Y-93320275D01*
X141907789Y-93295982D01*
X141905912Y-93271332D01*
X141905279Y-93246354D01*
X141956027Y-93246354D01*
X141956592Y-93268742D01*
X141958271Y-93290836D01*
X141961036Y-93312607D01*
X141964860Y-93334030D01*
X141969715Y-93355076D01*
X141975574Y-93375718D01*
X141982410Y-93395929D01*
X141990196Y-93415681D01*
X141998903Y-93434948D01*
X142008506Y-93453702D01*
X142018977Y-93471916D01*
X142030287Y-93489563D01*
X142042411Y-93506614D01*
X142055321Y-93523044D01*
X142068989Y-93538824D01*
X142083389Y-93553927D01*
X142098492Y-93568327D01*
X142114272Y-93581995D01*
X142130702Y-93594905D01*
X142147753Y-93607029D01*
X142165400Y-93618339D01*
X142183613Y-93628810D01*
X142202367Y-93638412D01*
X142221634Y-93647120D01*
X142241387Y-93654906D01*
X142261598Y-93661742D01*
X142282240Y-93667601D01*
X142303286Y-93672456D01*
X142324709Y-93676280D01*
X142346480Y-93679045D01*
X142368574Y-93680724D01*
X142390962Y-93681289D01*
X142404841Y-93681071D01*
X142418615Y-93680421D01*
X142432275Y-93679345D01*
X142445816Y-93677850D01*
X142459231Y-93675944D01*
X142472513Y-93673632D01*
X142485657Y-93670920D01*
X142498654Y-93667817D01*
X142511498Y-93664328D01*
X142524184Y-93660461D01*
X142536703Y-93656221D01*
X142549051Y-93651615D01*
X142561219Y-93646650D01*
X142573201Y-93641334D01*
X142584992Y-93635671D01*
X142596583Y-93629669D01*
X142596582Y-93629669D01*
X142606412Y-93615898D01*
X142615710Y-93601739D01*
X142624462Y-93587207D01*
X142632654Y-93572316D01*
X142640272Y-93557079D01*
X142647302Y-93541511D01*
X142653729Y-93525625D01*
X142659540Y-93509436D01*
X142664720Y-93492957D01*
X142669256Y-93476202D01*
X142673132Y-93459186D01*
X142676336Y-93441922D01*
X142678852Y-93424425D01*
X142680667Y-93406707D01*
X142681766Y-93388784D01*
X142682135Y-93370668D01*
X142681569Y-93348293D01*
X142679889Y-93326211D01*
X142677122Y-93304449D01*
X142673296Y-93283035D01*
X142668438Y-93261995D01*
X142662575Y-93241359D01*
X142655736Y-93221152D01*
X142647946Y-93201403D01*
X142639234Y-93182138D01*
X142629627Y-93163385D01*
X142619152Y-93145171D01*
X142607836Y-93127524D01*
X142595708Y-93110471D01*
X142582794Y-93094039D01*
X142569122Y-93078257D01*
X142554719Y-93063150D01*
X142539612Y-93048747D01*
X142523829Y-93035075D01*
X142507398Y-93022161D01*
X142490345Y-93010033D01*
X142472698Y-92998717D01*
X142454484Y-92988242D01*
X142435731Y-92978635D01*
X142416466Y-92969923D01*
X142396717Y-92962133D01*
X142376510Y-92955293D01*
X142355873Y-92949431D01*
X142334834Y-92944573D01*
X142313420Y-92940747D01*
X142291658Y-92937980D01*
X142269576Y-92936300D01*
X142247200Y-92935733D01*
X142233322Y-92935950D01*
X142219554Y-92936596D01*
X142205901Y-92937665D01*
X142192369Y-92939152D01*
X142178965Y-92941050D01*
X142165695Y-92943353D01*
X142152565Y-92946055D01*
X142139581Y-92949151D01*
X142126750Y-92952634D01*
X142114078Y-92956498D01*
X142101570Y-92960738D01*
X142089234Y-92965347D01*
X142077075Y-92970319D01*
X142065100Y-92975648D01*
X142053315Y-92981328D01*
X142041725Y-92987354D01*
X142041719Y-92987354D01*
X142041712Y-92987355D01*
X142041702Y-92987356D01*
X142041691Y-92987358D01*
X142041679Y-92987362D01*
X142041666Y-92987366D01*
X142041659Y-92987369D01*
X142041652Y-92987372D01*
X142041645Y-92987376D01*
X142041639Y-92987380D01*
X142041632Y-92987384D01*
X142041626Y-92987389D01*
X142041619Y-92987395D01*
X142041613Y-92987401D01*
X142041608Y-92987408D01*
X142041602Y-92987415D01*
X142041597Y-92987423D01*
X142041593Y-92987432D01*
X142041589Y-92987441D01*
X142041586Y-92987451D01*
X142041583Y-92987462D01*
X142041581Y-92987474D01*
X142041580Y-92987486D01*
X142041579Y-92987499D01*
X142031750Y-93001271D01*
X142022452Y-93015429D01*
X142013700Y-93029960D01*
X142005508Y-93044850D01*
X141997890Y-93060085D01*
X141990860Y-93075650D01*
X141984433Y-93091531D01*
X141978622Y-93107714D01*
X141973442Y-93124185D01*
X141968906Y-93140930D01*
X141965030Y-93157935D01*
X141961826Y-93175184D01*
X141959310Y-93192665D01*
X141957495Y-93210363D01*
X141956396Y-93228264D01*
X141956027Y-93246354D01*
X141905279Y-93246354D01*
X141905354Y-93237879D01*
X141905577Y-93229459D01*
X141905944Y-93221095D01*
X141906452Y-93212787D01*
X141907096Y-93204533D01*
X141907874Y-93196335D01*
X141908782Y-93188191D01*
X141909817Y-93180103D01*
X141912207Y-93164500D01*
X141915096Y-93149069D01*
X141918476Y-93133816D01*
X141922337Y-93118749D01*
X141926671Y-93103874D01*
X141931469Y-93089198D01*
X141936724Y-93074728D01*
X141942427Y-93060471D01*
X141949547Y-93044145D01*
X141957243Y-93028137D01*
X141965503Y-93012459D01*
X141974313Y-92997125D01*
X141983659Y-92982147D01*
X141993530Y-92967540D01*
X142003911Y-92953317D01*
X142014789Y-92939489D01*
X142026151Y-92926072D01*
X142037985Y-92913077D01*
X142050276Y-92900518D01*
X142063012Y-92888408D01*
X142076179Y-92876760D01*
X142089765Y-92865588D01*
X142103755Y-92854905D01*
X142118138Y-92844723D01*
X142132900Y-92835057D01*
X142148027Y-92825919D01*
X142163506Y-92817322D01*
X142179325Y-92809279D01*
X142195470Y-92801804D01*
X142211927Y-92794910D01*
X142228685Y-92788611D01*
X142245729Y-92782918D01*
X142247200Y-92782487D01*
X142263046Y-92777846D01*
X142280624Y-92773407D01*
X142298449Y-92769615D01*
X142316507Y-92766483D01*
X142334786Y-92764024D01*
X142353273Y-92762251D01*
X142371954Y-92761178D01*
X142390816Y-92760817D01*
X142415821Y-92761450D01*
G37*
G36*
X142944032Y-93546448D02*
G01*
X142955991Y-93547674D01*
X142967775Y-93549694D01*
X142979372Y-93552487D01*
X142990765Y-93556034D01*
X143001941Y-93560314D01*
X143012883Y-93565307D01*
X143023579Y-93570993D01*
X143034011Y-93577353D01*
X143044167Y-93584367D01*
X143054031Y-93592014D01*
X143063588Y-93600275D01*
X143072824Y-93609129D01*
X143081723Y-93618557D01*
X143098454Y-93639054D01*
X143113662Y-93661606D01*
X143127229Y-93686052D01*
X143139037Y-93712235D01*
X143148966Y-93739993D01*
X143156900Y-93769167D01*
X143162719Y-93799597D01*
X143166305Y-93831124D01*
X143167540Y-93863587D01*
X143167234Y-93879925D01*
X143166324Y-93896047D01*
X143164826Y-93911936D01*
X143162754Y-93927569D01*
X143160124Y-93942928D01*
X143156949Y-93957993D01*
X143153246Y-93972744D01*
X143149028Y-93987160D01*
X143144310Y-94001222D01*
X143139107Y-94014909D01*
X143133435Y-94028203D01*
X143127307Y-94041083D01*
X143120738Y-94053529D01*
X143113744Y-94065521D01*
X143106339Y-94077039D01*
X143098538Y-94088063D01*
X143090356Y-94098574D01*
X143081807Y-94108551D01*
X143072906Y-94117974D01*
X143063668Y-94126824D01*
X143054109Y-94135081D01*
X143044241Y-94142724D01*
X143034081Y-94149734D01*
X143023644Y-94156090D01*
X143012943Y-94161774D01*
X143001994Y-94166764D01*
X142990812Y-94171041D01*
X142979410Y-94174586D01*
X142967806Y-94177377D01*
X142956011Y-94179395D01*
X142944043Y-94180621D01*
X142931915Y-94181034D01*
X142924291Y-94180644D01*
X142917319Y-94179495D01*
X142910978Y-94177619D01*
X142905248Y-94175048D01*
X142900108Y-94171815D01*
X142895537Y-94167952D01*
X142891514Y-94163491D01*
X142888019Y-94158465D01*
X142885030Y-94152905D01*
X142882526Y-94146844D01*
X142880488Y-94140315D01*
X142878894Y-94133348D01*
X142876955Y-94118235D01*
X142876543Y-94101762D01*
X142877491Y-94084187D01*
X142879633Y-94065769D01*
X142882803Y-94046764D01*
X142886833Y-94027432D01*
X142891558Y-94008030D01*
X142896811Y-93988817D01*
X142908235Y-93951984D01*
X142911581Y-93941130D01*
X142914481Y-93930195D01*
X142916935Y-93919191D01*
X142918943Y-93908129D01*
X142920505Y-93897021D01*
X142921620Y-93885878D01*
X142922289Y-93874712D01*
X142922512Y-93863535D01*
X142922289Y-93852357D01*
X142921620Y-93841191D01*
X142920505Y-93830048D01*
X142918943Y-93818940D01*
X142916935Y-93807878D01*
X142914481Y-93796873D01*
X142911581Y-93785938D01*
X142908235Y-93775084D01*
X142902444Y-93757020D01*
X142896846Y-93738252D01*
X142891607Y-93719038D01*
X142886893Y-93699636D01*
X142882871Y-93680304D01*
X142879708Y-93661300D01*
X142877569Y-93642882D01*
X142876936Y-93633973D01*
X142876622Y-93625307D01*
X142876648Y-93616917D01*
X142877033Y-93608834D01*
X142877800Y-93601091D01*
X142878969Y-93593721D01*
X142880560Y-93586754D01*
X142882595Y-93580225D01*
X142885094Y-93574164D01*
X142888078Y-93568604D01*
X142891568Y-93563578D01*
X142895586Y-93559117D01*
X142900150Y-93555254D01*
X142905283Y-93552021D01*
X142911005Y-93549450D01*
X142917338Y-93547574D01*
X142924301Y-93546425D01*
X142931915Y-93546035D01*
X142944032Y-93546448D01*
G37*
D11*
X121300000Y-90900000D02*
G75*
G02*
X119700000Y-90900000I-800000J0D01*
G01*
X119700000Y-90900000D02*
G75*
G02*
X121300000Y-90900000I800000J0D01*
G01*
X120500000Y-96600000D02*
X120500000Y-94400000D01*
X120500000Y-97700000D02*
X120500000Y-97000000D01*
D12*
D13*
X119700000Y-95000000D02*
G75*
G02*
X121313733Y-94981238I800000J600000D01*
G01*
D14*
X120737550Y-94400000D02*
G75*
G02*
X120262450Y-94400000I-237550J0D01*
G01*
X120262450Y-94400000D02*
G75*
G02*
X120737550Y-94400000I237550J0D01*
G01*
D15*
X138044663Y-90435978D02*
X138081112Y-90439848D01*
X138116911Y-90445698D01*
X138151994Y-90453474D01*
X138186293Y-90463125D01*
X138219741Y-90474600D01*
X138252272Y-90487844D01*
X138283818Y-90502807D01*
X138314312Y-90519437D01*
X138343687Y-90537680D01*
X138371877Y-90557485D01*
X138398813Y-90578800D01*
X138424431Y-90601573D01*
X138448661Y-90625751D01*
X138471438Y-90651282D01*
X138492693Y-90678114D01*
X138512362Y-90706194D01*
X138530375Y-90735472D01*
X138546667Y-90765894D01*
X138561170Y-90797408D01*
X138573817Y-90829962D01*
X138584541Y-90863504D01*
X138593276Y-90897982D01*
X138599954Y-90933343D01*
X138604508Y-90969536D01*
X138606871Y-91006508D01*
X138606977Y-91044207D01*
X138604758Y-91082581D01*
X138600147Y-91121578D01*
X138593673Y-91158223D01*
X138585540Y-91192410D01*
X138575865Y-91224296D01*
X138564763Y-91254038D01*
X138552351Y-91281793D01*
X138538746Y-91307719D01*
X138524063Y-91331974D01*
X138508419Y-91354713D01*
X138491930Y-91376095D01*
X138474713Y-91396276D01*
X138456883Y-91415414D01*
X138438557Y-91433666D01*
X138400881Y-91468140D01*
X138362617Y-91500957D01*
X138324694Y-91533374D01*
X138288042Y-91566649D01*
X138270483Y-91584001D01*
X138253591Y-91602039D01*
X138237482Y-91620920D01*
X138222272Y-91640802D01*
X138208078Y-91661841D01*
X138195015Y-91684196D01*
X138183200Y-91708022D01*
X138172750Y-91733478D01*
X138163780Y-91760720D01*
X138156406Y-91789906D01*
X138150746Y-91821193D01*
X138146915Y-91854738D01*
X138145291Y-91894467D01*
X138147055Y-91931821D01*
X138151972Y-91966982D01*
X138159803Y-92000134D01*
X138170312Y-92031459D01*
X138183263Y-92061141D01*
X138198417Y-92089361D01*
X138215538Y-92116304D01*
X138234388Y-92142151D01*
X138254732Y-92167085D01*
X138298948Y-92214949D01*
X138394863Y-92307771D01*
X138442769Y-92355655D01*
X138465879Y-92380606D01*
X138488112Y-92406472D01*
X138509229Y-92433437D01*
X138528995Y-92461684D01*
X138547172Y-92491395D01*
X138563523Y-92522753D01*
X138577810Y-92555942D01*
X138589798Y-92591143D01*
X138599249Y-92628541D01*
X138605925Y-92668317D01*
X138609590Y-92710654D01*
X138610007Y-92755736D01*
X138606938Y-92803744D01*
X138600147Y-92854863D01*
X138592940Y-92892106D01*
X138584098Y-92926896D01*
X138573740Y-92959387D01*
X138561985Y-92989737D01*
X138548950Y-93018099D01*
X138534755Y-93044631D01*
X138519519Y-93069487D01*
X138503359Y-93092823D01*
X138486394Y-93114795D01*
X138468744Y-93135558D01*
X138450526Y-93155268D01*
X138431859Y-93174081D01*
X138393654Y-93209637D01*
X138355076Y-93243470D01*
X138317076Y-93276826D01*
X138280600Y-93310949D01*
X138263231Y-93328687D01*
X138246599Y-93347085D01*
X138230823Y-93366296D01*
X138216021Y-93386477D01*
X138202312Y-93407784D01*
X138189815Y-93430372D01*
X138178648Y-93454397D01*
X138168930Y-93480014D01*
X138160779Y-93507379D01*
X138154313Y-93536647D01*
X138149653Y-93567975D01*
X138146915Y-93601517D01*
X138146560Y-93640678D01*
X138149410Y-93677465D01*
X138155238Y-93712062D01*
X138163818Y-93744647D01*
X138174923Y-93775403D01*
X138188326Y-93804509D01*
X138203800Y-93832147D01*
X138221119Y-93858498D01*
X138240054Y-93883742D01*
X138260381Y-93908061D01*
X138304297Y-93954645D01*
X138398832Y-94044661D01*
X138445821Y-94090988D01*
X138468452Y-94115114D01*
X138490205Y-94140123D01*
X138510852Y-94166195D01*
X138530168Y-94193512D01*
X138547924Y-94222255D01*
X138563895Y-94252603D01*
X138577853Y-94284739D01*
X138589571Y-94318843D01*
X138598823Y-94355095D01*
X138605382Y-94393677D01*
X138609021Y-94434770D01*
X138609512Y-94478554D01*
X138606630Y-94525210D01*
X138600147Y-94574919D01*
X138595822Y-94598564D01*
X138590600Y-94621862D01*
X138584498Y-94644795D01*
X138577534Y-94667344D01*
X138569727Y-94689490D01*
X138561095Y-94711216D01*
X138551657Y-94732502D01*
X138541430Y-94753331D01*
X138518685Y-94793543D01*
X138493005Y-94831704D01*
X138464537Y-94867666D01*
X138433426Y-94901283D01*
X138399820Y-94932407D01*
X138363864Y-94960891D01*
X138325704Y-94986587D01*
X138285487Y-95009349D01*
X138264652Y-95019583D01*
X138243358Y-95029028D01*
X138221622Y-95037666D01*
X138199464Y-95045479D01*
X138176900Y-95052447D01*
X138153950Y-95058553D01*
X138130632Y-95063777D01*
X138106963Y-95068103D01*
X138032117Y-95070963D01*
X137901233Y-95065759D01*
X137501084Y-95035360D01*
X136355356Y-94924037D01*
X135687515Y-94856347D01*
X135145433Y-94801403D01*
X134665040Y-94756866D01*
X134374199Y-94736623D01*
X134346970Y-94734728D01*
X134260418Y-94724187D01*
X134174905Y-94709793D01*
X134090524Y-94691638D01*
X134007370Y-94669816D01*
X133925538Y-94644419D01*
X133845122Y-94615542D01*
X133766216Y-94583277D01*
X133688914Y-94547717D01*
X133613311Y-94508956D01*
X133539501Y-94467086D01*
X133467578Y-94422202D01*
X133397637Y-94374396D01*
X133329772Y-94323762D01*
X133264078Y-94270392D01*
X133200648Y-94214380D01*
X133139577Y-94155819D01*
X133080959Y-94094803D01*
X133024890Y-94031424D01*
X132971462Y-93965776D01*
X132920770Y-93897952D01*
X132872909Y-93828045D01*
X132827973Y-93756148D01*
X132786057Y-93682356D01*
X132747254Y-93606759D01*
X132711659Y-93529453D01*
X132692117Y-93481693D01*
X133996467Y-93481693D01*
X134000366Y-93528228D01*
X134010502Y-93584368D01*
X134025891Y-93635191D01*
X134046103Y-93680809D01*
X134070708Y-93721335D01*
X134099278Y-93756884D01*
X134131383Y-93787567D01*
X134166593Y-93813497D01*
X134204480Y-93834789D01*
X134244613Y-93851554D01*
X134286563Y-93863907D01*
X134329902Y-93871960D01*
X134374199Y-93875825D01*
X134419025Y-93875617D01*
X134463951Y-93871448D01*
X134508548Y-93863432D01*
X134552386Y-93851681D01*
X134595035Y-93836308D01*
X134636067Y-93817428D01*
X134675052Y-93795151D01*
X134711560Y-93769593D01*
X134745163Y-93740865D01*
X134775430Y-93709081D01*
X134801933Y-93674355D01*
X134824241Y-93636798D01*
X134841926Y-93596524D01*
X134854559Y-93553647D01*
X134861709Y-93508279D01*
X134862948Y-93460533D01*
X134857846Y-93410522D01*
X134845974Y-93358360D01*
X134826902Y-93304160D01*
X134800201Y-93248034D01*
X134778941Y-93212411D01*
X134755334Y-93180077D01*
X134729592Y-93150990D01*
X134701926Y-93125107D01*
X134672544Y-93102384D01*
X134641659Y-93082781D01*
X134609481Y-93066253D01*
X134576219Y-93052759D01*
X134542085Y-93042256D01*
X134507289Y-93034701D01*
X134472042Y-93030052D01*
X134436554Y-93028266D01*
X134401035Y-93029301D01*
X134373315Y-93032291D01*
X134365696Y-93033113D01*
X134330748Y-93039661D01*
X134296401Y-93048902D01*
X134262866Y-93060793D01*
X134230353Y-93075292D01*
X134199072Y-93092355D01*
X134169235Y-93111941D01*
X134141051Y-93134008D01*
X134114731Y-93158511D01*
X134090485Y-93185409D01*
X134068525Y-93214659D01*
X134049060Y-93246219D01*
X134032302Y-93280046D01*
X134018460Y-93316097D01*
X134007745Y-93354330D01*
X134000367Y-93394702D01*
X133996538Y-93437171D01*
X133996467Y-93481693D01*
X132692117Y-93481693D01*
X132679366Y-93450530D01*
X132650470Y-93370084D01*
X132625064Y-93288207D01*
X132603244Y-93204993D01*
X132585104Y-93120536D01*
X132570737Y-93034927D01*
X132560239Y-92948261D01*
X132552958Y-92846925D01*
X132551012Y-92750385D01*
X135127677Y-92750385D01*
X135128077Y-92798288D01*
X135133576Y-92848249D01*
X135135308Y-92857410D01*
X135137563Y-92866724D01*
X135140318Y-92876172D01*
X135143552Y-92885734D01*
X135151369Y-92905123D01*
X135160841Y-92924738D01*
X135171793Y-92944424D01*
X135184052Y-92964028D01*
X135197444Y-92983394D01*
X135211794Y-93002368D01*
X135226928Y-93020797D01*
X135242673Y-93038526D01*
X135258854Y-93055401D01*
X135275298Y-93071268D01*
X135291830Y-93085971D01*
X135308276Y-93099358D01*
X135324463Y-93111273D01*
X135340216Y-93121563D01*
X135387463Y-93147694D01*
X135435920Y-93169525D01*
X135485334Y-93187192D01*
X135535453Y-93200831D01*
X135586024Y-93210578D01*
X135636796Y-93216571D01*
X135687515Y-93218946D01*
X135737930Y-93217839D01*
X135787788Y-93213386D01*
X135836836Y-93205723D01*
X135884823Y-93194989D01*
X135931496Y-93181318D01*
X135976602Y-93164847D01*
X136019890Y-93145713D01*
X136061107Y-93124051D01*
X136100000Y-93100000D01*
X136136317Y-93073694D01*
X136169807Y-93045270D01*
X136200215Y-93014865D01*
X136227291Y-92982616D01*
X136250781Y-92948658D01*
X136270434Y-92913127D01*
X136285997Y-92876162D01*
X136297218Y-92837897D01*
X136303844Y-92798469D01*
X136305623Y-92758015D01*
X136302302Y-92716672D01*
X136293630Y-92674574D01*
X136279354Y-92631860D01*
X136259221Y-92588666D01*
X136232979Y-92545127D01*
X136200376Y-92501380D01*
X136168414Y-92465867D01*
X136133768Y-92433812D01*
X136096699Y-92405167D01*
X136057466Y-92379885D01*
X136016328Y-92357921D01*
X135973544Y-92339226D01*
X135929375Y-92323756D01*
X135884079Y-92311463D01*
X135837917Y-92302300D01*
X135791146Y-92296221D01*
X135744028Y-92293179D01*
X135696821Y-92293128D01*
X135649785Y-92296020D01*
X135603179Y-92301809D01*
X135557262Y-92310449D01*
X135512294Y-92321893D01*
X135468535Y-92336094D01*
X135426244Y-92353006D01*
X135385680Y-92372581D01*
X135347103Y-92394774D01*
X135310772Y-92419537D01*
X135276947Y-92446825D01*
X135245886Y-92476589D01*
X135217850Y-92508784D01*
X135193098Y-92543363D01*
X135171890Y-92580280D01*
X135154484Y-92619487D01*
X135141140Y-92660938D01*
X135132118Y-92704586D01*
X135127677Y-92750385D01*
X132551012Y-92750385D01*
X132550931Y-92746359D01*
X132554040Y-92646701D01*
X132562166Y-92548090D01*
X132575191Y-92450664D01*
X132592997Y-92354562D01*
X132615465Y-92259923D01*
X132642479Y-92166885D01*
X132671892Y-92081472D01*
X133996400Y-92081472D01*
X134000366Y-92128053D01*
X134010537Y-92184228D01*
X134025932Y-92235056D01*
X134046124Y-92280655D01*
X134070686Y-92321139D01*
X134099193Y-92356625D01*
X134131216Y-92387227D01*
X134166330Y-92413062D01*
X134204107Y-92434246D01*
X134244121Y-92450894D01*
X134285945Y-92463122D01*
X134329152Y-92471045D01*
X134373315Y-92474780D01*
X134418008Y-92474443D01*
X134462804Y-92470148D01*
X134507276Y-92462012D01*
X134550997Y-92450150D01*
X134593540Y-92434678D01*
X134634480Y-92415713D01*
X134673388Y-92393369D01*
X134709839Y-92367762D01*
X134743405Y-92339008D01*
X134773660Y-92307223D01*
X134800177Y-92272523D01*
X134822529Y-92235023D01*
X134840290Y-92194839D01*
X134853032Y-92152087D01*
X134860329Y-92106883D01*
X134861754Y-92059341D01*
X134856881Y-92009579D01*
X134845282Y-91957712D01*
X134826531Y-91903855D01*
X134800201Y-91848124D01*
X134779031Y-91812476D01*
X134755500Y-91780115D01*
X134729818Y-91751000D01*
X134702197Y-91725087D01*
X134672848Y-91702336D01*
X134641984Y-91682703D01*
X134609815Y-91666145D01*
X134576554Y-91652622D01*
X134542411Y-91642089D01*
X134507598Y-91634506D01*
X134472327Y-91629829D01*
X134436809Y-91628016D01*
X134401256Y-91629026D01*
X134365879Y-91632815D01*
X134330890Y-91639341D01*
X134296501Y-91648562D01*
X134262922Y-91660435D01*
X134230365Y-91674919D01*
X134199042Y-91691971D01*
X134169165Y-91711548D01*
X134140944Y-91733608D01*
X134114592Y-91758110D01*
X134090320Y-91785009D01*
X134068339Y-91814265D01*
X134048861Y-91845835D01*
X134032097Y-91879676D01*
X134018260Y-91915746D01*
X134007560Y-91954003D01*
X134000209Y-91994405D01*
X133996419Y-92036909D01*
X133996400Y-92081472D01*
X132671892Y-92081472D01*
X132673919Y-92075586D01*
X132709667Y-91986167D01*
X132749605Y-91898764D01*
X132793615Y-91813517D01*
X132841579Y-91730564D01*
X132893379Y-91650044D01*
X132948896Y-91572095D01*
X133008013Y-91496856D01*
X133070611Y-91424466D01*
X133136572Y-91355064D01*
X133205777Y-91288787D01*
X133278110Y-91225775D01*
X133353451Y-91166165D01*
X133431682Y-91110098D01*
X133512685Y-91057711D01*
X133596343Y-91009142D01*
X133682536Y-90964532D01*
X133771148Y-90924017D01*
X133862058Y-90887737D01*
X133955150Y-90855830D01*
X134050306Y-90828436D01*
X134147406Y-90805691D01*
X134246334Y-90787736D01*
X134346970Y-90774709D01*
X137893709Y-90441334D01*
X137932087Y-90436766D01*
X137970083Y-90434385D01*
X138007631Y-90434140D01*
X138044663Y-90435978D01*
G36*
X138044663Y-90435978D02*
G01*
X138081112Y-90439848D01*
X138116911Y-90445698D01*
X138151994Y-90453474D01*
X138186293Y-90463125D01*
X138219741Y-90474600D01*
X138252272Y-90487844D01*
X138283818Y-90502807D01*
X138314312Y-90519437D01*
X138343687Y-90537680D01*
X138371877Y-90557485D01*
X138398813Y-90578800D01*
X138424431Y-90601573D01*
X138448661Y-90625751D01*
X138471438Y-90651282D01*
X138492693Y-90678114D01*
X138512362Y-90706194D01*
X138530375Y-90735472D01*
X138546667Y-90765894D01*
X138561170Y-90797408D01*
X138573817Y-90829962D01*
X138584541Y-90863504D01*
X138593276Y-90897982D01*
X138599954Y-90933343D01*
X138604508Y-90969536D01*
X138606871Y-91006508D01*
X138606977Y-91044207D01*
X138604758Y-91082581D01*
X138600147Y-91121578D01*
X138593673Y-91158223D01*
X138585540Y-91192410D01*
X138575865Y-91224296D01*
X138564763Y-91254038D01*
X138552351Y-91281793D01*
X138538746Y-91307719D01*
X138524063Y-91331974D01*
X138508419Y-91354713D01*
X138491930Y-91376095D01*
X138474713Y-91396276D01*
X138456883Y-91415414D01*
X138438557Y-91433666D01*
X138400881Y-91468140D01*
X138362617Y-91500957D01*
X138324694Y-91533374D01*
X138288042Y-91566649D01*
X138270483Y-91584001D01*
X138253591Y-91602039D01*
X138237482Y-91620920D01*
X138222272Y-91640802D01*
X138208078Y-91661841D01*
X138195015Y-91684196D01*
X138183200Y-91708022D01*
X138172750Y-91733478D01*
X138163780Y-91760720D01*
X138156406Y-91789906D01*
X138150746Y-91821193D01*
X138146915Y-91854738D01*
X138145291Y-91894467D01*
X138147055Y-91931821D01*
X138151972Y-91966982D01*
X138159803Y-92000134D01*
X138170312Y-92031459D01*
X138183263Y-92061141D01*
X138198417Y-92089361D01*
X138215538Y-92116304D01*
X138234388Y-92142151D01*
X138254732Y-92167085D01*
X138298948Y-92214949D01*
X138394863Y-92307771D01*
X138442769Y-92355655D01*
X138465879Y-92380606D01*
X138488112Y-92406472D01*
X138509229Y-92433437D01*
X138528995Y-92461684D01*
X138547172Y-92491395D01*
X138563523Y-92522753D01*
X138577810Y-92555942D01*
X138589798Y-92591143D01*
X138599249Y-92628541D01*
X138605925Y-92668317D01*
X138609590Y-92710654D01*
X138610007Y-92755736D01*
X138606938Y-92803744D01*
X138600147Y-92854863D01*
X138592940Y-92892106D01*
X138584098Y-92926896D01*
X138573740Y-92959387D01*
X138561985Y-92989737D01*
X138548950Y-93018099D01*
X138534755Y-93044631D01*
X138519519Y-93069487D01*
X138503359Y-93092823D01*
X138486394Y-93114795D01*
X138468744Y-93135558D01*
X138450526Y-93155268D01*
X138431859Y-93174081D01*
X138393654Y-93209637D01*
X138355076Y-93243470D01*
X138317076Y-93276826D01*
X138280600Y-93310949D01*
X138263231Y-93328687D01*
X138246599Y-93347085D01*
X138230823Y-93366296D01*
X138216021Y-93386477D01*
X138202312Y-93407784D01*
X138189815Y-93430372D01*
X138178648Y-93454397D01*
X138168930Y-93480014D01*
X138160779Y-93507379D01*
X138154313Y-93536647D01*
X138149653Y-93567975D01*
X138146915Y-93601517D01*
X138146560Y-93640678D01*
X138149410Y-93677465D01*
X138155238Y-93712062D01*
X138163818Y-93744647D01*
X138174923Y-93775403D01*
X138188326Y-93804509D01*
X138203800Y-93832147D01*
X138221119Y-93858498D01*
X138240054Y-93883742D01*
X138260381Y-93908061D01*
X138304297Y-93954645D01*
X138398832Y-94044661D01*
X138445821Y-94090988D01*
X138468452Y-94115114D01*
X138490205Y-94140123D01*
X138510852Y-94166195D01*
X138530168Y-94193512D01*
X138547924Y-94222255D01*
X138563895Y-94252603D01*
X138577853Y-94284739D01*
X138589571Y-94318843D01*
X138598823Y-94355095D01*
X138605382Y-94393677D01*
X138609021Y-94434770D01*
X138609512Y-94478554D01*
X138606630Y-94525210D01*
X138600147Y-94574919D01*
X138595822Y-94598564D01*
X138590600Y-94621862D01*
X138584498Y-94644795D01*
X138577534Y-94667344D01*
X138569727Y-94689490D01*
X138561095Y-94711216D01*
X138551657Y-94732502D01*
X138541430Y-94753331D01*
X138518685Y-94793543D01*
X138493005Y-94831704D01*
X138464537Y-94867666D01*
X138433426Y-94901283D01*
X138399820Y-94932407D01*
X138363864Y-94960891D01*
X138325704Y-94986587D01*
X138285487Y-95009349D01*
X138264652Y-95019583D01*
X138243358Y-95029028D01*
X138221622Y-95037666D01*
X138199464Y-95045479D01*
X138176900Y-95052447D01*
X138153950Y-95058553D01*
X138130632Y-95063777D01*
X138106963Y-95068103D01*
X138032117Y-95070963D01*
X137901233Y-95065759D01*
X137501084Y-95035360D01*
X136355356Y-94924037D01*
X135687515Y-94856347D01*
X135145433Y-94801403D01*
X134665040Y-94756866D01*
X134374199Y-94736623D01*
X134346970Y-94734728D01*
X134260418Y-94724187D01*
X134174905Y-94709793D01*
X134090524Y-94691638D01*
X134007370Y-94669816D01*
X133925538Y-94644419D01*
X133845122Y-94615542D01*
X133766216Y-94583277D01*
X133688914Y-94547717D01*
X133613311Y-94508956D01*
X133539501Y-94467086D01*
X133467578Y-94422202D01*
X133397637Y-94374396D01*
X133329772Y-94323762D01*
X133264078Y-94270392D01*
X133200648Y-94214380D01*
X133139577Y-94155819D01*
X133080959Y-94094803D01*
X133024890Y-94031424D01*
X132971462Y-93965776D01*
X132920770Y-93897952D01*
X132872909Y-93828045D01*
X132827973Y-93756148D01*
X132786057Y-93682356D01*
X132747254Y-93606759D01*
X132711659Y-93529453D01*
X132692117Y-93481693D01*
X133996467Y-93481693D01*
X134000366Y-93528228D01*
X134010502Y-93584368D01*
X134025891Y-93635191D01*
X134046103Y-93680809D01*
X134070708Y-93721335D01*
X134099278Y-93756884D01*
X134131383Y-93787567D01*
X134166593Y-93813497D01*
X134204480Y-93834789D01*
X134244613Y-93851554D01*
X134286563Y-93863907D01*
X134329902Y-93871960D01*
X134374199Y-93875825D01*
X134419025Y-93875617D01*
X134463951Y-93871448D01*
X134508548Y-93863432D01*
X134552386Y-93851681D01*
X134595035Y-93836308D01*
X134636067Y-93817428D01*
X134675052Y-93795151D01*
X134711560Y-93769593D01*
X134745163Y-93740865D01*
X134775430Y-93709081D01*
X134801933Y-93674355D01*
X134824241Y-93636798D01*
X134841926Y-93596524D01*
X134854559Y-93553647D01*
X134861709Y-93508279D01*
X134862948Y-93460533D01*
X134857846Y-93410522D01*
X134845974Y-93358360D01*
X134826902Y-93304160D01*
X134800201Y-93248034D01*
X134778941Y-93212411D01*
X134755334Y-93180077D01*
X134729592Y-93150990D01*
X134701926Y-93125107D01*
X134672544Y-93102384D01*
X134641659Y-93082781D01*
X134609481Y-93066253D01*
X134576219Y-93052759D01*
X134542085Y-93042256D01*
X134507289Y-93034701D01*
X134472042Y-93030052D01*
X134436554Y-93028266D01*
X134401035Y-93029301D01*
X134373315Y-93032291D01*
X134365696Y-93033113D01*
X134330748Y-93039661D01*
X134296401Y-93048902D01*
X134262866Y-93060793D01*
X134230353Y-93075292D01*
X134199072Y-93092355D01*
X134169235Y-93111941D01*
X134141051Y-93134008D01*
X134114731Y-93158511D01*
X134090485Y-93185409D01*
X134068525Y-93214659D01*
X134049060Y-93246219D01*
X134032302Y-93280046D01*
X134018460Y-93316097D01*
X134007745Y-93354330D01*
X134000367Y-93394702D01*
X133996538Y-93437171D01*
X133996467Y-93481693D01*
X132692117Y-93481693D01*
X132679366Y-93450530D01*
X132650470Y-93370084D01*
X132625064Y-93288207D01*
X132603244Y-93204993D01*
X132585104Y-93120536D01*
X132570737Y-93034927D01*
X132560239Y-92948261D01*
X132552958Y-92846925D01*
X132551012Y-92750385D01*
X135127677Y-92750385D01*
X135128077Y-92798288D01*
X135133576Y-92848249D01*
X135135308Y-92857410D01*
X135137563Y-92866724D01*
X135140318Y-92876172D01*
X135143552Y-92885734D01*
X135151369Y-92905123D01*
X135160841Y-92924738D01*
X135171793Y-92944424D01*
X135184052Y-92964028D01*
X135197444Y-92983394D01*
X135211794Y-93002368D01*
X135226928Y-93020797D01*
X135242673Y-93038526D01*
X135258854Y-93055401D01*
X135275298Y-93071268D01*
X135291830Y-93085971D01*
X135308276Y-93099358D01*
X135324463Y-93111273D01*
X135340216Y-93121563D01*
X135387463Y-93147694D01*
X135435920Y-93169525D01*
X135485334Y-93187192D01*
X135535453Y-93200831D01*
X135586024Y-93210578D01*
X135636796Y-93216571D01*
X135687515Y-93218946D01*
X135737930Y-93217839D01*
X135787788Y-93213386D01*
X135836836Y-93205723D01*
X135884823Y-93194989D01*
X135931496Y-93181318D01*
X135976602Y-93164847D01*
X136019890Y-93145713D01*
X136061107Y-93124051D01*
X136100000Y-93100000D01*
X136136317Y-93073694D01*
X136169807Y-93045270D01*
X136200215Y-93014865D01*
X136227291Y-92982616D01*
X136250781Y-92948658D01*
X136270434Y-92913127D01*
X136285997Y-92876162D01*
X136297218Y-92837897D01*
X136303844Y-92798469D01*
X136305623Y-92758015D01*
X136302302Y-92716672D01*
X136293630Y-92674574D01*
X136279354Y-92631860D01*
X136259221Y-92588666D01*
X136232979Y-92545127D01*
X136200376Y-92501380D01*
X136168414Y-92465867D01*
X136133768Y-92433812D01*
X136096699Y-92405167D01*
X136057466Y-92379885D01*
X136016328Y-92357921D01*
X135973544Y-92339226D01*
X135929375Y-92323756D01*
X135884079Y-92311463D01*
X135837917Y-92302300D01*
X135791146Y-92296221D01*
X135744028Y-92293179D01*
X135696821Y-92293128D01*
X135649785Y-92296020D01*
X135603179Y-92301809D01*
X135557262Y-92310449D01*
X135512294Y-92321893D01*
X135468535Y-92336094D01*
X135426244Y-92353006D01*
X135385680Y-92372581D01*
X135347103Y-92394774D01*
X135310772Y-92419537D01*
X135276947Y-92446825D01*
X135245886Y-92476589D01*
X135217850Y-92508784D01*
X135193098Y-92543363D01*
X135171890Y-92580280D01*
X135154484Y-92619487D01*
X135141140Y-92660938D01*
X135132118Y-92704586D01*
X135127677Y-92750385D01*
X132551012Y-92750385D01*
X132550931Y-92746359D01*
X132554040Y-92646701D01*
X132562166Y-92548090D01*
X132575191Y-92450664D01*
X132592997Y-92354562D01*
X132615465Y-92259923D01*
X132642479Y-92166885D01*
X132671892Y-92081472D01*
X133996400Y-92081472D01*
X134000366Y-92128053D01*
X134010537Y-92184228D01*
X134025932Y-92235056D01*
X134046124Y-92280655D01*
X134070686Y-92321139D01*
X134099193Y-92356625D01*
X134131216Y-92387227D01*
X134166330Y-92413062D01*
X134204107Y-92434246D01*
X134244121Y-92450894D01*
X134285945Y-92463122D01*
X134329152Y-92471045D01*
X134373315Y-92474780D01*
X134418008Y-92474443D01*
X134462804Y-92470148D01*
X134507276Y-92462012D01*
X134550997Y-92450150D01*
X134593540Y-92434678D01*
X134634480Y-92415713D01*
X134673388Y-92393369D01*
X134709839Y-92367762D01*
X134743405Y-92339008D01*
X134773660Y-92307223D01*
X134800177Y-92272523D01*
X134822529Y-92235023D01*
X134840290Y-92194839D01*
X134853032Y-92152087D01*
X134860329Y-92106883D01*
X134861754Y-92059341D01*
X134856881Y-92009579D01*
X134845282Y-91957712D01*
X134826531Y-91903855D01*
X134800201Y-91848124D01*
X134779031Y-91812476D01*
X134755500Y-91780115D01*
X134729818Y-91751000D01*
X134702197Y-91725087D01*
X134672848Y-91702336D01*
X134641984Y-91682703D01*
X134609815Y-91666145D01*
X134576554Y-91652622D01*
X134542411Y-91642089D01*
X134507598Y-91634506D01*
X134472327Y-91629829D01*
X134436809Y-91628016D01*
X134401256Y-91629026D01*
X134365879Y-91632815D01*
X134330890Y-91639341D01*
X134296501Y-91648562D01*
X134262922Y-91660435D01*
X134230365Y-91674919D01*
X134199042Y-91691971D01*
X134169165Y-91711548D01*
X134140944Y-91733608D01*
X134114592Y-91758110D01*
X134090320Y-91785009D01*
X134068339Y-91814265D01*
X134048861Y-91845835D01*
X134032097Y-91879676D01*
X134018260Y-91915746D01*
X134007560Y-91954003D01*
X134000209Y-91994405D01*
X133996419Y-92036909D01*
X133996400Y-92081472D01*
X132671892Y-92081472D01*
X132673919Y-92075586D01*
X132709667Y-91986167D01*
X132749605Y-91898764D01*
X132793615Y-91813517D01*
X132841579Y-91730564D01*
X132893379Y-91650044D01*
X132948896Y-91572095D01*
X133008013Y-91496856D01*
X133070611Y-91424466D01*
X133136572Y-91355064D01*
X133205777Y-91288787D01*
X133278110Y-91225775D01*
X133353451Y-91166165D01*
X133431682Y-91110098D01*
X133512685Y-91057711D01*
X133596343Y-91009142D01*
X133682536Y-90964532D01*
X133771148Y-90924017D01*
X133862058Y-90887737D01*
X133955150Y-90855830D01*
X134050306Y-90828436D01*
X134147406Y-90805691D01*
X134246334Y-90787736D01*
X134346970Y-90774709D01*
X137893709Y-90441334D01*
X137932087Y-90436766D01*
X137970083Y-90434385D01*
X138007631Y-90434140D01*
X138044663Y-90435978D01*
G37*
D11*
X120500000Y-91300000D02*
X120500000Y-90500000D01*
X121250000Y-97350000D02*
G75*
G02*
X119750000Y-97350000I-750000J0D01*
G01*
X119750000Y-97350000D02*
G75*
G02*
X121250000Y-97350000I750000J0D01*
G01*
D12*
G36*
X142415821Y-93995823D02*
G01*
X142440496Y-93997700D01*
X142464811Y-94000790D01*
X142488736Y-94005064D01*
X142512239Y-94010490D01*
X142535292Y-94017038D01*
X142557863Y-94024678D01*
X142579921Y-94033378D01*
X142601437Y-94043108D01*
X142622379Y-94053837D01*
X142642718Y-94065535D01*
X142662424Y-94078172D01*
X142681464Y-94091715D01*
X142699810Y-94106136D01*
X142717430Y-94121403D01*
X142734295Y-94137485D01*
X142750373Y-94154352D01*
X142765635Y-94171974D01*
X142780049Y-94190319D01*
X142793586Y-94209358D01*
X142806215Y-94229059D01*
X142817906Y-94249391D01*
X142828627Y-94270325D01*
X142838350Y-94291829D01*
X142847042Y-94313874D01*
X142854674Y-94336427D01*
X142861216Y-94359459D01*
X142866637Y-94382940D01*
X142870905Y-94406837D01*
X142873992Y-94431122D01*
X142875867Y-94455762D01*
X142876498Y-94480728D01*
X142876045Y-94501911D01*
X142874696Y-94522862D01*
X142872471Y-94543562D01*
X142869388Y-94563993D01*
X142865466Y-94584137D01*
X142860723Y-94603975D01*
X142855177Y-94623489D01*
X142848847Y-94642659D01*
X142833910Y-94679896D01*
X142816060Y-94715539D01*
X142795444Y-94749439D01*
X142772210Y-94781447D01*
X142746506Y-94811416D01*
X142718481Y-94839196D01*
X142688282Y-94864641D01*
X142656058Y-94887602D01*
X142621956Y-94907929D01*
X142586125Y-94925476D01*
X142567607Y-94933160D01*
X142548712Y-94940094D01*
X142529458Y-94946258D01*
X142509865Y-94951634D01*
X142503430Y-94953232D01*
X142496954Y-94954736D01*
X142490440Y-94956147D01*
X142483890Y-94957467D01*
X142477304Y-94958698D01*
X142470686Y-94959841D01*
X142464037Y-94960899D01*
X142457359Y-94961873D01*
X142449132Y-94962859D01*
X142440896Y-94963731D01*
X142432644Y-94964483D01*
X142424365Y-94965110D01*
X142416052Y-94965607D01*
X142407695Y-94965969D01*
X142399286Y-94966190D01*
X142390816Y-94966264D01*
X142365851Y-94965632D01*
X142341212Y-94963757D01*
X142316928Y-94960668D01*
X142293031Y-94956396D01*
X142269552Y-94950973D01*
X142246520Y-94944428D01*
X142223967Y-94936792D01*
X142201923Y-94928096D01*
X142180419Y-94918370D01*
X142159485Y-94907644D01*
X142139153Y-94895950D01*
X142119452Y-94883318D01*
X142100414Y-94869778D01*
X142082068Y-94855362D01*
X142064446Y-94840098D01*
X142047579Y-94824019D01*
X142031496Y-94807155D01*
X142016229Y-94789536D01*
X142001808Y-94771192D01*
X141988264Y-94752155D01*
X141975627Y-94732455D01*
X141963929Y-94712122D01*
X141953199Y-94691188D01*
X141943468Y-94669682D01*
X141934768Y-94647634D01*
X141927128Y-94625077D01*
X141920580Y-94602040D01*
X141915153Y-94578554D01*
X141910879Y-94554649D01*
X141907789Y-94530356D01*
X141905912Y-94505705D01*
X141905279Y-94480728D01*
X141905279Y-94480715D01*
X141956027Y-94480715D01*
X141956592Y-94503103D01*
X141958271Y-94525196D01*
X141961036Y-94546968D01*
X141964860Y-94568390D01*
X141969715Y-94589436D01*
X141975574Y-94610078D01*
X141982410Y-94630289D01*
X141990196Y-94650042D01*
X141998903Y-94669309D01*
X142008506Y-94688063D01*
X142018977Y-94706277D01*
X142030287Y-94723923D01*
X142042411Y-94740975D01*
X142055321Y-94757404D01*
X142068989Y-94773184D01*
X142083389Y-94788288D01*
X142098492Y-94802687D01*
X142114272Y-94816355D01*
X142130702Y-94829265D01*
X142147753Y-94841389D01*
X142165400Y-94852700D01*
X142183613Y-94863170D01*
X142202367Y-94872773D01*
X142221634Y-94881481D01*
X142241387Y-94889266D01*
X142261598Y-94896102D01*
X142282240Y-94901961D01*
X142303286Y-94906816D01*
X142324709Y-94910640D01*
X142346480Y-94913405D01*
X142368574Y-94915084D01*
X142390962Y-94915649D01*
X142404841Y-94915431D01*
X142418615Y-94914781D01*
X142432275Y-94913705D01*
X142445816Y-94912211D01*
X142459231Y-94910304D01*
X142472513Y-94907992D01*
X142485657Y-94905281D01*
X142498654Y-94902178D01*
X142511498Y-94898689D01*
X142524184Y-94894821D01*
X142536703Y-94890581D01*
X142549051Y-94885975D01*
X142561219Y-94881011D01*
X142573201Y-94875694D01*
X142584992Y-94870031D01*
X142596583Y-94864030D01*
X142596582Y-94864030D01*
X142606412Y-94850258D01*
X142615710Y-94836100D01*
X142624462Y-94821568D01*
X142632654Y-94806676D01*
X142640272Y-94791440D01*
X142647302Y-94775872D01*
X142653729Y-94759986D01*
X142659540Y-94743797D01*
X142664720Y-94727318D01*
X142669256Y-94710563D01*
X142673132Y-94693547D01*
X142676336Y-94676283D01*
X142678852Y-94658786D01*
X142680667Y-94641068D01*
X142681766Y-94623145D01*
X142682135Y-94605029D01*
X142681569Y-94582654D01*
X142679889Y-94560572D01*
X142677122Y-94538810D01*
X142673296Y-94517395D01*
X142668438Y-94496356D01*
X142662575Y-94475720D01*
X142655736Y-94455513D01*
X142647946Y-94435763D01*
X142639234Y-94416498D01*
X142629627Y-94397745D01*
X142619152Y-94379532D01*
X142607836Y-94361884D01*
X142595708Y-94344832D01*
X142582794Y-94328400D01*
X142569122Y-94312617D01*
X142554719Y-94297511D01*
X142539612Y-94283107D01*
X142523829Y-94269435D01*
X142507398Y-94256521D01*
X142490345Y-94244393D01*
X142472698Y-94233078D01*
X142454484Y-94222603D01*
X142435731Y-94212995D01*
X142416466Y-94204283D01*
X142396717Y-94196494D01*
X142376510Y-94189654D01*
X142355873Y-94183791D01*
X142334834Y-94178933D01*
X142313420Y-94175107D01*
X142291658Y-94172340D01*
X142269576Y-94170660D01*
X142247200Y-94170094D01*
X142233322Y-94170310D01*
X142219554Y-94170956D01*
X142205901Y-94172026D01*
X142192369Y-94173512D01*
X142178965Y-94175410D01*
X142165695Y-94177713D01*
X142152565Y-94180416D01*
X142139581Y-94183511D01*
X142126750Y-94186994D01*
X142114078Y-94190858D01*
X142101570Y-94195098D01*
X142089234Y-94199706D01*
X142077075Y-94204678D01*
X142065100Y-94210008D01*
X142053315Y-94215688D01*
X142041725Y-94221713D01*
X142041719Y-94221714D01*
X142041712Y-94221714D01*
X142041702Y-94221716D01*
X142041691Y-94221718D01*
X142041679Y-94221721D01*
X142041666Y-94221726D01*
X142041659Y-94221728D01*
X142041652Y-94221732D01*
X142041645Y-94221735D01*
X142041639Y-94221739D01*
X142041632Y-94221744D01*
X142041626Y-94221749D01*
X142041619Y-94221755D01*
X142041613Y-94221761D01*
X142041608Y-94221767D01*
X142041602Y-94221775D01*
X142041597Y-94221783D01*
X142041593Y-94221792D01*
X142041589Y-94221801D01*
X142041586Y-94221811D01*
X142041583Y-94221822D01*
X142041581Y-94221833D01*
X142041580Y-94221846D01*
X142041579Y-94221859D01*
X142031750Y-94235630D01*
X142022452Y-94249789D01*
X142013700Y-94264320D01*
X142005508Y-94279210D01*
X141997890Y-94294445D01*
X141990860Y-94310010D01*
X141984433Y-94325891D01*
X141978622Y-94342074D01*
X141973442Y-94358545D01*
X141968906Y-94375290D01*
X141965030Y-94392294D01*
X141961826Y-94409544D01*
X141959310Y-94427025D01*
X141957495Y-94444724D01*
X141956396Y-94462625D01*
X141956027Y-94480715D01*
X141905279Y-94480715D01*
X141905354Y-94472253D01*
X141905577Y-94463834D01*
X141905944Y-94455469D01*
X141906452Y-94447161D01*
X141907096Y-94438907D01*
X141907874Y-94430709D01*
X141908782Y-94422565D01*
X141909817Y-94414476D01*
X141912207Y-94398873D01*
X141915096Y-94383442D01*
X141918476Y-94368190D01*
X141922337Y-94353123D01*
X141926671Y-94338248D01*
X141931469Y-94323572D01*
X141936724Y-94309102D01*
X141942427Y-94294845D01*
X141949547Y-94278519D01*
X141957243Y-94262510D01*
X141965503Y-94246832D01*
X141974313Y-94231498D01*
X141983659Y-94216521D01*
X141993530Y-94201914D01*
X142003911Y-94187690D01*
X142014789Y-94173863D01*
X142026151Y-94160445D01*
X142037985Y-94147450D01*
X142050276Y-94134891D01*
X142063012Y-94122781D01*
X142076179Y-94111134D01*
X142089765Y-94099962D01*
X142103755Y-94089278D01*
X142118138Y-94079097D01*
X142132900Y-94069430D01*
X142148027Y-94060292D01*
X142163506Y-94051695D01*
X142179325Y-94043652D01*
X142195470Y-94036177D01*
X142211927Y-94029284D01*
X142228685Y-94022984D01*
X142245729Y-94017291D01*
X142247200Y-94016860D01*
X142263046Y-94012219D01*
X142280624Y-94007780D01*
X142298449Y-94003988D01*
X142316507Y-94000856D01*
X142334786Y-93998397D01*
X142353273Y-93996624D01*
X142371954Y-93995551D01*
X142390816Y-93995191D01*
X142415821Y-93995823D01*
G37*
G36*
X139486049Y-87342393D02*
G01*
X139488489Y-87342422D01*
X139489696Y-87342454D01*
X139490880Y-87342501D01*
X139492027Y-87342566D01*
X139493126Y-87342654D01*
X139510372Y-87343524D01*
X139527381Y-87345235D01*
X139544133Y-87347765D01*
X139560608Y-87351093D01*
X139576785Y-87355200D01*
X139592644Y-87360064D01*
X139608165Y-87365666D01*
X139623327Y-87371983D01*
X139638109Y-87378997D01*
X139652492Y-87386687D01*
X139666455Y-87395031D01*
X139679978Y-87404010D01*
X139693039Y-87413602D01*
X139705620Y-87423788D01*
X139717698Y-87434547D01*
X139729255Y-87445858D01*
X139740269Y-87457700D01*
X139750721Y-87470054D01*
X139760589Y-87482898D01*
X139769854Y-87496212D01*
X139778495Y-87509976D01*
X139786491Y-87524169D01*
X139793823Y-87538770D01*
X139800469Y-87553759D01*
X139806410Y-87569115D01*
X139811625Y-87584818D01*
X139816093Y-87600848D01*
X139819795Y-87617183D01*
X139822710Y-87633803D01*
X139824817Y-87650688D01*
X139826096Y-87667817D01*
X139826527Y-87685170D01*
X139826188Y-87700577D01*
X139825177Y-87715809D01*
X139823512Y-87730851D01*
X139821204Y-87745689D01*
X139818270Y-87760307D01*
X139814723Y-87774693D01*
X139810579Y-87788830D01*
X139805850Y-87802706D01*
X139800552Y-87816305D01*
X139794700Y-87829614D01*
X139788307Y-87842617D01*
X139781388Y-87855301D01*
X139773957Y-87867651D01*
X139766029Y-87879652D01*
X139757619Y-87891290D01*
X139748740Y-87902552D01*
X139732532Y-87923024D01*
X139717154Y-87944034D01*
X139702635Y-87965557D01*
X139689009Y-87987570D01*
X139676307Y-88010050D01*
X139664559Y-88032972D01*
X139653798Y-88056313D01*
X139644056Y-88080049D01*
X139635363Y-88104157D01*
X139627751Y-88128613D01*
X139621252Y-88153393D01*
X139615898Y-88178473D01*
X139611719Y-88203831D01*
X139608748Y-88229442D01*
X139607015Y-88255283D01*
X139606553Y-88281329D01*
X139601460Y-96963142D01*
X139601302Y-96980515D01*
X139602076Y-97000455D01*
X139604283Y-97026317D01*
X139608571Y-97056918D01*
X139615586Y-97091072D01*
X139625977Y-97127595D01*
X139632641Y-97146375D01*
X139640391Y-97165303D01*
X139649310Y-97184231D01*
X139659477Y-97203011D01*
X139670974Y-97221495D01*
X139683882Y-97239534D01*
X139698281Y-97256982D01*
X139714253Y-97273688D01*
X139731878Y-97289507D01*
X139751238Y-97304289D01*
X139772414Y-97317887D01*
X139795486Y-97330152D01*
X139820536Y-97340936D01*
X139847644Y-97350091D01*
X139876891Y-97357470D01*
X139908359Y-97362924D01*
X139942128Y-97366305D01*
X139978279Y-97367465D01*
X147844116Y-97358892D01*
X147857920Y-97358842D01*
X147873764Y-97357692D01*
X147894313Y-97354825D01*
X147918627Y-97349515D01*
X147931901Y-97345718D01*
X147945764Y-97341038D01*
X147960097Y-97335385D01*
X147974784Y-97328668D01*
X147989705Y-97320797D01*
X148004745Y-97311680D01*
X148019784Y-97301228D01*
X148034706Y-97289349D01*
X148049392Y-97275953D01*
X148063726Y-97260950D01*
X148077588Y-97244247D01*
X148090863Y-97225756D01*
X148103432Y-97205385D01*
X148115177Y-97183044D01*
X148125981Y-97158642D01*
X148135726Y-97132088D01*
X148144295Y-97103291D01*
X148151569Y-97072162D01*
X148157432Y-97038609D01*
X148161765Y-97002542D01*
X148164452Y-96963869D01*
X148165373Y-96922501D01*
X148159036Y-91255920D01*
X148156772Y-91235583D01*
X148150152Y-91208869D01*
X148139083Y-91176839D01*
X148123474Y-91140555D01*
X148103232Y-91101076D01*
X148078265Y-91059464D01*
X148048482Y-91016780D01*
X148031756Y-90995368D01*
X148013790Y-90974085D01*
X147994574Y-90953065D01*
X147974097Y-90932439D01*
X147952346Y-90912342D01*
X147929311Y-90892904D01*
X147904979Y-90874260D01*
X147879340Y-90856541D01*
X147852381Y-90839880D01*
X147824091Y-90824410D01*
X147794459Y-90810264D01*
X147763474Y-90797573D01*
X147731123Y-90786471D01*
X147697395Y-90777090D01*
X147662278Y-90769562D01*
X147625762Y-90764022D01*
X147587835Y-90760600D01*
X147548484Y-90759430D01*
X144695549Y-90759430D01*
X144685626Y-90759680D01*
X144675829Y-90760423D01*
X144666171Y-90761647D01*
X144656664Y-90763339D01*
X144647320Y-90765488D01*
X144638154Y-90768082D01*
X144629176Y-90771109D01*
X144620400Y-90774558D01*
X144611839Y-90778415D01*
X144603505Y-90782670D01*
X144595411Y-90787311D01*
X144587570Y-90792325D01*
X144579994Y-90797701D01*
X144572696Y-90803426D01*
X144565688Y-90809489D01*
X144558984Y-90815879D01*
X144552548Y-90822567D01*
X144546443Y-90829560D01*
X144540681Y-90836846D01*
X144535273Y-90844413D01*
X144530229Y-90852247D01*
X144525561Y-90860335D01*
X144521281Y-90868666D01*
X144517398Y-90877226D01*
X144513925Y-90886002D01*
X144510872Y-90894983D01*
X144508250Y-90904155D01*
X144506072Y-90913506D01*
X144504347Y-90923023D01*
X144503087Y-90932693D01*
X144502303Y-90942504D01*
X144502006Y-90952443D01*
X144502202Y-90962447D01*
X144502897Y-90972319D01*
X144504081Y-90982049D01*
X144505740Y-90991624D01*
X144507862Y-91001032D01*
X144510435Y-91010260D01*
X144513446Y-91019296D01*
X144516884Y-91028128D01*
X144520735Y-91036743D01*
X144524988Y-91045130D01*
X144529631Y-91053276D01*
X144534650Y-91061169D01*
X144540035Y-91068796D01*
X144545771Y-91076145D01*
X144551848Y-91083205D01*
X144558253Y-91089962D01*
X144564973Y-91096405D01*
X144571997Y-91102521D01*
X144579311Y-91108298D01*
X144586905Y-91113724D01*
X144594764Y-91118786D01*
X144602878Y-91123472D01*
X144611233Y-91127770D01*
X144619818Y-91131668D01*
X144628620Y-91135153D01*
X144637627Y-91138213D01*
X144646827Y-91140836D01*
X144656207Y-91143010D01*
X144665755Y-91144722D01*
X144675459Y-91145960D01*
X144685306Y-91146712D01*
X144695284Y-91146965D01*
X147421048Y-91148579D01*
X147441516Y-91149126D01*
X147461723Y-91150684D01*
X147481646Y-91153226D01*
X147501257Y-91156729D01*
X147520532Y-91161166D01*
X147539446Y-91166512D01*
X147557971Y-91172742D01*
X147576084Y-91179831D01*
X147593759Y-91187753D01*
X147610970Y-91196484D01*
X147627691Y-91205997D01*
X147643897Y-91216268D01*
X147659563Y-91227271D01*
X147674663Y-91238981D01*
X147689172Y-91251372D01*
X147703064Y-91264421D01*
X147716314Y-91278100D01*
X147728895Y-91292385D01*
X147740784Y-91307251D01*
X147751953Y-91322671D01*
X147762378Y-91338622D01*
X147772033Y-91355078D01*
X147780893Y-91372013D01*
X147788933Y-91389402D01*
X147796125Y-91407220D01*
X147802446Y-91425442D01*
X147807870Y-91444041D01*
X147812371Y-91462994D01*
X147815923Y-91482275D01*
X147818502Y-91501858D01*
X147820081Y-91521718D01*
X147820635Y-91541830D01*
X147829011Y-92814523D01*
X147836444Y-93412143D01*
X147836349Y-93415830D01*
X147836068Y-93419471D01*
X147835605Y-93423060D01*
X147834964Y-93426593D01*
X147834151Y-93430065D01*
X147833169Y-93433471D01*
X147832023Y-93436808D01*
X147830717Y-93440070D01*
X147829257Y-93443253D01*
X147827646Y-93446352D01*
X147825890Y-93449363D01*
X147823992Y-93452281D01*
X147821957Y-93455101D01*
X147819790Y-93457819D01*
X147817496Y-93460431D01*
X147815077Y-93462931D01*
X147812541Y-93465315D01*
X147809889Y-93467579D01*
X147807128Y-93469718D01*
X147804262Y-93471726D01*
X147801295Y-93473601D01*
X147798232Y-93475337D01*
X147795077Y-93476929D01*
X147791835Y-93478373D01*
X147788510Y-93479664D01*
X147785107Y-93480799D01*
X147781631Y-93481771D01*
X147778085Y-93482577D01*
X147774474Y-93483211D01*
X147770804Y-93483670D01*
X147767078Y-93483949D01*
X147763300Y-93484043D01*
X145006368Y-93484043D01*
X145005246Y-93484070D01*
X145004140Y-93484148D01*
X145003052Y-93484278D01*
X145001983Y-93484457D01*
X145000934Y-93484685D01*
X144999907Y-93484960D01*
X144998902Y-93485281D01*
X144997921Y-93485646D01*
X144996965Y-93486055D01*
X144996036Y-93486506D01*
X144995134Y-93486998D01*
X144994262Y-93487530D01*
X144993419Y-93488100D01*
X144992609Y-93488708D01*
X144991831Y-93489351D01*
X144991087Y-93490029D01*
X144990378Y-93490741D01*
X144989706Y-93491485D01*
X144989072Y-93492260D01*
X144988477Y-93493065D01*
X144987922Y-93493898D01*
X144987409Y-93494758D01*
X144986939Y-93495645D01*
X144986513Y-93496556D01*
X144986132Y-93497491D01*
X144985798Y-93498448D01*
X144985512Y-93499426D01*
X144985275Y-93500424D01*
X144985088Y-93501440D01*
X144984954Y-93502474D01*
X144984872Y-93503523D01*
X144984844Y-93504588D01*
X144987235Y-93599547D01*
X144990573Y-93651291D01*
X144995967Y-93705110D01*
X145003886Y-93760427D01*
X145014799Y-93816667D01*
X145029177Y-93873253D01*
X145047487Y-93929610D01*
X145070201Y-93985160D01*
X145083356Y-94012453D01*
X145097788Y-94039328D01*
X145113555Y-94065714D01*
X145130717Y-94091538D01*
X145149332Y-94116728D01*
X145169458Y-94141213D01*
X145191154Y-94164920D01*
X145214480Y-94187778D01*
X145239494Y-94209714D01*
X145266254Y-94230656D01*
X145294819Y-94250532D01*
X145325248Y-94269271D01*
X145357599Y-94286800D01*
X145391932Y-94303047D01*
X145392166Y-94303120D01*
X145392400Y-94303198D01*
X145392871Y-94303363D01*
X145393342Y-94303526D01*
X145393577Y-94303601D01*
X145393811Y-94303669D01*
X147676755Y-95022556D01*
X147677475Y-95022762D01*
X147678276Y-95022980D01*
X147680016Y-95023432D01*
X147683276Y-95024249D01*
X147737601Y-95035634D01*
X147759443Y-95040718D01*
X147778078Y-95045816D01*
X147786272Y-95048469D01*
X147793760Y-95051244D01*
X147800573Y-95054180D01*
X147806743Y-95057316D01*
X147812302Y-95060693D01*
X147817281Y-95064349D01*
X147821714Y-95068324D01*
X147825631Y-95072657D01*
X147829064Y-95077388D01*
X147832045Y-95082556D01*
X147834605Y-95088201D01*
X147836778Y-95094362D01*
X147838593Y-95101078D01*
X147840084Y-95108389D01*
X147841282Y-95116334D01*
X147842219Y-95124953D01*
X147843437Y-95144369D01*
X147843992Y-95166953D01*
X147844130Y-95222884D01*
X147837793Y-96725400D01*
X147837091Y-96746182D01*
X147835192Y-96766595D01*
X147832134Y-96786611D01*
X147827952Y-96806200D01*
X147822684Y-96825333D01*
X147816365Y-96843984D01*
X147809034Y-96862121D01*
X147800725Y-96879718D01*
X147791476Y-96896745D01*
X147781323Y-96913174D01*
X147770303Y-96928976D01*
X147758452Y-96944123D01*
X147745808Y-96958585D01*
X147732406Y-96972335D01*
X147718283Y-96985343D01*
X147703476Y-96997582D01*
X147688022Y-97009022D01*
X147671956Y-97019634D01*
X147655316Y-97029391D01*
X147638139Y-97038264D01*
X147620460Y-97046223D01*
X147602316Y-97053240D01*
X147583744Y-97059287D01*
X147564781Y-97064336D01*
X147545463Y-97068356D01*
X147525827Y-97071321D01*
X147505909Y-97073200D01*
X147485746Y-97073966D01*
X147465374Y-97073590D01*
X147444830Y-97072044D01*
X147424151Y-97069298D01*
X147403374Y-97065324D01*
X144309283Y-96379669D01*
X144282771Y-96372055D01*
X144257121Y-96365617D01*
X144232331Y-96360295D01*
X144208399Y-96356026D01*
X144163099Y-96350404D01*
X144121200Y-96348263D01*
X144082680Y-96349110D01*
X144047519Y-96352456D01*
X144015696Y-96357811D01*
X143987191Y-96364684D01*
X143961983Y-96372585D01*
X143940052Y-96381023D01*
X143921376Y-96389509D01*
X143905935Y-96397551D01*
X143876108Y-96415481D01*
X143875843Y-96415481D01*
X143798700Y-96465173D01*
X143719641Y-96512154D01*
X143638734Y-96556354D01*
X143556049Y-96597706D01*
X143471653Y-96636141D01*
X143385616Y-96671592D01*
X143298006Y-96703990D01*
X143208892Y-96733267D01*
X143118341Y-96759355D01*
X143026424Y-96782185D01*
X142933207Y-96801690D01*
X142838761Y-96817802D01*
X142743152Y-96830452D01*
X142646451Y-96839572D01*
X142548725Y-96845094D01*
X142450044Y-96846950D01*
X142319605Y-96843708D01*
X142190879Y-96834088D01*
X142064025Y-96818246D01*
X141939201Y-96796338D01*
X141816567Y-96768520D01*
X141696282Y-96734950D01*
X141578504Y-96695783D01*
X141463394Y-96651176D01*
X141351110Y-96601286D01*
X141241810Y-96546268D01*
X141135655Y-96486280D01*
X141032804Y-96421478D01*
X140933414Y-96352018D01*
X140837646Y-96278056D01*
X140745659Y-96199750D01*
X140657611Y-96117255D01*
X140573709Y-96030730D01*
X140494062Y-95940328D01*
X140418829Y-95846206D01*
X140348171Y-95748522D01*
X140282246Y-95647433D01*
X140221216Y-95543096D01*
X140165239Y-95435667D01*
X140114476Y-95325304D01*
X140093540Y-95273118D01*
X142106187Y-95273118D01*
X142106257Y-95293184D01*
X142106390Y-95300540D01*
X142106732Y-95308016D01*
X142107297Y-95315573D01*
X142108103Y-95323177D01*
X142109164Y-95330792D01*
X142110497Y-95338381D01*
X142112117Y-95345908D01*
X142114040Y-95353337D01*
X142116283Y-95360632D01*
X142118861Y-95367757D01*
X142121790Y-95374676D01*
X142125085Y-95381353D01*
X142128764Y-95387752D01*
X142132840Y-95393836D01*
X142137332Y-95399570D01*
X142142253Y-95404917D01*
X142158907Y-95420645D01*
X142176264Y-95435278D01*
X142194274Y-95448827D01*
X142212884Y-95461299D01*
X142232043Y-95472705D01*
X142251702Y-95483054D01*
X142271808Y-95492355D01*
X142292311Y-95500618D01*
X142313160Y-95507851D01*
X142334303Y-95514065D01*
X142355689Y-95519268D01*
X142377268Y-95523470D01*
X142398988Y-95526680D01*
X142420798Y-95528907D01*
X142442647Y-95530162D01*
X142464484Y-95530452D01*
X142507918Y-95528178D01*
X142550692Y-95522161D01*
X142571703Y-95517771D01*
X142592396Y-95512474D01*
X142612719Y-95506278D01*
X142632622Y-95499192D01*
X142652053Y-95491227D01*
X142670961Y-95482391D01*
X142689295Y-95472693D01*
X142707005Y-95462144D01*
X142724038Y-95450751D01*
X142740345Y-95438526D01*
X142755873Y-95425476D01*
X142770573Y-95411611D01*
X142774109Y-95407930D01*
X142777486Y-95404126D01*
X142783771Y-95396198D01*
X142789452Y-95387916D01*
X142794556Y-95379373D01*
X142799108Y-95370658D01*
X142803131Y-95361862D01*
X142806652Y-95353077D01*
X142809696Y-95344392D01*
X142812288Y-95335899D01*
X142814452Y-95327687D01*
X142816215Y-95319849D01*
X142817600Y-95312474D01*
X142818634Y-95305654D01*
X142819342Y-95299479D01*
X142819748Y-95294039D01*
X142819878Y-95289426D01*
X142819878Y-95253336D01*
X142819782Y-95249217D01*
X142819480Y-95245151D01*
X142818977Y-95241144D01*
X142818279Y-95237200D01*
X142817390Y-95233326D01*
X142816316Y-95229525D01*
X142815061Y-95225804D01*
X142813630Y-95222166D01*
X142812029Y-95218618D01*
X142810263Y-95215164D01*
X142808337Y-95211809D01*
X142806256Y-95208558D01*
X142804024Y-95205417D01*
X142801648Y-95202390D01*
X142799131Y-95199482D01*
X142796480Y-95196699D01*
X142793699Y-95194045D01*
X142790793Y-95191526D01*
X142787768Y-95189147D01*
X142784627Y-95186912D01*
X142781378Y-95184827D01*
X142778024Y-95182897D01*
X142774570Y-95181127D01*
X142771023Y-95179521D01*
X142767386Y-95178086D01*
X142763665Y-95176825D01*
X142759864Y-95175745D01*
X142755990Y-95174849D01*
X142752047Y-95174144D01*
X142748040Y-95173634D01*
X142743974Y-95173324D01*
X142739854Y-95173220D01*
X142186372Y-95173220D01*
X142186372Y-95173222D01*
X142182277Y-95173325D01*
X142178233Y-95173631D01*
X142174247Y-95174134D01*
X142170323Y-95174831D01*
X142166467Y-95175716D01*
X142162682Y-95176784D01*
X142158976Y-95178030D01*
X142155351Y-95179450D01*
X142151815Y-95181037D01*
X142148371Y-95182789D01*
X142145024Y-95184699D01*
X142141780Y-95186762D01*
X142138644Y-95188974D01*
X142135621Y-95191330D01*
X142132716Y-95193825D01*
X142129934Y-95196454D01*
X142127279Y-95199212D01*
X142124758Y-95202094D01*
X142122375Y-95205095D01*
X142120134Y-95208210D01*
X142118042Y-95211435D01*
X142116104Y-95214764D01*
X142114323Y-95218192D01*
X142112706Y-95221715D01*
X142111258Y-95225328D01*
X142109982Y-95229026D01*
X142108886Y-95232803D01*
X142107973Y-95236656D01*
X142107248Y-95240578D01*
X142106717Y-95244565D01*
X142106385Y-95248613D01*
X142106257Y-95252715D01*
X142106187Y-95273118D01*
X140093540Y-95273118D01*
X140069086Y-95212165D01*
X140029229Y-95096405D01*
X139995066Y-94978183D01*
X139966756Y-94857656D01*
X139944459Y-94734980D01*
X139928334Y-94610313D01*
X139918542Y-94483811D01*
X139915243Y-94355633D01*
X139915320Y-94332323D01*
X139915505Y-94320670D01*
X139915864Y-94309013D01*
X139915243Y-94309013D01*
X139915243Y-93846284D01*
X140703952Y-93846284D01*
X140704137Y-93853598D01*
X140704687Y-93860815D01*
X140705593Y-93867927D01*
X140706846Y-93874924D01*
X140708436Y-93881798D01*
X140710356Y-93888539D01*
X140712595Y-93895139D01*
X140715146Y-93901589D01*
X140717999Y-93907880D01*
X140721145Y-93914004D01*
X140724576Y-93919950D01*
X140728282Y-93925711D01*
X140732254Y-93931278D01*
X140736484Y-93936641D01*
X140740963Y-93941792D01*
X140745682Y-93946722D01*
X140750631Y-93951422D01*
X140755802Y-93955883D01*
X140761186Y-93960097D01*
X140766774Y-93964054D01*
X140772558Y-93967745D01*
X140778527Y-93971162D01*
X140784674Y-93974295D01*
X140790988Y-93977137D01*
X140797463Y-93979677D01*
X140804088Y-93981908D01*
X140810854Y-93983819D01*
X140817753Y-93985403D01*
X140824776Y-93986651D01*
X140831913Y-93987553D01*
X140839156Y-93988101D01*
X140846496Y-93988285D01*
X140856592Y-93987934D01*
X140866498Y-93986897D01*
X140876192Y-93985197D01*
X140885650Y-93982859D01*
X140894848Y-93979905D01*
X140903763Y-93976359D01*
X140912371Y-93972244D01*
X140920649Y-93967585D01*
X140928573Y-93962405D01*
X140936120Y-93956727D01*
X140943266Y-93950575D01*
X140949987Y-93943972D01*
X140956261Y-93936943D01*
X140962063Y-93929510D01*
X140967371Y-93921697D01*
X140972160Y-93913528D01*
X141180612Y-93913528D01*
X141180612Y-94207453D01*
X141180668Y-94209658D01*
X141180833Y-94211835D01*
X141181106Y-94213980D01*
X141181483Y-94216090D01*
X141181962Y-94218164D01*
X141182541Y-94220197D01*
X141183215Y-94222189D01*
X141183983Y-94224135D01*
X141184842Y-94226034D01*
X141185789Y-94227882D01*
X141186822Y-94229677D01*
X141187938Y-94231416D01*
X141189133Y-94233096D01*
X141190407Y-94234716D01*
X141191755Y-94236271D01*
X141193175Y-94237760D01*
X141194664Y-94239179D01*
X141196220Y-94240526D01*
X141197840Y-94241799D01*
X141199521Y-94242994D01*
X141201261Y-94244109D01*
X141203056Y-94245142D01*
X141204905Y-94246088D01*
X141206804Y-94246947D01*
X141208751Y-94247714D01*
X141210742Y-94248388D01*
X141212777Y-94248966D01*
X141214850Y-94249445D01*
X141216961Y-94249822D01*
X141219106Y-94250095D01*
X141221282Y-94250260D01*
X141223488Y-94250316D01*
X141391313Y-94250316D01*
X141393518Y-94250260D01*
X141395695Y-94250095D01*
X141397839Y-94249822D01*
X141399950Y-94249445D01*
X141402024Y-94248966D01*
X141404058Y-94248388D01*
X141406050Y-94247714D01*
X141407997Y-94246947D01*
X141409896Y-94246088D01*
X141411744Y-94245142D01*
X141413540Y-94244109D01*
X141415279Y-94242994D01*
X141416961Y-94241799D01*
X141418580Y-94240526D01*
X141420136Y-94239179D01*
X141421626Y-94237760D01*
X141423046Y-94236271D01*
X141424394Y-94234716D01*
X141425667Y-94233096D01*
X141426863Y-94231416D01*
X141427978Y-94229677D01*
X141429011Y-94227882D01*
X141429958Y-94226034D01*
X141430817Y-94224135D01*
X141431585Y-94222189D01*
X141432260Y-94220197D01*
X141432838Y-94218164D01*
X141433317Y-94216090D01*
X141433694Y-94213980D01*
X141433967Y-94211835D01*
X141434133Y-94209658D01*
X141434189Y-94207453D01*
X141434189Y-93485088D01*
X141434133Y-93482883D01*
X141433967Y-93480707D01*
X141433694Y-93478564D01*
X141433317Y-93476455D01*
X141432839Y-93474383D01*
X141432261Y-93472351D01*
X141431587Y-93470362D01*
X141430819Y-93468419D01*
X141429961Y-93466523D01*
X141429014Y-93464678D01*
X141427981Y-93462886D01*
X141426866Y-93461151D01*
X141425671Y-93459474D01*
X141424398Y-93457858D01*
X141423050Y-93456306D01*
X141421631Y-93454821D01*
X141420142Y-93453406D01*
X141418586Y-93452062D01*
X141416966Y-93450793D01*
X141415285Y-93449601D01*
X141413546Y-93448490D01*
X141411750Y-93447461D01*
X141409901Y-93446517D01*
X141408002Y-93445661D01*
X141406055Y-93444896D01*
X141404063Y-93444225D01*
X141402028Y-93443649D01*
X141399954Y-93443172D01*
X141397842Y-93442797D01*
X141395697Y-93442525D01*
X141393519Y-93442360D01*
X141391313Y-93442305D01*
X141223488Y-93442305D01*
X141223488Y-93442318D01*
X141221282Y-93442373D01*
X141219106Y-93442538D01*
X141216961Y-93442810D01*
X141214850Y-93443185D01*
X141212777Y-93443662D01*
X141210742Y-93444238D01*
X141208751Y-93444909D01*
X141206804Y-93445674D01*
X141204905Y-93446530D01*
X141203056Y-93447474D01*
X141201261Y-93448503D01*
X141199521Y-93449614D01*
X141197840Y-93450806D01*
X141196220Y-93452075D01*
X141194664Y-93453418D01*
X141193175Y-93454834D01*
X141191755Y-93456319D01*
X141190407Y-93457871D01*
X141189133Y-93459486D01*
X141187938Y-93461163D01*
X141186822Y-93462899D01*
X141185789Y-93464691D01*
X141184842Y-93466536D01*
X141183983Y-93468431D01*
X141183215Y-93470375D01*
X141182541Y-93472364D01*
X141181962Y-93474396D01*
X141181483Y-93476467D01*
X141181106Y-93478576D01*
X141180833Y-93480720D01*
X141180668Y-93482896D01*
X141180612Y-93485101D01*
X141180612Y-93769211D01*
X140966260Y-93769211D01*
X140961287Y-93762034D01*
X140955891Y-93755186D01*
X140950091Y-93748684D01*
X140943906Y-93742548D01*
X140937354Y-93736796D01*
X140930455Y-93731447D01*
X140923227Y-93726519D01*
X140915690Y-93722030D01*
X140907861Y-93718001D01*
X140899760Y-93714448D01*
X140895613Y-93712856D01*
X140891406Y-93711391D01*
X140887140Y-93710054D01*
X140882817Y-93708848D01*
X140878441Y-93707775D01*
X140874013Y-93706837D01*
X140869536Y-93706038D01*
X140865013Y-93705378D01*
X140860444Y-93704862D01*
X140855834Y-93704489D01*
X140851184Y-93704264D01*
X140846496Y-93704189D01*
X140839156Y-93704374D01*
X140831913Y-93704922D01*
X140824776Y-93705826D01*
X140817753Y-93707075D01*
X140810854Y-93708661D01*
X140804088Y-93710575D01*
X140797463Y-93712808D01*
X140790988Y-93715352D01*
X140784674Y-93718197D01*
X140778527Y-93721334D01*
X140772558Y-93724755D01*
X140766774Y-93728450D01*
X140761186Y-93732411D01*
X140755802Y-93736628D01*
X140750631Y-93741094D01*
X140745682Y-93745798D01*
X140740963Y-93750733D01*
X140736484Y-93755888D01*
X140732254Y-93761255D01*
X140728282Y-93766826D01*
X140724576Y-93772591D01*
X140721145Y-93778542D01*
X140717999Y-93784669D01*
X140715146Y-93790964D01*
X140712595Y-93797417D01*
X140710356Y-93804020D01*
X140708436Y-93810764D01*
X140706846Y-93817640D01*
X140705593Y-93824638D01*
X140704687Y-93831751D01*
X140704137Y-93838969D01*
X140703952Y-93846284D01*
X139915243Y-93846284D01*
X139915243Y-93086414D01*
X141511870Y-93086414D01*
X141511870Y-94606260D01*
X141512503Y-94631268D01*
X141514379Y-94655948D01*
X141517470Y-94680270D01*
X141521743Y-94704203D01*
X141527169Y-94727716D01*
X141533718Y-94750779D01*
X141541358Y-94773361D01*
X141550059Y-94795432D01*
X141559791Y-94816961D01*
X141570522Y-94837918D01*
X141582223Y-94858272D01*
X141594863Y-94877992D01*
X141608412Y-94897048D01*
X141622838Y-94915410D01*
X141638112Y-94933046D01*
X141654203Y-94949927D01*
X141671080Y-94966021D01*
X141688713Y-94981299D01*
X141707071Y-94995729D01*
X141726123Y-95009281D01*
X141745840Y-95021924D01*
X141766191Y-95033629D01*
X141787145Y-95044364D01*
X141808671Y-95054098D01*
X141830739Y-95062802D01*
X141853319Y-95070444D01*
X141876380Y-95076995D01*
X141899891Y-95082423D01*
X141923823Y-95086698D01*
X141948143Y-95089789D01*
X141972823Y-95091666D01*
X141997831Y-95092299D01*
X142186372Y-95092299D01*
X142928304Y-95092299D01*
X142953312Y-95091666D01*
X142977991Y-95089789D01*
X143002312Y-95086697D01*
X143026243Y-95082422D01*
X143049755Y-95076994D01*
X143072815Y-95070443D01*
X143095395Y-95062800D01*
X143117464Y-95054096D01*
X143138990Y-95044361D01*
X143159944Y-95033626D01*
X143180294Y-95021921D01*
X143200011Y-95009277D01*
X143219064Y-94995725D01*
X143237422Y-94981295D01*
X143255055Y-94966017D01*
X143271932Y-94949922D01*
X143288022Y-94933041D01*
X143303296Y-94915404D01*
X143317723Y-94897043D01*
X143331271Y-94877986D01*
X143343911Y-94858266D01*
X143355613Y-94837912D01*
X143366344Y-94816955D01*
X143376076Y-94795426D01*
X143384777Y-94773356D01*
X143392417Y-94750774D01*
X143398965Y-94727711D01*
X143404392Y-94704199D01*
X143408665Y-94680267D01*
X143411755Y-94655946D01*
X143413632Y-94631267D01*
X143414264Y-94606260D01*
X143414264Y-93480192D01*
X143492052Y-93480192D01*
X143492052Y-94202557D01*
X143492107Y-94204763D01*
X143492272Y-94206939D01*
X143492544Y-94209084D01*
X143492919Y-94211195D01*
X143493396Y-94213269D01*
X143493972Y-94215303D01*
X143494643Y-94217295D01*
X143495408Y-94219241D01*
X143496264Y-94221141D01*
X143497208Y-94222989D01*
X143498237Y-94224785D01*
X143499348Y-94226524D01*
X143500540Y-94228206D01*
X143501809Y-94229826D01*
X143503153Y-94231382D01*
X143504568Y-94232871D01*
X143506053Y-94234291D01*
X143507605Y-94235639D01*
X143509221Y-94236912D01*
X143510898Y-94238108D01*
X143512633Y-94239224D01*
X143514425Y-94240256D01*
X143516270Y-94241204D01*
X143518166Y-94242063D01*
X143520109Y-94242831D01*
X143522098Y-94243505D01*
X143524130Y-94244083D01*
X143526202Y-94244562D01*
X143528311Y-94244940D01*
X143530454Y-94245212D01*
X143532630Y-94245378D01*
X143534835Y-94245434D01*
X143702739Y-94245434D01*
X143704944Y-94245378D01*
X143707120Y-94245212D01*
X143709264Y-94244940D01*
X143711373Y-94244562D01*
X143713444Y-94244083D01*
X143715476Y-94243505D01*
X143717465Y-94242831D01*
X143719409Y-94242063D01*
X143721305Y-94241204D01*
X143723150Y-94240256D01*
X143724941Y-94239224D01*
X143726677Y-94238108D01*
X143728354Y-94236912D01*
X143729970Y-94235639D01*
X143731521Y-94234291D01*
X143733006Y-94232871D01*
X143734422Y-94231382D01*
X143735766Y-94229826D01*
X143737035Y-94228206D01*
X143738226Y-94226524D01*
X143739338Y-94224785D01*
X143740367Y-94222989D01*
X143741310Y-94221141D01*
X143742166Y-94219241D01*
X143742931Y-94217295D01*
X143743603Y-94215303D01*
X143744178Y-94213269D01*
X143744655Y-94211195D01*
X143745031Y-94209084D01*
X143745302Y-94206939D01*
X143745467Y-94204763D01*
X143745523Y-94202557D01*
X143745523Y-93480192D01*
X143745467Y-93477987D01*
X143745302Y-93475812D01*
X143745031Y-93473668D01*
X143744655Y-93471559D01*
X143744178Y-93469487D01*
X143743603Y-93467456D01*
X143742931Y-93465467D01*
X143742166Y-93463523D01*
X143741310Y-93461627D01*
X143740367Y-93459782D01*
X143739338Y-93457991D01*
X143738226Y-93456255D01*
X143737035Y-93454578D01*
X143735766Y-93452962D01*
X143734422Y-93451411D01*
X143733006Y-93449926D01*
X143731521Y-93448510D01*
X143729970Y-93447166D01*
X143728354Y-93445897D01*
X143726677Y-93444706D01*
X143724941Y-93443594D01*
X143723150Y-93442565D01*
X143721305Y-93441621D01*
X143719409Y-93440766D01*
X143717465Y-93440001D01*
X143715476Y-93439329D01*
X143713444Y-93438753D01*
X143711373Y-93438277D01*
X143709264Y-93437901D01*
X143707120Y-93437629D01*
X143704944Y-93437464D01*
X143702739Y-93437409D01*
X143534835Y-93437409D01*
X143532630Y-93437464D01*
X143530454Y-93437629D01*
X143528311Y-93437901D01*
X143526202Y-93438277D01*
X143524130Y-93438753D01*
X143522098Y-93439329D01*
X143520109Y-93440001D01*
X143518166Y-93440766D01*
X143516270Y-93441621D01*
X143514425Y-93442565D01*
X143512633Y-93443594D01*
X143510898Y-93444706D01*
X143509221Y-93445897D01*
X143507605Y-93447166D01*
X143506053Y-93448510D01*
X143504568Y-93449926D01*
X143503153Y-93451411D01*
X143501809Y-93452962D01*
X143500540Y-93454578D01*
X143499348Y-93456255D01*
X143498237Y-93457991D01*
X143497208Y-93459782D01*
X143496264Y-93461627D01*
X143495408Y-93463523D01*
X143494643Y-93465467D01*
X143493972Y-93467456D01*
X143493396Y-93469487D01*
X143492919Y-93471559D01*
X143492544Y-93473668D01*
X143492272Y-93475812D01*
X143492107Y-93477987D01*
X143492052Y-93480192D01*
X143414264Y-93480192D01*
X143414264Y-93086414D01*
X143413632Y-93061406D01*
X143411755Y-93036727D01*
X143408665Y-93012406D01*
X143404392Y-92988475D01*
X143398965Y-92964963D01*
X143392417Y-92941902D01*
X143384777Y-92919323D01*
X143376076Y-92897254D01*
X143366344Y-92875728D01*
X143355613Y-92854774D01*
X143343911Y-92834424D01*
X143331271Y-92814707D01*
X143317723Y-92795654D01*
X143303296Y-92777296D01*
X143288022Y-92759663D01*
X143271932Y-92742786D01*
X143255055Y-92726696D01*
X143237422Y-92711422D01*
X143219064Y-92696995D01*
X143200011Y-92683447D01*
X143180294Y-92670807D01*
X143159944Y-92659105D01*
X143138990Y-92648374D01*
X143117464Y-92638642D01*
X143095396Y-92629941D01*
X143072816Y-92622301D01*
X143049755Y-92615753D01*
X143026243Y-92610326D01*
X143002312Y-92606053D01*
X142977991Y-92602963D01*
X142953312Y-92601086D01*
X142928304Y-92600454D01*
X141997831Y-92600454D01*
X141997830Y-92600453D01*
X141972823Y-92601086D01*
X141948143Y-92602962D01*
X141923822Y-92606053D01*
X141899891Y-92610326D01*
X141876380Y-92615752D01*
X141853319Y-92622301D01*
X141830739Y-92629941D01*
X141808671Y-92638642D01*
X141787144Y-92648373D01*
X141766191Y-92659105D01*
X141745840Y-92670806D01*
X141726123Y-92683446D01*
X141707071Y-92696995D01*
X141688713Y-92711421D01*
X141671080Y-92726695D01*
X141654203Y-92742786D01*
X141638112Y-92759663D01*
X141622838Y-92777296D01*
X141608412Y-92795654D01*
X141594863Y-92814706D01*
X141582223Y-92834423D01*
X141570522Y-92854774D01*
X141559791Y-92875728D01*
X141550059Y-92897254D01*
X141541358Y-92919322D01*
X141533718Y-92941902D01*
X141527169Y-92964963D01*
X141521743Y-92988474D01*
X141517470Y-93012406D01*
X141514379Y-93036726D01*
X141512503Y-93061406D01*
X141511870Y-93086414D01*
X139915243Y-93086414D01*
X139915243Y-92403167D01*
X142106257Y-92403167D01*
X142106257Y-92439256D01*
X142106353Y-92443384D01*
X142106654Y-92447457D01*
X142107157Y-92451470D01*
X142107855Y-92455419D01*
X142108744Y-92459297D01*
X142109819Y-92463101D01*
X142111074Y-92466826D01*
X142112504Y-92470465D01*
X142114105Y-92474015D01*
X142115871Y-92477469D01*
X142117797Y-92480824D01*
X142119878Y-92484075D01*
X142122110Y-92487215D01*
X142124486Y-92490241D01*
X142127003Y-92493147D01*
X142129654Y-92495928D01*
X142132435Y-92498579D01*
X142135341Y-92501096D01*
X142138366Y-92503472D01*
X142141507Y-92505704D01*
X142144756Y-92507786D01*
X142148110Y-92509714D01*
X142151564Y-92511481D01*
X142155111Y-92513084D01*
X142158748Y-92514517D01*
X142162469Y-92515775D01*
X142166270Y-92516853D01*
X142170144Y-92517746D01*
X142174087Y-92518450D01*
X142178094Y-92518959D01*
X142182160Y-92519267D01*
X142186280Y-92519371D01*
X142739762Y-92519371D01*
X142743857Y-92519268D01*
X142747901Y-92518963D01*
X142751887Y-92518459D01*
X142755811Y-92517762D01*
X142759668Y-92516877D01*
X142763452Y-92515809D01*
X142767159Y-92514563D01*
X142770783Y-92513144D01*
X142774320Y-92511556D01*
X142777764Y-92509805D01*
X142781110Y-92507895D01*
X142784354Y-92505831D01*
X142787490Y-92503619D01*
X142790513Y-92501263D01*
X142793418Y-92498768D01*
X142796201Y-92496140D01*
X142798855Y-92493382D01*
X142801376Y-92490500D01*
X142803760Y-92487499D01*
X142806000Y-92484383D01*
X142808092Y-92481159D01*
X142810030Y-92477830D01*
X142811811Y-92474401D01*
X142813428Y-92470878D01*
X142814877Y-92467265D01*
X142816152Y-92463567D01*
X142817249Y-92459790D01*
X142818162Y-92455938D01*
X142818886Y-92452015D01*
X142819417Y-92448028D01*
X142819749Y-92443980D01*
X142819878Y-92439877D01*
X142819947Y-92419481D01*
X142819878Y-92399423D01*
X142819744Y-92392066D01*
X142819403Y-92384591D01*
X142818837Y-92377033D01*
X142818031Y-92369429D01*
X142816970Y-92361815D01*
X142815638Y-92354226D01*
X142814017Y-92346699D01*
X142812094Y-92339269D01*
X142809851Y-92331974D01*
X142807273Y-92324849D01*
X142804344Y-92317930D01*
X142801049Y-92311253D01*
X142797370Y-92304854D01*
X142793294Y-92298770D01*
X142788802Y-92293036D01*
X142783881Y-92287689D01*
X142767227Y-92271962D01*
X142749869Y-92257330D01*
X142731860Y-92243783D01*
X142713250Y-92231311D01*
X142694090Y-92219906D01*
X142674432Y-92209558D01*
X142654325Y-92200258D01*
X142633822Y-92191996D01*
X142612974Y-92184763D01*
X142591831Y-92178550D01*
X142570445Y-92173347D01*
X142548866Y-92169145D01*
X142527146Y-92165936D01*
X142505336Y-92163708D01*
X142483487Y-92162454D01*
X142461650Y-92162164D01*
X142418216Y-92164438D01*
X142375442Y-92170455D01*
X142354431Y-92174844D01*
X142333739Y-92180141D01*
X142313415Y-92186336D01*
X142293513Y-92193421D01*
X142274082Y-92201386D01*
X142255174Y-92210221D01*
X142236839Y-92219918D01*
X142219130Y-92230467D01*
X142202096Y-92241858D01*
X142185789Y-92254083D01*
X142170261Y-92267131D01*
X142155562Y-92280995D01*
X142155562Y-92280982D01*
X142152025Y-92284665D01*
X142148649Y-92288470D01*
X142142364Y-92296400D01*
X142136682Y-92304682D01*
X142131578Y-92313226D01*
X142127027Y-92321941D01*
X142123003Y-92330737D01*
X142119482Y-92339522D01*
X142116438Y-92348206D01*
X142113847Y-92356699D01*
X142111682Y-92364909D01*
X142109920Y-92372746D01*
X142108534Y-92380120D01*
X142107500Y-92386940D01*
X142106793Y-92393115D01*
X142106386Y-92398554D01*
X142106257Y-92403167D01*
X139915243Y-92403167D01*
X139915243Y-91189034D01*
X139915337Y-91185346D01*
X139915619Y-91181706D01*
X139916082Y-91178117D01*
X139916722Y-91174584D01*
X139917536Y-91171112D01*
X139918518Y-91167705D01*
X139919664Y-91164369D01*
X139920969Y-91161106D01*
X139922430Y-91157924D01*
X139924040Y-91154824D01*
X139925797Y-91151813D01*
X139927695Y-91148896D01*
X139929729Y-91146075D01*
X139931896Y-91143357D01*
X139934191Y-91140746D01*
X139936609Y-91138245D01*
X139939146Y-91135861D01*
X139941798Y-91133598D01*
X139944559Y-91131459D01*
X139947425Y-91129450D01*
X139950392Y-91127575D01*
X139953455Y-91125840D01*
X139956610Y-91124248D01*
X139959852Y-91122804D01*
X139963177Y-91121512D01*
X139966580Y-91120378D01*
X139970056Y-91119406D01*
X139973602Y-91118600D01*
X139977213Y-91117965D01*
X139980883Y-91117506D01*
X139984609Y-91117227D01*
X139988387Y-91117133D01*
X141223488Y-91122935D01*
X141997830Y-91126573D01*
X142461650Y-91128751D01*
X142706015Y-91129899D01*
X142746562Y-91120613D01*
X142757208Y-91117926D01*
X142767656Y-91114812D01*
X142777897Y-91111283D01*
X142787921Y-91107348D01*
X142797721Y-91103019D01*
X142807287Y-91098306D01*
X142816611Y-91093220D01*
X142825685Y-91087772D01*
X142834499Y-91081971D01*
X142843044Y-91075829D01*
X142851314Y-91069356D01*
X142859297Y-91062563D01*
X142866987Y-91055460D01*
X142874373Y-91048058D01*
X142881448Y-91040368D01*
X142888203Y-91032400D01*
X142894629Y-91024166D01*
X142900717Y-91015674D01*
X142906460Y-91006937D01*
X142911847Y-90997964D01*
X142916870Y-90988767D01*
X142921522Y-90979356D01*
X142925792Y-90969741D01*
X142929673Y-90959934D01*
X142933155Y-90949944D01*
X142936230Y-90939783D01*
X142938890Y-90929461D01*
X142941125Y-90918988D01*
X142942927Y-90908376D01*
X142944287Y-90897635D01*
X142945197Y-90886775D01*
X142945648Y-90875807D01*
X142945659Y-90871964D01*
X142945687Y-90870051D01*
X142945740Y-90868121D01*
X142951191Y-88792293D01*
X142358868Y-88789607D01*
X142356202Y-88831699D01*
X142354344Y-88945780D01*
X142352491Y-89316758D01*
X142352346Y-90117882D01*
X142351876Y-90133884D01*
X142350505Y-90148840D01*
X142348293Y-90162785D01*
X142345300Y-90175754D01*
X142341587Y-90187782D01*
X142337214Y-90198906D01*
X142332239Y-90209159D01*
X142326725Y-90218578D01*
X142320730Y-90227198D01*
X142314315Y-90235053D01*
X142307539Y-90242180D01*
X142300463Y-90248614D01*
X142293147Y-90254390D01*
X142285651Y-90259543D01*
X142278035Y-90264108D01*
X142270358Y-90268122D01*
X142262682Y-90271619D01*
X142255066Y-90274634D01*
X142240253Y-90279361D01*
X142226402Y-90282586D01*
X142213992Y-90284591D01*
X142203503Y-90285659D01*
X142195416Y-90286072D01*
X142188370Y-90286064D01*
X141737957Y-90286064D01*
X141729883Y-90286253D01*
X141720613Y-90285985D01*
X141708585Y-90285030D01*
X141694347Y-90283050D01*
X141678447Y-90279710D01*
X141670045Y-90277425D01*
X141661433Y-90274675D01*
X141652679Y-90271417D01*
X141643853Y-90267609D01*
X141635022Y-90263210D01*
X141626255Y-90258177D01*
X141617621Y-90252469D01*
X141609188Y-90246043D01*
X141601024Y-90238858D01*
X141593198Y-90230872D01*
X141585779Y-90222042D01*
X141578836Y-90212327D01*
X141572435Y-90201685D01*
X141566647Y-90190074D01*
X141561539Y-90177452D01*
X141557181Y-90163777D01*
X141553640Y-90149006D01*
X141550985Y-90133099D01*
X141549285Y-90116014D01*
X141548608Y-90097707D01*
X141541914Y-88785784D01*
X140974330Y-88783813D01*
X140974144Y-90266061D01*
X140974052Y-90275648D01*
X140972486Y-90300922D01*
X140970546Y-90317808D01*
X140967512Y-90336655D01*
X140963143Y-90356809D01*
X140957196Y-90377616D01*
X140953556Y-90388061D01*
X140949431Y-90398424D01*
X140944790Y-90408623D01*
X140939605Y-90418578D01*
X140933843Y-90428206D01*
X140927476Y-90437425D01*
X140920473Y-90446153D01*
X140912803Y-90454310D01*
X140904437Y-90461814D01*
X140895344Y-90468582D01*
X140885495Y-90474532D01*
X140874858Y-90479585D01*
X140863404Y-90483656D01*
X140851102Y-90486666D01*
X140837922Y-90488531D01*
X140823835Y-90489171D01*
X140336274Y-90491936D01*
X140328679Y-90492031D01*
X140319962Y-90491569D01*
X140308656Y-90490250D01*
X140295278Y-90487687D01*
X140280347Y-90483493D01*
X140272461Y-90480663D01*
X140264381Y-90477280D01*
X140256171Y-90473295D01*
X140247896Y-90468661D01*
X140239622Y-90463328D01*
X140231412Y-90457249D01*
X140223331Y-90450374D01*
X140215445Y-90442656D01*
X140207818Y-90434045D01*
X140200514Y-90424494D01*
X140193599Y-90413954D01*
X140187137Y-90402377D01*
X140181192Y-90389714D01*
X140175831Y-90375917D01*
X140171116Y-90360937D01*
X140167114Y-90344726D01*
X140163888Y-90327236D01*
X140161504Y-90308418D01*
X140160026Y-90288223D01*
X140159519Y-90266604D01*
X140166491Y-87923110D01*
X140166670Y-87910166D01*
X140167138Y-87897341D01*
X140167938Y-87884659D01*
X140169115Y-87872144D01*
X140170711Y-87859822D01*
X140172770Y-87847716D01*
X140175337Y-87835851D01*
X140178455Y-87824252D01*
X140182167Y-87812942D01*
X140186517Y-87801947D01*
X140191549Y-87791291D01*
X140197307Y-87780998D01*
X140203835Y-87771092D01*
X140211175Y-87761599D01*
X140219372Y-87752543D01*
X140228469Y-87743947D01*
X140236451Y-87737291D01*
X140244681Y-87731023D01*
X140253145Y-87725149D01*
X140261829Y-87719674D01*
X140270720Y-87714603D01*
X140279803Y-87709942D01*
X140289065Y-87705696D01*
X140298491Y-87701870D01*
X140308068Y-87698471D01*
X140317782Y-87695502D01*
X140327618Y-87692971D01*
X140337564Y-87690881D01*
X140347605Y-87689238D01*
X140357726Y-87688049D01*
X140367915Y-87687317D01*
X140378157Y-87687049D01*
X143483492Y-87687670D01*
X143491570Y-87687473D01*
X143500842Y-87687653D01*
X143512867Y-87688400D01*
X143527095Y-87689998D01*
X143542976Y-87692733D01*
X143559959Y-87696889D01*
X143568691Y-87699589D01*
X143577492Y-87702752D01*
X143586293Y-87706412D01*
X143595025Y-87710607D01*
X143603619Y-87715370D01*
X143612007Y-87720738D01*
X143620120Y-87726747D01*
X143627888Y-87733432D01*
X143635243Y-87740829D01*
X143642117Y-87748973D01*
X143648439Y-87757900D01*
X143654142Y-87767646D01*
X143659156Y-87778246D01*
X143663414Y-87789736D01*
X143666844Y-87802152D01*
X143669380Y-87815529D01*
X143670952Y-87829903D01*
X143671492Y-87845309D01*
X143674085Y-90261683D01*
X143673568Y-90283908D01*
X143671987Y-90306011D01*
X143669352Y-90327947D01*
X143665671Y-90349675D01*
X143660953Y-90371151D01*
X143655206Y-90392332D01*
X143648440Y-90413173D01*
X143640661Y-90433634D01*
X143631880Y-90453669D01*
X143622105Y-90473236D01*
X143611345Y-90492292D01*
X143599608Y-90510793D01*
X143586902Y-90528696D01*
X143573237Y-90545959D01*
X143558621Y-90562537D01*
X143543063Y-90578389D01*
X143527813Y-90593835D01*
X143513332Y-90610012D01*
X143499648Y-90626889D01*
X143486793Y-90644437D01*
X143474796Y-90662626D01*
X143463685Y-90681426D01*
X143453492Y-90700809D01*
X143444246Y-90720743D01*
X143435977Y-90741199D01*
X143428713Y-90762148D01*
X143422486Y-90783560D01*
X143417324Y-90805406D01*
X143413258Y-90827654D01*
X143410316Y-90850277D01*
X143408530Y-90873243D01*
X143407927Y-90896524D01*
X143408222Y-90912798D01*
X143409099Y-90928926D01*
X143410548Y-90944897D01*
X143412558Y-90960700D01*
X143415121Y-90976326D01*
X143418224Y-90991764D01*
X143421859Y-91007003D01*
X143426015Y-91022032D01*
X143430681Y-91036842D01*
X143435848Y-91051421D01*
X143441505Y-91065759D01*
X143447642Y-91079847D01*
X143454249Y-91093672D01*
X143461315Y-91107225D01*
X143468830Y-91120495D01*
X143476785Y-91133472D01*
X143485508Y-91146686D01*
X143494689Y-91159563D01*
X143504315Y-91172091D01*
X143514375Y-91184258D01*
X143524858Y-91196055D01*
X143534835Y-91206506D01*
X143535753Y-91207468D01*
X143547047Y-91218488D01*
X143558730Y-91229102D01*
X143570789Y-91239300D01*
X143583213Y-91249070D01*
X143595991Y-91258402D01*
X143609112Y-91267283D01*
X143622563Y-91275703D01*
X143636333Y-91283650D01*
X143650411Y-91291114D01*
X143664785Y-91298082D01*
X143676698Y-91303372D01*
X143688790Y-91308319D01*
X143701055Y-91312916D01*
X143713488Y-91317158D01*
X143726082Y-91321039D01*
X143738833Y-91324551D01*
X143751734Y-91327690D01*
X143764781Y-91330449D01*
X143777966Y-91332821D01*
X143791285Y-91334801D01*
X143804732Y-91336383D01*
X143818301Y-91337560D01*
X143831986Y-91338327D01*
X143845783Y-91338676D01*
X143859685Y-91338603D01*
X143873686Y-91338100D01*
X143894665Y-91336496D01*
X143915370Y-91333911D01*
X143935776Y-91330368D01*
X143955860Y-91325890D01*
X143975598Y-91320503D01*
X143994967Y-91314228D01*
X144013943Y-91307091D01*
X144032502Y-91299115D01*
X144050622Y-91290323D01*
X144068277Y-91280740D01*
X144085446Y-91270389D01*
X144102103Y-91259294D01*
X144118226Y-91247478D01*
X144133790Y-91234966D01*
X144148773Y-91221781D01*
X144163150Y-91207947D01*
X144176899Y-91193487D01*
X144189994Y-91178426D01*
X144202414Y-91162787D01*
X144214133Y-91146594D01*
X144225129Y-91129871D01*
X144235378Y-91112641D01*
X144244856Y-91094928D01*
X144253540Y-91076756D01*
X144261406Y-91058149D01*
X144268431Y-91039130D01*
X144274590Y-91019723D01*
X144279860Y-90999953D01*
X144284218Y-90979841D01*
X144287640Y-90959414D01*
X144290103Y-90938693D01*
X144291582Y-90917704D01*
X144292073Y-90893264D01*
X144291255Y-90869137D01*
X144289163Y-90845354D01*
X144285829Y-90821950D01*
X144281288Y-90798957D01*
X144275574Y-90776408D01*
X144268719Y-90754338D01*
X144260758Y-90732778D01*
X144251724Y-90711763D01*
X144241651Y-90691325D01*
X144230573Y-90671498D01*
X144218522Y-90652315D01*
X144205534Y-90633809D01*
X144191641Y-90616014D01*
X144176876Y-90598963D01*
X144161275Y-90582688D01*
X144145767Y-90566562D01*
X144131108Y-90549786D01*
X144117318Y-90532395D01*
X144104420Y-90514421D01*
X144092435Y-90495899D01*
X144081384Y-90476861D01*
X144071290Y-90457343D01*
X144062173Y-90437376D01*
X144054057Y-90416994D01*
X144046961Y-90396231D01*
X144040908Y-90375121D01*
X144035919Y-90353697D01*
X144032016Y-90331993D01*
X144029220Y-90310041D01*
X144027554Y-90287877D01*
X144027380Y-90280348D01*
X144437316Y-90280348D01*
X144437823Y-90302089D01*
X144439302Y-90322398D01*
X144441687Y-90341322D01*
X144444914Y-90358912D01*
X144448918Y-90375216D01*
X144453635Y-90390282D01*
X144458999Y-90404159D01*
X144464946Y-90416896D01*
X144471411Y-90428541D01*
X144478330Y-90439144D01*
X144485637Y-90448752D01*
X144493267Y-90457414D01*
X144501157Y-90465180D01*
X144509241Y-90472097D01*
X144517455Y-90478215D01*
X144525733Y-90483581D01*
X144534011Y-90488246D01*
X144542225Y-90492257D01*
X144558199Y-90498512D01*
X144573136Y-90502737D01*
X144586520Y-90505321D01*
X144597831Y-90506653D01*
X144606552Y-90507122D01*
X144614150Y-90507030D01*
X144614176Y-90507030D01*
X145102359Y-90504265D01*
X145116463Y-90503622D01*
X145129658Y-90501745D01*
X145141975Y-90498717D01*
X145153443Y-90494621D01*
X145164093Y-90489539D01*
X145173954Y-90483552D01*
X145183058Y-90476744D01*
X145191434Y-90469196D01*
X145199113Y-90460990D01*
X145206125Y-90452209D01*
X145212500Y-90442935D01*
X145218269Y-90433249D01*
X145223461Y-90423235D01*
X145228107Y-90412975D01*
X145232238Y-90402550D01*
X145235882Y-90392042D01*
X145241837Y-90371110D01*
X145246212Y-90350836D01*
X145249250Y-90331876D01*
X145251193Y-90314889D01*
X145252761Y-90289464D01*
X145252854Y-90279819D01*
X145252946Y-88789620D01*
X145821152Y-88791671D01*
X145827846Y-90110565D01*
X145828515Y-90128978D01*
X145830210Y-90146163D01*
X145832861Y-90162162D01*
X145836400Y-90177019D01*
X145840758Y-90190775D01*
X145845866Y-90203472D01*
X145851657Y-90215152D01*
X145858061Y-90225858D01*
X145865010Y-90235632D01*
X145872435Y-90244516D01*
X145880268Y-90252551D01*
X145888440Y-90259781D01*
X145896881Y-90266248D01*
X145905525Y-90271992D01*
X145914302Y-90277058D01*
X145923143Y-90281486D01*
X145931979Y-90285320D01*
X145940743Y-90288600D01*
X145957779Y-90293671D01*
X145973699Y-90297037D01*
X145987956Y-90299034D01*
X146000000Y-90300000D01*
X146009283Y-90300273D01*
X146017368Y-90300086D01*
X146468218Y-90300086D01*
X146475267Y-90300097D01*
X146483359Y-90299684D01*
X146493853Y-90298613D01*
X146506270Y-90296600D01*
X146520130Y-90293361D01*
X146527450Y-90291193D01*
X146534950Y-90288612D01*
X146542571Y-90285582D01*
X146550251Y-90282068D01*
X146557932Y-90278035D01*
X146565553Y-90273446D01*
X146573053Y-90268267D01*
X146580373Y-90262461D01*
X146587453Y-90255993D01*
X146594233Y-90248829D01*
X146600651Y-90240931D01*
X146606650Y-90232265D01*
X146612167Y-90222796D01*
X146617144Y-90212487D01*
X146621520Y-90201303D01*
X146625236Y-90189209D01*
X146628230Y-90176169D01*
X146630443Y-90162147D01*
X146631815Y-90147109D01*
X146632285Y-90131018D01*
X146632466Y-89325588D01*
X146634322Y-88952613D01*
X146636168Y-88837918D01*
X146638807Y-88795600D01*
X147760402Y-88798007D01*
X147770206Y-88797767D01*
X147779882Y-88797020D01*
X147789418Y-88795779D01*
X147798803Y-88794055D01*
X147808025Y-88791861D01*
X147817070Y-88789211D01*
X147825928Y-88786115D01*
X147834587Y-88782586D01*
X147843034Y-88778637D01*
X147851257Y-88774279D01*
X147859245Y-88769527D01*
X147866986Y-88764390D01*
X147874466Y-88758883D01*
X147881676Y-88753017D01*
X147888602Y-88746805D01*
X147895232Y-88740259D01*
X147901555Y-88733391D01*
X147907559Y-88726214D01*
X147913231Y-88718740D01*
X147918559Y-88710981D01*
X147923532Y-88702951D01*
X147928138Y-88694660D01*
X147932365Y-88686122D01*
X147936200Y-88677349D01*
X147939631Y-88668352D01*
X147942648Y-88659146D01*
X147945237Y-88649741D01*
X147947386Y-88640151D01*
X147949085Y-88630387D01*
X147950320Y-88620462D01*
X147951080Y-88610388D01*
X147951352Y-88600178D01*
X147952689Y-87846195D01*
X147952149Y-87830692D01*
X147950575Y-87816228D01*
X147948037Y-87802768D01*
X147944603Y-87790276D01*
X147940341Y-87778716D01*
X147935322Y-87768052D01*
X147929614Y-87758248D01*
X147923285Y-87749268D01*
X147916405Y-87741077D01*
X147909042Y-87733637D01*
X147901266Y-87726915D01*
X147893146Y-87720873D01*
X147884750Y-87715475D01*
X147876147Y-87710687D01*
X147867406Y-87706471D01*
X147858596Y-87702793D01*
X147849787Y-87699615D01*
X147841046Y-87696903D01*
X147824047Y-87692730D01*
X147808151Y-87689987D01*
X147793908Y-87688387D01*
X147781871Y-87687643D01*
X147772590Y-87687466D01*
X147764504Y-87687670D01*
X144655861Y-87687048D01*
X144645587Y-87687317D01*
X144635370Y-87688052D01*
X144625223Y-87689247D01*
X144615162Y-87690897D01*
X144605198Y-87692997D01*
X144595345Y-87695541D01*
X144585618Y-87698525D01*
X144576028Y-87701943D01*
X144566591Y-87705790D01*
X144557319Y-87710060D01*
X144548225Y-87714749D01*
X144539324Y-87719852D01*
X144530628Y-87725363D01*
X144522151Y-87731276D01*
X144513907Y-87737587D01*
X144505909Y-87744291D01*
X144498786Y-87750908D01*
X144492056Y-87757882D01*
X144485730Y-87765193D01*
X144479816Y-87772824D01*
X144474324Y-87780753D01*
X144469261Y-87788962D01*
X144464638Y-87797431D01*
X144460463Y-87806142D01*
X144456746Y-87815075D01*
X144453495Y-87824210D01*
X144450719Y-87833528D01*
X144448428Y-87843010D01*
X144446630Y-87852637D01*
X144445335Y-87862389D01*
X144444551Y-87872247D01*
X144444288Y-87882192D01*
X144437316Y-90280348D01*
X144027380Y-90280348D01*
X144027039Y-90265532D01*
X144035796Y-87757348D01*
X144035373Y-87741606D01*
X144035735Y-87723538D01*
X144037269Y-87700103D01*
X144040571Y-87672375D01*
X144046233Y-87641427D01*
X144054848Y-87608332D01*
X144060449Y-87591315D01*
X144067010Y-87574164D01*
X144074607Y-87557013D01*
X144083313Y-87539996D01*
X144093203Y-87523247D01*
X144104350Y-87506901D01*
X144116829Y-87491092D01*
X144130714Y-87475953D01*
X144146080Y-87461619D01*
X144162999Y-87448225D01*
X144181548Y-87435904D01*
X144201799Y-87424790D01*
X144223827Y-87415018D01*
X144247706Y-87406722D01*
X144273511Y-87400036D01*
X144301315Y-87395094D01*
X144331192Y-87392031D01*
X144363218Y-87390980D01*
X144655861Y-87391327D01*
X148134920Y-87395451D01*
X148146126Y-87394788D01*
X148158988Y-87394531D01*
X148175670Y-87394832D01*
X148195408Y-87396073D01*
X148217438Y-87398636D01*
X148240997Y-87402901D01*
X148253110Y-87405792D01*
X148265319Y-87409251D01*
X148277529Y-87413327D01*
X148289642Y-87418066D01*
X148301565Y-87423518D01*
X148313201Y-87429729D01*
X148324455Y-87436747D01*
X148335231Y-87444620D01*
X148345434Y-87453396D01*
X148354969Y-87463122D01*
X148363740Y-87473845D01*
X148371651Y-87485615D01*
X148378607Y-87498477D01*
X148384513Y-87512481D01*
X148389272Y-87527673D01*
X148392790Y-87544101D01*
X148394971Y-87561814D01*
X148395719Y-87580858D01*
X148402056Y-97237792D01*
X148402340Y-97253680D01*
X148401716Y-97271915D01*
X148399710Y-97295567D01*
X148395668Y-97323551D01*
X148388938Y-97354785D01*
X148384361Y-97371283D01*
X148378866Y-97388186D01*
X148372373Y-97405360D01*
X148364800Y-97422670D01*
X148356064Y-97439980D01*
X148346085Y-97457154D01*
X148334780Y-97474058D01*
X148322069Y-97490555D01*
X148307869Y-97506511D01*
X148292098Y-97521789D01*
X148274676Y-97536255D01*
X148255520Y-97549774D01*
X148234549Y-97562209D01*
X148211681Y-97573425D01*
X148186834Y-97583287D01*
X148159927Y-97591660D01*
X148130879Y-97598408D01*
X148099607Y-97603395D01*
X148066029Y-97606487D01*
X148030065Y-97607548D01*
X139576099Y-97633450D01*
X139565277Y-97633178D01*
X139552856Y-97632212D01*
X139536746Y-97630134D01*
X139517685Y-97626529D01*
X139496411Y-97620978D01*
X139485174Y-97617343D01*
X139473662Y-97613064D01*
X139461965Y-97608090D01*
X139450176Y-97602369D01*
X139438387Y-97595848D01*
X139426691Y-97588475D01*
X139415179Y-97580198D01*
X139403945Y-97570965D01*
X139393080Y-97560723D01*
X139382676Y-97549421D01*
X139372827Y-97537006D01*
X139363623Y-97523426D01*
X139355157Y-97508628D01*
X139347523Y-97492561D01*
X139340811Y-97475173D01*
X139335114Y-97456411D01*
X139330524Y-97436222D01*
X139327134Y-97414556D01*
X139325036Y-97391359D01*
X139324322Y-97366579D01*
X139324322Y-97366578D01*
X139364340Y-88280006D01*
X139363636Y-88254211D01*
X139361712Y-88228618D01*
X139358592Y-88203255D01*
X139354304Y-88178145D01*
X139348874Y-88153316D01*
X139342327Y-88128792D01*
X139334691Y-88104598D01*
X139325992Y-88080762D01*
X139316255Y-88057307D01*
X139305508Y-88034260D01*
X139293776Y-88011645D01*
X139281086Y-87989490D01*
X139267463Y-87967818D01*
X139252935Y-87946657D01*
X139237527Y-87926030D01*
X139221267Y-87905965D01*
X139212090Y-87894591D01*
X139203398Y-87882825D01*
X139195205Y-87870681D01*
X139187525Y-87858173D01*
X139180374Y-87845318D01*
X139173767Y-87832129D01*
X139167718Y-87818621D01*
X139162243Y-87804810D01*
X139157356Y-87790709D01*
X139153072Y-87776335D01*
X139149407Y-87761702D01*
X139146374Y-87746825D01*
X139143990Y-87731718D01*
X139142268Y-87716397D01*
X139141224Y-87700876D01*
X139140873Y-87685170D01*
X139141303Y-87667818D01*
X139142579Y-87650692D01*
X139144682Y-87633812D01*
X139147590Y-87617198D01*
X139151284Y-87600870D01*
X139155743Y-87584849D01*
X139160947Y-87569155D01*
X139166876Y-87553809D01*
X139173509Y-87538831D01*
X139180827Y-87524241D01*
X139188808Y-87510059D01*
X139197433Y-87496306D01*
X139206682Y-87483003D01*
X139216534Y-87470169D01*
X139226969Y-87457825D01*
X139237967Y-87445992D01*
X139249507Y-87434689D01*
X139261569Y-87423937D01*
X139274133Y-87413756D01*
X139287179Y-87404167D01*
X139300686Y-87395190D01*
X139314634Y-87386845D01*
X139329003Y-87379153D01*
X139343772Y-87372134D01*
X139358922Y-87365809D01*
X139374432Y-87360197D01*
X139390282Y-87355319D01*
X139406451Y-87351196D01*
X139422919Y-87347847D01*
X139439667Y-87345294D01*
X139456673Y-87343556D01*
X139473917Y-87342654D01*
X139475070Y-87342566D01*
X139476244Y-87342501D01*
X139477439Y-87342454D01*
X139478652Y-87342422D01*
X139481126Y-87342393D01*
X139483654Y-87342389D01*
X139486049Y-87342393D01*
G37*
D11*
X120500000Y-91700000D02*
X120500000Y-93300000D01*
D16*
%TO.C,J7*%
X116790000Y-66620000D02*
X116790000Y-61420000D01*
X117360000Y-61420000D02*
X116790000Y-61420000D01*
X117360000Y-66620000D02*
X116790000Y-66620000D01*
X117360000Y-67980000D02*
X117360000Y-66620000D01*
X119900000Y-61420000D02*
X118880000Y-61420000D01*
X119900000Y-66620000D02*
X118880000Y-66620000D01*
X122440000Y-61420000D02*
X121420000Y-61420000D01*
X122440000Y-66620000D02*
X121420000Y-66620000D01*
X124980000Y-61420000D02*
X123960000Y-61420000D01*
X124980000Y-66620000D02*
X123960000Y-66620000D01*
X127520000Y-61420000D02*
X126500000Y-61420000D01*
X127520000Y-66620000D02*
X126500000Y-66620000D01*
X130060000Y-61420000D02*
X129040000Y-61420000D01*
X130060000Y-66620000D02*
X129040000Y-66620000D01*
X132600000Y-61420000D02*
X131580000Y-61420000D01*
X132600000Y-66620000D02*
X131580000Y-66620000D01*
X135140000Y-61420000D02*
X134120000Y-61420000D01*
X135140000Y-66620000D02*
X134120000Y-66620000D01*
X137680000Y-61420000D02*
X136660000Y-61420000D01*
X137680000Y-66620000D02*
X136660000Y-66620000D01*
X140220000Y-61420000D02*
X139200000Y-61420000D01*
X140220000Y-66620000D02*
X139200000Y-66620000D01*
X142760000Y-61420000D02*
X141740000Y-61420000D01*
X142760000Y-66620000D02*
X141740000Y-66620000D01*
X145300000Y-61420000D02*
X144280000Y-61420000D01*
X145300000Y-66620000D02*
X144280000Y-66620000D01*
X147840000Y-61420000D02*
X146820000Y-61420000D01*
X147840000Y-66620000D02*
X146820000Y-66620000D01*
X150380000Y-61420000D02*
X149360000Y-61420000D01*
X150380000Y-66620000D02*
X149360000Y-66620000D01*
X152920000Y-61420000D02*
X151900000Y-61420000D01*
X152920000Y-66620000D02*
X151900000Y-66620000D01*
X155460000Y-61420000D02*
X154440000Y-61420000D01*
X155460000Y-66620000D02*
X154440000Y-66620000D01*
X158000000Y-61420000D02*
X156980000Y-61420000D01*
X158000000Y-66620000D02*
X156980000Y-66620000D01*
X160540000Y-61420000D02*
X159520000Y-61420000D01*
X160540000Y-66620000D02*
X159520000Y-66620000D01*
X163080000Y-61420000D02*
X162060000Y-61420000D01*
X163080000Y-66620000D02*
X162060000Y-66620000D01*
X165620000Y-61420000D02*
X164600000Y-61420000D01*
X165620000Y-66620000D02*
X164600000Y-66620000D01*
X167710000Y-61420000D02*
X167140000Y-61420000D01*
X167710000Y-66620000D02*
X167140000Y-66620000D01*
X167710000Y-66620000D02*
X167710000Y-61420000D01*
%TD*%
%LPC*%
D17*
%TO.C,U4*%
X116973500Y-105650000D03*
X116973500Y-106650000D03*
X117973500Y-105650000D03*
X117973500Y-106650000D03*
%TD*%
D18*
%TO.C,J22*%
X162530000Y-105810000D03*
D19*
X162530000Y-108350000D03*
%TD*%
D18*
%TO.C,J8*%
X123530000Y-105810000D03*
D19*
X123530000Y-108350000D03*
%TD*%
D20*
%TO.C,J1*%
X170575315Y-81292881D03*
X170575315Y-73792881D03*
D21*
X168425315Y-79942881D03*
X172725315Y-79942881D03*
X168425315Y-75142881D03*
X172725315Y-75142881D03*
%TD*%
D17*
%TO.C,U9*%
X158673500Y-99525000D03*
X158673500Y-100525000D03*
X159673500Y-99525000D03*
X159673500Y-100525000D03*
%TD*%
%TO.C,U3*%
X129973500Y-105650000D03*
X129973500Y-106650000D03*
X130973500Y-105650000D03*
X130973500Y-106650000D03*
%TD*%
D18*
%TO.C,J6*%
X136530000Y-105810000D03*
D19*
X136530000Y-108350000D03*
%TD*%
D17*
%TO.C,U5*%
X142973500Y-105650000D03*
X142973500Y-106650000D03*
X143973500Y-105650000D03*
X143973500Y-106650000D03*
%TD*%
D18*
%TO.C,J10*%
X149530000Y-105810000D03*
D19*
X149530000Y-108350000D03*
%TD*%
D22*
%TO.C,J11*%
X123500000Y-94613500D03*
X117500000Y-94613500D03*
D23*
X120500000Y-99313500D03*
%TD*%
D24*
%TO.C,J7*%
X118120000Y-66540000D03*
X118120000Y-61500000D03*
X120660000Y-66540000D03*
X120660000Y-61500000D03*
X123200000Y-66540000D03*
X123200000Y-61500000D03*
X125740000Y-66540000D03*
X125740000Y-61500000D03*
X128280000Y-66540000D03*
X128280000Y-61500000D03*
X130820000Y-66540000D03*
X130820000Y-61500000D03*
X133360000Y-66540000D03*
X133360000Y-61500000D03*
X135900000Y-66540000D03*
X135900000Y-61500000D03*
X138440000Y-66540000D03*
X138440000Y-61500000D03*
X140980000Y-66540000D03*
X140980000Y-61500000D03*
X143520000Y-66540000D03*
X143520000Y-61500000D03*
X146060000Y-66540000D03*
X146060000Y-61500000D03*
X148600000Y-66540000D03*
X148600000Y-61500000D03*
X151140000Y-66540000D03*
X151140000Y-61500000D03*
X153680000Y-66540000D03*
X153680000Y-61500000D03*
X156220000Y-66540000D03*
X156220000Y-61500000D03*
X158760000Y-66540000D03*
X158760000Y-61500000D03*
X161300000Y-66540000D03*
X161300000Y-61500000D03*
X163840000Y-66540000D03*
X163840000Y-61500000D03*
X166380000Y-66540000D03*
X166380000Y-61500000D03*
%TD*%
%LPD*%
M02*
