%TF.GenerationSoftware,KiCad,Pcbnew,8.0.6*%
%TF.CreationDate,2024-10-16T15:49:25-04:00*%
%TF.ProjectId,motorgo_plink,6d6f746f-7267-46f5-9f70-6c696e6b2e6b,rev?*%
%TF.SameCoordinates,Original*%
%TF.FileFunction,Copper,L4,Bot*%
%TF.FilePolarity,Positive*%
%FSLAX46Y46*%
G04 Gerber Fmt 4.6, Leading zero omitted, Abs format (unit mm)*
G04 Created by KiCad (PCBNEW 8.0.6) date 2024-10-16 15:49:25*
%MOMM*%
%LPD*%
G01*
G04 APERTURE LIST*
G04 Aperture macros list*
%AMRoundRect*
0 Rectangle with rounded corners*
0 $1 Rounding radius*
0 $2 $3 $4 $5 $6 $7 $8 $9 X,Y pos of 4 corners*
0 Add a 4 corners polygon primitive as box body*
4,1,4,$2,$3,$4,$5,$6,$7,$8,$9,$2,$3,0*
0 Add four circle primitives for the rounded corners*
1,1,$1+$1,$2,$3*
1,1,$1+$1,$4,$5*
1,1,$1+$1,$6,$7*
1,1,$1+$1,$8,$9*
0 Add four rect primitives between the rounded corners*
20,1,$1+$1,$2,$3,$4,$5,0*
20,1,$1+$1,$4,$5,$6,$7,0*
20,1,$1+$1,$6,$7,$8,$9,0*
20,1,$1+$1,$8,$9,$2,$3,0*%
G04 Aperture macros list end*
%TA.AperFunction,ComponentPad*%
%ADD10C,0.610000*%
%TD*%
%TA.AperFunction,ComponentPad*%
%ADD11RoundRect,0.250000X-0.845000X0.620000X-0.845000X-0.620000X0.845000X-0.620000X0.845000X0.620000X0*%
%TD*%
%TA.AperFunction,ComponentPad*%
%ADD12O,2.190000X1.740000*%
%TD*%
%TA.AperFunction,ComponentPad*%
%ADD13O,1.200000X1.500000*%
%TD*%
%TA.AperFunction,ComponentPad*%
%ADD14O,1.800000X4.200000*%
%TD*%
%TA.AperFunction,ComponentPad*%
%ADD15O,4.200000X1.800000*%
%TD*%
%TA.AperFunction,SMDPad,CuDef*%
%ADD16R,1.000000X3.000000*%
%TD*%
%TA.AperFunction,ViaPad*%
%ADD17C,0.400000*%
%TD*%
%TA.AperFunction,Conductor*%
%ADD18C,0.120000*%
%TD*%
%TA.AperFunction,Conductor*%
%ADD19C,0.250000*%
%TD*%
%TA.AperFunction,Conductor*%
%ADD20C,3.750000*%
%TD*%
%TA.AperFunction,Conductor*%
%ADD21C,0.160000*%
%TD*%
%TA.AperFunction,Conductor*%
%ADD22C,0.180000*%
%TD*%
G04 APERTURE END LIST*
D10*
%TO.P,U4,17,EP*%
%TO.N,GND*%
X116973500Y-105650000D03*
X116973500Y-106650000D03*
X117973500Y-105650000D03*
X117973500Y-106650000D03*
%TD*%
D11*
%TO.P,J22,1,Pin_1*%
%TO.N,/motor_controls4/motor_out1*%
X162530000Y-105810000D03*
D12*
%TO.P,J22,2,Pin_2*%
%TO.N,/motor_controls4/motor_out2*%
X162530000Y-108350000D03*
%TD*%
D11*
%TO.P,J8,1,Pin_1*%
%TO.N,/motor_controls1/motor_out1*%
X123530000Y-105810000D03*
D12*
%TO.P,J8,2,Pin_2*%
%TO.N,/motor_controls1/motor_out2*%
X123530000Y-108350000D03*
%TD*%
D13*
%TO.P,J1,1,SHELL_GND*%
%TO.N,GND*%
X168425315Y-79942881D03*
%TO.P,J1,2,SHELL_GND*%
X172725315Y-79942881D03*
%TO.P,J1,3,SHELL_GND*%
X168425315Y-75142881D03*
%TO.P,J1,4,SHELL_GND*%
X172725315Y-75142881D03*
%TD*%
D10*
%TO.P,U9,17,EP*%
%TO.N,GND*%
X158673500Y-99525000D03*
X158673500Y-100525000D03*
X159673500Y-99525000D03*
X159673500Y-100525000D03*
%TD*%
%TO.P,U3,17,EP*%
%TO.N,GND*%
X129973500Y-105650000D03*
X129973500Y-106650000D03*
X130973500Y-105650000D03*
X130973500Y-106650000D03*
%TD*%
D11*
%TO.P,J6,1,Pin_1*%
%TO.N,/motor_controls2/motor_out1*%
X136530000Y-105810000D03*
D12*
%TO.P,J6,2,Pin_2*%
%TO.N,/motor_controls2/motor_out2*%
X136530000Y-108350000D03*
%TD*%
D10*
%TO.P,U5,17,EP*%
%TO.N,GND*%
X142973500Y-105650000D03*
X142973500Y-106650000D03*
X143973500Y-105650000D03*
X143973500Y-106650000D03*
%TD*%
D11*
%TO.P,J10,1,Pin_1*%
%TO.N,/motor_controls3/motor_out1*%
X149530000Y-105810000D03*
D12*
%TO.P,J10,2,Pin_2*%
%TO.N,/motor_controls3/motor_out2*%
X149530000Y-108350000D03*
%TD*%
D14*
%TO.P,J11,1,+*%
%TO.N,+BATT*%
X123500000Y-94613500D03*
%TO.P,J11,2,-*%
%TO.N,GND*%
X117500000Y-94613500D03*
D15*
%TO.P,J11,3*%
%TO.N,N/C*%
X120500000Y-99313500D03*
%TD*%
D16*
%TO.P,J7,1,Pin_1*%
%TO.N,unconnected-(J7-Pin_1-Pad1)*%
X118120000Y-66540000D03*
%TO.P,J7,2,Pin_2*%
%TO.N,+5V*%
X118120000Y-61500000D03*
%TO.P,J7,3,Pin_3*%
%TO.N,sda*%
X120660000Y-66540000D03*
%TO.P,J7,4,Pin_4*%
%TO.N,+5V*%
X120660000Y-61500000D03*
%TO.P,J7,5,Pin_5*%
%TO.N,scl*%
X123200000Y-66540000D03*
%TO.P,J7,6,Pin_6*%
%TO.N,GND*%
X123200000Y-61500000D03*
%TO.P,J7,7,Pin_7*%
%TO.N,gpio44*%
X125740000Y-66540000D03*
%TO.P,J7,8,Pin_8*%
%TO.N,gpio43*%
X125740000Y-61500000D03*
%TO.P,J7,9,Pin_9*%
%TO.N,GND*%
X128280000Y-66540000D03*
%TO.P,J7,10,Pin_10*%
%TO.N,gpio42*%
X128280000Y-61500000D03*
%TO.P,J7,11,Pin_11*%
%TO.N,gpio39*%
X130820000Y-66540000D03*
%TO.P,J7,12,Pin_12*%
%TO.N,gpio41*%
X130820000Y-61500000D03*
%TO.P,J7,13,Pin_13*%
%TO.N,gpio37*%
X133360000Y-66540000D03*
%TO.P,J7,14,Pin_14*%
%TO.N,GND*%
X133360000Y-61500000D03*
%TO.P,J7,15,Pin_15*%
%TO.N,reset*%
X135900000Y-66540000D03*
%TO.P,J7,16,Pin_16*%
%TO.N,gpio40*%
X135900000Y-61500000D03*
%TO.P,J7,17,Pin_17*%
%TO.N,unconnected-(J7-Pin_17-Pad17)*%
X138440000Y-66540000D03*
%TO.P,J7,18,Pin_18*%
%TO.N,gpio38*%
X138440000Y-61500000D03*
%TO.P,J7,19,Pin_19*%
%TO.N,gpio35*%
X140980000Y-66540000D03*
%TO.P,J7,20,Pin_20*%
%TO.N,GND*%
X140980000Y-61500000D03*
%TO.P,J7,21,Pin_21*%
%TO.N,gpio48*%
X143520000Y-66540000D03*
%TO.P,J7,22,Pin_22*%
%TO.N,gpio36*%
X143520000Y-61500000D03*
%TO.P,J7,23,Pin_23*%
%TO.N,gpio47*%
X146060000Y-66540000D03*
%TO.P,J7,24,Pin_24*%
%TO.N,gpio21*%
X146060000Y-61500000D03*
%TO.P,J7,25,Pin_25*%
%TO.N,GND*%
X148600000Y-66540000D03*
%TO.P,J7,26,Pin_26*%
%TO.N,p26*%
X148600000Y-61500000D03*
%TO.P,J7,27,Pin_27*%
%TO.N,unconnected-(J7-Pin_27-Pad27)*%
X151140000Y-66540000D03*
%TO.P,J7,28,Pin_28*%
%TO.N,unconnected-(J7-Pin_28-Pad28)*%
X151140000Y-61500000D03*
%TO.P,J7,29,Pin_29*%
%TO.N,boot*%
X153680000Y-66540000D03*
%TO.P,J7,30,Pin_30*%
%TO.N,GND*%
X153680000Y-61500000D03*
%TO.P,J7,31,Pin_31*%
%TO.N,p31*%
X156220000Y-66540000D03*
%TO.P,J7,32,Pin_32*%
%TO.N,p32*%
X156220000Y-61500000D03*
%TO.P,J7,33,Pin_33*%
%TO.N,p33*%
X158760000Y-66540000D03*
%TO.P,J7,34,Pin_34*%
%TO.N,GND*%
X158760000Y-61500000D03*
%TO.P,J7,35,Pin_35*%
%TO.N,p35*%
X161300000Y-66540000D03*
%TO.P,J7,36,Pin_36*%
%TO.N,p36*%
X161300000Y-61500000D03*
%TO.P,J7,37,Pin_37*%
%TO.N,p37*%
X163840000Y-66540000D03*
%TO.P,J7,38,Pin_38*%
%TO.N,p38*%
X163840000Y-61500000D03*
%TO.P,J7,39,Pin_39*%
%TO.N,GND*%
X166380000Y-66540000D03*
%TO.P,J7,40,Pin_40*%
%TO.N,p40*%
X166380000Y-61500000D03*
%TD*%
D17*
%TO.N,GND*%
X131200000Y-114500000D03*
X139600000Y-86100000D03*
X141994512Y-104500000D03*
X138700000Y-88700000D03*
X155461479Y-74364610D03*
X149075734Y-113824266D03*
X140726379Y-107307789D03*
X158475000Y-107025000D03*
X162000000Y-97100000D03*
X127250000Y-93450000D03*
X137154085Y-103192470D03*
X124100000Y-91900000D03*
X145300000Y-89300000D03*
X163900000Y-115100000D03*
X133250000Y-102725000D03*
X144800000Y-91600000D03*
X136136658Y-113831670D03*
X162000000Y-97700000D03*
X137774732Y-80925271D03*
X136100000Y-88700000D03*
X162169686Y-114320000D03*
X145800000Y-112075000D03*
X140050000Y-88700000D03*
X150200000Y-82600000D03*
X124154085Y-101242470D03*
X126934312Y-99299999D03*
X138612036Y-78668763D03*
X167092849Y-97227162D03*
X138104815Y-77155056D03*
X157100000Y-100600000D03*
X157100000Y-70254541D03*
X152250000Y-71450000D03*
X130900000Y-90100000D03*
X127460000Y-107975414D03*
X132875000Y-112000000D03*
X115310000Y-107700000D03*
X152400000Y-74900000D03*
X146500000Y-89800000D03*
X145300000Y-94900000D03*
X145600000Y-93200000D03*
X146400000Y-91600000D03*
X169785069Y-72126553D03*
X132285814Y-78753627D03*
X157800000Y-98300000D03*
X132200000Y-90100000D03*
X144800000Y-92400000D03*
X114790253Y-104590253D03*
X137586047Y-77383625D03*
X150200000Y-84100000D03*
X143825000Y-113275000D03*
X150154085Y-101242470D03*
X126600000Y-80500000D03*
X168925000Y-93825000D03*
X141300000Y-88700000D03*
X146000000Y-94900000D03*
X124500000Y-81200000D03*
X145700000Y-89800000D03*
X167100000Y-66500000D03*
X133320970Y-77383625D03*
X125900000Y-82600000D03*
X150154085Y-102192470D03*
X162950000Y-92100000D03*
X131002313Y-84800000D03*
X148300000Y-78800000D03*
X164810951Y-77497941D03*
X153300000Y-70100000D03*
X166400000Y-89000000D03*
X146100000Y-89300000D03*
X144800000Y-93200000D03*
X151200000Y-74220906D03*
X124500000Y-82600000D03*
X159500000Y-61500000D03*
X140400000Y-74900000D03*
X132814490Y-77169199D03*
X140050000Y-89900000D03*
X169575000Y-83650000D03*
X152532974Y-71921623D03*
X137850000Y-115150000D03*
X145400000Y-85100000D03*
X129825000Y-113225000D03*
X150154085Y-103192470D03*
X114000000Y-102400000D03*
X127012466Y-90003390D03*
X115990000Y-104500000D03*
X124154085Y-102192470D03*
X145400000Y-85700000D03*
X162950000Y-94050000D03*
X145700000Y-88800000D03*
X165900000Y-78700000D03*
X148300000Y-85500000D03*
X146250000Y-102725000D03*
X137600000Y-89900000D03*
X141700000Y-61500000D03*
X127300000Y-91200000D03*
X125900000Y-81200000D03*
X146212887Y-103625000D03*
X117825000Y-113150000D03*
X125700000Y-91900000D03*
X157003007Y-71450781D03*
X154639263Y-73530813D03*
X162000000Y-96500000D03*
X146400000Y-92400000D03*
X154172182Y-72164313D03*
X133600000Y-103225000D03*
X137154085Y-102192470D03*
X159300000Y-72800000D03*
X134100000Y-61500000D03*
X146500000Y-88800000D03*
X142850000Y-113275000D03*
X138067242Y-78953978D03*
X123300000Y-113700000D03*
X125900000Y-79800000D03*
X171400000Y-92800000D03*
X129250000Y-95500000D03*
X139000000Y-83400003D03*
X148100000Y-95400000D03*
X137536516Y-78753627D03*
X167150000Y-83800000D03*
X131000000Y-86000000D03*
X137600000Y-88700000D03*
X146400000Y-93200000D03*
X133305484Y-78753627D03*
X120600000Y-103225000D03*
X128100000Y-93450000D03*
X116505016Y-107747946D03*
X116825000Y-113125000D03*
X129150000Y-93450000D03*
X124500000Y-79800000D03*
X126600000Y-81900000D03*
X168800000Y-88975000D03*
X138691301Y-82275000D03*
X155021419Y-73009690D03*
X123500000Y-110900000D03*
X129500000Y-90000000D03*
X126128768Y-113571232D03*
X124000000Y-61500000D03*
X149700000Y-69900000D03*
X128500000Y-64800000D03*
X124969791Y-99780857D03*
X124154085Y-103192470D03*
X143600000Y-95800000D03*
X129900000Y-100900000D03*
X158850000Y-112000000D03*
X138700000Y-74900000D03*
X149900000Y-93900000D03*
X118000000Y-71900000D03*
X128994512Y-104500000D03*
X129250000Y-94550000D03*
X171100000Y-101100000D03*
X146600000Y-103225000D03*
X171200000Y-106800000D03*
X162950000Y-93050000D03*
X114250000Y-107000000D03*
X130825000Y-113250000D03*
X123800000Y-80500000D03*
X145600000Y-91600000D03*
X117240000Y-100498887D03*
X150900000Y-115100000D03*
X154500000Y-61600000D03*
X171300000Y-98400000D03*
X147831670Y-74063342D03*
X133212887Y-103625000D03*
X144200000Y-115300000D03*
X125220000Y-81900000D03*
X128197987Y-90032478D03*
X117500000Y-87200000D03*
X144900000Y-89800000D03*
X149900000Y-78800000D03*
X167504866Y-99208688D03*
X138618936Y-77383625D03*
X125450000Y-93450000D03*
X137154085Y-101242470D03*
X120250000Y-102725000D03*
X157100000Y-74200000D03*
X132799317Y-78968792D03*
X168166648Y-102421041D03*
X167373076Y-96373102D03*
X145600000Y-92400000D03*
X149224833Y-76016794D03*
X147820000Y-96280000D03*
X143050000Y-100925000D03*
X144900000Y-88800000D03*
X157150000Y-115100000D03*
X119783893Y-111887845D03*
X125200000Y-80500000D03*
X142350000Y-88700000D03*
X148400000Y-84300000D03*
X118300000Y-115100000D03*
X132266600Y-77383625D03*
X145600000Y-95362717D03*
X142400000Y-89850000D03*
X120212887Y-103625000D03*
X168206694Y-98452914D03*
X126350000Y-93450000D03*
X117649997Y-90500000D03*
X149400000Y-66500000D03*
X152525734Y-73927943D03*
X141300000Y-89850000D03*
X148408699Y-75140906D03*
X123800000Y-81900000D03*
X138700000Y-89900000D03*
%TO.N,usb_d+*%
X138100667Y-78354907D03*
X132800842Y-78368791D03*
%TO.N,usb_d-*%
X138093380Y-77754949D03*
X132793495Y-77768834D03*
%TO.N,+5V*%
X117400000Y-62000000D03*
X152500000Y-80600000D03*
X119400000Y-60800000D03*
X156200000Y-103500000D03*
X121400000Y-63900000D03*
X120100000Y-64400000D03*
X118800000Y-64400000D03*
X128000000Y-111500000D03*
X141500000Y-101000000D03*
X153200000Y-81800000D03*
X155897260Y-80691105D03*
X115200000Y-110300000D03*
X114000000Y-101100000D03*
X140700000Y-111400000D03*
X145200000Y-98000000D03*
X121400000Y-62000000D03*
X150900000Y-80600000D03*
X152500000Y-87700000D03*
X117600000Y-63900000D03*
X119400000Y-63300000D03*
X137200000Y-100600000D03*
X129900000Y-100300000D03*
X154900000Y-81700000D03*
X154038588Y-80627412D03*
X152600000Y-95700000D03*
%TO.N,+3.3V*%
X155700000Y-82500000D03*
X117400000Y-85200000D03*
X147255901Y-68481661D03*
X143800000Y-82300000D03*
X167625000Y-98600000D03*
X112100000Y-109100000D03*
X121700000Y-113340000D03*
X167625000Y-96950000D03*
X131000000Y-85400000D03*
X139000000Y-82800000D03*
X168618312Y-102816013D03*
X139600000Y-74900000D03*
X126900000Y-113600000D03*
X139200000Y-80100000D03*
X116900000Y-67900000D03*
X117803552Y-110103552D03*
X139400000Y-67100000D03*
%TO.N,boot*%
X162600000Y-81100000D03*
X154500000Y-67500000D03*
%TO.N,reset*%
X120100000Y-86500000D03*
X164100000Y-82000000D03*
X120100000Y-84700000D03*
X142600000Y-65800000D03*
X136600000Y-65807022D03*
%TO.N,/connectors.enc_scl*%
X126435014Y-99772864D03*
X162700000Y-113860000D03*
X149700000Y-113600000D03*
X124200000Y-110900000D03*
X126900000Y-92500000D03*
X136673317Y-113563342D03*
%TO.N,/connectors.enc_sda*%
X161500000Y-114475000D03*
X148500000Y-114000000D03*
X122900000Y-114200000D03*
X125000000Y-91900000D03*
X135600000Y-114100000D03*
X125500000Y-99500000D03*
%TO.N,/connectors.enc1.cs*%
X125100000Y-112200000D03*
X117500000Y-100000000D03*
%TO.N,/connectors.enc2.cs*%
X122900000Y-87200000D03*
X132800000Y-90200000D03*
X132400000Y-92400000D03*
X139200000Y-101300000D03*
%TO.N,/connectors.enc3.cs*%
X151400000Y-112200000D03*
X157600000Y-88900000D03*
%TO.N,gpio47*%
X145300000Y-67300000D03*
%TO.N,gpio38*%
X139200000Y-61500000D03*
%TO.N,gpio36*%
X144200000Y-61500000D03*
%TO.N,gpio37*%
X134100000Y-66500000D03*
%TO.N,sda*%
X122397035Y-68301177D03*
X168800000Y-96400000D03*
X120654890Y-66512132D03*
%TO.N,scl*%
X122400000Y-66800000D03*
X166500000Y-93600000D03*
%TO.N,gpio48*%
X144100000Y-65400000D03*
%TO.N,gpio35*%
X140300000Y-65800000D03*
%TO.N,m3_PH*%
X141406414Y-104618925D03*
X137000000Y-88700000D03*
%TO.N,m4_EN*%
X156500000Y-100600000D03*
X138200000Y-81500000D03*
%TO.N,m1_EN*%
X127602975Y-90109702D03*
X115404867Y-104639240D03*
%TO.N,m1_PH*%
X126400000Y-90923390D03*
X115906245Y-107786366D03*
%TO.N,m2_EN*%
X127500000Y-99500000D03*
X128909023Y-90103680D03*
%TO.N,m2_PH*%
X127630000Y-107400000D03*
X130200000Y-90101080D03*
%TO.N,m3_EN*%
X131500000Y-90100000D03*
X140630000Y-107900000D03*
%TO.N,m4_PH*%
X157500000Y-101655002D03*
X137800000Y-80300000D03*
%TO.N,gpio39*%
X129900000Y-66600000D03*
%TO.N,gpio40*%
X136600000Y-61500000D03*
%TO.N,gpio41*%
X131800000Y-61600000D03*
%TO.N,gpio42*%
X129100000Y-61400000D03*
%TO.N,gpio44*%
X111900000Y-104800000D03*
X124900000Y-66400000D03*
X119300000Y-79300000D03*
%TO.N,gpio43*%
X118200000Y-90500000D03*
X126500000Y-61600000D03*
X118200000Y-80600000D03*
%TO.N,Net-(J1-DP1)*%
X172275317Y-78300000D03*
X170600000Y-78300000D03*
%TO.N,Net-(J1-DN1)*%
X172310001Y-77678057D03*
X170600000Y-76800000D03*
%TO.N,p26*%
X149300000Y-61500000D03*
%TO.N,p31*%
X157000000Y-66500000D03*
%TO.N,p32*%
X157000000Y-61500000D03*
%TO.N,p33*%
X159500000Y-66100000D03*
%TO.N,p35*%
X162000000Y-66500000D03*
%TO.N,p36*%
X162100000Y-61500000D03*
%TO.N,p37*%
X164600000Y-66500000D03*
%TO.N,p38*%
X164500000Y-61500000D03*
%TO.N,p40*%
X167127868Y-61472132D03*
%TO.N,/i2c_1.sda*%
X148786694Y-75606870D03*
X157100000Y-70854544D03*
X155172249Y-73827898D03*
%TO.N,/i2c_1.scl*%
X148100000Y-74600000D03*
X154543042Y-72642826D03*
X152000000Y-74400000D03*
%TO.N,gpio21*%
X147200000Y-63900000D03*
X147100000Y-62300000D03*
%TD*%
D18*
%TO.N,GND*%
X159479374Y-61479374D02*
X159500000Y-61500000D01*
X153680000Y-61500000D02*
X154400000Y-61500000D01*
X158748980Y-61479374D02*
X159479374Y-61479374D01*
X166368980Y-66519374D02*
X167080626Y-66519374D01*
X148608354Y-66500000D02*
X148588980Y-66519374D01*
X140968980Y-61479374D02*
X141679374Y-61479374D01*
X124000000Y-61500000D02*
X123200000Y-61500000D01*
X128500000Y-66288354D02*
X128268980Y-66519374D01*
X134079374Y-61479374D02*
X134100000Y-61500000D01*
X154400000Y-61500000D02*
X154500000Y-61600000D01*
X167080626Y-66519374D02*
X167100000Y-66500000D01*
X128500000Y-64800000D02*
X128500000Y-66288354D01*
X133348980Y-61479374D02*
X134079374Y-61479374D01*
X149400000Y-66500000D02*
X148608354Y-66500000D01*
X141679374Y-61479374D02*
X141700000Y-61500000D01*
%TO.N,usb_d+*%
X138039387Y-78293627D02*
X138100667Y-78354907D01*
X138025001Y-78293627D02*
X138039387Y-78293627D01*
X132800842Y-78345390D02*
X132852605Y-78293627D01*
X132800842Y-78368791D02*
X132800842Y-78345390D01*
X132852605Y-78293627D02*
X138025001Y-78293627D01*
%TO.N,usb_d-*%
X132793495Y-77768834D02*
X132793495Y-77784515D01*
X138025001Y-77823328D02*
X138025001Y-77843625D01*
X132793495Y-77784515D02*
X132852605Y-77843625D01*
X138093380Y-77754949D02*
X138025001Y-77823328D01*
X132852605Y-77843625D02*
X138025001Y-77843625D01*
D19*
%TO.N,+5V*%
X152600000Y-95700000D02*
X152600000Y-96800000D01*
X152500000Y-87700000D02*
X152600000Y-87800000D01*
D18*
X120660000Y-61500000D02*
X120900000Y-61500000D01*
X136900000Y-100300000D02*
X137200000Y-100600000D01*
X117588354Y-62000000D02*
X118108980Y-61479374D01*
X155500000Y-95600000D02*
X152700000Y-95600000D01*
X114000000Y-101100000D02*
X113500000Y-101600000D01*
D19*
X145200000Y-98000000D02*
X145200000Y-97600000D01*
D18*
X139640000Y-112460000D02*
X132684461Y-112460000D01*
D20*
X122000000Y-72600000D02*
X139732664Y-72600000D01*
D18*
X132684461Y-112460000D02*
X132424461Y-112200000D01*
D20*
X145000000Y-75700000D02*
X145000000Y-80200000D01*
D18*
X132424461Y-112200000D02*
X128700000Y-112200000D01*
X120900000Y-61500000D02*
X121400000Y-62000000D01*
D19*
X147600000Y-97600000D02*
X148600000Y-97600000D01*
X145200000Y-97600000D02*
X147600000Y-97600000D01*
D18*
X128700000Y-112200000D02*
X128000000Y-111500000D01*
X113500000Y-108600000D02*
X115200000Y-110300000D01*
D20*
X119500000Y-70100000D02*
X122000000Y-72600000D01*
D18*
X140700000Y-111400000D02*
X139640000Y-112460000D01*
D20*
X139732664Y-72600000D02*
X139757664Y-72625000D01*
D18*
X152700000Y-95600000D02*
X152600000Y-95700000D01*
D20*
X141925000Y-72625000D02*
X145000000Y-75700000D01*
D18*
X117400000Y-62000000D02*
X117588354Y-62000000D01*
D20*
X139757664Y-72625000D02*
X141925000Y-72625000D01*
D18*
X156200000Y-103500000D02*
X156040000Y-103340000D01*
D19*
X147600000Y-97600000D02*
X144900000Y-97600000D01*
D18*
X156040000Y-96140000D02*
X155500000Y-95600000D01*
X113500000Y-101600000D02*
X113500000Y-108600000D01*
D19*
X152600000Y-87800000D02*
X152600000Y-95700000D01*
D18*
X129900000Y-100300000D02*
X136900000Y-100300000D01*
D19*
X152600000Y-96800000D02*
X151800000Y-97600000D01*
X144900000Y-97600000D02*
X141500000Y-101000000D01*
X151800000Y-97600000D02*
X148600000Y-97600000D01*
D18*
X156040000Y-103340000D02*
X156040000Y-96140000D01*
D21*
%TO.N,+3.3V*%
X168700000Y-99725000D02*
X167625000Y-98650000D01*
D18*
X140220000Y-68300000D02*
X139400000Y-67480000D01*
D19*
X155100000Y-82500000D02*
X154875000Y-82275000D01*
D21*
X168700000Y-102734325D02*
X168700000Y-99725000D01*
D19*
X146073133Y-82125000D02*
X145878133Y-82320000D01*
X139200000Y-80100000D02*
X139200000Y-77142463D01*
D18*
X147255901Y-68481661D02*
X147074240Y-68300000D01*
D19*
X153003248Y-82275000D02*
X152853248Y-82125000D01*
X135700000Y-85400000D02*
X138300000Y-82800000D01*
D21*
X121700000Y-113340000D02*
X122127155Y-112912845D01*
X117803552Y-110103552D02*
X118678423Y-110103552D01*
D18*
X147074240Y-68300000D02*
X140220000Y-68300000D01*
D21*
X167625000Y-96950000D02*
X167625000Y-98600000D01*
D19*
X138300000Y-82800000D02*
X139000000Y-82800000D01*
D21*
X168618312Y-102816013D02*
X168700000Y-102734325D01*
D18*
X139400000Y-67480000D02*
X139400000Y-67100000D01*
D19*
X139200000Y-77142463D02*
X139600000Y-76742463D01*
X143820000Y-82320000D02*
X143800000Y-82300000D01*
X131000000Y-85400000D02*
X135700000Y-85400000D01*
D21*
X126212845Y-112912845D02*
X126900000Y-113600000D01*
D19*
X152853248Y-82125000D02*
X146073133Y-82125000D01*
D21*
X167625000Y-98650000D02*
X167625000Y-98600000D01*
X118678423Y-110103552D02*
X121700000Y-113125129D01*
X122127155Y-112912845D02*
X126212845Y-112912845D01*
D19*
X145878133Y-82320000D02*
X143820000Y-82320000D01*
D21*
X121700000Y-113125129D02*
X121700000Y-113340000D01*
D19*
X154875000Y-82275000D02*
X153003248Y-82275000D01*
X139600000Y-76742463D02*
X139600000Y-74900000D01*
X155700000Y-82500000D02*
X155100000Y-82500000D01*
D18*
%TO.N,boot*%
X161700000Y-80200000D02*
X161700000Y-70100000D01*
X155440000Y-68300000D02*
X153680000Y-66540000D01*
D22*
X154500000Y-67500000D02*
X153668980Y-66668980D01*
D18*
X161700000Y-70100000D02*
X159900000Y-68300000D01*
X162600000Y-81100000D02*
X161700000Y-80200000D01*
D22*
X153668980Y-66668980D02*
X153668980Y-66519374D01*
D18*
X159900000Y-68300000D02*
X155440000Y-68300000D01*
%TO.N,reset*%
X164100000Y-81949461D02*
X162920000Y-80769461D01*
X142100000Y-64500000D02*
X137940000Y-64500000D01*
X142100000Y-64500000D02*
X142100000Y-65300000D01*
X142100000Y-65300000D02*
X142600000Y-65800000D01*
X120100000Y-84700000D02*
X120100000Y-86500000D01*
X162920000Y-80769461D02*
X162920000Y-65187452D01*
X162232548Y-64500000D02*
X142100000Y-64500000D01*
X137940000Y-64500000D02*
X135900000Y-66540000D01*
X162920000Y-65187452D02*
X162232548Y-64500000D01*
X164100000Y-82000000D02*
X164100000Y-81949461D01*
%TO.N,/connectors.enc_scl*%
X126900000Y-92500000D02*
X128900000Y-92500000D01*
X131015539Y-113710000D02*
X131353869Y-113371670D01*
X124850539Y-110900000D02*
X127660539Y-113710000D01*
X128900000Y-92500000D02*
X129800000Y-93400000D01*
X144386273Y-113364266D02*
X149464266Y-113364266D01*
X149464266Y-113364266D02*
X149700000Y-113600000D01*
X136909975Y-113800000D02*
X143950539Y-113800000D01*
X131353869Y-113371670D02*
X136481645Y-113371670D01*
X136673317Y-113563342D02*
X136909975Y-113800000D01*
X143950539Y-113800000D02*
X144386273Y-113364266D01*
X159240000Y-113860000D02*
X159100000Y-114000000D01*
X162700000Y-113860000D02*
X159240000Y-113860000D01*
X136481645Y-113371670D02*
X136673317Y-113563342D01*
X129800000Y-93400000D02*
X129800000Y-95783772D01*
X126435014Y-99148758D02*
X126435014Y-99772864D01*
X150100000Y-114000000D02*
X149700000Y-113600000D01*
X159100000Y-114000000D02*
X150100000Y-114000000D01*
X129800000Y-95783772D02*
X126435014Y-99148758D01*
X127660539Y-113710000D02*
X131015539Y-113710000D01*
X124200000Y-110900000D02*
X124850539Y-110900000D01*
%TO.N,/connectors.enc_sda*%
X161500000Y-114475000D02*
X161475000Y-114500000D01*
X124990000Y-91910000D02*
X125000000Y-91900000D01*
X130849461Y-114200000D02*
X131009461Y-114040000D01*
X135540000Y-114040000D02*
X135600000Y-114100000D01*
X161475000Y-114500000D02*
X149000000Y-114500000D01*
X131009461Y-114040000D02*
X135540000Y-114040000D01*
X135600000Y-114100000D02*
X136000000Y-114500000D01*
X148000000Y-114500000D02*
X148500000Y-114000000D01*
X124990000Y-98990000D02*
X124990000Y-91910000D01*
X136000000Y-114500000D02*
X148000000Y-114500000D01*
X149000000Y-114500000D02*
X148500000Y-114000000D01*
X125500000Y-99500000D02*
X124990000Y-98990000D01*
X122900000Y-114200000D02*
X130849461Y-114200000D01*
%TO.N,/connectors.enc1.cs*%
X120100000Y-106743061D02*
X120100000Y-108300000D01*
X117500000Y-100000000D02*
X117700000Y-100200000D01*
X120100000Y-108300000D02*
X124000000Y-112200000D01*
X124000000Y-112200000D02*
X125100000Y-112200000D01*
X117700000Y-104343061D02*
X120100000Y-106743061D01*
X117700000Y-100200000D02*
X117700000Y-104343061D01*
%TO.N,/connectors.enc2.cs*%
X132800000Y-90000000D02*
X132100000Y-89300000D01*
X132400000Y-94500000D02*
X132400000Y-92400000D01*
X131600000Y-87200000D02*
X122900000Y-87200000D01*
X132100000Y-89300000D02*
X132100000Y-87700000D01*
X139200000Y-101300000D02*
X132400000Y-94500000D01*
X132100000Y-87700000D02*
X131600000Y-87200000D01*
X132800000Y-90200000D02*
X132800000Y-90000000D01*
%TO.N,/connectors.enc3.cs*%
X164500000Y-96278823D02*
X162100000Y-93878823D01*
X152600000Y-113400000D02*
X163400000Y-113400000D01*
X158600000Y-88900000D02*
X157600000Y-88900000D01*
X162100000Y-92400000D02*
X158600000Y-88900000D01*
X164500000Y-112300000D02*
X164500000Y-96278823D01*
X163400000Y-113400000D02*
X164500000Y-112300000D01*
X162100000Y-93878823D02*
X162100000Y-92400000D01*
X151400000Y-112200000D02*
X152600000Y-113400000D01*
%TO.N,gpio47*%
X145300000Y-67300000D02*
X146060000Y-66540000D01*
%TO.N,gpio38*%
X139200000Y-61500000D02*
X138440000Y-61500000D01*
%TO.N,gpio36*%
X144200000Y-61500000D02*
X143520000Y-61500000D01*
%TO.N,gpio37*%
X134100000Y-66500000D02*
X133400000Y-66500000D01*
X133400000Y-66500000D02*
X133360000Y-66540000D01*
%TO.N,sda*%
X157676794Y-76476794D02*
X158500000Y-77300000D01*
X165440000Y-91940000D02*
X165440000Y-93690539D01*
X143100000Y-69800000D02*
X147100000Y-73800000D01*
X165440000Y-93690539D02*
X168149461Y-96400000D01*
X148676794Y-76476794D02*
X157676794Y-76476794D01*
X147100000Y-74900000D02*
X148676794Y-76476794D01*
X120660000Y-66517242D02*
X120654890Y-66512132D01*
X122397035Y-68301177D02*
X123895858Y-69800000D01*
X158500000Y-85000000D02*
X165440000Y-91940000D01*
X123895858Y-69800000D02*
X143100000Y-69800000D01*
X147100000Y-73800000D02*
X147100000Y-74900000D01*
X168149461Y-96400000D02*
X168800000Y-96400000D01*
X120660000Y-66540000D02*
X120660000Y-66517242D01*
X158500000Y-77300000D02*
X158500000Y-85000000D01*
%TO.N,scl*%
X122400000Y-66800000D02*
X122940000Y-66800000D01*
X159400000Y-69100000D02*
X125760000Y-69100000D01*
X160500000Y-85300000D02*
X160500000Y-70200000D01*
X125760000Y-69100000D02*
X123200000Y-66540000D01*
X166500000Y-91300000D02*
X160500000Y-85300000D01*
X160500000Y-70200000D02*
X159400000Y-69100000D01*
X166500000Y-93600000D02*
X166500000Y-91300000D01*
X122940000Y-66800000D02*
X123188980Y-66551020D01*
X123188980Y-66551020D02*
X123188980Y-66519374D01*
%TO.N,gpio48*%
X144100000Y-65960000D02*
X143520000Y-66540000D01*
X144100000Y-65400000D02*
X144100000Y-65960000D01*
%TO.N,gpio35*%
X140300000Y-65800000D02*
X140300000Y-65860000D01*
X140300000Y-65860000D02*
X140980000Y-66540000D01*
%TO.N,m3_PH*%
X140800000Y-94100000D02*
X137000000Y-90300000D01*
X141406414Y-104618925D02*
X140800000Y-104012511D01*
X140800000Y-104012511D02*
X140800000Y-94100000D01*
X137000000Y-90300000D02*
X137000000Y-88700000D01*
%TO.N,m4_EN*%
X155170000Y-83690000D02*
X156500000Y-85020000D01*
X138200000Y-81500000D02*
X138566840Y-81500000D01*
X141666840Y-84600000D02*
X147000000Y-84600000D01*
X147910000Y-83690000D02*
X155170000Y-83690000D01*
X156500000Y-85020000D02*
X156500000Y-100600000D01*
X138566840Y-81500000D02*
X141666840Y-84600000D01*
X147000000Y-84600000D02*
X147910000Y-83690000D01*
%TO.N,m1_EN*%
X127249287Y-90463390D02*
X122936610Y-90463390D01*
X122936610Y-90463390D02*
X120100000Y-93300000D01*
X120100000Y-95500000D02*
X115404867Y-100195133D01*
X127602975Y-90109702D02*
X127249287Y-90463390D01*
X120100000Y-93300000D02*
X120100000Y-95500000D01*
X115404867Y-100195133D02*
X115404867Y-104639240D01*
%TO.N,m1_PH*%
X126400000Y-90923390D02*
X123976610Y-90923390D01*
X115906245Y-105353972D02*
X115906245Y-107786366D01*
X122000000Y-94700000D02*
X116450000Y-100250000D01*
X122000000Y-92900000D02*
X122000000Y-94700000D01*
X116450000Y-104810217D02*
X115906245Y-105353972D01*
X116450000Y-100250000D02*
X116450000Y-104810217D01*
X123976610Y-90923390D02*
X122000000Y-92900000D01*
%TO.N,m2_EN*%
X128909023Y-90103680D02*
X130400000Y-91594657D01*
X130400000Y-91594657D02*
X130400000Y-96600000D01*
X130400000Y-96600000D02*
X127500000Y-99500000D01*
%TO.N,m2_PH*%
X131300000Y-96725270D02*
X127630000Y-100395270D01*
X130200000Y-90101080D02*
X131300000Y-91201080D01*
X131300000Y-91201080D02*
X131300000Y-96725270D01*
X127630000Y-100395270D02*
X127630000Y-107400000D01*
%TO.N,m3_EN*%
X140630000Y-107900000D02*
X140000000Y-107270000D01*
X140000000Y-107270000D02*
X140000000Y-98600000D01*
X140000000Y-98600000D02*
X131500000Y-90100000D01*
%TO.N,m4_PH*%
X138100000Y-80600000D02*
X140100000Y-80600000D01*
X156000000Y-83100000D02*
X157190000Y-84290000D01*
X157190000Y-100039461D02*
X157560000Y-100409461D01*
X137800000Y-80300000D02*
X138100000Y-80600000D01*
X157190000Y-84290000D02*
X157190000Y-100039461D01*
X157560000Y-101595002D02*
X157500000Y-101655002D01*
X142600000Y-83100000D02*
X156000000Y-83100000D01*
X140100000Y-80600000D02*
X142600000Y-83100000D01*
X157560000Y-100409461D02*
X157560000Y-101595002D01*
%TO.N,gpio39*%
X129900000Y-66600000D02*
X130760000Y-66600000D01*
X130760000Y-66600000D02*
X130820000Y-66540000D01*
%TO.N,gpio40*%
X136600000Y-61500000D02*
X135900000Y-61500000D01*
%TO.N,gpio41*%
X130920000Y-61600000D02*
X130820000Y-61500000D01*
X131800000Y-61600000D02*
X130920000Y-61600000D01*
%TO.N,gpio42*%
X129100000Y-61400000D02*
X128380000Y-61400000D01*
X128380000Y-61400000D02*
X128280000Y-61500000D01*
%TO.N,gpio44*%
X117000000Y-97100000D02*
X111900000Y-102200000D01*
X117770425Y-97100000D02*
X117000000Y-97100000D01*
X124900000Y-66400000D02*
X125600000Y-66400000D01*
X119100000Y-79500000D02*
X119100000Y-95770425D01*
X125600000Y-66400000D02*
X125740000Y-66540000D01*
X111900000Y-102200000D02*
X111900000Y-104800000D01*
X119100000Y-95770425D02*
X117770425Y-97100000D01*
X119300000Y-79300000D02*
X119100000Y-79500000D01*
%TO.N,gpio43*%
X125840000Y-61600000D02*
X125740000Y-61500000D01*
X126500000Y-61600000D02*
X125840000Y-61600000D01*
X118200000Y-90500000D02*
X118200000Y-80600000D01*
D22*
%TO.N,Net-(J1-DP1)*%
X171950317Y-78600000D02*
X170900000Y-78600000D01*
X170900000Y-78600000D02*
X170600000Y-78300000D01*
X172250317Y-78300000D02*
X171950317Y-78600000D01*
X172275317Y-78300000D02*
X172250317Y-78300000D01*
%TO.N,Net-(J1-DN1)*%
X170900000Y-76500000D02*
X170600000Y-76800000D01*
X172335001Y-77653057D02*
X172335001Y-76835001D01*
X172310001Y-77678057D02*
X172335001Y-77653057D01*
X172335001Y-76835001D02*
X172000000Y-76500000D01*
X172000000Y-76500000D02*
X170900000Y-76500000D01*
D18*
%TO.N,p26*%
X148588980Y-61479374D02*
X149279374Y-61479374D01*
X149279374Y-61479374D02*
X149300000Y-61500000D01*
%TO.N,p31*%
X157000000Y-66500000D02*
X156228354Y-66500000D01*
X156228354Y-66500000D02*
X156208980Y-66519374D01*
%TO.N,p32*%
X156208980Y-61479374D02*
X156979374Y-61479374D01*
X156979374Y-61479374D02*
X157000000Y-61500000D01*
D22*
%TO.N,p33*%
X159500000Y-66100000D02*
X159168354Y-66100000D01*
X159168354Y-66100000D02*
X158748980Y-66519374D01*
D18*
%TO.N,p35*%
X162000000Y-66500000D02*
X161308354Y-66500000D01*
X161308354Y-66500000D02*
X161288980Y-66519374D01*
%TO.N,p36*%
X162079374Y-61479374D02*
X162100000Y-61500000D01*
X161288980Y-61479374D02*
X162079374Y-61479374D01*
%TO.N,p37*%
X164580626Y-66519374D02*
X164600000Y-66500000D01*
X163828980Y-66519374D02*
X164580626Y-66519374D01*
%TO.N,p38*%
X163828980Y-61479374D02*
X164479374Y-61479374D01*
X164479374Y-61479374D02*
X164500000Y-61500000D01*
D22*
%TO.N,p40*%
X166376222Y-61472132D02*
X166368980Y-61479374D01*
X167127868Y-61472132D02*
X166376222Y-61472132D01*
D18*
%TO.N,/i2c_1.sda*%
X152793372Y-75356206D02*
X153643941Y-75356206D01*
X155271693Y-73827898D02*
X155172249Y-73827898D01*
X157600000Y-71354544D02*
X157600000Y-72300000D01*
X156063434Y-73836566D02*
X155280361Y-73836566D01*
X157100000Y-70854544D02*
X157600000Y-71354544D01*
X152749578Y-75400000D02*
X152793372Y-75356206D01*
X153643941Y-75356206D02*
X155172249Y-73827898D01*
X157600000Y-72300000D02*
X156063434Y-73836566D01*
X155280361Y-73836566D02*
X155271693Y-73827898D01*
X148993564Y-75400000D02*
X152749578Y-75400000D01*
X148786694Y-75606870D02*
X148993564Y-75400000D01*
%TO.N,/i2c_1.scl*%
X154543042Y-72642826D02*
X152785868Y-74400000D01*
X152785868Y-74400000D02*
X152000000Y-74400000D01*
X148180906Y-74680906D02*
X151719094Y-74680906D01*
X151719094Y-74680906D02*
X152000000Y-74400000D01*
X148100000Y-74600000D02*
X148180906Y-74680906D01*
%TO.N,unconnected-(J7-Pin_1-Pad1)*%
X118089606Y-66500000D02*
X118108980Y-66519374D01*
%TO.N,gpio21*%
X147100000Y-62300000D02*
X146300000Y-61500000D01*
X146300000Y-61500000D02*
X146060000Y-61500000D01*
X147200000Y-63900000D02*
X147200000Y-62400000D01*
X147200000Y-62400000D02*
X147100000Y-62300000D01*
%TD*%
%TA.AperFunction,Conductor*%
%TO.N,gpio41*%
G36*
X131727979Y-61426039D02*
G01*
X131728261Y-61426659D01*
X131799100Y-61595473D01*
X131799141Y-61604427D01*
X131799100Y-61604527D01*
X131728261Y-61773340D01*
X131721899Y-61779643D01*
X131712945Y-61779602D01*
X131712325Y-61779320D01*
X131645505Y-61746589D01*
X131644452Y-61746004D01*
X131590344Y-61712197D01*
X131542620Y-61684814D01*
X131542613Y-61684811D01*
X131494972Y-61669803D01*
X131484830Y-61666608D01*
X131476144Y-61665931D01*
X131410791Y-61660840D01*
X131402809Y-61656781D01*
X131400000Y-61649175D01*
X131400000Y-61550824D01*
X131403427Y-61542551D01*
X131410790Y-61539159D01*
X131484830Y-61533391D01*
X131542621Y-61515183D01*
X131590342Y-61487802D01*
X131644461Y-61453988D01*
X131645495Y-61453414D01*
X131712326Y-61420678D01*
X131721263Y-61420117D01*
X131727979Y-61426039D01*
G37*
%TD.AperFunction*%
%TD*%
%TA.AperFunction,Conductor*%
%TO.N,+3.3V*%
G36*
X131012530Y-85200975D02*
G01*
X131099142Y-85207717D01*
X131101228Y-85208072D01*
X131165995Y-85225307D01*
X131169571Y-85226259D01*
X131170636Y-85226598D01*
X131229898Y-85248600D01*
X131299796Y-85267200D01*
X131389210Y-85274160D01*
X131397190Y-85278218D01*
X131400000Y-85285824D01*
X131400000Y-85514175D01*
X131396573Y-85522448D01*
X131389208Y-85525840D01*
X131299795Y-85532800D01*
X131299793Y-85532800D01*
X131280583Y-85537912D01*
X131229896Y-85551400D01*
X131170634Y-85573402D01*
X131169571Y-85573740D01*
X131101235Y-85591925D01*
X131099134Y-85592283D01*
X131012545Y-85599023D01*
X131004031Y-85596248D01*
X130999972Y-85588266D01*
X130999937Y-85587417D01*
X130999000Y-85400059D01*
X130999000Y-85399941D01*
X130999937Y-85212582D01*
X131003405Y-85204327D01*
X131011696Y-85200941D01*
X131012530Y-85200975D01*
G37*
%TD.AperFunction*%
%TD*%
%TA.AperFunction,Conductor*%
%TO.N,reset*%
G36*
X136583871Y-65784334D02*
G01*
X136653247Y-65853710D01*
X136656674Y-65861983D01*
X136653247Y-65870256D01*
X136652575Y-65870878D01*
X136608297Y-65908715D01*
X136606387Y-65910042D01*
X136552729Y-65939916D01*
X136549193Y-65941194D01*
X136500571Y-65950306D01*
X136494385Y-65949790D01*
X136454126Y-65935016D01*
X136448603Y-65930785D01*
X136416999Y-65886071D01*
X136414913Y-65880501D01*
X136411991Y-65851689D01*
X136414565Y-65843114D01*
X136416998Y-65840872D01*
X136434589Y-65828782D01*
X136438947Y-65826948D01*
X136480045Y-65818842D01*
X136530647Y-65806498D01*
X136569476Y-65782638D01*
X136578315Y-65781227D01*
X136583871Y-65784334D01*
G37*
%TD.AperFunction*%
%TD*%
%TA.AperFunction,Conductor*%
%TO.N,/connectors.enc_scl*%
G36*
X162627979Y-113686039D02*
G01*
X162628261Y-113686659D01*
X162699100Y-113855473D01*
X162699141Y-113864427D01*
X162699100Y-113864527D01*
X162628261Y-114033340D01*
X162621899Y-114039643D01*
X162612945Y-114039602D01*
X162612325Y-114039320D01*
X162545505Y-114006589D01*
X162544452Y-114006004D01*
X162490344Y-113972197D01*
X162442620Y-113944814D01*
X162442613Y-113944811D01*
X162394972Y-113929803D01*
X162384830Y-113926608D01*
X162376144Y-113925931D01*
X162310791Y-113920840D01*
X162302809Y-113916781D01*
X162300000Y-113909175D01*
X162300000Y-113810824D01*
X162303427Y-113802551D01*
X162310790Y-113799159D01*
X162384830Y-113793391D01*
X162442621Y-113775183D01*
X162490342Y-113747802D01*
X162544461Y-113713988D01*
X162545495Y-113713414D01*
X162612326Y-113680678D01*
X162621263Y-113680117D01*
X162627979Y-113686039D01*
G37*
%TD.AperFunction*%
%TD*%
%TA.AperFunction,Conductor*%
%TO.N,scl*%
G36*
X122712174Y-66185763D02*
G01*
X123090029Y-66459583D01*
X123191506Y-66533120D01*
X123196195Y-66540750D01*
X123194115Y-66549459D01*
X123194100Y-66549479D01*
X122710506Y-67213867D01*
X122702867Y-67218540D01*
X122694162Y-67216441D01*
X122690958Y-67212907D01*
X122640000Y-67126140D01*
X122580000Y-67038229D01*
X122520000Y-66964569D01*
X122460000Y-66905159D01*
X122404664Y-66863510D01*
X122400115Y-66855797D01*
X122400000Y-66854162D01*
X122400000Y-66744132D01*
X122402595Y-66736784D01*
X122460000Y-66665667D01*
X122520000Y-66572195D01*
X122580000Y-66459583D01*
X122640000Y-66327832D01*
X122694443Y-66190915D01*
X122700683Y-66184495D01*
X122709637Y-66184368D01*
X122712174Y-66185763D01*
G37*
%TD.AperFunction*%
%TD*%
%TA.AperFunction,Conductor*%
%TO.N,+3.3V*%
G36*
X167807018Y-98528292D02*
G01*
X167813321Y-98534653D01*
X167813634Y-98535513D01*
X167836160Y-98605863D01*
X167836561Y-98607526D01*
X167847027Y-98670940D01*
X167856767Y-98725839D01*
X167856769Y-98725844D01*
X167880844Y-98781086D01*
X167880845Y-98781088D01*
X167927699Y-98838102D01*
X167930304Y-98846669D01*
X167926933Y-98853803D01*
X167829444Y-98951292D01*
X167821171Y-98954719D01*
X167813029Y-98951421D01*
X167763320Y-98903251D01*
X167763311Y-98903243D01*
X167718881Y-98866328D01*
X167718876Y-98866325D01*
X167676161Y-98840047D01*
X167676152Y-98840043D01*
X167623321Y-98815753D01*
X167559227Y-98789230D01*
X167552893Y-98782900D01*
X167552871Y-98773993D01*
X167622435Y-98603836D01*
X167628738Y-98597476D01*
X167628780Y-98597458D01*
X167798064Y-98528251D01*
X167807018Y-98528292D01*
G37*
%TD.AperFunction*%
%TD*%
%TA.AperFunction,Conductor*%
%TO.N,Net-(J1-DN1)*%
G36*
X172421755Y-77286457D02*
G01*
X172425180Y-77294546D01*
X172426268Y-77364294D01*
X172431594Y-77422187D01*
X172443077Y-77470507D01*
X172443266Y-77471299D01*
X172463566Y-77526216D01*
X172490316Y-77590758D01*
X172490318Y-77599713D01*
X172484035Y-77606027D01*
X172314528Y-77677157D01*
X172305574Y-77677198D01*
X172305474Y-77677157D01*
X172136620Y-77606301D01*
X172130317Y-77599939D01*
X172130358Y-77590985D01*
X172130608Y-77590431D01*
X172162443Y-77524862D01*
X172162962Y-77523911D01*
X172195512Y-77470506D01*
X172221590Y-77423367D01*
X172238794Y-77366394D01*
X172242545Y-77316004D01*
X172244195Y-77293861D01*
X172248227Y-77285865D01*
X172255863Y-77283030D01*
X172413482Y-77283030D01*
X172421755Y-77286457D01*
G37*
%TD.AperFunction*%
%TD*%
%TA.AperFunction,Conductor*%
%TO.N,/connectors.enc_sda*%
G36*
X148326703Y-113928156D02*
G01*
X148496162Y-113997435D01*
X148502523Y-114003738D01*
X148502564Y-114003837D01*
X148571843Y-114173296D01*
X148571802Y-114182251D01*
X148565441Y-114188554D01*
X148564803Y-114188793D01*
X148494414Y-114212896D01*
X148493257Y-114213227D01*
X148431081Y-114227585D01*
X148377978Y-114241967D01*
X148340133Y-114261678D01*
X148324241Y-114269956D01*
X148324239Y-114269957D01*
X148324238Y-114269958D01*
X148267809Y-114318231D01*
X148259294Y-114321005D01*
X148251930Y-114317613D01*
X148182385Y-114248068D01*
X148178958Y-114239795D01*
X148181765Y-114232192D01*
X148230043Y-114175757D01*
X148258031Y-114122018D01*
X148272414Y-114068913D01*
X148272415Y-114068911D01*
X148286770Y-114006744D01*
X148287098Y-114005594D01*
X148311206Y-113935194D01*
X148317128Y-113928479D01*
X148326066Y-113927917D01*
X148326703Y-113928156D01*
G37*
%TD.AperFunction*%
%TD*%
%TA.AperFunction,Conductor*%
%TO.N,p36*%
G36*
X161805478Y-61010796D02*
G01*
X161807472Y-61013468D01*
X161868479Y-61125596D01*
X161936972Y-61234328D01*
X161936975Y-61234332D01*
X162005456Y-61325895D01*
X162073934Y-61400303D01*
X162073940Y-61400309D01*
X162132613Y-61449369D01*
X162136762Y-61457305D01*
X162134084Y-61465850D01*
X162133381Y-61466618D01*
X162057577Y-61542421D01*
X162006055Y-61602399D01*
X162006053Y-61602402D01*
X161954544Y-61678111D01*
X161903034Y-61769563D01*
X161851521Y-61876765D01*
X161851511Y-61876788D01*
X161806734Y-61983660D01*
X161800376Y-61989966D01*
X161791422Y-61989930D01*
X161787672Y-61987414D01*
X161307580Y-61507575D01*
X161304151Y-61499303D01*
X161307576Y-61491029D01*
X161307576Y-61491028D01*
X161788932Y-61010776D01*
X161797208Y-61007360D01*
X161805478Y-61010796D01*
G37*
%TD.AperFunction*%
%TD*%
%TA.AperFunction,Conductor*%
%TO.N,+3.3V*%
G36*
X139322448Y-79703427D02*
G01*
X139325840Y-79710792D01*
X139332800Y-79800203D01*
X139332801Y-79800205D01*
X139351403Y-79870111D01*
X139351403Y-79870112D01*
X139373401Y-79929364D01*
X139373740Y-79930427D01*
X139391925Y-79998763D01*
X139392283Y-80000864D01*
X139399023Y-80087454D01*
X139396248Y-80095968D01*
X139388266Y-80100027D01*
X139387417Y-80100062D01*
X139200059Y-80100999D01*
X139199941Y-80100999D01*
X139012582Y-80100062D01*
X139004327Y-80096594D01*
X139000941Y-80088303D01*
X139000975Y-80087470D01*
X139007717Y-80000854D01*
X139008072Y-79998772D01*
X139026260Y-79930422D01*
X139026598Y-79929364D01*
X139048596Y-79870112D01*
X139048596Y-79870111D01*
X139048600Y-79870101D01*
X139067200Y-79800203D01*
X139074160Y-79710792D01*
X139078219Y-79702810D01*
X139085825Y-79700000D01*
X139314175Y-79700000D01*
X139322448Y-79703427D01*
G37*
%TD.AperFunction*%
%TD*%
%TA.AperFunction,Conductor*%
%TO.N,+5V*%
G36*
X129987054Y-100120397D02*
G01*
X129987666Y-100120675D01*
X129999882Y-100126659D01*
X130054490Y-100153408D01*
X130055541Y-100153991D01*
X130109657Y-100187802D01*
X130157378Y-100215183D01*
X130215169Y-100233391D01*
X130289209Y-100239159D01*
X130297191Y-100243218D01*
X130300000Y-100250824D01*
X130300000Y-100349175D01*
X130296573Y-100357448D01*
X130289209Y-100360840D01*
X130215169Y-100366608D01*
X130157385Y-100384811D01*
X130157378Y-100384814D01*
X130109661Y-100412193D01*
X130055544Y-100446005D01*
X130054492Y-100446589D01*
X129987674Y-100479320D01*
X129978737Y-100479882D01*
X129972020Y-100473960D01*
X129971738Y-100473340D01*
X129900898Y-100304525D01*
X129900858Y-100295573D01*
X129900871Y-100295540D01*
X129971738Y-100126658D01*
X129978100Y-100120356D01*
X129987054Y-100120397D01*
G37*
%TD.AperFunction*%
%TD*%
%TA.AperFunction,Conductor*%
%TO.N,scl*%
G36*
X123697100Y-66337795D02*
G01*
X123703421Y-66344138D01*
X123703783Y-66345145D01*
X123779192Y-66589333D01*
X123858393Y-66819393D01*
X123937576Y-67023005D01*
X123937587Y-67023033D01*
X123937593Y-67023048D01*
X123937597Y-67023056D01*
X124016778Y-67200271D01*
X124091976Y-67343502D01*
X124092788Y-67352420D01*
X124089890Y-67357214D01*
X124012222Y-67434882D01*
X124009787Y-67436749D01*
X123948893Y-67471808D01*
X123900283Y-67510108D01*
X123886675Y-67520830D01*
X123886673Y-67520832D01*
X123886672Y-67520832D01*
X123824453Y-67583051D01*
X123762221Y-67658486D01*
X123762218Y-67658488D01*
X123712231Y-67729684D01*
X123704673Y-67734486D01*
X123695933Y-67732536D01*
X123691848Y-67727442D01*
X123663260Y-67658481D01*
X123203781Y-66550121D01*
X123203779Y-66541168D01*
X123210108Y-66534834D01*
X123688146Y-66337780D01*
X123697100Y-66337795D01*
G37*
%TD.AperFunction*%
%TD*%
%TA.AperFunction,Conductor*%
%TO.N,m2_EN*%
G36*
X127748068Y-99182385D02*
G01*
X127817613Y-99251930D01*
X127821040Y-99260203D01*
X127818231Y-99267809D01*
X127769958Y-99324238D01*
X127741967Y-99377978D01*
X127727585Y-99431081D01*
X127713227Y-99493257D01*
X127712896Y-99494414D01*
X127688793Y-99564803D01*
X127682871Y-99571520D01*
X127673934Y-99572082D01*
X127673296Y-99571843D01*
X127503837Y-99502564D01*
X127497476Y-99496261D01*
X127497435Y-99496162D01*
X127428156Y-99326703D01*
X127428197Y-99317748D01*
X127434558Y-99311445D01*
X127435182Y-99311210D01*
X127505594Y-99287098D01*
X127506740Y-99286771D01*
X127524643Y-99282636D01*
X127568911Y-99272415D01*
X127602291Y-99263373D01*
X127622018Y-99258031D01*
X127675757Y-99230043D01*
X127732192Y-99181765D01*
X127740704Y-99178993D01*
X127748068Y-99182385D01*
G37*
%TD.AperFunction*%
%TD*%
%TA.AperFunction,Conductor*%
%TO.N,m3_EN*%
G36*
X140397809Y-107581768D02*
G01*
X140443959Y-107621247D01*
X140454241Y-107630043D01*
X140496266Y-107651930D01*
X140507980Y-107658031D01*
X140561086Y-107672415D01*
X140594094Y-107680036D01*
X140623268Y-107686773D01*
X140624393Y-107687094D01*
X140694805Y-107711206D01*
X140701521Y-107717128D01*
X140702083Y-107726066D01*
X140701844Y-107726703D01*
X140632564Y-107896162D01*
X140626261Y-107902523D01*
X140626162Y-107902564D01*
X140456703Y-107971844D01*
X140447748Y-107971803D01*
X140441445Y-107965442D01*
X140441211Y-107964820D01*
X140417094Y-107894393D01*
X140416773Y-107893268D01*
X140410036Y-107864094D01*
X140402415Y-107831086D01*
X140388031Y-107777980D01*
X140360042Y-107724240D01*
X140311768Y-107667809D01*
X140308994Y-107659294D01*
X140312385Y-107651931D01*
X140381931Y-107582385D01*
X140390203Y-107578959D01*
X140397809Y-107581768D01*
G37*
%TD.AperFunction*%
%TD*%
%TA.AperFunction,Conductor*%
%TO.N,+3.3V*%
G36*
X146943440Y-68240658D02*
G01*
X147011337Y-68244292D01*
X147012787Y-68244462D01*
X147068660Y-68254596D01*
X147069390Y-68254753D01*
X147118013Y-68266996D01*
X147152070Y-68273173D01*
X147174977Y-68277328D01*
X147174987Y-68277329D01*
X147244881Y-68281071D01*
X147252960Y-68284935D01*
X147255956Y-68292696D01*
X147256876Y-68476757D01*
X147253490Y-68485047D01*
X147253420Y-68485117D01*
X147124576Y-68613056D01*
X147116291Y-68616454D01*
X147108030Y-68612998D01*
X147106594Y-68611239D01*
X147068284Y-68553710D01*
X147066769Y-68550429D01*
X147048174Y-68485117D01*
X147047200Y-68481696D01*
X147047085Y-68481253D01*
X147032292Y-68419958D01*
X147032291Y-68419957D01*
X147032291Y-68419954D01*
X147000896Y-68376476D01*
X146975472Y-68370470D01*
X146940157Y-68362128D01*
X146932893Y-68356891D01*
X146931147Y-68350741D01*
X146931147Y-68252342D01*
X146934574Y-68244069D01*
X146942847Y-68240642D01*
X146943440Y-68240658D01*
G37*
%TD.AperFunction*%
%TD*%
%TA.AperFunction,Conductor*%
%TO.N,gpio38*%
G36*
X138944433Y-61012104D02*
G01*
X138946868Y-61015673D01*
X138991995Y-61118654D01*
X139043990Y-61221978D01*
X139043996Y-61221988D01*
X139044000Y-61221996D01*
X139070953Y-61267610D01*
X139095999Y-61309997D01*
X139148002Y-61382668D01*
X139148007Y-61382674D01*
X139196966Y-61436655D01*
X139200000Y-61444515D01*
X139200000Y-61555485D01*
X139196966Y-61563345D01*
X139148006Y-61617324D01*
X139148002Y-61617330D01*
X139095999Y-61690001D01*
X139043990Y-61778020D01*
X138991995Y-61881344D01*
X138946868Y-61984326D01*
X138940409Y-61990528D01*
X138931456Y-61990346D01*
X138927887Y-61987911D01*
X138629381Y-61690001D01*
X138447296Y-61508280D01*
X138443862Y-61500012D01*
X138447280Y-61491735D01*
X138927888Y-61012087D01*
X138936164Y-61008669D01*
X138944433Y-61012104D01*
G37*
%TD.AperFunction*%
%TD*%
%TA.AperFunction,Conductor*%
%TO.N,p31*%
G36*
X156927979Y-66326039D02*
G01*
X156928261Y-66326659D01*
X156999100Y-66495473D01*
X156999141Y-66504427D01*
X156999100Y-66504527D01*
X156928261Y-66673340D01*
X156921899Y-66679643D01*
X156912945Y-66679602D01*
X156912325Y-66679320D01*
X156845505Y-66646589D01*
X156844452Y-66646004D01*
X156790344Y-66612197D01*
X156742620Y-66584814D01*
X156742613Y-66584811D01*
X156694972Y-66569803D01*
X156684830Y-66566608D01*
X156676144Y-66565931D01*
X156610791Y-66560840D01*
X156602809Y-66556781D01*
X156600000Y-66549175D01*
X156600000Y-66450824D01*
X156603427Y-66442551D01*
X156610790Y-66439159D01*
X156684830Y-66433391D01*
X156742621Y-66415183D01*
X156790342Y-66387802D01*
X156844461Y-66353988D01*
X156845495Y-66353414D01*
X156912326Y-66320678D01*
X156921263Y-66320117D01*
X156927979Y-66326039D01*
G37*
%TD.AperFunction*%
%TD*%
%TA.AperFunction,Conductor*%
%TO.N,+3.3V*%
G36*
X138995968Y-82603751D02*
G01*
X139000027Y-82611733D01*
X139000062Y-82612582D01*
X139000999Y-82799941D01*
X139000999Y-82800059D01*
X139000062Y-82987417D01*
X138996594Y-82995672D01*
X138988303Y-82999058D01*
X138987454Y-82999023D01*
X138900864Y-82992283D01*
X138898763Y-82991925D01*
X138830427Y-82973740D01*
X138829364Y-82973401D01*
X138770111Y-82951403D01*
X138770104Y-82951401D01*
X138770101Y-82951400D01*
X138700203Y-82932800D01*
X138610792Y-82925840D01*
X138602810Y-82921781D01*
X138600000Y-82914175D01*
X138600000Y-82685824D01*
X138603427Y-82677551D01*
X138610789Y-82674160D01*
X138700203Y-82667200D01*
X138770101Y-82648600D01*
X138829368Y-82626596D01*
X138830422Y-82626260D01*
X138898772Y-82608072D01*
X138900854Y-82607717D01*
X138987455Y-82600976D01*
X138995968Y-82603751D01*
G37*
%TD.AperFunction*%
%TD*%
%TA.AperFunction,Conductor*%
%TO.N,m4_EN*%
G36*
X138369924Y-81347995D02*
G01*
X138369929Y-81347996D01*
X138369934Y-81347998D01*
X138440047Y-81365988D01*
X138440580Y-81366138D01*
X138498436Y-81383945D01*
X138500663Y-81384894D01*
X138558684Y-81417063D01*
X138560683Y-81418462D01*
X138623237Y-81472791D01*
X138627236Y-81480803D01*
X138624398Y-81489296D01*
X138623838Y-81489897D01*
X138554331Y-81559404D01*
X138546058Y-81562831D01*
X138540024Y-81561155D01*
X138492562Y-81532580D01*
X138492560Y-81532579D01*
X138446521Y-81546156D01*
X138446518Y-81546157D01*
X138400994Y-81588271D01*
X138348143Y-81639715D01*
X138346182Y-81641253D01*
X138288234Y-81677465D01*
X138279402Y-81678943D01*
X138272112Y-81673743D01*
X138271235Y-81672046D01*
X138201172Y-81503807D01*
X138201156Y-81494853D01*
X138272272Y-81325385D01*
X138278634Y-81319083D01*
X138286935Y-81318873D01*
X138369924Y-81347995D01*
G37*
%TD.AperFunction*%
%TD*%
%TA.AperFunction,Conductor*%
%TO.N,boot*%
G36*
X154177100Y-66337795D02*
G01*
X154183421Y-66344138D01*
X154183783Y-66345145D01*
X154259192Y-66589333D01*
X154338393Y-66819393D01*
X154417576Y-67023005D01*
X154417587Y-67023033D01*
X154417593Y-67023048D01*
X154417597Y-67023056D01*
X154496778Y-67200271D01*
X154571976Y-67343502D01*
X154572788Y-67352420D01*
X154569890Y-67357214D01*
X154492222Y-67434882D01*
X154489787Y-67436749D01*
X154428893Y-67471808D01*
X154380283Y-67510108D01*
X154366675Y-67520830D01*
X154366673Y-67520832D01*
X154366672Y-67520832D01*
X154304453Y-67583051D01*
X154242221Y-67658486D01*
X154242218Y-67658488D01*
X154192231Y-67729684D01*
X154184673Y-67734486D01*
X154175933Y-67732536D01*
X154171848Y-67727442D01*
X154143260Y-67658481D01*
X153683781Y-66550121D01*
X153683779Y-66541168D01*
X153690108Y-66534834D01*
X154168146Y-66337780D01*
X154177100Y-66337795D01*
G37*
%TD.AperFunction*%
%TD*%
%TA.AperFunction,Conductor*%
%TO.N,gpio44*%
G36*
X124987054Y-66220397D02*
G01*
X124987666Y-66220675D01*
X124999882Y-66226659D01*
X125054490Y-66253408D01*
X125055541Y-66253991D01*
X125109657Y-66287802D01*
X125157378Y-66315183D01*
X125215169Y-66333391D01*
X125289209Y-66339159D01*
X125297191Y-66343218D01*
X125300000Y-66350824D01*
X125300000Y-66449175D01*
X125296573Y-66457448D01*
X125289209Y-66460840D01*
X125215169Y-66466608D01*
X125157385Y-66484811D01*
X125157378Y-66484814D01*
X125109661Y-66512193D01*
X125055544Y-66546005D01*
X125054492Y-66546589D01*
X124987674Y-66579320D01*
X124978737Y-66579882D01*
X124972020Y-66573960D01*
X124971738Y-66573340D01*
X124900898Y-66404525D01*
X124900858Y-66395573D01*
X124900871Y-66395540D01*
X124971738Y-66226658D01*
X124978100Y-66220356D01*
X124987054Y-66220397D01*
G37*
%TD.AperFunction*%
%TD*%
%TA.AperFunction,Conductor*%
%TO.N,gpio43*%
G36*
X118204459Y-80600871D02*
G01*
X118373340Y-80671738D01*
X118379643Y-80678100D01*
X118379602Y-80687054D01*
X118379320Y-80687674D01*
X118346589Y-80754492D01*
X118346005Y-80755544D01*
X118312193Y-80809661D01*
X118284814Y-80857378D01*
X118284811Y-80857385D01*
X118266608Y-80915169D01*
X118260841Y-80989209D01*
X118256782Y-80997191D01*
X118249176Y-81000000D01*
X118150824Y-81000000D01*
X118142551Y-80996573D01*
X118139159Y-80989209D01*
X118133391Y-80915169D01*
X118115183Y-80857378D01*
X118087802Y-80809657D01*
X118053991Y-80755541D01*
X118053408Y-80754490D01*
X118020679Y-80687674D01*
X118020117Y-80678737D01*
X118026039Y-80672020D01*
X118026642Y-80671745D01*
X118195474Y-80600898D01*
X118204427Y-80600858D01*
X118204459Y-80600871D01*
G37*
%TD.AperFunction*%
%TD*%
%TA.AperFunction,Conductor*%
%TO.N,p26*%
G36*
X149227986Y-61326023D02*
G01*
X149228158Y-61326413D01*
X149299100Y-61495473D01*
X149299141Y-61504428D01*
X149299100Y-61504527D01*
X149228379Y-61673058D01*
X149222017Y-61679361D01*
X149213063Y-61679320D01*
X149212190Y-61678910D01*
X149145657Y-61644292D01*
X149144115Y-61643331D01*
X149091584Y-61604611D01*
X149045632Y-61571221D01*
X149045628Y-61571218D01*
X149045625Y-61571217D01*
X149045624Y-61571216D01*
X148989131Y-61548050D01*
X148914615Y-61540446D01*
X148906733Y-61536196D01*
X148904103Y-61528806D01*
X148904103Y-61430434D01*
X148907530Y-61422161D01*
X148915144Y-61418752D01*
X148986915Y-61414712D01*
X149044385Y-61401224D01*
X149092385Y-61379651D01*
X149146515Y-61350880D01*
X149147043Y-61350617D01*
X149212453Y-61320322D01*
X149221399Y-61319956D01*
X149227986Y-61326023D01*
G37*
%TD.AperFunction*%
%TD*%
%TA.AperFunction,Conductor*%
%TO.N,m4_EN*%
G36*
X156557449Y-100203427D02*
G01*
X156560841Y-100210791D01*
X156566608Y-100284829D01*
X156584811Y-100342613D01*
X156584814Y-100342620D01*
X156612197Y-100390344D01*
X156646004Y-100444452D01*
X156646589Y-100445505D01*
X156679320Y-100512325D01*
X156679882Y-100521262D01*
X156673960Y-100527979D01*
X156673340Y-100528261D01*
X156504527Y-100599100D01*
X156495573Y-100599141D01*
X156495473Y-100599100D01*
X156326659Y-100528261D01*
X156320356Y-100521899D01*
X156320397Y-100512945D01*
X156320670Y-100512343D01*
X156353414Y-100445495D01*
X156353990Y-100444459D01*
X156387802Y-100390342D01*
X156415183Y-100342621D01*
X156433391Y-100284830D01*
X156439159Y-100210790D01*
X156443218Y-100202809D01*
X156450824Y-100200000D01*
X156549176Y-100200000D01*
X156557449Y-100203427D01*
G37*
%TD.AperFunction*%
%TD*%
%TA.AperFunction,Conductor*%
%TO.N,p36*%
G36*
X162027986Y-61326023D02*
G01*
X162028158Y-61326413D01*
X162099100Y-61495473D01*
X162099141Y-61504428D01*
X162099100Y-61504527D01*
X162028379Y-61673058D01*
X162022017Y-61679361D01*
X162013063Y-61679320D01*
X162012190Y-61678910D01*
X161945657Y-61644292D01*
X161944115Y-61643331D01*
X161891584Y-61604611D01*
X161845632Y-61571221D01*
X161845628Y-61571218D01*
X161845625Y-61571217D01*
X161845624Y-61571216D01*
X161789131Y-61548050D01*
X161714615Y-61540446D01*
X161706733Y-61536196D01*
X161704103Y-61528806D01*
X161704103Y-61430434D01*
X161707530Y-61422161D01*
X161715144Y-61418752D01*
X161786915Y-61414712D01*
X161844385Y-61401224D01*
X161892385Y-61379651D01*
X161946515Y-61350880D01*
X161947043Y-61350617D01*
X162012453Y-61320322D01*
X162021399Y-61319956D01*
X162027986Y-61326023D01*
G37*
%TD.AperFunction*%
%TD*%
%TA.AperFunction,Conductor*%
%TO.N,gpio44*%
G36*
X125247640Y-65959579D02*
G01*
X125250370Y-65961936D01*
X125569436Y-66337862D01*
X125733413Y-66531061D01*
X125736154Y-66539586D01*
X125732064Y-66547552D01*
X125732046Y-66547568D01*
X125251402Y-66953841D01*
X125242871Y-66956564D01*
X125234913Y-66952458D01*
X125233367Y-66950102D01*
X125232257Y-66947863D01*
X125172000Y-66826332D01*
X125104000Y-66707410D01*
X125080713Y-66672927D01*
X125036003Y-66606719D01*
X125035994Y-66606707D01*
X124968004Y-66524249D01*
X124903665Y-66463462D01*
X124900005Y-66455289D01*
X124900000Y-66454957D01*
X124900000Y-66346135D01*
X124903427Y-66337862D01*
X124905041Y-66336515D01*
X124967999Y-66293000D01*
X124968000Y-66292999D01*
X124968003Y-66292997D01*
X124968004Y-66292995D01*
X125035985Y-66230484D01*
X125035985Y-66230483D01*
X125035999Y-66230471D01*
X125104000Y-66152415D01*
X125172000Y-66058830D01*
X125231522Y-65963320D01*
X125238806Y-65958112D01*
X125247640Y-65959579D01*
G37*
%TD.AperFunction*%
%TD*%
%TA.AperFunction,Conductor*%
%TO.N,p26*%
G36*
X149103946Y-61012386D02*
G01*
X149106543Y-61016347D01*
X149148480Y-61122421D01*
X149148485Y-61122432D01*
X149196970Y-61229527D01*
X149245455Y-61321083D01*
X149245459Y-61321090D01*
X149245460Y-61321091D01*
X149293941Y-61397099D01*
X149335868Y-61449394D01*
X149338370Y-61457993D01*
X149335013Y-61464986D01*
X149257575Y-61542424D01*
X149257573Y-61542427D01*
X149226063Y-61604865D01*
X149226057Y-61604877D01*
X149194543Y-61681839D01*
X149163031Y-61773304D01*
X149131508Y-61879319D01*
X149105161Y-61980060D01*
X149099753Y-61987197D01*
X149090882Y-61988419D01*
X149085571Y-61985375D01*
X148979451Y-61879298D01*
X148607578Y-61507575D01*
X148604150Y-61499303D01*
X148607574Y-61491031D01*
X149087400Y-61012365D01*
X149095677Y-61008949D01*
X149103946Y-61012386D01*
G37*
%TD.AperFunction*%
%TD*%
%TA.AperFunction,Conductor*%
%TO.N,/i2c_1.scl*%
G36*
X151828224Y-74328819D02*
G01*
X151996478Y-74398137D01*
X152002822Y-74404457D01*
X152002851Y-74404528D01*
X152072467Y-74574822D01*
X152072426Y-74583776D01*
X152066959Y-74589668D01*
X151988293Y-74629851D01*
X151988289Y-74629853D01*
X151927996Y-74672145D01*
X151927840Y-74672252D01*
X151876836Y-74706814D01*
X151874430Y-74708065D01*
X151813255Y-74731317D01*
X151810200Y-74732028D01*
X151729157Y-74739694D01*
X151720598Y-74737061D01*
X151716407Y-74729148D01*
X151716355Y-74728046D01*
X151716355Y-74629924D01*
X151719782Y-74621651D01*
X151725076Y-74618610D01*
X151781060Y-74603871D01*
X151801587Y-74557906D01*
X151799648Y-74490713D01*
X151797003Y-74411414D01*
X151797247Y-74408615D01*
X151812320Y-74337218D01*
X151817381Y-74329833D01*
X151826184Y-74328189D01*
X151828224Y-74328819D01*
G37*
%TD.AperFunction*%
%TD*%
%TA.AperFunction,Conductor*%
%TO.N,GND*%
G36*
X159427986Y-61326023D02*
G01*
X159428158Y-61326413D01*
X159499100Y-61495473D01*
X159499141Y-61504428D01*
X159499100Y-61504527D01*
X159428379Y-61673058D01*
X159422017Y-61679361D01*
X159413063Y-61679320D01*
X159412190Y-61678910D01*
X159345657Y-61644292D01*
X159344115Y-61643331D01*
X159291584Y-61604611D01*
X159245632Y-61571221D01*
X159245628Y-61571218D01*
X159245625Y-61571217D01*
X159245624Y-61571216D01*
X159189131Y-61548050D01*
X159114615Y-61540446D01*
X159106733Y-61536196D01*
X159104103Y-61528806D01*
X159104103Y-61430434D01*
X159107530Y-61422161D01*
X159115144Y-61418752D01*
X159186915Y-61414712D01*
X159244385Y-61401224D01*
X159292385Y-61379651D01*
X159346515Y-61350880D01*
X159347043Y-61350617D01*
X159412453Y-61320322D01*
X159421399Y-61319956D01*
X159427986Y-61326023D01*
G37*
%TD.AperFunction*%
%TD*%
%TA.AperFunction,Conductor*%
%TO.N,+3.3V*%
G36*
X121934099Y-113008416D02*
G01*
X122031582Y-113105899D01*
X122035009Y-113114172D01*
X122032028Y-113121974D01*
X121983411Y-113176302D01*
X121951782Y-113227014D01*
X121951781Y-113227016D01*
X121932689Y-113276720D01*
X121914392Y-113335968D01*
X121914194Y-113336555D01*
X121888961Y-113405157D01*
X121882889Y-113411739D01*
X121873941Y-113412099D01*
X121873552Y-113411948D01*
X121703837Y-113342564D01*
X121697476Y-113336261D01*
X121697435Y-113336162D01*
X121652813Y-113227016D01*
X121628051Y-113166446D01*
X121628092Y-113157492D01*
X121634453Y-113151189D01*
X121634829Y-113151042D01*
X121703458Y-113125797D01*
X121704014Y-113125610D01*
X121763282Y-113107308D01*
X121812986Y-113088215D01*
X121863697Y-113056587D01*
X121918027Y-113007968D01*
X121926474Y-113005007D01*
X121934099Y-113008416D01*
G37*
%TD.AperFunction*%
%TD*%
%TA.AperFunction,Conductor*%
%TO.N,Net-(J1-DP1)*%
G36*
X170782637Y-78228039D02*
G01*
X170788940Y-78234400D01*
X170789043Y-78234662D01*
X170814856Y-78302406D01*
X170814964Y-78302700D01*
X170835237Y-78360508D01*
X170856649Y-78408456D01*
X170856653Y-78408463D01*
X170890087Y-78457622D01*
X170890099Y-78457637D01*
X170938918Y-78510944D01*
X170941979Y-78519360D01*
X170938563Y-78527119D01*
X170827119Y-78638563D01*
X170818846Y-78641990D01*
X170810944Y-78638918D01*
X170757637Y-78590099D01*
X170757622Y-78590087D01*
X170708463Y-78556653D01*
X170708456Y-78556649D01*
X170660508Y-78535237D01*
X170602700Y-78514964D01*
X170602406Y-78514856D01*
X170534662Y-78489043D01*
X170528151Y-78482895D01*
X170527895Y-78473944D01*
X170527998Y-78473682D01*
X170534561Y-78457631D01*
X170597435Y-78303836D01*
X170603738Y-78297476D01*
X170603780Y-78297458D01*
X170773683Y-78227998D01*
X170782637Y-78228039D01*
G37*
%TD.AperFunction*%
%TD*%
%TA.AperFunction,Conductor*%
%TO.N,+3.3V*%
G36*
X168777054Y-102438106D02*
G01*
X168780471Y-102445888D01*
X168783983Y-102529527D01*
X168793482Y-102596486D01*
X168793488Y-102596520D01*
X168804765Y-102653879D01*
X168804869Y-102654493D01*
X168814245Y-102720588D01*
X168814351Y-102721740D01*
X168817802Y-102803882D01*
X168814725Y-102812292D01*
X168806603Y-102816063D01*
X168806171Y-102816073D01*
X168620698Y-102817001D01*
X168616112Y-102816090D01*
X168445857Y-102744646D01*
X168439555Y-102738286D01*
X168439596Y-102729331D01*
X168440283Y-102727955D01*
X168478414Y-102662855D01*
X168480258Y-102660475D01*
X168528502Y-102612537D01*
X168528905Y-102612155D01*
X168574054Y-102571609D01*
X168607171Y-102519135D01*
X168612371Y-102484898D01*
X168618490Y-102444622D01*
X168623120Y-102436957D01*
X168630057Y-102434679D01*
X168768781Y-102434679D01*
X168777054Y-102438106D01*
G37*
%TD.AperFunction*%
%TD*%
%TA.AperFunction,Conductor*%
%TO.N,+5V*%
G36*
X121224241Y-61730043D02*
G01*
X121277980Y-61758031D01*
X121331085Y-61772414D01*
X121393842Y-61786906D01*
X121476537Y-61815224D01*
X121400707Y-62000707D01*
X121215224Y-62076537D01*
X121186906Y-61993842D01*
X121172414Y-61931085D01*
X121158031Y-61877980D01*
X121130043Y-61824241D01*
X121074732Y-61759585D01*
X121159585Y-61674732D01*
X121224241Y-61730043D01*
G37*
%TD.AperFunction*%
%TD*%
%TA.AperFunction,Conductor*%
%TO.N,m1_PH*%
G36*
X115963694Y-107389793D02*
G01*
X115967086Y-107397157D01*
X115972853Y-107471195D01*
X115991056Y-107528979D01*
X115991059Y-107528986D01*
X116018442Y-107576710D01*
X116052249Y-107630818D01*
X116052834Y-107631871D01*
X116085565Y-107698691D01*
X116086127Y-107707628D01*
X116080205Y-107714345D01*
X116079585Y-107714627D01*
X115910772Y-107785466D01*
X115901818Y-107785507D01*
X115901718Y-107785466D01*
X115732904Y-107714627D01*
X115726601Y-107708265D01*
X115726642Y-107699311D01*
X115726915Y-107698709D01*
X115759659Y-107631861D01*
X115760235Y-107630825D01*
X115794047Y-107576708D01*
X115821428Y-107528987D01*
X115839636Y-107471196D01*
X115845404Y-107397156D01*
X115849463Y-107389175D01*
X115857069Y-107386366D01*
X115955421Y-107386366D01*
X115963694Y-107389793D01*
G37*
%TD.AperFunction*%
%TD*%
%TA.AperFunction,Conductor*%
%TO.N,boot*%
G36*
X162367809Y-80781768D02*
G01*
X162413959Y-80821247D01*
X162424241Y-80830043D01*
X162466266Y-80851930D01*
X162477980Y-80858031D01*
X162531086Y-80872415D01*
X162564094Y-80880036D01*
X162593268Y-80886773D01*
X162594393Y-80887094D01*
X162664805Y-80911206D01*
X162671521Y-80917128D01*
X162672083Y-80926066D01*
X162671844Y-80926703D01*
X162602564Y-81096162D01*
X162596261Y-81102523D01*
X162596162Y-81102564D01*
X162426703Y-81171844D01*
X162417748Y-81171803D01*
X162411445Y-81165442D01*
X162411211Y-81164820D01*
X162387094Y-81094393D01*
X162386773Y-81093268D01*
X162380036Y-81064094D01*
X162372415Y-81031086D01*
X162358031Y-80977980D01*
X162330042Y-80924240D01*
X162281768Y-80867809D01*
X162278994Y-80859294D01*
X162282385Y-80851931D01*
X162351931Y-80782385D01*
X162360203Y-80778959D01*
X162367809Y-80781768D01*
G37*
%TD.AperFunction*%
%TD*%
%TA.AperFunction,Conductor*%
%TO.N,m1_EN*%
G36*
X127429678Y-90037858D02*
G01*
X127599137Y-90107137D01*
X127605498Y-90113440D01*
X127605539Y-90113539D01*
X127674818Y-90282998D01*
X127674777Y-90291953D01*
X127668416Y-90298256D01*
X127667778Y-90298495D01*
X127597389Y-90322598D01*
X127596232Y-90322929D01*
X127534056Y-90337287D01*
X127480953Y-90351669D01*
X127443108Y-90371380D01*
X127427216Y-90379658D01*
X127427214Y-90379659D01*
X127427213Y-90379660D01*
X127370784Y-90427933D01*
X127362269Y-90430707D01*
X127354905Y-90427315D01*
X127285360Y-90357770D01*
X127281933Y-90349497D01*
X127284740Y-90341894D01*
X127333018Y-90285459D01*
X127361006Y-90231720D01*
X127375389Y-90178615D01*
X127375390Y-90178613D01*
X127389745Y-90116446D01*
X127390073Y-90115296D01*
X127414181Y-90044896D01*
X127420103Y-90038181D01*
X127429041Y-90037619D01*
X127429678Y-90037858D01*
G37*
%TD.AperFunction*%
%TD*%
%TA.AperFunction,Conductor*%
%TO.N,m1_EN*%
G36*
X115462316Y-104242667D02*
G01*
X115465708Y-104250031D01*
X115471475Y-104324069D01*
X115489678Y-104381853D01*
X115489681Y-104381860D01*
X115517064Y-104429584D01*
X115550871Y-104483692D01*
X115551456Y-104484745D01*
X115584187Y-104551565D01*
X115584749Y-104560502D01*
X115578827Y-104567219D01*
X115578207Y-104567501D01*
X115409394Y-104638340D01*
X115400440Y-104638381D01*
X115400340Y-104638340D01*
X115231526Y-104567501D01*
X115225223Y-104561139D01*
X115225264Y-104552185D01*
X115225537Y-104551583D01*
X115258281Y-104484735D01*
X115258857Y-104483699D01*
X115292669Y-104429582D01*
X115320050Y-104381861D01*
X115338258Y-104324070D01*
X115344026Y-104250030D01*
X115348085Y-104242049D01*
X115355691Y-104239240D01*
X115454043Y-104239240D01*
X115462316Y-104242667D01*
G37*
%TD.AperFunction*%
%TD*%
%TA.AperFunction,Conductor*%
%TO.N,gpio41*%
G36*
X131326613Y-61058268D02*
G01*
X131327561Y-61059469D01*
X131415997Y-61188000D01*
X131416002Y-61188006D01*
X131512005Y-61306924D01*
X131607994Y-61405217D01*
X131608000Y-61405223D01*
X131704000Y-61482916D01*
X131794281Y-61536599D01*
X131799639Y-61543771D01*
X131800000Y-61546654D01*
X131800000Y-61652310D01*
X131796573Y-61660583D01*
X131792941Y-61663050D01*
X131704001Y-61701484D01*
X131608000Y-61761593D01*
X131512001Y-61840325D01*
X131511999Y-61840326D01*
X131416001Y-61937680D01*
X131328618Y-62043248D01*
X131320703Y-62047436D01*
X131312145Y-62044801D01*
X131310930Y-62043638D01*
X130826866Y-61508692D01*
X130823856Y-61500259D01*
X130827691Y-61492167D01*
X131310091Y-61057409D01*
X131318529Y-61054417D01*
X131326613Y-61058268D01*
G37*
%TD.AperFunction*%
%TD*%
%TA.AperFunction,Conductor*%
%TO.N,p31*%
G36*
X156724887Y-66025518D02*
G01*
X156727354Y-66028901D01*
X156775996Y-66129544D01*
X156832000Y-66230116D01*
X156887995Y-66315371D01*
X156887999Y-66315377D01*
X156943997Y-66385336D01*
X156943998Y-66385336D01*
X156944000Y-66385339D01*
X156996472Y-66436556D01*
X156999999Y-66444787D01*
X157000000Y-66444929D01*
X157000000Y-66555328D01*
X156996782Y-66563387D01*
X156944002Y-66618940D01*
X156887992Y-66693927D01*
X156832004Y-66784905D01*
X156775995Y-66891949D01*
X156775986Y-66891968D01*
X156726794Y-67000064D01*
X156720248Y-67006175D01*
X156711299Y-67005867D01*
X156708095Y-67003709D01*
X156704250Y-67000064D01*
X156381354Y-66693927D01*
X156227507Y-66548065D01*
X156223861Y-66539886D01*
X156227064Y-66531528D01*
X156708349Y-66025923D01*
X156716532Y-66022296D01*
X156724887Y-66025518D01*
G37*
%TD.AperFunction*%
%TD*%
%TA.AperFunction,Conductor*%
%TO.N,+5V*%
G36*
X145322448Y-97603427D02*
G01*
X145325840Y-97610792D01*
X145332800Y-97700203D01*
X145332801Y-97700205D01*
X145351402Y-97770113D01*
X145351404Y-97770117D01*
X145373401Y-97829364D01*
X145373740Y-97830427D01*
X145391925Y-97898763D01*
X145392283Y-97900864D01*
X145399023Y-97987454D01*
X145396248Y-97995968D01*
X145388266Y-98000027D01*
X145387417Y-98000062D01*
X145200059Y-98000999D01*
X145199941Y-98000999D01*
X145012582Y-98000062D01*
X145004327Y-97996594D01*
X145000941Y-97988303D01*
X145000975Y-97987470D01*
X145007717Y-97900854D01*
X145008072Y-97898772D01*
X145026259Y-97830422D01*
X145026597Y-97829364D01*
X145048600Y-97770101D01*
X145067200Y-97700203D01*
X145074160Y-97610792D01*
X145078219Y-97602810D01*
X145085825Y-97600000D01*
X145314175Y-97600000D01*
X145322448Y-97603427D01*
G37*
%TD.AperFunction*%
%TD*%
%TA.AperFunction,Conductor*%
%TO.N,/i2c_1.scl*%
G36*
X152087054Y-74220397D02*
G01*
X152087666Y-74220675D01*
X152099882Y-74226659D01*
X152154490Y-74253408D01*
X152155541Y-74253991D01*
X152209657Y-74287802D01*
X152257378Y-74315183D01*
X152315169Y-74333391D01*
X152389209Y-74339159D01*
X152397191Y-74343218D01*
X152400000Y-74350824D01*
X152400000Y-74449175D01*
X152396573Y-74457448D01*
X152389209Y-74460840D01*
X152315169Y-74466608D01*
X152257385Y-74484811D01*
X152257378Y-74484814D01*
X152209661Y-74512193D01*
X152155544Y-74546005D01*
X152154492Y-74546589D01*
X152087674Y-74579320D01*
X152078737Y-74579882D01*
X152072020Y-74573960D01*
X152071738Y-74573340D01*
X152000898Y-74404525D01*
X152000858Y-74395573D01*
X152000871Y-74395540D01*
X152071738Y-74226658D01*
X152078100Y-74220356D01*
X152087054Y-74220397D01*
G37*
%TD.AperFunction*%
%TD*%
%TA.AperFunction,Conductor*%
%TO.N,gpio43*%
G36*
X126427979Y-61426039D02*
G01*
X126428261Y-61426659D01*
X126499100Y-61595473D01*
X126499141Y-61604427D01*
X126499100Y-61604527D01*
X126428261Y-61773340D01*
X126421899Y-61779643D01*
X126412945Y-61779602D01*
X126412325Y-61779320D01*
X126345505Y-61746589D01*
X126344452Y-61746004D01*
X126290344Y-61712197D01*
X126242620Y-61684814D01*
X126242613Y-61684811D01*
X126194972Y-61669803D01*
X126184830Y-61666608D01*
X126176144Y-61665931D01*
X126110791Y-61660840D01*
X126102809Y-61656781D01*
X126100000Y-61649175D01*
X126100000Y-61550824D01*
X126103427Y-61542551D01*
X126110790Y-61539159D01*
X126184830Y-61533391D01*
X126242621Y-61515183D01*
X126290342Y-61487802D01*
X126344461Y-61453988D01*
X126345495Y-61453414D01*
X126412326Y-61420678D01*
X126421263Y-61420117D01*
X126427979Y-61426039D01*
G37*
%TD.AperFunction*%
%TD*%
%TA.AperFunction,Conductor*%
%TO.N,GND*%
G36*
X154496250Y-61403600D02*
G01*
X154500048Y-61411710D01*
X154500060Y-61412180D01*
X154500975Y-61595095D01*
X154497589Y-61603386D01*
X154497519Y-61603456D01*
X154367586Y-61732477D01*
X154359301Y-61735875D01*
X154351040Y-61732419D01*
X154350406Y-61731727D01*
X154309754Y-61683509D01*
X154309001Y-61682509D01*
X154275893Y-61633096D01*
X154275892Y-61633094D01*
X154244283Y-61594217D01*
X154200592Y-61568985D01*
X154141106Y-61561315D01*
X154133339Y-61556858D01*
X154130902Y-61549711D01*
X154130902Y-61451182D01*
X154134329Y-61442909D01*
X154142072Y-61439494D01*
X154222749Y-61435840D01*
X154259433Y-61430224D01*
X154287549Y-61425921D01*
X154287549Y-61425920D01*
X154287554Y-61425920D01*
X154343047Y-61414143D01*
X154343656Y-61414032D01*
X154407548Y-61404252D01*
X154408756Y-61404132D01*
X154487831Y-61400551D01*
X154496250Y-61403600D01*
G37*
%TD.AperFunction*%
%TD*%
%TA.AperFunction,Conductor*%
%TO.N,m2_EN*%
G36*
X129091274Y-90031876D02*
G01*
X129097577Y-90038237D01*
X129097816Y-90038874D01*
X129121922Y-90109271D01*
X129122251Y-90110421D01*
X129136606Y-90172590D01*
X129150990Y-90225699D01*
X129160845Y-90244621D01*
X129178979Y-90279437D01*
X129178981Y-90279439D01*
X129227254Y-90335871D01*
X129230028Y-90344385D01*
X129226636Y-90351749D01*
X129157092Y-90421293D01*
X129148819Y-90424720D01*
X129141214Y-90421911D01*
X129084782Y-90373638D01*
X129084780Y-90373636D01*
X129042757Y-90351749D01*
X129031042Y-90345647D01*
X128977933Y-90331263D01*
X128915764Y-90316908D01*
X128914614Y-90316579D01*
X128844217Y-90292473D01*
X128837501Y-90286551D01*
X128836939Y-90277613D01*
X128837163Y-90277014D01*
X128906458Y-90107516D01*
X128912761Y-90101156D01*
X128912803Y-90101138D01*
X129082322Y-90031835D01*
X129091274Y-90031876D01*
G37*
%TD.AperFunction*%
%TD*%
%TA.AperFunction,Conductor*%
%TO.N,/connectors.enc3.cs*%
G36*
X157687054Y-88720397D02*
G01*
X157687666Y-88720675D01*
X157699882Y-88726659D01*
X157754490Y-88753408D01*
X157755541Y-88753991D01*
X157809657Y-88787802D01*
X157857378Y-88815183D01*
X157915169Y-88833391D01*
X157989209Y-88839159D01*
X157997191Y-88843218D01*
X158000000Y-88850824D01*
X158000000Y-88949175D01*
X157996573Y-88957448D01*
X157989209Y-88960840D01*
X157915169Y-88966608D01*
X157857385Y-88984811D01*
X157857378Y-88984814D01*
X157809661Y-89012193D01*
X157755544Y-89046005D01*
X157754492Y-89046589D01*
X157687674Y-89079320D01*
X157678737Y-89079882D01*
X157672020Y-89073960D01*
X157671738Y-89073340D01*
X157600898Y-88904525D01*
X157600858Y-88895573D01*
X157600871Y-88895540D01*
X157671738Y-88726658D01*
X157678100Y-88720356D01*
X157687054Y-88720397D01*
G37*
%TD.AperFunction*%
%TD*%
%TA.AperFunction,Conductor*%
%TO.N,gpio39*%
G36*
X130328585Y-66079871D02*
G01*
X130330269Y-66081179D01*
X130681160Y-66409253D01*
X130812436Y-66531993D01*
X130816138Y-66540146D01*
X130812991Y-66548530D01*
X130812975Y-66548547D01*
X130329781Y-67063276D01*
X130321621Y-67066962D01*
X130313243Y-67063798D01*
X130311716Y-67062049D01*
X130235995Y-66955578D01*
X130152003Y-66855163D01*
X130151993Y-66855152D01*
X130068014Y-66772433D01*
X130068001Y-66772421D01*
X129984004Y-66707370D01*
X129983992Y-66707362D01*
X129905953Y-66663356D01*
X129900430Y-66656308D01*
X129900000Y-66653165D01*
X129900000Y-66546265D01*
X129903427Y-66537992D01*
X129905215Y-66536527D01*
X129912024Y-66531993D01*
X129984000Y-66484063D01*
X130036770Y-66437065D01*
X130067994Y-66409259D01*
X130067996Y-66409255D01*
X130068000Y-66409253D01*
X130152000Y-66315569D01*
X130236000Y-66203010D01*
X130312426Y-66083427D01*
X130319768Y-66078304D01*
X130328585Y-66079871D01*
G37*
%TD.AperFunction*%
%TD*%
%TA.AperFunction,Conductor*%
%TO.N,+5V*%
G36*
X136967809Y-100281768D02*
G01*
X137013959Y-100321247D01*
X137024241Y-100330043D01*
X137066266Y-100351930D01*
X137077980Y-100358031D01*
X137131086Y-100372415D01*
X137164094Y-100380036D01*
X137193268Y-100386773D01*
X137194393Y-100387094D01*
X137264805Y-100411206D01*
X137271521Y-100417128D01*
X137272083Y-100426066D01*
X137271844Y-100426703D01*
X137202564Y-100596162D01*
X137196261Y-100602523D01*
X137196162Y-100602564D01*
X137026703Y-100671844D01*
X137017748Y-100671803D01*
X137011445Y-100665442D01*
X137011211Y-100664820D01*
X136987094Y-100594393D01*
X136986773Y-100593268D01*
X136980036Y-100564094D01*
X136972415Y-100531086D01*
X136958031Y-100477980D01*
X136930042Y-100424240D01*
X136881768Y-100367809D01*
X136878994Y-100359294D01*
X136882385Y-100351931D01*
X136951931Y-100282385D01*
X136960203Y-100278959D01*
X136967809Y-100281768D01*
G37*
%TD.AperFunction*%
%TD*%
%TA.AperFunction,Conductor*%
%TO.N,gpio39*%
G36*
X129987054Y-66420397D02*
G01*
X129987666Y-66420675D01*
X129999882Y-66426659D01*
X130054490Y-66453408D01*
X130055541Y-66453991D01*
X130109657Y-66487802D01*
X130157378Y-66515183D01*
X130215169Y-66533391D01*
X130289209Y-66539159D01*
X130297191Y-66543218D01*
X130300000Y-66550824D01*
X130300000Y-66649175D01*
X130296573Y-66657448D01*
X130289209Y-66660840D01*
X130215169Y-66666608D01*
X130157385Y-66684811D01*
X130157378Y-66684814D01*
X130109661Y-66712193D01*
X130055544Y-66746005D01*
X130054492Y-66746589D01*
X129987674Y-66779320D01*
X129978737Y-66779882D01*
X129972020Y-66773960D01*
X129971738Y-66773340D01*
X129900898Y-66604525D01*
X129900858Y-66595573D01*
X129900871Y-66595540D01*
X129971738Y-66426658D01*
X129978100Y-66420356D01*
X129987054Y-66420397D01*
G37*
%TD.AperFunction*%
%TD*%
%TA.AperFunction,Conductor*%
%TO.N,+3.3V*%
G36*
X139403775Y-67101159D02*
G01*
X139571932Y-67171188D01*
X139578252Y-67177532D01*
X139578235Y-67186487D01*
X139577303Y-67188273D01*
X139539542Y-67247583D01*
X139537884Y-67249634D01*
X139483613Y-67303096D01*
X139438600Y-67348871D01*
X139423109Y-67395343D01*
X139423109Y-67395344D01*
X139451928Y-67443898D01*
X139453204Y-67452762D01*
X139450140Y-67458143D01*
X139380685Y-67527598D01*
X139372412Y-67531025D01*
X139364139Y-67527598D01*
X139363499Y-67526905D01*
X139310247Y-67464286D01*
X139308728Y-67462004D01*
X139278885Y-67403248D01*
X139277984Y-67400859D01*
X139276569Y-67395344D01*
X139262818Y-67341766D01*
X139262749Y-67341473D01*
X139247019Y-67270292D01*
X139218726Y-67186863D01*
X139219314Y-67177928D01*
X139225278Y-67172317D01*
X139394784Y-67101184D01*
X139403737Y-67101144D01*
X139403775Y-67101159D01*
G37*
%TD.AperFunction*%
%TD*%
%TA.AperFunction,Conductor*%
%TO.N,GND*%
G36*
X149105203Y-66025855D02*
G01*
X149107530Y-66028962D01*
X149160002Y-66130733D01*
X149160016Y-66130758D01*
X149219997Y-66231478D01*
X149220004Y-66231489D01*
X149279993Y-66316601D01*
X149279996Y-66316604D01*
X149280000Y-66316609D01*
X149340000Y-66386115D01*
X149396118Y-66436514D01*
X149399983Y-66444591D01*
X149400000Y-66445218D01*
X149400000Y-66555060D01*
X149396573Y-66563333D01*
X149396460Y-66563445D01*
X149340000Y-66618389D01*
X149280007Y-66693135D01*
X149279990Y-66693157D01*
X149220008Y-66784252D01*
X149219995Y-66784274D01*
X149160003Y-66891744D01*
X149159985Y-66891779D01*
X149106977Y-67001201D01*
X149100287Y-67007152D01*
X149091347Y-67006629D01*
X149088393Y-67004585D01*
X148607502Y-66548071D01*
X148603861Y-66539890D01*
X148607072Y-66531531D01*
X148607088Y-66531514D01*
X148697635Y-66436513D01*
X149088663Y-66026251D01*
X149096850Y-66022627D01*
X149105203Y-66025855D01*
G37*
%TD.AperFunction*%
%TD*%
%TA.AperFunction,Conductor*%
%TO.N,p35*%
G36*
X161927979Y-66326039D02*
G01*
X161928261Y-66326659D01*
X161999100Y-66495473D01*
X161999141Y-66504427D01*
X161999100Y-66504527D01*
X161928261Y-66673340D01*
X161921899Y-66679643D01*
X161912945Y-66679602D01*
X161912325Y-66679320D01*
X161845505Y-66646589D01*
X161844452Y-66646004D01*
X161790344Y-66612197D01*
X161742620Y-66584814D01*
X161742613Y-66584811D01*
X161694972Y-66569803D01*
X161684830Y-66566608D01*
X161676144Y-66565931D01*
X161610791Y-66560840D01*
X161602809Y-66556781D01*
X161600000Y-66549175D01*
X161600000Y-66450824D01*
X161603427Y-66442551D01*
X161610790Y-66439159D01*
X161684830Y-66433391D01*
X161742621Y-66415183D01*
X161790342Y-66387802D01*
X161844461Y-66353988D01*
X161845495Y-66353414D01*
X161912326Y-66320678D01*
X161921263Y-66320117D01*
X161927979Y-66326039D01*
G37*
%TD.AperFunction*%
%TD*%
%TA.AperFunction,Conductor*%
%TO.N,GND*%
G36*
X167027970Y-66326065D02*
G01*
X167028372Y-66326923D01*
X167099100Y-66495473D01*
X167099141Y-66504428D01*
X167099100Y-66504527D01*
X167028164Y-66673571D01*
X167021802Y-66679874D01*
X167012848Y-66679833D01*
X167012455Y-66679659D01*
X166946978Y-66649224D01*
X166946378Y-66648924D01*
X166892262Y-66619855D01*
X166892257Y-66619852D01*
X166892252Y-66619850D01*
X166844273Y-66597928D01*
X166786784Y-66584153D01*
X166714881Y-66580009D01*
X166706819Y-66576111D01*
X166703854Y-66568328D01*
X166703854Y-66469955D01*
X166707281Y-66461682D01*
X166714380Y-66458314D01*
X166788862Y-66450822D01*
X166845443Y-66427953D01*
X166891481Y-66394945D01*
X166944148Y-66356494D01*
X166945645Y-66355568D01*
X167012201Y-66321062D01*
X167021120Y-66320297D01*
X167027970Y-66326065D01*
G37*
%TD.AperFunction*%
%TD*%
%TA.AperFunction,Conductor*%
%TO.N,m3_PH*%
G36*
X137004459Y-88700871D02*
G01*
X137173340Y-88771738D01*
X137179643Y-88778100D01*
X137179602Y-88787054D01*
X137179320Y-88787674D01*
X137146589Y-88854492D01*
X137146005Y-88855544D01*
X137112193Y-88909661D01*
X137084814Y-88957378D01*
X137084811Y-88957385D01*
X137066608Y-89015169D01*
X137060841Y-89089209D01*
X137056782Y-89097191D01*
X137049176Y-89100000D01*
X136950824Y-89100000D01*
X136942551Y-89096573D01*
X136939159Y-89089209D01*
X136933391Y-89015169D01*
X136915183Y-88957378D01*
X136887802Y-88909657D01*
X136853991Y-88855541D01*
X136853408Y-88854490D01*
X136820679Y-88787674D01*
X136820117Y-88778737D01*
X136826039Y-88772020D01*
X136826642Y-88771745D01*
X136995474Y-88700898D01*
X137004427Y-88700858D01*
X137004459Y-88700871D01*
G37*
%TD.AperFunction*%
%TD*%
%TA.AperFunction,Conductor*%
%TO.N,+5V*%
G36*
X152787417Y-95699937D02*
G01*
X152795672Y-95703405D01*
X152799058Y-95711696D01*
X152799023Y-95712545D01*
X152792282Y-95799140D01*
X152791923Y-95801241D01*
X152773744Y-95869552D01*
X152773407Y-95870615D01*
X152751400Y-95929896D01*
X152732801Y-95999793D01*
X152732800Y-95999795D01*
X152725840Y-96089208D01*
X152721781Y-96097190D01*
X152714175Y-96100000D01*
X152485825Y-96100000D01*
X152477552Y-96096573D01*
X152474160Y-96089208D01*
X152473719Y-96083551D01*
X152467200Y-95999796D01*
X152448599Y-95929898D01*
X152426590Y-95870615D01*
X152426259Y-95869573D01*
X152408072Y-95801228D01*
X152407717Y-95799140D01*
X152400976Y-95712543D01*
X152403751Y-95704031D01*
X152411733Y-95699972D01*
X152412579Y-95699937D01*
X152600000Y-95699000D01*
X152787417Y-95699937D01*
G37*
%TD.AperFunction*%
%TD*%
%TA.AperFunction,Conductor*%
%TO.N,/i2c_1.sda*%
G36*
X154998952Y-73756054D02*
G01*
X155168411Y-73825333D01*
X155174772Y-73831636D01*
X155174813Y-73831735D01*
X155244092Y-74001194D01*
X155244051Y-74010149D01*
X155237690Y-74016452D01*
X155237052Y-74016691D01*
X155166663Y-74040794D01*
X155165506Y-74041125D01*
X155103330Y-74055483D01*
X155050227Y-74069865D01*
X155012382Y-74089576D01*
X154996490Y-74097854D01*
X154996488Y-74097855D01*
X154996487Y-74097856D01*
X154940058Y-74146129D01*
X154931543Y-74148903D01*
X154924179Y-74145511D01*
X154854634Y-74075966D01*
X154851207Y-74067693D01*
X154854014Y-74060090D01*
X154902292Y-74003655D01*
X154930280Y-73949916D01*
X154944663Y-73896811D01*
X154944664Y-73896809D01*
X154959019Y-73834642D01*
X154959347Y-73833492D01*
X154983455Y-73763092D01*
X154989377Y-73756377D01*
X154998315Y-73755815D01*
X154998952Y-73756054D01*
G37*
%TD.AperFunction*%
%TD*%
%TA.AperFunction,Conductor*%
%TO.N,m4_PH*%
G36*
X137982251Y-80228196D02*
G01*
X137988554Y-80234557D01*
X137988793Y-80235194D01*
X138012899Y-80305591D01*
X138013228Y-80306741D01*
X138027583Y-80368910D01*
X138041967Y-80422019D01*
X138051822Y-80440941D01*
X138069956Y-80475757D01*
X138069958Y-80475759D01*
X138118231Y-80532191D01*
X138121005Y-80540705D01*
X138117613Y-80548069D01*
X138048069Y-80617613D01*
X138039796Y-80621040D01*
X138032191Y-80618231D01*
X137975759Y-80569958D01*
X137975757Y-80569956D01*
X137933734Y-80548069D01*
X137922019Y-80541967D01*
X137868910Y-80527583D01*
X137806741Y-80513228D01*
X137805591Y-80512899D01*
X137735194Y-80488793D01*
X137728478Y-80482871D01*
X137727916Y-80473933D01*
X137728140Y-80473334D01*
X137797435Y-80303836D01*
X137803738Y-80297476D01*
X137803780Y-80297458D01*
X137973299Y-80228155D01*
X137982251Y-80228196D01*
G37*
%TD.AperFunction*%
%TD*%
%TA.AperFunction,Conductor*%
%TO.N,+5V*%
G36*
X114967809Y-109981768D02*
G01*
X115013959Y-110021247D01*
X115024241Y-110030043D01*
X115066266Y-110051930D01*
X115077980Y-110058031D01*
X115131086Y-110072415D01*
X115164094Y-110080036D01*
X115193268Y-110086773D01*
X115194393Y-110087094D01*
X115264805Y-110111206D01*
X115271521Y-110117128D01*
X115272083Y-110126066D01*
X115271844Y-110126703D01*
X115202564Y-110296162D01*
X115196261Y-110302523D01*
X115196162Y-110302564D01*
X115026703Y-110371844D01*
X115017748Y-110371803D01*
X115011445Y-110365442D01*
X115011211Y-110364820D01*
X114987094Y-110294393D01*
X114986773Y-110293268D01*
X114980036Y-110264094D01*
X114972415Y-110231086D01*
X114958031Y-110177980D01*
X114930042Y-110124240D01*
X114881768Y-110067809D01*
X114878994Y-110059294D01*
X114882385Y-110051931D01*
X114951931Y-109982385D01*
X114960203Y-109978959D01*
X114967809Y-109981768D01*
G37*
%TD.AperFunction*%
%TD*%
%TA.AperFunction,Conductor*%
%TO.N,Net-(J1-DP1)*%
G36*
X172244008Y-78286204D02*
G01*
X172271479Y-78297435D01*
X172277840Y-78303738D01*
X172277881Y-78303837D01*
X172347218Y-78473438D01*
X172347177Y-78482393D01*
X172340816Y-78488696D01*
X172340315Y-78488887D01*
X172271822Y-78513293D01*
X172270978Y-78513558D01*
X172211089Y-78529918D01*
X172211076Y-78529922D01*
X172160409Y-78546737D01*
X172160404Y-78546739D01*
X172108903Y-78576421D01*
X172054339Y-78624270D01*
X172045859Y-78627148D01*
X172038352Y-78623746D01*
X171926897Y-78512291D01*
X171923470Y-78504018D01*
X171926698Y-78495949D01*
X171975315Y-78444931D01*
X172011396Y-78398908D01*
X172036402Y-78354452D01*
X172059671Y-78299869D01*
X172086141Y-78234352D01*
X172092415Y-78227968D01*
X172101370Y-78227890D01*
X172244008Y-78286204D01*
G37*
%TD.AperFunction*%
%TD*%
%TA.AperFunction,Conductor*%
%TO.N,/connectors.enc_scl*%
G36*
X124287054Y-110720397D02*
G01*
X124287666Y-110720675D01*
X124299882Y-110726659D01*
X124354490Y-110753408D01*
X124355541Y-110753991D01*
X124409657Y-110787802D01*
X124457378Y-110815183D01*
X124515169Y-110833391D01*
X124589209Y-110839159D01*
X124597191Y-110843218D01*
X124600000Y-110850824D01*
X124600000Y-110949175D01*
X124596573Y-110957448D01*
X124589209Y-110960840D01*
X124515169Y-110966608D01*
X124457385Y-110984811D01*
X124457378Y-110984814D01*
X124409661Y-111012193D01*
X124355544Y-111046005D01*
X124354492Y-111046589D01*
X124287674Y-111079320D01*
X124278737Y-111079882D01*
X124272020Y-111073960D01*
X124271738Y-111073340D01*
X124200898Y-110904525D01*
X124200858Y-110895573D01*
X124200871Y-110895540D01*
X124271738Y-110726658D01*
X124278100Y-110720356D01*
X124287054Y-110720397D01*
G37*
%TD.AperFunction*%
%TD*%
%TA.AperFunction,Conductor*%
%TO.N,GND*%
G36*
X123927979Y-61326039D02*
G01*
X123928261Y-61326659D01*
X123999100Y-61495473D01*
X123999141Y-61504427D01*
X123999100Y-61504527D01*
X123928261Y-61673340D01*
X123921899Y-61679643D01*
X123912945Y-61679602D01*
X123912325Y-61679320D01*
X123845505Y-61646589D01*
X123844452Y-61646004D01*
X123790344Y-61612197D01*
X123742620Y-61584814D01*
X123742613Y-61584811D01*
X123694972Y-61569803D01*
X123684830Y-61566608D01*
X123676144Y-61565931D01*
X123610791Y-61560840D01*
X123602809Y-61556781D01*
X123600000Y-61549175D01*
X123600000Y-61450824D01*
X123603427Y-61442551D01*
X123610790Y-61439159D01*
X123684830Y-61433391D01*
X123742621Y-61415183D01*
X123790342Y-61387802D01*
X123844461Y-61353988D01*
X123845495Y-61353414D01*
X123912326Y-61320678D01*
X123921263Y-61320117D01*
X123927979Y-61326039D01*
G37*
%TD.AperFunction*%
%TD*%
%TA.AperFunction,Conductor*%
%TO.N,Net-(J1-DN1)*%
G36*
X170827119Y-76461436D02*
G01*
X170938563Y-76572880D01*
X170941990Y-76581153D01*
X170938918Y-76589055D01*
X170890099Y-76642360D01*
X170890087Y-76642375D01*
X170856653Y-76691534D01*
X170856649Y-76691541D01*
X170835237Y-76739489D01*
X170814964Y-76797297D01*
X170814856Y-76797591D01*
X170789043Y-76865337D01*
X170782895Y-76871848D01*
X170773944Y-76872104D01*
X170773682Y-76872001D01*
X170603837Y-76802564D01*
X170597476Y-76796261D01*
X170597435Y-76796162D01*
X170527998Y-76626317D01*
X170528039Y-76617362D01*
X170534400Y-76611059D01*
X170534611Y-76610976D01*
X170602459Y-76585122D01*
X170602657Y-76585049D01*
X170660505Y-76564762D01*
X170708462Y-76543345D01*
X170757631Y-76509905D01*
X170757634Y-76509901D01*
X170757637Y-76509900D01*
X170757640Y-76509897D01*
X170773345Y-76495514D01*
X170810945Y-76461080D01*
X170819360Y-76458020D01*
X170827119Y-76461436D01*
G37*
%TD.AperFunction*%
%TD*%
%TA.AperFunction,Conductor*%
%TO.N,usb_d-*%
G36*
X132880123Y-77590247D02*
G01*
X132881608Y-77590999D01*
X132936627Y-77623991D01*
X132948262Y-77630968D01*
X132950794Y-77633014D01*
X132998827Y-77684421D01*
X132999298Y-77684957D01*
X133039504Y-77733625D01*
X133039506Y-77733627D01*
X133039507Y-77733628D01*
X133092263Y-77769620D01*
X133168791Y-77782031D01*
X133176409Y-77786738D01*
X133178618Y-77793580D01*
X133178618Y-77892719D01*
X133175191Y-77900992D01*
X133167740Y-77904390D01*
X133082316Y-77910406D01*
X133014945Y-77926573D01*
X132957659Y-77945720D01*
X132956680Y-77946000D01*
X132890735Y-77961826D01*
X132888827Y-77962120D01*
X132805954Y-77967956D01*
X132797460Y-77965119D01*
X132793461Y-77957107D01*
X132793432Y-77956360D01*
X132792506Y-77771215D01*
X132793415Y-77766639D01*
X132864807Y-77596508D01*
X132871169Y-77590206D01*
X132880123Y-77590247D01*
G37*
%TD.AperFunction*%
%TD*%
%TA.AperFunction,Conductor*%
%TO.N,gpio37*%
G36*
X133864176Y-66024821D02*
G01*
X133866918Y-66028800D01*
X133907997Y-66127207D01*
X133943222Y-66200788D01*
X133956000Y-66227480D01*
X134004000Y-66313035D01*
X134052000Y-66383875D01*
X134097193Y-66436717D01*
X134100000Y-66444320D01*
X134100000Y-66555892D01*
X134097433Y-66563205D01*
X134051997Y-66619943D01*
X134003997Y-66695283D01*
X133956008Y-66785999D01*
X133955987Y-66786042D01*
X133908006Y-66892135D01*
X133908001Y-66892147D01*
X133866353Y-66997597D01*
X133860127Y-67004033D01*
X133851173Y-67004181D01*
X133847433Y-67001801D01*
X133367519Y-66548054D01*
X133363862Y-66539880D01*
X133367054Y-66531514D01*
X133847636Y-66025251D01*
X133855817Y-66021611D01*
X133864176Y-66024821D01*
G37*
%TD.AperFunction*%
%TD*%
%TA.AperFunction,Conductor*%
%TO.N,gpio35*%
G36*
X140481670Y-65728434D02*
G01*
X140487973Y-65734795D01*
X140488385Y-65735982D01*
X140509407Y-65808909D01*
X140509834Y-65811297D01*
X140514724Y-65878229D01*
X140514740Y-65878497D01*
X140517688Y-65937393D01*
X140517689Y-65937396D01*
X140536561Y-65996381D01*
X140582987Y-66056299D01*
X140585345Y-66064937D01*
X140582011Y-66071737D01*
X140512461Y-66141287D01*
X140504188Y-66144714D01*
X140496183Y-66141547D01*
X140445460Y-66093966D01*
X140445457Y-66093964D01*
X140399128Y-66059600D01*
X140399129Y-66059600D01*
X140399127Y-66059599D01*
X140354192Y-66036448D01*
X140299391Y-66014759D01*
X140299386Y-66014757D01*
X140299386Y-66014756D01*
X140234477Y-65989125D01*
X140228040Y-65982899D01*
X140227892Y-65973946D01*
X140227944Y-65973815D01*
X140266912Y-65878497D01*
X140297435Y-65803836D01*
X140303738Y-65797476D01*
X140303780Y-65797458D01*
X140472717Y-65728393D01*
X140481670Y-65728434D01*
G37*
%TD.AperFunction*%
%TD*%
%TA.AperFunction,Conductor*%
%TO.N,reset*%
G36*
X136407137Y-65346229D02*
G01*
X136412231Y-65350314D01*
X136462218Y-65421510D01*
X136462220Y-65421511D01*
X136462225Y-65421518D01*
X136524450Y-65496944D01*
X136586675Y-65559169D01*
X136621056Y-65586257D01*
X136648893Y-65608190D01*
X136648895Y-65608191D01*
X136648900Y-65608195D01*
X136709787Y-65643250D01*
X136712222Y-65645117D01*
X136789890Y-65722785D01*
X136793317Y-65731058D01*
X136791976Y-65736497D01*
X136716778Y-65879727D01*
X136637597Y-66056942D01*
X136637576Y-66056993D01*
X136558393Y-66260605D01*
X136479192Y-66490665D01*
X136403783Y-66734854D01*
X136398068Y-66741748D01*
X136389152Y-66742581D01*
X136388145Y-66742219D01*
X135910131Y-66545174D01*
X135903788Y-66538853D01*
X135903773Y-66529900D01*
X136391849Y-65352554D01*
X136398182Y-65346226D01*
X136407137Y-65346229D01*
G37*
%TD.AperFunction*%
%TD*%
%TA.AperFunction,Conductor*%
%TO.N,GND*%
G36*
X123705069Y-61011469D02*
G01*
X123707252Y-61014500D01*
X123759998Y-61119948D01*
X123759999Y-61119950D01*
X123820000Y-61223928D01*
X123820011Y-61223945D01*
X123839033Y-61251843D01*
X123880000Y-61311928D01*
X123880005Y-61311934D01*
X123939995Y-61383947D01*
X123940000Y-61383952D01*
X123996287Y-61436531D01*
X123999993Y-61444683D01*
X124000000Y-61445081D01*
X124000000Y-61554918D01*
X123996573Y-61563191D01*
X123996287Y-61563468D01*
X123940005Y-61616041D01*
X123939995Y-61616051D01*
X123880005Y-61688064D01*
X123880003Y-61688066D01*
X123880000Y-61688071D01*
X123860981Y-61715964D01*
X123820011Y-61776053D01*
X123820000Y-61776070D01*
X123759999Y-61880048D01*
X123759998Y-61880050D01*
X123707252Y-61985499D01*
X123700486Y-61991365D01*
X123691554Y-61990729D01*
X123688523Y-61988546D01*
X123315273Y-61616041D01*
X123207296Y-61508280D01*
X123203862Y-61500012D01*
X123207280Y-61491735D01*
X123688524Y-61011452D01*
X123696800Y-61008034D01*
X123705069Y-61011469D01*
G37*
%TD.AperFunction*%
%TD*%
%TA.AperFunction,Conductor*%
%TO.N,m3_PH*%
G36*
X141174223Y-104300693D02*
G01*
X141220373Y-104340172D01*
X141230655Y-104348968D01*
X141272680Y-104370855D01*
X141284394Y-104376956D01*
X141337500Y-104391340D01*
X141370508Y-104398961D01*
X141399682Y-104405698D01*
X141400807Y-104406019D01*
X141471219Y-104430131D01*
X141477935Y-104436053D01*
X141478497Y-104444991D01*
X141478258Y-104445628D01*
X141408978Y-104615087D01*
X141402675Y-104621448D01*
X141402576Y-104621489D01*
X141233117Y-104690769D01*
X141224162Y-104690728D01*
X141217859Y-104684367D01*
X141217625Y-104683745D01*
X141193508Y-104613318D01*
X141193187Y-104612193D01*
X141186450Y-104583019D01*
X141178829Y-104550011D01*
X141164445Y-104496905D01*
X141136456Y-104443165D01*
X141088182Y-104386734D01*
X141085408Y-104378219D01*
X141088799Y-104370856D01*
X141158345Y-104301310D01*
X141166617Y-104297884D01*
X141174223Y-104300693D01*
G37*
%TD.AperFunction*%
%TD*%
%TA.AperFunction,Conductor*%
%TO.N,p33*%
G36*
X159422013Y-65919360D02*
G01*
X159427721Y-65925372D01*
X159498814Y-66094783D01*
X159498855Y-66103737D01*
X159498826Y-66103808D01*
X159428540Y-66272584D01*
X159422196Y-66278904D01*
X159413241Y-66278887D01*
X159411972Y-66278266D01*
X159363316Y-66250704D01*
X159361897Y-66249757D01*
X159314559Y-66212915D01*
X159273006Y-66185511D01*
X159231509Y-66180916D01*
X159191605Y-66206816D01*
X159182800Y-66208446D01*
X159176962Y-66205275D01*
X159065268Y-66093581D01*
X159061841Y-66085308D01*
X159065268Y-66077035D01*
X159065880Y-66076465D01*
X159130578Y-66020417D01*
X159132603Y-66019008D01*
X159192489Y-65986152D01*
X159194730Y-65985213D01*
X159254486Y-65967203D01*
X159254963Y-65967071D01*
X159327289Y-65948832D01*
X159413074Y-65918854D01*
X159422013Y-65919360D01*
G37*
%TD.AperFunction*%
%TD*%
%TA.AperFunction,Conductor*%
%TO.N,usb_d-*%
G36*
X137960263Y-77621805D02*
G01*
X137960788Y-77622295D01*
X138056901Y-77717733D01*
X138090899Y-77751492D01*
X138094355Y-77759753D01*
X138094355Y-77759853D01*
X138093441Y-77942627D01*
X138089973Y-77950882D01*
X138081682Y-77954268D01*
X138081077Y-77954249D01*
X138000250Y-77949655D01*
X137998700Y-77949463D01*
X137933824Y-77936959D01*
X137933013Y-77936772D01*
X137876680Y-77921693D01*
X137876674Y-77921691D01*
X137876671Y-77921691D01*
X137856759Y-77917853D01*
X137810626Y-77908961D01*
X137727751Y-77904252D01*
X137719686Y-77900361D01*
X137716715Y-77892571D01*
X137716715Y-77794093D01*
X137720142Y-77785820D01*
X137727118Y-77782465D01*
X137787064Y-77775787D01*
X137832665Y-77753309D01*
X137866616Y-77717740D01*
X137901756Y-77670972D01*
X137902290Y-77670314D01*
X137943754Y-77622908D01*
X137951779Y-77618938D01*
X137960263Y-77621805D01*
G37*
%TD.AperFunction*%
%TD*%
%TA.AperFunction,Conductor*%
%TO.N,/connectors.enc_scl*%
G36*
X136365184Y-113312506D02*
G01*
X136431905Y-113316981D01*
X136433715Y-113317248D01*
X136488466Y-113329748D01*
X136489393Y-113330000D01*
X136537081Y-113345153D01*
X136537092Y-113345155D01*
X136537093Y-113345156D01*
X136593200Y-113357966D01*
X136593202Y-113357966D01*
X136593210Y-113357968D01*
X136662454Y-113362613D01*
X136670479Y-113366586D01*
X136673371Y-113374229D01*
X136674277Y-113555466D01*
X136670891Y-113563756D01*
X136667034Y-113566342D01*
X136500369Y-113635006D01*
X136491414Y-113634989D01*
X136485094Y-113628645D01*
X136484740Y-113627664D01*
X136468241Y-113574642D01*
X136467967Y-113573590D01*
X136465884Y-113563756D01*
X136455977Y-113516979D01*
X136440520Y-113471886D01*
X136410000Y-113442299D01*
X136409998Y-113442298D01*
X136362276Y-113433444D01*
X136354766Y-113428565D01*
X136352710Y-113421940D01*
X136352710Y-113324181D01*
X136356137Y-113315908D01*
X136364410Y-113312481D01*
X136365184Y-113312506D01*
G37*
%TD.AperFunction*%
%TD*%
%TA.AperFunction,Conductor*%
%TO.N,p35*%
G36*
X161803341Y-66024088D02*
G01*
X161806342Y-66028721D01*
X161840000Y-66124899D01*
X161880000Y-66224990D01*
X161880005Y-66225000D01*
X161919996Y-66310867D01*
X161920003Y-66310880D01*
X161959995Y-66382534D01*
X161960002Y-66382546D01*
X161997902Y-66436986D01*
X162000000Y-66443671D01*
X162000000Y-66556495D01*
X161998073Y-66562927D01*
X161960008Y-66620760D01*
X161959998Y-66620777D01*
X161919999Y-66696385D01*
X161880008Y-66786811D01*
X161879993Y-66786847D01*
X161840003Y-66892101D01*
X161805790Y-66994838D01*
X161799924Y-67001604D01*
X161790992Y-67002242D01*
X161786664Y-66999655D01*
X161781553Y-66994838D01*
X161307531Y-66548041D01*
X161303861Y-66539873D01*
X161307042Y-66531502D01*
X161307058Y-66531485D01*
X161396487Y-66436986D01*
X161786803Y-66024543D01*
X161794977Y-66020890D01*
X161803341Y-66024088D01*
G37*
%TD.AperFunction*%
%TD*%
%TA.AperFunction,Conductor*%
%TO.N,+5V*%
G36*
X152722448Y-95303427D02*
G01*
X152725840Y-95310792D01*
X152732800Y-95400203D01*
X152732801Y-95400205D01*
X152751402Y-95470113D01*
X152751404Y-95470117D01*
X152773401Y-95529364D01*
X152773740Y-95530427D01*
X152791925Y-95598763D01*
X152792283Y-95600864D01*
X152799023Y-95687454D01*
X152796248Y-95695968D01*
X152788266Y-95700027D01*
X152787417Y-95700062D01*
X152600059Y-95700999D01*
X152599941Y-95700999D01*
X152412582Y-95700062D01*
X152404327Y-95696594D01*
X152400941Y-95688303D01*
X152400975Y-95687470D01*
X152407717Y-95600854D01*
X152408072Y-95598772D01*
X152426259Y-95530422D01*
X152426597Y-95529364D01*
X152448600Y-95470101D01*
X152467200Y-95400203D01*
X152474160Y-95310792D01*
X152478219Y-95302810D01*
X152485825Y-95300000D01*
X152714175Y-95300000D01*
X152722448Y-95303427D01*
G37*
%TD.AperFunction*%
%TD*%
%TA.AperFunction,Conductor*%
%TO.N,/i2c_1.scl*%
G36*
X148249231Y-74467310D02*
G01*
X148249639Y-74467742D01*
X148291698Y-74514637D01*
X148292069Y-74515072D01*
X148328585Y-74560022D01*
X148328594Y-74560033D01*
X148364098Y-74593304D01*
X148410998Y-74613870D01*
X148471313Y-74619859D01*
X148479207Y-74624087D01*
X148481857Y-74631502D01*
X148481857Y-74729935D01*
X148478430Y-74738208D01*
X148470910Y-74741611D01*
X148386496Y-74747051D01*
X148319628Y-74761705D01*
X148319620Y-74761707D01*
X148262683Y-74779061D01*
X148261777Y-74779298D01*
X148196221Y-74793664D01*
X148194469Y-74793911D01*
X148112390Y-74799201D01*
X148103913Y-74796313D01*
X148099961Y-74788278D01*
X148099938Y-74787613D01*
X148099024Y-74604901D01*
X148102409Y-74596614D01*
X148232687Y-74467250D01*
X148240970Y-74463854D01*
X148249231Y-74467310D01*
G37*
%TD.AperFunction*%
%TD*%
%TA.AperFunction,Conductor*%
%TO.N,GND*%
G36*
X133864625Y-61011682D02*
G01*
X133866987Y-61015089D01*
X133916490Y-61123615D01*
X133916492Y-61123619D01*
X133972958Y-61231281D01*
X133972965Y-61231294D01*
X133972970Y-61231302D01*
X134029455Y-61322863D01*
X134029459Y-61322869D01*
X134029462Y-61322873D01*
X134029463Y-61322875D01*
X134085938Y-61398285D01*
X134134548Y-61449305D01*
X134137774Y-61457659D01*
X134134350Y-61465649D01*
X134057575Y-61542424D01*
X134018059Y-61604003D01*
X134018057Y-61604006D01*
X133978542Y-61680530D01*
X133939025Y-61772004D01*
X133899513Y-61878411D01*
X133865905Y-61981633D01*
X133860085Y-61988439D01*
X133851158Y-61989136D01*
X133846509Y-61986286D01*
X133367579Y-61507575D01*
X133364150Y-61499303D01*
X133367573Y-61491031D01*
X133848080Y-61011661D01*
X133856356Y-61008245D01*
X133864625Y-61011682D01*
G37*
%TD.AperFunction*%
%TD*%
%TA.AperFunction,Conductor*%
%TO.N,GND*%
G36*
X134027986Y-61326023D02*
G01*
X134028158Y-61326413D01*
X134099100Y-61495473D01*
X134099141Y-61504428D01*
X134099100Y-61504527D01*
X134028379Y-61673058D01*
X134022017Y-61679361D01*
X134013063Y-61679320D01*
X134012190Y-61678910D01*
X133945657Y-61644292D01*
X133944115Y-61643331D01*
X133891584Y-61604611D01*
X133845632Y-61571221D01*
X133845628Y-61571218D01*
X133845625Y-61571217D01*
X133845624Y-61571216D01*
X133789131Y-61548050D01*
X133714615Y-61540446D01*
X133706733Y-61536196D01*
X133704103Y-61528806D01*
X133704103Y-61430434D01*
X133707530Y-61422161D01*
X133715144Y-61418752D01*
X133786915Y-61414712D01*
X133844385Y-61401224D01*
X133892385Y-61379651D01*
X133946515Y-61350880D01*
X133947043Y-61350617D01*
X134012453Y-61320322D01*
X134021399Y-61319956D01*
X134027986Y-61326023D01*
G37*
%TD.AperFunction*%
%TD*%
%TA.AperFunction,Conductor*%
%TO.N,/connectors.enc2.cs*%
G36*
X122987054Y-87020397D02*
G01*
X122987666Y-87020675D01*
X122999882Y-87026659D01*
X123054490Y-87053408D01*
X123055541Y-87053991D01*
X123109657Y-87087802D01*
X123157378Y-87115183D01*
X123215169Y-87133391D01*
X123289209Y-87139159D01*
X123297191Y-87143218D01*
X123300000Y-87150824D01*
X123300000Y-87249175D01*
X123296573Y-87257448D01*
X123289209Y-87260840D01*
X123215169Y-87266608D01*
X123157385Y-87284811D01*
X123157378Y-87284814D01*
X123109661Y-87312193D01*
X123055544Y-87346005D01*
X123054492Y-87346589D01*
X122987674Y-87379320D01*
X122978737Y-87379882D01*
X122972020Y-87373960D01*
X122971738Y-87373340D01*
X122900898Y-87204525D01*
X122900858Y-87195573D01*
X122900871Y-87195540D01*
X122971738Y-87026658D01*
X122978100Y-87020356D01*
X122987054Y-87020397D01*
G37*
%TD.AperFunction*%
%TD*%
%TA.AperFunction,Conductor*%
%TO.N,/connectors.enc_scl*%
G36*
X136854578Y-113491959D02*
G01*
X136860898Y-113498303D01*
X136861419Y-113499875D01*
X136877130Y-113561613D01*
X136877462Y-113563679D01*
X136882231Y-113631602D01*
X136889146Y-113687993D01*
X136914657Y-113726040D01*
X136966216Y-113737910D01*
X136973508Y-113743106D01*
X136975290Y-113749312D01*
X136975290Y-113847762D01*
X136971863Y-113856035D01*
X136963590Y-113859462D01*
X136963065Y-113859450D01*
X136878504Y-113855652D01*
X136876802Y-113855450D01*
X136810338Y-113842566D01*
X136808335Y-113841989D01*
X136752387Y-113820297D01*
X136751514Y-113819917D01*
X136687190Y-113788743D01*
X136607093Y-113752752D01*
X136600951Y-113746235D01*
X136601058Y-113737653D01*
X136670466Y-113567868D01*
X136676767Y-113561508D01*
X136845624Y-113491942D01*
X136854578Y-113491959D01*
G37*
%TD.AperFunction*%
%TD*%
%TA.AperFunction,Conductor*%
%TO.N,gpio37*%
G36*
X134027979Y-66326039D02*
G01*
X134028261Y-66326659D01*
X134099100Y-66495473D01*
X134099141Y-66504427D01*
X134099100Y-66504527D01*
X134028261Y-66673340D01*
X134021899Y-66679643D01*
X134012945Y-66679602D01*
X134012325Y-66679320D01*
X133945505Y-66646589D01*
X133944452Y-66646004D01*
X133890344Y-66612197D01*
X133842620Y-66584814D01*
X133842613Y-66584811D01*
X133794972Y-66569803D01*
X133784830Y-66566608D01*
X133776144Y-66565931D01*
X133710791Y-66560840D01*
X133702809Y-66556781D01*
X133700000Y-66549175D01*
X133700000Y-66450824D01*
X133703427Y-66442551D01*
X133710790Y-66439159D01*
X133784830Y-66433391D01*
X133842621Y-66415183D01*
X133890342Y-66387802D01*
X133944461Y-66353988D01*
X133945495Y-66353414D01*
X134012326Y-66320678D01*
X134021263Y-66320117D01*
X134027979Y-66326039D01*
G37*
%TD.AperFunction*%
%TD*%
%TA.AperFunction,Conductor*%
%TO.N,/i2c_1.sda*%
G36*
X149097479Y-75343469D02*
G01*
X149101005Y-75351700D01*
X149101006Y-75351841D01*
X149101006Y-75450427D01*
X149097579Y-75458700D01*
X149091623Y-75461895D01*
X149042697Y-75471780D01*
X149042695Y-75471782D01*
X149013859Y-75504280D01*
X149001222Y-75553243D01*
X148991635Y-75613634D01*
X148991316Y-75615062D01*
X148975106Y-75670884D01*
X148969508Y-75677873D01*
X148960607Y-75678857D01*
X148959413Y-75678439D01*
X148790215Y-75608732D01*
X148783871Y-75602412D01*
X148714578Y-75432908D01*
X148714619Y-75423955D01*
X148720964Y-75417659D01*
X148802249Y-75384304D01*
X148802699Y-75384132D01*
X148869241Y-75360427D01*
X148870637Y-75360026D01*
X148929511Y-75347060D01*
X148931087Y-75346824D01*
X149001002Y-75341231D01*
X149001784Y-75341196D01*
X149089166Y-75340142D01*
X149097479Y-75343469D01*
G37*
%TD.AperFunction*%
%TD*%
%TA.AperFunction,Conductor*%
%TO.N,+5V*%
G36*
X155861980Y-79602383D02*
G01*
X155921480Y-79614218D01*
X155966175Y-79632730D01*
X156006272Y-79659522D01*
X156040477Y-79693727D01*
X156067267Y-79733822D01*
X156085781Y-79778517D01*
X156089542Y-79797427D01*
X156097617Y-79838019D01*
X156100000Y-79862210D01*
X156100000Y-81737789D01*
X156097617Y-81761982D01*
X156085781Y-81821482D01*
X156067266Y-81866179D01*
X156040709Y-81905927D01*
X156040481Y-81906268D01*
X156006269Y-81940479D01*
X155979698Y-81958234D01*
X155966179Y-81967267D01*
X155921482Y-81985781D01*
X155887857Y-81992469D01*
X155861978Y-81997617D01*
X155837789Y-82000000D01*
X153126800Y-82000000D01*
X153059761Y-81980315D01*
X153039119Y-81963681D01*
X152992310Y-81916872D01*
X152902084Y-81879501D01*
X152902082Y-81879500D01*
X152902081Y-81879500D01*
X152902079Y-81879500D01*
X146136408Y-81879500D01*
X146136400Y-81879499D01*
X146121966Y-81879499D01*
X146024300Y-81879499D01*
X146024298Y-81879499D01*
X146024296Y-81879500D01*
X145960496Y-81905926D01*
X145960496Y-81905927D01*
X145947282Y-81911401D01*
X145934067Y-81916875D01*
X145865008Y-81985935D01*
X145865005Y-81985936D01*
X145865006Y-81985937D01*
X145837468Y-82013474D01*
X145776144Y-82046958D01*
X145750844Y-82049787D01*
X145649588Y-82050649D01*
X145625181Y-82048434D01*
X145566452Y-82037173D01*
X145521296Y-82018749D01*
X145481920Y-81992649D01*
X145447362Y-81958234D01*
X145421099Y-81918970D01*
X145402486Y-81873889D01*
X145393397Y-81827533D01*
X145393608Y-81778763D01*
X145403099Y-81732485D01*
X145422099Y-81687573D01*
X145455786Y-81638143D01*
X145471504Y-81619375D01*
X145824865Y-81273536D01*
X145824865Y-81273535D01*
X145900000Y-81200000D01*
X145900000Y-79862210D01*
X145902383Y-79838019D01*
X145914218Y-79778517D01*
X145932729Y-79733826D01*
X145959524Y-79693724D01*
X145993724Y-79659524D01*
X146033826Y-79632729D01*
X146078514Y-79614219D01*
X146138028Y-79602381D01*
X146162211Y-79600000D01*
X155837789Y-79600000D01*
X155861980Y-79602383D01*
G37*
%TD.AperFunction*%
%TD*%
%TA.AperFunction,Conductor*%
%TO.N,gpio47*%
G36*
X145548068Y-66982385D02*
G01*
X145617613Y-67051930D01*
X145621040Y-67060203D01*
X145618231Y-67067809D01*
X145569958Y-67124238D01*
X145541967Y-67177978D01*
X145527585Y-67231081D01*
X145513227Y-67293257D01*
X145512896Y-67294414D01*
X145488793Y-67364803D01*
X145482871Y-67371520D01*
X145473934Y-67372082D01*
X145473296Y-67371843D01*
X145303837Y-67302564D01*
X145297476Y-67296261D01*
X145297435Y-67296162D01*
X145228156Y-67126703D01*
X145228197Y-67117748D01*
X145234558Y-67111445D01*
X145235182Y-67111210D01*
X145305594Y-67087098D01*
X145306740Y-67086771D01*
X145324643Y-67082636D01*
X145368911Y-67072415D01*
X145402291Y-67063373D01*
X145422018Y-67058031D01*
X145475757Y-67030043D01*
X145532192Y-66981765D01*
X145540704Y-66978993D01*
X145548068Y-66982385D01*
G37*
%TD.AperFunction*%
%TD*%
%TA.AperFunction,Conductor*%
%TO.N,/connectors.enc1.cs*%
G36*
X125027979Y-112026039D02*
G01*
X125028261Y-112026659D01*
X125099100Y-112195473D01*
X125099141Y-112204427D01*
X125099100Y-112204527D01*
X125028261Y-112373340D01*
X125021899Y-112379643D01*
X125012945Y-112379602D01*
X125012325Y-112379320D01*
X124945505Y-112346589D01*
X124944452Y-112346004D01*
X124890344Y-112312197D01*
X124842620Y-112284814D01*
X124842613Y-112284811D01*
X124794972Y-112269803D01*
X124784830Y-112266608D01*
X124776144Y-112265931D01*
X124710791Y-112260840D01*
X124702809Y-112256781D01*
X124700000Y-112249175D01*
X124700000Y-112150824D01*
X124703427Y-112142551D01*
X124710790Y-112139159D01*
X124784830Y-112133391D01*
X124842621Y-112115183D01*
X124890342Y-112087802D01*
X124944461Y-112053988D01*
X124945495Y-112053414D01*
X125012326Y-112020678D01*
X125021263Y-112020117D01*
X125027979Y-112026039D01*
G37*
%TD.AperFunction*%
%TD*%
%TA.AperFunction,Conductor*%
%TO.N,+5V*%
G36*
X141702107Y-100636423D02*
G01*
X141863575Y-100797891D01*
X141867002Y-100806164D01*
X141864192Y-100813770D01*
X141805892Y-100881911D01*
X141805885Y-100881921D01*
X141769620Y-100944486D01*
X141769616Y-100944494D01*
X141743262Y-101001970D01*
X141742749Y-101002960D01*
X141707296Y-101064123D01*
X141706064Y-101065862D01*
X141649600Y-101131859D01*
X141641618Y-101135918D01*
X141633104Y-101133143D01*
X141632478Y-101132567D01*
X141499334Y-101000747D01*
X141499252Y-101000665D01*
X141367431Y-100867520D01*
X141364045Y-100859230D01*
X141367513Y-100850974D01*
X141368113Y-100850421D01*
X141434140Y-100793929D01*
X141435869Y-100792704D01*
X141497049Y-100757241D01*
X141498022Y-100756737D01*
X141555505Y-100730382D01*
X141618083Y-100694109D01*
X141686231Y-100635804D01*
X141694742Y-100633031D01*
X141702107Y-100636423D01*
G37*
%TD.AperFunction*%
%TD*%
%TA.AperFunction,Conductor*%
%TO.N,scl*%
G36*
X166557449Y-93203427D02*
G01*
X166560841Y-93210791D01*
X166566608Y-93284829D01*
X166584811Y-93342613D01*
X166584814Y-93342620D01*
X166612197Y-93390344D01*
X166646004Y-93444452D01*
X166646589Y-93445505D01*
X166679320Y-93512325D01*
X166679882Y-93521262D01*
X166673960Y-93527979D01*
X166673340Y-93528261D01*
X166504527Y-93599100D01*
X166495573Y-93599141D01*
X166495473Y-93599100D01*
X166326659Y-93528261D01*
X166320356Y-93521899D01*
X166320397Y-93512945D01*
X166320670Y-93512343D01*
X166353414Y-93445495D01*
X166353990Y-93444459D01*
X166387802Y-93390342D01*
X166415183Y-93342621D01*
X166433391Y-93284830D01*
X166439159Y-93210790D01*
X166443218Y-93202809D01*
X166450824Y-93200000D01*
X166549176Y-93200000D01*
X166557449Y-93203427D01*
G37*
%TD.AperFunction*%
%TD*%
%TA.AperFunction,Conductor*%
%TO.N,/connectors.enc_scl*%
G36*
X126987054Y-92320397D02*
G01*
X126987666Y-92320675D01*
X126999882Y-92326659D01*
X127054490Y-92353408D01*
X127055541Y-92353991D01*
X127109657Y-92387802D01*
X127157378Y-92415183D01*
X127215169Y-92433391D01*
X127289209Y-92439159D01*
X127297191Y-92443218D01*
X127300000Y-92450824D01*
X127300000Y-92549175D01*
X127296573Y-92557448D01*
X127289209Y-92560840D01*
X127215169Y-92566608D01*
X127157385Y-92584811D01*
X127157378Y-92584814D01*
X127109661Y-92612193D01*
X127055544Y-92646005D01*
X127054492Y-92646589D01*
X126987674Y-92679320D01*
X126978737Y-92679882D01*
X126972020Y-92673960D01*
X126971738Y-92673340D01*
X126900898Y-92504525D01*
X126900858Y-92495573D01*
X126900871Y-92495540D01*
X126971738Y-92326658D01*
X126978100Y-92320356D01*
X126987054Y-92320397D01*
G37*
%TD.AperFunction*%
%TD*%
%TA.AperFunction,Conductor*%
%TO.N,sda*%
G36*
X122579286Y-68229373D02*
G01*
X122585589Y-68235734D01*
X122585828Y-68236371D01*
X122609934Y-68306768D01*
X122610263Y-68307918D01*
X122624618Y-68370087D01*
X122639002Y-68423196D01*
X122648857Y-68442118D01*
X122666991Y-68476934D01*
X122666993Y-68476936D01*
X122715266Y-68533368D01*
X122718040Y-68541882D01*
X122714648Y-68549246D01*
X122645104Y-68618790D01*
X122636831Y-68622217D01*
X122629226Y-68619408D01*
X122572794Y-68571135D01*
X122572792Y-68571133D01*
X122530769Y-68549246D01*
X122519054Y-68543144D01*
X122465945Y-68528760D01*
X122403776Y-68514405D01*
X122402626Y-68514076D01*
X122332229Y-68489970D01*
X122325513Y-68484048D01*
X122324951Y-68475110D01*
X122325175Y-68474511D01*
X122394470Y-68305013D01*
X122400773Y-68298653D01*
X122400815Y-68298635D01*
X122570334Y-68229332D01*
X122579286Y-68229373D01*
G37*
%TD.AperFunction*%
%TD*%
%TA.AperFunction,Conductor*%
%TO.N,+5V*%
G36*
X140526703Y-111328156D02*
G01*
X140696162Y-111397435D01*
X140702523Y-111403738D01*
X140702564Y-111403837D01*
X140771843Y-111573296D01*
X140771802Y-111582251D01*
X140765441Y-111588554D01*
X140764803Y-111588793D01*
X140694414Y-111612896D01*
X140693257Y-111613227D01*
X140631081Y-111627585D01*
X140577978Y-111641967D01*
X140540133Y-111661678D01*
X140524241Y-111669956D01*
X140524239Y-111669957D01*
X140524238Y-111669958D01*
X140467809Y-111718231D01*
X140459294Y-111721005D01*
X140451930Y-111717613D01*
X140382385Y-111648068D01*
X140378958Y-111639795D01*
X140381765Y-111632192D01*
X140430043Y-111575757D01*
X140458031Y-111522018D01*
X140472414Y-111468913D01*
X140472415Y-111468911D01*
X140486770Y-111406744D01*
X140487098Y-111405594D01*
X140511206Y-111335194D01*
X140517128Y-111328479D01*
X140526066Y-111327917D01*
X140526703Y-111328156D01*
G37*
%TD.AperFunction*%
%TD*%
%TA.AperFunction,Conductor*%
%TO.N,/connectors.enc1.cs*%
G36*
X117689237Y-99999946D02*
G01*
X117697492Y-100003414D01*
X117700842Y-100010730D01*
X117706239Y-100079457D01*
X117706240Y-100079464D01*
X117721120Y-100134879D01*
X117721121Y-100134882D01*
X117738680Y-100181745D01*
X117739024Y-100182816D01*
X117753480Y-100236651D01*
X117753844Y-100238769D01*
X117759009Y-100304541D01*
X117756240Y-100313057D01*
X117748261Y-100317121D01*
X117747345Y-100317157D01*
X117649641Y-100317157D01*
X117641368Y-100313730D01*
X117638157Y-100307694D01*
X117628735Y-100259324D01*
X117628735Y-100259322D01*
X117628733Y-100259320D01*
X117628733Y-100259319D01*
X117597542Y-100229723D01*
X117597543Y-100229723D01*
X117550338Y-100215806D01*
X117550333Y-100215805D01*
X117491642Y-100205125D01*
X117490379Y-100204822D01*
X117435848Y-100188486D01*
X117428907Y-100182829D01*
X117427998Y-100173920D01*
X117428388Y-100172821D01*
X117497000Y-100006280D01*
X117503319Y-99999938D01*
X117507874Y-99999039D01*
X117689237Y-99999946D01*
G37*
%TD.AperFunction*%
%TD*%
%TA.AperFunction,Conductor*%
%TO.N,/connectors.enc_sda*%
G36*
X135521683Y-113919654D02*
G01*
X135527950Y-113925918D01*
X135599100Y-114095473D01*
X135599141Y-114104427D01*
X135599100Y-114104527D01*
X135528605Y-114272522D01*
X135522244Y-114278825D01*
X135513289Y-114278784D01*
X135511959Y-114278124D01*
X135445458Y-114239672D01*
X135443156Y-114237929D01*
X135393859Y-114189967D01*
X135393494Y-114189595D01*
X135351646Y-114145085D01*
X135351639Y-114145079D01*
X135297815Y-114112563D01*
X135221941Y-114101463D01*
X135214251Y-114096874D01*
X135211935Y-114089886D01*
X135211935Y-113991569D01*
X135215362Y-113983296D01*
X135223504Y-113979870D01*
X135224061Y-113979863D01*
X135291315Y-113979108D01*
X135311717Y-113977532D01*
X135347983Y-113974734D01*
X135347985Y-113974733D01*
X135347989Y-113974733D01*
X135396126Y-113964326D01*
X135396129Y-113964325D01*
X135396130Y-113964325D01*
X135449874Y-113945346D01*
X135449872Y-113945346D01*
X135449894Y-113945339D01*
X135512731Y-113919617D01*
X135521683Y-113919654D01*
G37*
%TD.AperFunction*%
%TD*%
%TA.AperFunction,Conductor*%
%TO.N,/connectors.enc2.cs*%
G36*
X132404459Y-92400871D02*
G01*
X132573340Y-92471738D01*
X132579643Y-92478100D01*
X132579602Y-92487054D01*
X132579320Y-92487674D01*
X132546589Y-92554492D01*
X132546005Y-92555544D01*
X132512193Y-92609661D01*
X132484814Y-92657378D01*
X132484811Y-92657385D01*
X132466608Y-92715169D01*
X132460841Y-92789209D01*
X132456782Y-92797191D01*
X132449176Y-92800000D01*
X132350824Y-92800000D01*
X132342551Y-92796573D01*
X132339159Y-92789209D01*
X132333391Y-92715169D01*
X132315183Y-92657378D01*
X132287802Y-92609657D01*
X132253991Y-92555541D01*
X132253408Y-92554490D01*
X132220679Y-92487674D01*
X132220117Y-92478737D01*
X132226039Y-92472020D01*
X132226642Y-92471745D01*
X132395474Y-92400898D01*
X132404427Y-92400858D01*
X132404459Y-92400871D01*
G37*
%TD.AperFunction*%
%TD*%
%TA.AperFunction,Conductor*%
%TO.N,boot*%
G36*
X154547967Y-67363031D02*
G01*
X154619896Y-67401510D01*
X154625574Y-67408435D01*
X154624694Y-67417346D01*
X154622650Y-67420100D01*
X154553701Y-67489049D01*
X154545428Y-67492476D01*
X154542449Y-67492090D01*
X154495536Y-67479739D01*
X154495533Y-67479740D01*
X154442468Y-67518041D01*
X154437246Y-67523671D01*
X154434726Y-67526388D01*
X154434725Y-67526388D01*
X154421087Y-67541089D01*
X154393497Y-67570830D01*
X154391842Y-67572306D01*
X154356518Y-67598225D01*
X154347820Y-67600356D01*
X154342342Y-67597971D01*
X154330822Y-67588866D01*
X154319339Y-67579789D01*
X154314973Y-67571970D01*
X154314914Y-67571302D01*
X154310326Y-67493802D01*
X154309927Y-67487068D01*
X154311989Y-67479717D01*
X154359283Y-67411468D01*
X154363565Y-67407720D01*
X154444535Y-67366252D01*
X154449441Y-67364976D01*
X154542029Y-67361656D01*
X154547967Y-67363031D01*
G37*
%TD.AperFunction*%
%TD*%
%TA.AperFunction,Conductor*%
%TO.N,p40*%
G36*
X166884618Y-60993071D02*
G01*
X166887134Y-60996627D01*
X166929574Y-61089527D01*
X166979141Y-61183885D01*
X166979153Y-61183904D01*
X167028714Y-61264110D01*
X167028723Y-61264124D01*
X167078292Y-61330197D01*
X167103719Y-61356834D01*
X167124631Y-61378741D01*
X167127868Y-61386819D01*
X167127868Y-61557616D01*
X167124836Y-61565475D01*
X167078299Y-61616799D01*
X167028716Y-61686107D01*
X166979154Y-61770001D01*
X166979145Y-61770017D01*
X166929579Y-61868535D01*
X166929573Y-61868548D01*
X166886732Y-61966334D01*
X166880273Y-61972537D01*
X166871320Y-61972356D01*
X166867906Y-61970073D01*
X166387451Y-61508125D01*
X166383862Y-61499921D01*
X166387126Y-61491582D01*
X166868076Y-60993362D01*
X166876286Y-60989791D01*
X166884618Y-60993071D01*
G37*
%TD.AperFunction*%
%TD*%
%TA.AperFunction,Conductor*%
%TO.N,GND*%
G36*
X166882659Y-66025841D02*
G01*
X166885819Y-66030965D01*
X166911532Y-66116389D01*
X166915513Y-66129615D01*
X166951038Y-66233232D01*
X166951039Y-66233235D01*
X166986541Y-66322391D01*
X166986551Y-66322413D01*
X167022055Y-66397179D01*
X167022063Y-66397193D01*
X167057574Y-66457577D01*
X167134799Y-66534802D01*
X167138226Y-66543075D01*
X167135445Y-66550647D01*
X167089944Y-66604239D01*
X167037457Y-66682231D01*
X166984969Y-66776395D01*
X166984967Y-66776401D01*
X166932487Y-66886717D01*
X166886500Y-66997555D01*
X166880164Y-67003883D01*
X166871209Y-67003878D01*
X166867663Y-67001580D01*
X166387814Y-66548748D01*
X166384149Y-66540578D01*
X166387335Y-66532209D01*
X166866119Y-66026296D01*
X166874295Y-66022643D01*
X166882659Y-66025841D01*
G37*
%TD.AperFunction*%
%TD*%
%TA.AperFunction,Conductor*%
%TO.N,gpio48*%
G36*
X144104459Y-65400871D02*
G01*
X144273340Y-65471738D01*
X144279643Y-65478100D01*
X144279602Y-65487054D01*
X144279320Y-65487674D01*
X144246589Y-65554492D01*
X144246005Y-65555544D01*
X144212193Y-65609661D01*
X144184814Y-65657378D01*
X144184811Y-65657385D01*
X144166608Y-65715169D01*
X144160841Y-65789209D01*
X144156782Y-65797191D01*
X144149176Y-65800000D01*
X144050824Y-65800000D01*
X144042551Y-65796573D01*
X144039159Y-65789209D01*
X144033391Y-65715169D01*
X144015183Y-65657378D01*
X143987802Y-65609657D01*
X143953991Y-65555541D01*
X143953408Y-65554490D01*
X143920679Y-65487674D01*
X143920117Y-65478737D01*
X143926039Y-65472020D01*
X143926642Y-65471745D01*
X144095474Y-65400898D01*
X144104427Y-65400858D01*
X144104459Y-65400871D01*
G37*
%TD.AperFunction*%
%TD*%
%TA.AperFunction,Conductor*%
%TO.N,GND*%
G36*
X128561931Y-64803427D02*
G01*
X128563461Y-64805313D01*
X128603995Y-64867528D01*
X128603995Y-64867529D01*
X128648003Y-64925306D01*
X128692002Y-64973303D01*
X128736002Y-65011536D01*
X128772390Y-65035077D01*
X128777475Y-65042448D01*
X128777135Y-65048598D01*
X128293680Y-66499931D01*
X128287814Y-66506697D01*
X128278882Y-66507333D01*
X128272116Y-66501467D01*
X128271128Y-66498631D01*
X127968188Y-65051898D01*
X127969847Y-65043098D01*
X127977242Y-65038048D01*
X127977673Y-65037966D01*
X128060557Y-65023893D01*
X128155418Y-64991840D01*
X128250278Y-64943840D01*
X128345139Y-64879893D01*
X128436734Y-64802751D01*
X128444271Y-64800000D01*
X128553658Y-64800000D01*
X128561931Y-64803427D01*
G37*
%TD.AperFunction*%
%TD*%
%TA.AperFunction,Conductor*%
%TO.N,+3.3V*%
G36*
X167629459Y-96950871D02*
G01*
X167798595Y-97021845D01*
X167804898Y-97028207D01*
X167804857Y-97037161D01*
X167804688Y-97037543D01*
X167774021Y-97103893D01*
X167773747Y-97104447D01*
X167744796Y-97159269D01*
X167744787Y-97159287D01*
X167723143Y-97207934D01*
X167709651Y-97266153D01*
X167705613Y-97338948D01*
X167701733Y-97347019D01*
X167693931Y-97350000D01*
X167556069Y-97350000D01*
X167547796Y-97346573D01*
X167544387Y-97338948D01*
X167543639Y-97325481D01*
X167540348Y-97266155D01*
X167526855Y-97207933D01*
X167505210Y-97159285D01*
X167476243Y-97104435D01*
X167475971Y-97103885D01*
X167445310Y-97037543D01*
X167445309Y-97037541D01*
X167444950Y-97028595D01*
X167451023Y-97022013D01*
X167451377Y-97021856D01*
X167620474Y-96950898D01*
X167629427Y-96950858D01*
X167629459Y-96950871D01*
G37*
%TD.AperFunction*%
%TD*%
%TA.AperFunction,Conductor*%
%TO.N,p37*%
G36*
X164527970Y-66326065D02*
G01*
X164528372Y-66326923D01*
X164599100Y-66495473D01*
X164599141Y-66504428D01*
X164599100Y-66504527D01*
X164528164Y-66673571D01*
X164521802Y-66679874D01*
X164512848Y-66679833D01*
X164512455Y-66679659D01*
X164446978Y-66649224D01*
X164446378Y-66648924D01*
X164392262Y-66619855D01*
X164392257Y-66619852D01*
X164392252Y-66619850D01*
X164344273Y-66597928D01*
X164286784Y-66584153D01*
X164214881Y-66580009D01*
X164206819Y-66576111D01*
X164203854Y-66568328D01*
X164203854Y-66469955D01*
X164207281Y-66461682D01*
X164214380Y-66458314D01*
X164288862Y-66450822D01*
X164345443Y-66427953D01*
X164391481Y-66394945D01*
X164444148Y-66356494D01*
X164445645Y-66355568D01*
X164512201Y-66321062D01*
X164521120Y-66320297D01*
X164527970Y-66326065D01*
G37*
%TD.AperFunction*%
%TD*%
%TA.AperFunction,Conductor*%
%TO.N,p38*%
G36*
X164343156Y-61013203D02*
G01*
X164345974Y-61017770D01*
X164380488Y-61121417D01*
X164420964Y-61227956D01*
X164420966Y-61227962D01*
X164461451Y-61319511D01*
X164461454Y-61319519D01*
X164501935Y-61396048D01*
X164501943Y-61396061D01*
X164537184Y-61449610D01*
X164538870Y-61458405D01*
X164535684Y-61464315D01*
X164457576Y-61542422D01*
X164457572Y-61542428D01*
X164434064Y-61605554D01*
X164434058Y-61605572D01*
X164410544Y-61682882D01*
X164387029Y-61774361D01*
X164363509Y-61880030D01*
X164344227Y-61978286D01*
X164339271Y-61985745D01*
X164330493Y-61987514D01*
X164324474Y-61984308D01*
X163847579Y-61507576D01*
X163844151Y-61499303D01*
X163847574Y-61491031D01*
X164326613Y-61013181D01*
X164334888Y-61009766D01*
X164343156Y-61013203D01*
G37*
%TD.AperFunction*%
%TD*%
%TA.AperFunction,Conductor*%
%TO.N,gpio42*%
G36*
X128785700Y-60946485D02*
G01*
X128788091Y-60949428D01*
X128844000Y-61047181D01*
X128844003Y-61047186D01*
X128907989Y-61143587D01*
X128907998Y-61143599D01*
X128908000Y-61143602D01*
X128971999Y-61224546D01*
X129035999Y-61290012D01*
X129095502Y-61336487D01*
X129099913Y-61344279D01*
X129100000Y-61345707D01*
X129100000Y-61455033D01*
X129096573Y-61463306D01*
X129096426Y-61463450D01*
X129036003Y-61521782D01*
X129035992Y-61521794D01*
X128972006Y-61600939D01*
X128971999Y-61600947D01*
X128907993Y-61697493D01*
X128907990Y-61697498D01*
X128844008Y-61811373D01*
X128844001Y-61811387D01*
X128786739Y-61928847D01*
X128780033Y-61934782D01*
X128771095Y-61934237D01*
X128768475Y-61932488D01*
X128287785Y-61507762D01*
X128283854Y-61499716D01*
X128286763Y-61491249D01*
X128769185Y-60947470D01*
X128777237Y-60943558D01*
X128785700Y-60946485D01*
G37*
%TD.AperFunction*%
%TD*%
%TA.AperFunction,Conductor*%
%TO.N,m3_EN*%
G36*
X131682251Y-90028196D02*
G01*
X131688554Y-90034557D01*
X131688793Y-90035194D01*
X131712899Y-90105591D01*
X131713228Y-90106741D01*
X131727583Y-90168910D01*
X131741967Y-90222019D01*
X131751822Y-90240941D01*
X131769956Y-90275757D01*
X131769958Y-90275759D01*
X131818231Y-90332191D01*
X131821005Y-90340705D01*
X131817613Y-90348069D01*
X131748069Y-90417613D01*
X131739796Y-90421040D01*
X131732191Y-90418231D01*
X131675759Y-90369958D01*
X131675757Y-90369956D01*
X131633734Y-90348069D01*
X131622019Y-90341967D01*
X131568910Y-90327583D01*
X131506741Y-90313228D01*
X131505591Y-90312899D01*
X131435194Y-90288793D01*
X131428478Y-90282871D01*
X131427916Y-90273933D01*
X131428140Y-90273334D01*
X131497435Y-90103836D01*
X131503738Y-90097476D01*
X131503780Y-90097458D01*
X131673299Y-90028155D01*
X131682251Y-90028196D01*
G37*
%TD.AperFunction*%
%TD*%
%TA.AperFunction,Conductor*%
%TO.N,GND*%
G36*
X141484298Y-61012021D02*
G01*
X141486779Y-61015699D01*
X141532471Y-61122971D01*
X141532481Y-61122992D01*
X141532485Y-61123001D01*
X141584970Y-61230389D01*
X141637455Y-61321948D01*
X141637458Y-61321952D01*
X141637459Y-61321954D01*
X141689934Y-61397669D01*
X141735207Y-61449335D01*
X141738082Y-61457816D01*
X141734680Y-61465319D01*
X141657575Y-61542424D01*
X141622056Y-61604463D01*
X141586551Y-61681195D01*
X141586547Y-61681205D01*
X141551024Y-61772696D01*
X141515513Y-61878874D01*
X141485555Y-61980870D01*
X141479935Y-61987842D01*
X141471032Y-61988799D01*
X141466058Y-61985848D01*
X141252803Y-61772685D01*
X140987578Y-61507575D01*
X140984150Y-61499304D01*
X140987574Y-61491031D01*
X141467753Y-61012000D01*
X141476029Y-61008584D01*
X141484298Y-61012021D01*
G37*
%TD.AperFunction*%
%TD*%
%TA.AperFunction,Conductor*%
%TO.N,scl*%
G36*
X122487054Y-66620397D02*
G01*
X122487666Y-66620675D01*
X122499882Y-66626659D01*
X122554490Y-66653408D01*
X122555541Y-66653991D01*
X122609657Y-66687802D01*
X122657378Y-66715183D01*
X122715169Y-66733391D01*
X122789209Y-66739159D01*
X122797191Y-66743218D01*
X122800000Y-66750824D01*
X122800000Y-66849175D01*
X122796573Y-66857448D01*
X122789209Y-66860840D01*
X122715169Y-66866608D01*
X122657385Y-66884811D01*
X122657378Y-66884814D01*
X122609661Y-66912193D01*
X122555544Y-66946005D01*
X122554492Y-66946589D01*
X122487674Y-66979320D01*
X122478737Y-66979882D01*
X122472020Y-66973960D01*
X122471738Y-66973340D01*
X122400898Y-66804525D01*
X122400858Y-66795573D01*
X122400871Y-66795540D01*
X122471738Y-66626658D01*
X122478100Y-66620356D01*
X122487054Y-66620397D01*
G37*
%TD.AperFunction*%
%TD*%
%TA.AperFunction,Conductor*%
%TO.N,+5V*%
G36*
X152688685Y-87699943D02*
G01*
X152696939Y-87703411D01*
X152700320Y-87711311D01*
X152702599Y-87791651D01*
X152702599Y-87791658D01*
X152708799Y-87856562D01*
X152716171Y-87912324D01*
X152716219Y-87912744D01*
X152722363Y-87977054D01*
X152722411Y-87977835D01*
X152724659Y-88057066D01*
X152721468Y-88065433D01*
X152713296Y-88069093D01*
X152712964Y-88069098D01*
X152485260Y-88069098D01*
X152476987Y-88065671D01*
X152473660Y-88058926D01*
X152471770Y-88044584D01*
X152464506Y-87989451D01*
X152437128Y-87938461D01*
X152399129Y-87898154D01*
X152398918Y-87897925D01*
X152362092Y-87856562D01*
X152357179Y-87851043D01*
X152355709Y-87848978D01*
X152321611Y-87787966D01*
X152320567Y-87779073D01*
X152326117Y-87772046D01*
X152327291Y-87771473D01*
X152497805Y-87699920D01*
X152502381Y-87699011D01*
X152688685Y-87699943D01*
G37*
%TD.AperFunction*%
%TD*%
%TA.AperFunction,Conductor*%
%TO.N,/connectors.enc_scl*%
G36*
X149882251Y-113528196D02*
G01*
X149888554Y-113534557D01*
X149888793Y-113535194D01*
X149912899Y-113605591D01*
X149913228Y-113606741D01*
X149927583Y-113668910D01*
X149941967Y-113722019D01*
X149951822Y-113740941D01*
X149969956Y-113775757D01*
X149969958Y-113775759D01*
X150018231Y-113832191D01*
X150021005Y-113840705D01*
X150017613Y-113848069D01*
X149948069Y-113917613D01*
X149939796Y-113921040D01*
X149932191Y-113918231D01*
X149875759Y-113869958D01*
X149875757Y-113869956D01*
X149833734Y-113848069D01*
X149822019Y-113841967D01*
X149768910Y-113827583D01*
X149706741Y-113813228D01*
X149705591Y-113812899D01*
X149635194Y-113788793D01*
X149628478Y-113782871D01*
X149627916Y-113773933D01*
X149628140Y-113773334D01*
X149697435Y-113603836D01*
X149703738Y-113597476D01*
X149703780Y-113597458D01*
X149873299Y-113528155D01*
X149882251Y-113528196D01*
G37*
%TD.AperFunction*%
%TD*%
%TA.AperFunction,Conductor*%
%TO.N,/connectors.enc2.cs*%
G36*
X138967809Y-100981768D02*
G01*
X139013959Y-101021247D01*
X139024241Y-101030043D01*
X139066266Y-101051930D01*
X139077980Y-101058031D01*
X139131086Y-101072415D01*
X139164094Y-101080036D01*
X139193268Y-101086773D01*
X139194393Y-101087094D01*
X139264805Y-101111206D01*
X139271521Y-101117128D01*
X139272083Y-101126066D01*
X139271844Y-101126703D01*
X139202564Y-101296162D01*
X139196261Y-101302523D01*
X139196162Y-101302564D01*
X139026703Y-101371844D01*
X139017748Y-101371803D01*
X139011445Y-101365442D01*
X139011211Y-101364820D01*
X138987094Y-101294393D01*
X138986773Y-101293268D01*
X138980036Y-101264094D01*
X138972415Y-101231086D01*
X138958031Y-101177980D01*
X138930042Y-101124240D01*
X138881768Y-101067809D01*
X138878994Y-101059294D01*
X138882385Y-101051931D01*
X138951931Y-100982385D01*
X138960203Y-100978959D01*
X138967809Y-100981768D01*
G37*
%TD.AperFunction*%
%TD*%
%TA.AperFunction,Conductor*%
%TO.N,+5V*%
G36*
X117477858Y-61810754D02*
G01*
X117538490Y-61832521D01*
X117589900Y-61849554D01*
X117640089Y-61846108D01*
X117697062Y-61806439D01*
X117781915Y-61891292D01*
X117721571Y-61952636D01*
X117679594Y-61997003D01*
X117643739Y-62035709D01*
X117601763Y-62080076D01*
X117541421Y-62141421D01*
X117399293Y-62000707D01*
X117400000Y-61800000D01*
X117477858Y-61810754D01*
G37*
%TD.AperFunction*%
%TD*%
%TA.AperFunction,Conductor*%
%TO.N,boot*%
G36*
X154289055Y-67161081D02*
G01*
X154342367Y-67209905D01*
X154391536Y-67243345D01*
X154391540Y-67243347D01*
X154391542Y-67243348D01*
X154420310Y-67256195D01*
X154439493Y-67264762D01*
X154497318Y-67285041D01*
X154497565Y-67285132D01*
X154565337Y-67310956D01*
X154571848Y-67317104D01*
X154572104Y-67326055D01*
X154572001Y-67326317D01*
X154502564Y-67496162D01*
X154496261Y-67502523D01*
X154496162Y-67502564D01*
X154326317Y-67572001D01*
X154317362Y-67571960D01*
X154311059Y-67565599D01*
X154310956Y-67565337D01*
X154287037Y-67502564D01*
X154285132Y-67497565D01*
X154285034Y-67497297D01*
X154284636Y-67496162D01*
X154264762Y-67439493D01*
X154243345Y-67391536D01*
X154209905Y-67342367D01*
X154161081Y-67289055D01*
X154158020Y-67280639D01*
X154161435Y-67272881D01*
X154272881Y-67161435D01*
X154281153Y-67158009D01*
X154289055Y-67161081D01*
G37*
%TD.AperFunction*%
%TD*%
%TA.AperFunction,Conductor*%
%TO.N,GND*%
G36*
X141627986Y-61326023D02*
G01*
X141628158Y-61326413D01*
X141699100Y-61495473D01*
X141699141Y-61504428D01*
X141699100Y-61504527D01*
X141628379Y-61673058D01*
X141622017Y-61679361D01*
X141613063Y-61679320D01*
X141612190Y-61678910D01*
X141545657Y-61644292D01*
X141544115Y-61643331D01*
X141491584Y-61604611D01*
X141445632Y-61571221D01*
X141445628Y-61571218D01*
X141445625Y-61571217D01*
X141445624Y-61571216D01*
X141389131Y-61548050D01*
X141314615Y-61540446D01*
X141306733Y-61536196D01*
X141304103Y-61528806D01*
X141304103Y-61430434D01*
X141307530Y-61422161D01*
X141315144Y-61418752D01*
X141386915Y-61414712D01*
X141444385Y-61401224D01*
X141492385Y-61379651D01*
X141546515Y-61350880D01*
X141547043Y-61350617D01*
X141612453Y-61320322D01*
X141621399Y-61319956D01*
X141627986Y-61326023D01*
G37*
%TD.AperFunction*%
%TD*%
%TA.AperFunction,Conductor*%
%TO.N,gpio21*%
G36*
X146563939Y-61254612D02*
G01*
X146564519Y-61255945D01*
X146639200Y-61461828D01*
X146718382Y-61653722D01*
X146718405Y-61653773D01*
X146797579Y-61819254D01*
X146797587Y-61819270D01*
X146876783Y-61958398D01*
X146920081Y-62020029D01*
X146950326Y-62063080D01*
X146952277Y-62071820D01*
X146949025Y-62078079D01*
X146872157Y-62154947D01*
X146869875Y-62156724D01*
X146808901Y-62193072D01*
X146808898Y-62193074D01*
X146746675Y-62243538D01*
X146684453Y-62307373D01*
X146622227Y-62384583D01*
X146571102Y-62459007D01*
X146563593Y-62463886D01*
X146554833Y-62462026D01*
X146551048Y-62457723D01*
X146415260Y-62193073D01*
X146064643Y-61509720D01*
X146063915Y-61500795D01*
X146069710Y-61493970D01*
X146548199Y-61249515D01*
X146557123Y-61248804D01*
X146563939Y-61254612D01*
G37*
%TD.AperFunction*%
%TD*%
%TA.AperFunction,Conductor*%
%TO.N,gpio47*%
G36*
X145572471Y-66338034D02*
G01*
X145692906Y-66387679D01*
X146050322Y-66535012D01*
X146056664Y-66541332D01*
X146056851Y-66549844D01*
X145661244Y-67632509D01*
X145655186Y-67639103D01*
X145646239Y-67639482D01*
X145640681Y-67635218D01*
X145591329Y-67564927D01*
X145529103Y-67489502D01*
X145466878Y-67427276D01*
X145443951Y-67409213D01*
X145404658Y-67378255D01*
X145404654Y-67378253D01*
X145404652Y-67378251D01*
X145366760Y-67356435D01*
X145343765Y-67343196D01*
X145341330Y-67341329D01*
X145263323Y-67263322D01*
X145259896Y-67255049D01*
X145260957Y-67250181D01*
X145318059Y-67125436D01*
X145378544Y-66966900D01*
X145439029Y-66781965D01*
X145499514Y-66570629D01*
X145556674Y-66345964D01*
X145562034Y-66338793D01*
X145570897Y-66337512D01*
X145572471Y-66338034D01*
G37*
%TD.AperFunction*%
%TD*%
%TA.AperFunction,Conductor*%
%TO.N,/connectors.enc_sda*%
G36*
X125004459Y-91900871D02*
G01*
X125173204Y-91971681D01*
X125179507Y-91978043D01*
X125179466Y-91986997D01*
X125179122Y-91987741D01*
X125145485Y-92054398D01*
X125144722Y-92055695D01*
X125108533Y-92109040D01*
X125078231Y-92155932D01*
X125078230Y-92155933D01*
X125057612Y-92213108D01*
X125050955Y-92287356D01*
X125046803Y-92295290D01*
X125039302Y-92298011D01*
X124940935Y-92298011D01*
X124932662Y-92294584D01*
X124929262Y-92287100D01*
X124924333Y-92214179D01*
X124924333Y-92214176D01*
X124908409Y-92156533D01*
X124883840Y-92108660D01*
X124871119Y-92086710D01*
X124852473Y-92054534D01*
X124852036Y-92053706D01*
X124820507Y-91987613D01*
X124820039Y-91978672D01*
X124826030Y-91972017D01*
X124826541Y-91971788D01*
X124826796Y-91971681D01*
X124995474Y-91900898D01*
X125004427Y-91900858D01*
X125004459Y-91900871D01*
G37*
%TD.AperFunction*%
%TD*%
%TA.AperFunction,Conductor*%
%TO.N,boot*%
G36*
X154177164Y-66360319D02*
G01*
X154183230Y-66366906D01*
X154183486Y-66367685D01*
X154256726Y-66620972D01*
X154333458Y-66861732D01*
X154410182Y-67077866D01*
X154486910Y-67269412D01*
X154486914Y-67269421D01*
X154560237Y-67428960D01*
X154560578Y-67437908D01*
X154557879Y-67442119D01*
X154437927Y-67562071D01*
X154434331Y-67564523D01*
X154373053Y-67591244D01*
X154309745Y-67631162D01*
X154246441Y-67683386D01*
X154246439Y-67683387D01*
X154183143Y-67747914D01*
X154183131Y-67747927D01*
X154133143Y-67808608D01*
X154125238Y-67812815D01*
X154116674Y-67810199D01*
X154113046Y-67804964D01*
X153683005Y-66550124D01*
X153683565Y-66541189D01*
X153690043Y-66535349D01*
X154168217Y-66359951D01*
X154177164Y-66360319D01*
G37*
%TD.AperFunction*%
%TD*%
%TA.AperFunction,Conductor*%
%TO.N,gpio36*%
G36*
X144022824Y-61013710D02*
G01*
X144025722Y-61018521D01*
X144056004Y-61116537D01*
X144091994Y-61218770D01*
X144091999Y-61218782D01*
X144092000Y-61218785D01*
X144128000Y-61306785D01*
X144164000Y-61380523D01*
X144198309Y-61437207D01*
X144200000Y-61443264D01*
X144200000Y-61556735D01*
X144198309Y-61562794D01*
X144164002Y-61619471D01*
X144127998Y-61693217D01*
X144091994Y-61781228D01*
X144056004Y-61883461D01*
X144025722Y-61981478D01*
X144020005Y-61988371D01*
X144011089Y-61989203D01*
X144006278Y-61986305D01*
X143638710Y-61619471D01*
X143527296Y-61508280D01*
X143523862Y-61500012D01*
X143527280Y-61491735D01*
X144006279Y-61013693D01*
X144014555Y-61010275D01*
X144022824Y-61013710D01*
G37*
%TD.AperFunction*%
%TD*%
%TA.AperFunction,Conductor*%
%TO.N,m2_PH*%
G36*
X127687449Y-107003427D02*
G01*
X127690841Y-107010791D01*
X127696608Y-107084829D01*
X127714811Y-107142613D01*
X127714814Y-107142620D01*
X127742197Y-107190344D01*
X127776004Y-107244452D01*
X127776589Y-107245505D01*
X127809320Y-107312325D01*
X127809882Y-107321262D01*
X127803960Y-107327979D01*
X127803340Y-107328261D01*
X127634527Y-107399100D01*
X127625573Y-107399141D01*
X127625473Y-107399100D01*
X127456659Y-107328261D01*
X127450356Y-107321899D01*
X127450397Y-107312945D01*
X127450670Y-107312343D01*
X127483414Y-107245495D01*
X127483990Y-107244459D01*
X127517802Y-107190342D01*
X127545183Y-107142621D01*
X127563391Y-107084830D01*
X127569159Y-107010790D01*
X127573218Y-107002809D01*
X127580824Y-107000000D01*
X127679176Y-107000000D01*
X127687449Y-107003427D01*
G37*
%TD.AperFunction*%
%TD*%
%TA.AperFunction,Conductor*%
%TO.N,/connectors.enc_sda*%
G36*
X125267809Y-99181768D02*
G01*
X125313959Y-99221247D01*
X125324241Y-99230043D01*
X125366266Y-99251930D01*
X125377980Y-99258031D01*
X125431086Y-99272415D01*
X125464094Y-99280036D01*
X125493268Y-99286773D01*
X125494393Y-99287094D01*
X125564805Y-99311206D01*
X125571521Y-99317128D01*
X125572083Y-99326066D01*
X125571844Y-99326703D01*
X125502564Y-99496162D01*
X125496261Y-99502523D01*
X125496162Y-99502564D01*
X125326703Y-99571844D01*
X125317748Y-99571803D01*
X125311445Y-99565442D01*
X125311211Y-99564820D01*
X125287094Y-99494393D01*
X125286773Y-99493268D01*
X125280036Y-99464094D01*
X125272415Y-99431086D01*
X125258031Y-99377980D01*
X125230042Y-99324240D01*
X125181768Y-99267809D01*
X125178994Y-99259294D01*
X125182385Y-99251931D01*
X125251931Y-99182385D01*
X125260203Y-99178959D01*
X125267809Y-99181768D01*
G37*
%TD.AperFunction*%
%TD*%
%TA.AperFunction,Conductor*%
%TO.N,+3.3V*%
G36*
X167702204Y-98203427D02*
G01*
X167705613Y-98211052D01*
X167709651Y-98283844D01*
X167723143Y-98342064D01*
X167744787Y-98390710D01*
X167744790Y-98390715D01*
X167773747Y-98445549D01*
X167774022Y-98446104D01*
X167804689Y-98512456D01*
X167805049Y-98521404D01*
X167798977Y-98527986D01*
X167798595Y-98528154D01*
X167629527Y-98599100D01*
X167620573Y-98599141D01*
X167620473Y-98599100D01*
X167451404Y-98528154D01*
X167445101Y-98521792D01*
X167445142Y-98512838D01*
X167445310Y-98512457D01*
X167475981Y-98446091D01*
X167476235Y-98445576D01*
X167505210Y-98390713D01*
X167526855Y-98342066D01*
X167540348Y-98283843D01*
X167544387Y-98211052D01*
X167548267Y-98202981D01*
X167556069Y-98200000D01*
X167693931Y-98200000D01*
X167702204Y-98203427D01*
G37*
%TD.AperFunction*%
%TD*%
%TA.AperFunction,Conductor*%
%TO.N,+5V*%
G36*
X152612161Y-95500550D02*
G01*
X152691240Y-95504132D01*
X152692452Y-95504252D01*
X152756335Y-95514031D01*
X152756956Y-95514144D01*
X152812444Y-95525920D01*
X152812446Y-95525920D01*
X152812448Y-95525921D01*
X152848659Y-95531463D01*
X152877250Y-95535840D01*
X152957927Y-95539494D01*
X152966037Y-95543292D01*
X152969098Y-95551182D01*
X152969098Y-95649711D01*
X152965671Y-95657984D01*
X152958894Y-95661315D01*
X152899407Y-95668985D01*
X152899405Y-95668985D01*
X152855715Y-95694217D01*
X152824106Y-95733094D01*
X152791002Y-95782499D01*
X152790227Y-95783527D01*
X152749602Y-95831715D01*
X152741650Y-95835832D01*
X152733116Y-95833119D01*
X152732413Y-95832476D01*
X152602480Y-95703456D01*
X152599024Y-95695195D01*
X152599939Y-95512179D01*
X152603407Y-95503925D01*
X152611698Y-95500539D01*
X152612161Y-95500550D01*
G37*
%TD.AperFunction*%
%TD*%
%TA.AperFunction,Conductor*%
%TO.N,reset*%
G36*
X120104459Y-84700871D02*
G01*
X120273340Y-84771738D01*
X120279643Y-84778100D01*
X120279602Y-84787054D01*
X120279320Y-84787674D01*
X120246589Y-84854492D01*
X120246005Y-84855544D01*
X120212193Y-84909661D01*
X120184814Y-84957378D01*
X120184811Y-84957385D01*
X120166608Y-85015169D01*
X120160841Y-85089209D01*
X120156782Y-85097191D01*
X120149176Y-85100000D01*
X120050824Y-85100000D01*
X120042551Y-85096573D01*
X120039159Y-85089209D01*
X120033391Y-85015169D01*
X120015183Y-84957378D01*
X119987802Y-84909657D01*
X119953991Y-84855541D01*
X119953408Y-84854490D01*
X119920679Y-84787674D01*
X119920117Y-84778737D01*
X119926039Y-84772020D01*
X119926642Y-84771745D01*
X120095474Y-84700898D01*
X120104427Y-84700858D01*
X120104459Y-84700871D01*
G37*
%TD.AperFunction*%
%TD*%
%TA.AperFunction,Conductor*%
%TO.N,+3.3V*%
G36*
X117890713Y-109923694D02*
G01*
X117891094Y-109923862D01*
X117957437Y-109954523D01*
X117957987Y-109954795D01*
X118012837Y-109983762D01*
X118061485Y-110005407D01*
X118119707Y-110018900D01*
X118192501Y-110022938D01*
X118200571Y-110026818D01*
X118203552Y-110034620D01*
X118203552Y-110172483D01*
X118200125Y-110180756D01*
X118192500Y-110184165D01*
X118119705Y-110188203D01*
X118061486Y-110201695D01*
X118012839Y-110223339D01*
X118012821Y-110223348D01*
X117957999Y-110252299D01*
X117957445Y-110252573D01*
X117891095Y-110283240D01*
X117882147Y-110283601D01*
X117875566Y-110277529D01*
X117875397Y-110277147D01*
X117864970Y-110252299D01*
X117804450Y-110108077D01*
X117804410Y-110099125D01*
X117804423Y-110099092D01*
X117875397Y-109929955D01*
X117881759Y-109923653D01*
X117890713Y-109923694D01*
G37*
%TD.AperFunction*%
%TD*%
%TA.AperFunction,Conductor*%
%TO.N,gpio21*%
G36*
X147257449Y-63503427D02*
G01*
X147260841Y-63510791D01*
X147266608Y-63584829D01*
X147284811Y-63642613D01*
X147284814Y-63642620D01*
X147312197Y-63690344D01*
X147346004Y-63744452D01*
X147346589Y-63745505D01*
X147379320Y-63812325D01*
X147379882Y-63821262D01*
X147373960Y-63827979D01*
X147373340Y-63828261D01*
X147204527Y-63899100D01*
X147195573Y-63899141D01*
X147195473Y-63899100D01*
X147026659Y-63828261D01*
X147020356Y-63821899D01*
X147020397Y-63812945D01*
X147020670Y-63812343D01*
X147053414Y-63745495D01*
X147053990Y-63744459D01*
X147087802Y-63690342D01*
X147115183Y-63642621D01*
X147133391Y-63584830D01*
X147139159Y-63510790D01*
X147143218Y-63502809D01*
X147150824Y-63500000D01*
X147249176Y-63500000D01*
X147257449Y-63503427D01*
G37*
%TD.AperFunction*%
%TD*%
%TA.AperFunction,Conductor*%
%TO.N,gpio35*%
G36*
X140670627Y-65479984D02*
G01*
X140675500Y-65486553D01*
X140977034Y-66530729D01*
X140976037Y-66539628D01*
X140970037Y-66544878D01*
X140492983Y-66730594D01*
X140484031Y-66730402D01*
X140477836Y-66723935D01*
X140477267Y-66721992D01*
X140432000Y-66495719D01*
X140384000Y-66282189D01*
X140336000Y-66095059D01*
X140288000Y-65934329D01*
X140245588Y-65815637D01*
X140246031Y-65806693D01*
X140252669Y-65800682D01*
X140256606Y-65800000D01*
X140359999Y-65800000D01*
X140360000Y-65800000D01*
X140421678Y-65759842D01*
X140483356Y-65705957D01*
X140545034Y-65638344D01*
X140606712Y-65557003D01*
X140654445Y-65483430D01*
X140661821Y-65478356D01*
X140670627Y-65479984D01*
G37*
%TD.AperFunction*%
%TD*%
%TA.AperFunction,Conductor*%
%TO.N,gpio40*%
G36*
X136527979Y-61326039D02*
G01*
X136528261Y-61326659D01*
X136599100Y-61495473D01*
X136599141Y-61504427D01*
X136599100Y-61504527D01*
X136528261Y-61673340D01*
X136521899Y-61679643D01*
X136512945Y-61679602D01*
X136512325Y-61679320D01*
X136445505Y-61646589D01*
X136444452Y-61646004D01*
X136390344Y-61612197D01*
X136342620Y-61584814D01*
X136342613Y-61584811D01*
X136294972Y-61569803D01*
X136284830Y-61566608D01*
X136276144Y-61565931D01*
X136210791Y-61560840D01*
X136202809Y-61556781D01*
X136200000Y-61549175D01*
X136200000Y-61450824D01*
X136203427Y-61442551D01*
X136210790Y-61439159D01*
X136284830Y-61433391D01*
X136342621Y-61415183D01*
X136390342Y-61387802D01*
X136444461Y-61353988D01*
X136445495Y-61353414D01*
X136512326Y-61320678D01*
X136521263Y-61320117D01*
X136527979Y-61326039D01*
G37*
%TD.AperFunction*%
%TD*%
%TA.AperFunction,Conductor*%
%TO.N,gpio44*%
G36*
X111957449Y-104403427D02*
G01*
X111960841Y-104410791D01*
X111966608Y-104484829D01*
X111984811Y-104542613D01*
X111984814Y-104542620D01*
X112012197Y-104590344D01*
X112046004Y-104644452D01*
X112046589Y-104645505D01*
X112079320Y-104712325D01*
X112079882Y-104721262D01*
X112073960Y-104727979D01*
X112073340Y-104728261D01*
X111904527Y-104799100D01*
X111895573Y-104799141D01*
X111895473Y-104799100D01*
X111726659Y-104728261D01*
X111720356Y-104721899D01*
X111720397Y-104712945D01*
X111720670Y-104712343D01*
X111753414Y-104645495D01*
X111753990Y-104644459D01*
X111787802Y-104590342D01*
X111815183Y-104542621D01*
X111833391Y-104484830D01*
X111839159Y-104410790D01*
X111843218Y-104402809D01*
X111850824Y-104400000D01*
X111949176Y-104400000D01*
X111957449Y-104403427D01*
G37*
%TD.AperFunction*%
%TD*%
%TA.AperFunction,Conductor*%
%TO.N,gpio44*%
G36*
X119300414Y-79302425D02*
G01*
X119303000Y-79306282D01*
X119371611Y-79472821D01*
X119371594Y-79481776D01*
X119365250Y-79488096D01*
X119364151Y-79488486D01*
X119309619Y-79504822D01*
X119308356Y-79505125D01*
X119249664Y-79515805D01*
X119249659Y-79515806D01*
X119202455Y-79529723D01*
X119171265Y-79559319D01*
X119171263Y-79559324D01*
X119161843Y-79607694D01*
X119156898Y-79615159D01*
X119150359Y-79617157D01*
X119052655Y-79617157D01*
X119044382Y-79613730D01*
X119040955Y-79605457D01*
X119040991Y-79604541D01*
X119044541Y-79559324D01*
X119046155Y-79538764D01*
X119046518Y-79536656D01*
X119060976Y-79482810D01*
X119061319Y-79481745D01*
X119064663Y-79472821D01*
X119078880Y-79434879D01*
X119093760Y-79379464D01*
X119099157Y-79310729D01*
X119103221Y-79302751D01*
X119110761Y-79299946D01*
X119292123Y-79299039D01*
X119300414Y-79302425D01*
G37*
%TD.AperFunction*%
%TD*%
%TA.AperFunction,Conductor*%
%TO.N,/connectors.enc_sda*%
G36*
X148682251Y-113928196D02*
G01*
X148688554Y-113934557D01*
X148688793Y-113935194D01*
X148712899Y-114005591D01*
X148713228Y-114006741D01*
X148727583Y-114068910D01*
X148741967Y-114122019D01*
X148751822Y-114140941D01*
X148769956Y-114175757D01*
X148769958Y-114175759D01*
X148818231Y-114232191D01*
X148821005Y-114240705D01*
X148817613Y-114248069D01*
X148748069Y-114317613D01*
X148739796Y-114321040D01*
X148732191Y-114318231D01*
X148675759Y-114269958D01*
X148675757Y-114269956D01*
X148633734Y-114248069D01*
X148622019Y-114241967D01*
X148568910Y-114227583D01*
X148506741Y-114213228D01*
X148505591Y-114212899D01*
X148435194Y-114188793D01*
X148428478Y-114182871D01*
X148427916Y-114173933D01*
X148428140Y-114173334D01*
X148497435Y-114003836D01*
X148503738Y-113997476D01*
X148503780Y-113997458D01*
X148673299Y-113928155D01*
X148682251Y-113928196D01*
G37*
%TD.AperFunction*%
%TD*%
%TA.AperFunction,Conductor*%
%TO.N,/connectors.enc_sda*%
G36*
X135782251Y-114028196D02*
G01*
X135788554Y-114034557D01*
X135788793Y-114035194D01*
X135812899Y-114105591D01*
X135813228Y-114106741D01*
X135827583Y-114168910D01*
X135841967Y-114222019D01*
X135851822Y-114240941D01*
X135869956Y-114275757D01*
X135869958Y-114275759D01*
X135918231Y-114332191D01*
X135921005Y-114340705D01*
X135917613Y-114348069D01*
X135848069Y-114417613D01*
X135839796Y-114421040D01*
X135832191Y-114418231D01*
X135775759Y-114369958D01*
X135775757Y-114369956D01*
X135733734Y-114348069D01*
X135722019Y-114341967D01*
X135668910Y-114327583D01*
X135606741Y-114313228D01*
X135605591Y-114312899D01*
X135535194Y-114288793D01*
X135528478Y-114282871D01*
X135527916Y-114273933D01*
X135528140Y-114273334D01*
X135597435Y-114103836D01*
X135603738Y-114097476D01*
X135603780Y-114097458D01*
X135773299Y-114028155D01*
X135782251Y-114028196D01*
G37*
%TD.AperFunction*%
%TD*%
%TA.AperFunction,Conductor*%
%TO.N,gpio40*%
G36*
X136403275Y-61013260D02*
G01*
X136406065Y-61017740D01*
X136440000Y-61116999D01*
X136440003Y-61117006D01*
X136480001Y-61219500D01*
X136480003Y-61219505D01*
X136519993Y-61307487D01*
X136559998Y-61380998D01*
X136597984Y-61437026D01*
X136600000Y-61443592D01*
X136600000Y-61556407D01*
X136597984Y-61562973D01*
X136559998Y-61619000D01*
X136519993Y-61692511D01*
X136480003Y-61780493D01*
X136480001Y-61780498D01*
X136440003Y-61882992D01*
X136406065Y-61982259D01*
X136400146Y-61988979D01*
X136391209Y-61989545D01*
X136386729Y-61986755D01*
X135959120Y-61560000D01*
X135907296Y-61508280D01*
X135903862Y-61500012D01*
X135907280Y-61491735D01*
X136386729Y-61013243D01*
X136395006Y-61009825D01*
X136403275Y-61013260D01*
G37*
%TD.AperFunction*%
%TD*%
%TA.AperFunction,Conductor*%
%TO.N,gpio21*%
G36*
X147287819Y-62299939D02*
G01*
X147296074Y-62303407D01*
X147299460Y-62311698D01*
X147299448Y-62312168D01*
X147295868Y-62391224D01*
X147295745Y-62392466D01*
X147285969Y-62456319D01*
X147285849Y-62456976D01*
X147274080Y-62512439D01*
X147274078Y-62512448D01*
X147264159Y-62577251D01*
X147264159Y-62577253D01*
X147260506Y-62657927D01*
X147256708Y-62666037D01*
X147248818Y-62669098D01*
X147150288Y-62669098D01*
X147142015Y-62665671D01*
X147138684Y-62658894D01*
X147138559Y-62657927D01*
X147131013Y-62599405D01*
X147105782Y-62555716D01*
X147066902Y-62524105D01*
X147064771Y-62522677D01*
X147017498Y-62491002D01*
X147016470Y-62490227D01*
X146968283Y-62449602D01*
X146964166Y-62441650D01*
X146966879Y-62433116D01*
X146967501Y-62432435D01*
X147096545Y-62302478D01*
X147104803Y-62299024D01*
X147287819Y-62299939D01*
G37*
%TD.AperFunction*%
%TD*%
%TA.AperFunction,Conductor*%
%TO.N,p32*%
G36*
X156927986Y-61326023D02*
G01*
X156928158Y-61326413D01*
X156999100Y-61495473D01*
X156999141Y-61504428D01*
X156999100Y-61504527D01*
X156928379Y-61673058D01*
X156922017Y-61679361D01*
X156913063Y-61679320D01*
X156912190Y-61678910D01*
X156845657Y-61644292D01*
X156844115Y-61643331D01*
X156791584Y-61604611D01*
X156745632Y-61571221D01*
X156745628Y-61571218D01*
X156745625Y-61571217D01*
X156745624Y-61571216D01*
X156689131Y-61548050D01*
X156614615Y-61540446D01*
X156606733Y-61536196D01*
X156604103Y-61528806D01*
X156604103Y-61430434D01*
X156607530Y-61422161D01*
X156615144Y-61418752D01*
X156686915Y-61414712D01*
X156744385Y-61401224D01*
X156792385Y-61379651D01*
X156846515Y-61350880D01*
X156847043Y-61350617D01*
X156912453Y-61320322D01*
X156921399Y-61319956D01*
X156927986Y-61326023D01*
G37*
%TD.AperFunction*%
%TD*%
%TA.AperFunction,Conductor*%
%TO.N,/connectors.enc_scl*%
G36*
X126492463Y-99376291D02*
G01*
X126495855Y-99383655D01*
X126501622Y-99457693D01*
X126519825Y-99515477D01*
X126519828Y-99515484D01*
X126547211Y-99563208D01*
X126581018Y-99617316D01*
X126581603Y-99618369D01*
X126614334Y-99685189D01*
X126614896Y-99694126D01*
X126608974Y-99700843D01*
X126608354Y-99701125D01*
X126439541Y-99771964D01*
X126430587Y-99772005D01*
X126430487Y-99771964D01*
X126261673Y-99701125D01*
X126255370Y-99694763D01*
X126255411Y-99685809D01*
X126255684Y-99685207D01*
X126288428Y-99618359D01*
X126289004Y-99617323D01*
X126322816Y-99563206D01*
X126350197Y-99515485D01*
X126368405Y-99457694D01*
X126374173Y-99383654D01*
X126378232Y-99375673D01*
X126385838Y-99372864D01*
X126484190Y-99372864D01*
X126492463Y-99376291D01*
G37*
%TD.AperFunction*%
%TD*%
%TA.AperFunction,Conductor*%
%TO.N,gpio21*%
G36*
X146867809Y-61981768D02*
G01*
X146913959Y-62021247D01*
X146924241Y-62030043D01*
X146966266Y-62051930D01*
X146977980Y-62058031D01*
X147031086Y-62072415D01*
X147064094Y-62080036D01*
X147093268Y-62086773D01*
X147094393Y-62087094D01*
X147164805Y-62111206D01*
X147171521Y-62117128D01*
X147172083Y-62126066D01*
X147171844Y-62126703D01*
X147102564Y-62296162D01*
X147096261Y-62302523D01*
X147096162Y-62302564D01*
X146926703Y-62371844D01*
X146917748Y-62371803D01*
X146911445Y-62365442D01*
X146911211Y-62364820D01*
X146887094Y-62294393D01*
X146886773Y-62293268D01*
X146880036Y-62264094D01*
X146872415Y-62231086D01*
X146858031Y-62177980D01*
X146830042Y-62124240D01*
X146781768Y-62067809D01*
X146778994Y-62059294D01*
X146782385Y-62051931D01*
X146851931Y-61982385D01*
X146860203Y-61978959D01*
X146867809Y-61981768D01*
G37*
%TD.AperFunction*%
%TD*%
%TA.AperFunction,Conductor*%
%TO.N,gpio43*%
G36*
X126244134Y-61073465D02*
G01*
X126246174Y-61076777D01*
X126292000Y-61189900D01*
X126344005Y-61301941D01*
X126388395Y-61383630D01*
X126395999Y-61397622D01*
X126447999Y-61476979D01*
X126497325Y-61536758D01*
X126500000Y-61544202D01*
X126500000Y-61655211D01*
X126496643Y-61663414D01*
X126447999Y-61712889D01*
X126447990Y-61712899D01*
X126396008Y-61780335D01*
X126395997Y-61780351D01*
X126344002Y-61862372D01*
X126343997Y-61862379D01*
X126292007Y-61958955D01*
X126291990Y-61958988D01*
X126247579Y-62053929D01*
X126240969Y-62059971D01*
X126232024Y-62059570D01*
X126228192Y-62056695D01*
X126225761Y-62053929D01*
X125875391Y-61655211D01*
X125746738Y-61508805D01*
X125743851Y-61500328D01*
X125747802Y-61492296D01*
X126227625Y-61072365D01*
X126236107Y-61069496D01*
X126244134Y-61073465D01*
G37*
%TD.AperFunction*%
%TD*%
%TA.AperFunction,Conductor*%
%TO.N,/connectors.enc_scl*%
G36*
X149409816Y-113304800D02*
G01*
X149494501Y-113308516D01*
X149496173Y-113308710D01*
X149562748Y-113321372D01*
X149564731Y-113321934D01*
X149618720Y-113342572D01*
X149620781Y-113343360D01*
X149621671Y-113343743D01*
X149686049Y-113374675D01*
X149766208Y-113410595D01*
X149772357Y-113417105D01*
X149772254Y-113425699D01*
X149702851Y-113595471D01*
X149696548Y-113601833D01*
X149696478Y-113601862D01*
X149527681Y-113671404D01*
X149518726Y-113671387D01*
X149512406Y-113665043D01*
X149511888Y-113663482D01*
X149496162Y-113601936D01*
X149495829Y-113599888D01*
X149490909Y-113532208D01*
X149490908Y-113532206D01*
X149490908Y-113532195D01*
X149483812Y-113476037D01*
X149458198Y-113438159D01*
X149458197Y-113438158D01*
X149406728Y-113426350D01*
X149399430Y-113421160D01*
X149397644Y-113414946D01*
X149397644Y-113316490D01*
X149401071Y-113308217D01*
X149409344Y-113304790D01*
X149409816Y-113304800D01*
G37*
%TD.AperFunction*%
%TD*%
%TA.AperFunction,Conductor*%
%TO.N,gpio38*%
G36*
X139127979Y-61326039D02*
G01*
X139128261Y-61326659D01*
X139199100Y-61495473D01*
X139199141Y-61504427D01*
X139199100Y-61504527D01*
X139128261Y-61673340D01*
X139121899Y-61679643D01*
X139112945Y-61679602D01*
X139112325Y-61679320D01*
X139045505Y-61646589D01*
X139044452Y-61646004D01*
X138990344Y-61612197D01*
X138942620Y-61584814D01*
X138942613Y-61584811D01*
X138894972Y-61569803D01*
X138884830Y-61566608D01*
X138876144Y-61565931D01*
X138810791Y-61560840D01*
X138802809Y-61556781D01*
X138800000Y-61549175D01*
X138800000Y-61450824D01*
X138803427Y-61442551D01*
X138810790Y-61439159D01*
X138884830Y-61433391D01*
X138942621Y-61415183D01*
X138990342Y-61387802D01*
X139044461Y-61353988D01*
X139045495Y-61353414D01*
X139112326Y-61320678D01*
X139121263Y-61320117D01*
X139127979Y-61326039D01*
G37*
%TD.AperFunction*%
%TD*%
%TA.AperFunction,Conductor*%
%TO.N,/connectors.enc_sda*%
G36*
X161427968Y-114301075D02*
G01*
X161428405Y-114302001D01*
X161499100Y-114470473D01*
X161499141Y-114479428D01*
X161499100Y-114479527D01*
X161428135Y-114648640D01*
X161421773Y-114654943D01*
X161412819Y-114654902D01*
X161412495Y-114654759D01*
X161347402Y-114624988D01*
X161346940Y-114624765D01*
X161292793Y-114597057D01*
X161292790Y-114597056D01*
X161244773Y-114576729D01*
X161244771Y-114576728D01*
X161211027Y-114569389D01*
X161187375Y-114564245D01*
X161187373Y-114564244D01*
X161187370Y-114564244D01*
X161116071Y-114560570D01*
X161107985Y-114556722D01*
X161104973Y-114548886D01*
X161104973Y-114450513D01*
X161108400Y-114442240D01*
X161115422Y-114438880D01*
X161190062Y-114430888D01*
X161246279Y-114406673D01*
X161291800Y-114372036D01*
X161344029Y-114332248D01*
X161345656Y-114331209D01*
X161412164Y-114296175D01*
X161421080Y-114295353D01*
X161427968Y-114301075D01*
G37*
%TD.AperFunction*%
%TD*%
%TA.AperFunction,Conductor*%
%TO.N,usb_d+*%
G36*
X132813290Y-78169662D02*
G01*
X132896159Y-78175466D01*
X132898043Y-78175754D01*
X132955767Y-78189530D01*
X132963993Y-78191494D01*
X132964967Y-78191771D01*
X133022239Y-78210804D01*
X133022255Y-78210808D01*
X133089609Y-78226882D01*
X133089610Y-78226882D01*
X133089618Y-78226884D01*
X133089626Y-78226884D01*
X133089629Y-78226885D01*
X133109631Y-78228285D01*
X133175009Y-78232864D01*
X133183022Y-78236860D01*
X133185891Y-78244535D01*
X133185891Y-78343675D01*
X133182464Y-78351948D01*
X133176068Y-78355223D01*
X133099524Y-78367665D01*
X133099523Y-78367665D01*
X133046797Y-78403743D01*
X133006622Y-78452528D01*
X133006148Y-78453068D01*
X132958154Y-78504553D01*
X132955617Y-78506607D01*
X132888961Y-78546614D01*
X132880104Y-78547933D01*
X132872908Y-78542603D01*
X132872151Y-78541109D01*
X132856811Y-78504553D01*
X132800763Y-78370986D01*
X132799853Y-78366408D01*
X132800779Y-78181273D01*
X132804247Y-78173020D01*
X132812538Y-78169634D01*
X132813290Y-78169662D01*
G37*
%TD.AperFunction*%
%TD*%
%TA.AperFunction,Conductor*%
%TO.N,GND*%
G36*
X128504459Y-64800871D02*
G01*
X128673340Y-64871738D01*
X128679643Y-64878100D01*
X128679602Y-64887054D01*
X128679320Y-64887674D01*
X128646589Y-64954492D01*
X128646005Y-64955544D01*
X128612193Y-65009661D01*
X128584814Y-65057378D01*
X128584811Y-65057385D01*
X128566608Y-65115169D01*
X128560841Y-65189209D01*
X128556782Y-65197191D01*
X128549176Y-65200000D01*
X128450824Y-65200000D01*
X128442551Y-65196573D01*
X128439159Y-65189209D01*
X128433391Y-65115169D01*
X128415183Y-65057378D01*
X128387802Y-65009657D01*
X128353991Y-64955541D01*
X128353408Y-64954490D01*
X128320679Y-64887674D01*
X128320117Y-64878737D01*
X128326039Y-64872020D01*
X128326642Y-64871745D01*
X128495474Y-64800898D01*
X128504427Y-64800858D01*
X128504459Y-64800871D01*
G37*
%TD.AperFunction*%
%TD*%
%TA.AperFunction,Conductor*%
%TO.N,+5V*%
G36*
X156098800Y-103169701D02*
G01*
X156101971Y-103175540D01*
X156114631Y-103235059D01*
X156153552Y-103269206D01*
X156209299Y-103288191D01*
X156272920Y-103310957D01*
X156275703Y-103312399D01*
X156330072Y-103350604D01*
X156334871Y-103358165D01*
X156332918Y-103366904D01*
X156331647Y-103368421D01*
X156203456Y-103497519D01*
X156195195Y-103500975D01*
X156195095Y-103500975D01*
X156011352Y-103500056D01*
X156003097Y-103496588D01*
X155999715Y-103488650D01*
X155997920Y-103417147D01*
X155997920Y-103417146D01*
X155992962Y-103358477D01*
X155992042Y-103350604D01*
X155987054Y-103307937D01*
X155987027Y-103307664D01*
X155982108Y-103249460D01*
X155982071Y-103248780D01*
X155980301Y-103178268D01*
X155983519Y-103169911D01*
X155991703Y-103166278D01*
X155991997Y-103166274D01*
X156090527Y-103166274D01*
X156098800Y-103169701D01*
G37*
%TD.AperFunction*%
%TD*%
%TA.AperFunction,Conductor*%
%TO.N,usb_d+*%
G36*
X138022360Y-78174552D02*
G01*
X138028610Y-78180809D01*
X138099767Y-78350380D01*
X138099808Y-78359334D01*
X138099767Y-78359434D01*
X138029279Y-78527411D01*
X138022917Y-78533714D01*
X138013963Y-78533673D01*
X138012619Y-78533005D01*
X137946109Y-78494424D01*
X137943786Y-78492655D01*
X137894608Y-78444406D01*
X137894232Y-78444020D01*
X137885681Y-78434821D01*
X137852509Y-78399134D01*
X137798773Y-78366315D01*
X137798769Y-78366314D01*
X137798768Y-78366314D01*
X137722847Y-78355102D01*
X137715163Y-78350504D01*
X137712856Y-78343528D01*
X137712856Y-78245213D01*
X137716283Y-78236940D01*
X137724441Y-78233514D01*
X137792135Y-78232858D01*
X137848779Y-78228782D01*
X137896896Y-78218745D01*
X137896905Y-78218742D01*
X137896911Y-78218741D01*
X137928862Y-78207644D01*
X137950642Y-78200080D01*
X137950644Y-78200078D01*
X137950653Y-78200076D01*
X138013407Y-78174501D01*
X138022360Y-78174552D01*
G37*
%TD.AperFunction*%
%TD*%
%TA.AperFunction,Conductor*%
%TO.N,reset*%
G36*
X163898139Y-81662118D02*
G01*
X163949737Y-81709786D01*
X163949740Y-81709788D01*
X163949747Y-81709794D01*
X163997250Y-81743148D01*
X163997256Y-81743152D01*
X164043514Y-81764942D01*
X164099582Y-81785514D01*
X164165405Y-81810926D01*
X164171889Y-81817103D01*
X164172106Y-81826055D01*
X164172021Y-81826269D01*
X164102564Y-81996162D01*
X164096261Y-82002523D01*
X164096162Y-82002564D01*
X163927193Y-82071643D01*
X163918238Y-82071602D01*
X163911935Y-82065241D01*
X163911548Y-82064139D01*
X163910160Y-82059460D01*
X163890056Y-81991655D01*
X163889630Y-81989471D01*
X163883232Y-81923173D01*
X163878449Y-81865021D01*
X163858133Y-81806839D01*
X163811449Y-81747504D01*
X163809027Y-81738884D01*
X163812371Y-81731998D01*
X163881930Y-81662439D01*
X163890202Y-81659013D01*
X163898139Y-81662118D01*
G37*
%TD.AperFunction*%
%TD*%
%TA.AperFunction,Conductor*%
%TO.N,p40*%
G36*
X167055856Y-61298149D02*
G01*
X167055968Y-61298407D01*
X167126968Y-61467605D01*
X167127009Y-61476560D01*
X167126968Y-61476659D01*
X167055968Y-61645856D01*
X167049606Y-61652159D01*
X167040652Y-61652118D01*
X167040394Y-61652006D01*
X166974218Y-61622347D01*
X166973934Y-61622215D01*
X166918752Y-61595688D01*
X166918748Y-61595686D01*
X166918745Y-61595685D01*
X166869689Y-61576918D01*
X166869686Y-61576917D01*
X166869685Y-61576917D01*
X166852480Y-61573641D01*
X166811276Y-61565797D01*
X166796664Y-61565154D01*
X166739054Y-61562623D01*
X166730940Y-61558836D01*
X166727868Y-61550934D01*
X166727868Y-61393329D01*
X166731295Y-61385056D01*
X166739053Y-61381640D01*
X166811276Y-61378466D01*
X166869689Y-61367345D01*
X166918745Y-61348578D01*
X166973978Y-61322026D01*
X166974175Y-61321934D01*
X167040395Y-61292256D01*
X167049345Y-61292001D01*
X167055856Y-61298149D01*
G37*
%TD.AperFunction*%
%TD*%
%TA.AperFunction,Conductor*%
%TO.N,m4_PH*%
G36*
X157616704Y-101270364D02*
G01*
X157620130Y-101278506D01*
X157620890Y-101346297D01*
X157620892Y-101346339D01*
X157625264Y-101402985D01*
X157625265Y-101402988D01*
X157635672Y-101451130D01*
X157635672Y-101451132D01*
X157654653Y-101504883D01*
X157680381Y-101567731D01*
X157680344Y-101576685D01*
X157674080Y-101582952D01*
X157504527Y-101654102D01*
X157495573Y-101654143D01*
X157495473Y-101654102D01*
X157327477Y-101583606D01*
X157321174Y-101577244D01*
X157321215Y-101568290D01*
X157321875Y-101566961D01*
X157357761Y-101504896D01*
X157360326Y-101500459D01*
X157362064Y-101498162D01*
X157410069Y-101448821D01*
X157410357Y-101448538D01*
X157454918Y-101406643D01*
X157487436Y-101352816D01*
X157498536Y-101276942D01*
X157503125Y-101269253D01*
X157510113Y-101266937D01*
X157608431Y-101266937D01*
X157616704Y-101270364D01*
G37*
%TD.AperFunction*%
%TD*%
%TA.AperFunction,Conductor*%
%TO.N,gpio48*%
G36*
X143688192Y-65334268D02*
G01*
X143694392Y-65340854D01*
X143744890Y-65394501D01*
X143744895Y-65394506D01*
X143791000Y-65435057D01*
X143818667Y-65459391D01*
X143892445Y-65510794D01*
X143937339Y-65533865D01*
X143966213Y-65548705D01*
X143966216Y-65548706D01*
X143966222Y-65548709D01*
X144021918Y-65567150D01*
X144039999Y-65573137D01*
X144040000Y-65573137D01*
X144146194Y-65573137D01*
X144154467Y-65576564D01*
X144157894Y-65584837D01*
X144157736Y-65586756D01*
X144131995Y-65741600D01*
X144103996Y-65936439D01*
X144076009Y-66157584D01*
X144047993Y-66405366D01*
X144021408Y-66665563D01*
X144017158Y-66673445D01*
X144008580Y-66676013D01*
X144006649Y-66675650D01*
X143529727Y-66543691D01*
X143522667Y-66538182D01*
X143521235Y-66530984D01*
X143668062Y-65340851D01*
X143672475Y-65333063D01*
X143681106Y-65330675D01*
X143688192Y-65334268D01*
G37*
%TD.AperFunction*%
%TD*%
%TA.AperFunction,Conductor*%
%TO.N,/i2c_1.sda*%
G36*
X155259253Y-73648413D02*
G01*
X155259969Y-73648743D01*
X155326665Y-73682266D01*
X155327913Y-73682995D01*
X155381389Y-73718885D01*
X155428376Y-73748788D01*
X155485634Y-73769085D01*
X155485633Y-73769085D01*
X155497917Y-73770167D01*
X155559853Y-73775625D01*
X155567792Y-73779765D01*
X155570525Y-73787280D01*
X155570525Y-73885645D01*
X155567098Y-73893918D01*
X155559630Y-73897317D01*
X155486563Y-73902357D01*
X155428893Y-73918586D01*
X155381065Y-73943516D01*
X155381024Y-73943539D01*
X155326925Y-73975217D01*
X155326065Y-73975674D01*
X155259871Y-74007366D01*
X155250930Y-74007848D01*
X155244266Y-74001865D01*
X155244030Y-74001340D01*
X155233260Y-73975674D01*
X155173147Y-73832423D01*
X155173107Y-73823471D01*
X155173120Y-73823438D01*
X155243938Y-73654673D01*
X155250298Y-73648372D01*
X155259253Y-73648413D01*
G37*
%TD.AperFunction*%
%TD*%
%TA.AperFunction,Conductor*%
%TO.N,gpio42*%
G36*
X129027979Y-61226039D02*
G01*
X129028261Y-61226659D01*
X129099100Y-61395473D01*
X129099141Y-61404427D01*
X129099100Y-61404527D01*
X129028261Y-61573340D01*
X129021899Y-61579643D01*
X129012945Y-61579602D01*
X129012325Y-61579320D01*
X128945505Y-61546589D01*
X128944452Y-61546004D01*
X128890344Y-61512197D01*
X128842620Y-61484814D01*
X128842613Y-61484811D01*
X128794972Y-61469803D01*
X128784830Y-61466608D01*
X128776144Y-61465931D01*
X128710791Y-61460840D01*
X128702809Y-61456781D01*
X128700000Y-61449175D01*
X128700000Y-61350824D01*
X128703427Y-61342551D01*
X128710790Y-61339159D01*
X128784830Y-61333391D01*
X128842621Y-61315183D01*
X128890342Y-61287802D01*
X128944461Y-61253988D01*
X128945495Y-61253414D01*
X129012326Y-61220678D01*
X129021263Y-61220117D01*
X129027979Y-61226039D01*
G37*
%TD.AperFunction*%
%TD*%
%TA.AperFunction,Conductor*%
%TO.N,+5V*%
G36*
X128182251Y-111428196D02*
G01*
X128188554Y-111434557D01*
X128188793Y-111435194D01*
X128212899Y-111505591D01*
X128213228Y-111506741D01*
X128227583Y-111568910D01*
X128241967Y-111622019D01*
X128251822Y-111640941D01*
X128269956Y-111675757D01*
X128269958Y-111675759D01*
X128318231Y-111732191D01*
X128321005Y-111740705D01*
X128317613Y-111748069D01*
X128248069Y-111817613D01*
X128239796Y-111821040D01*
X128232191Y-111818231D01*
X128175759Y-111769958D01*
X128175757Y-111769956D01*
X128133734Y-111748069D01*
X128122019Y-111741967D01*
X128068910Y-111727583D01*
X128006741Y-111713228D01*
X128005591Y-111712899D01*
X127935194Y-111688793D01*
X127928478Y-111682871D01*
X127927916Y-111673933D01*
X127928140Y-111673334D01*
X127997435Y-111503836D01*
X128003738Y-111497476D01*
X128003780Y-111497458D01*
X128173299Y-111428155D01*
X128182251Y-111428196D01*
G37*
%TD.AperFunction*%
%TD*%
%TA.AperFunction,Conductor*%
%TO.N,reset*%
G36*
X120157449Y-86103427D02*
G01*
X120160841Y-86110791D01*
X120166608Y-86184829D01*
X120184811Y-86242613D01*
X120184814Y-86242620D01*
X120212197Y-86290344D01*
X120246004Y-86344452D01*
X120246589Y-86345505D01*
X120279320Y-86412325D01*
X120279882Y-86421262D01*
X120273960Y-86427979D01*
X120273340Y-86428261D01*
X120104527Y-86499100D01*
X120095573Y-86499141D01*
X120095473Y-86499100D01*
X119926659Y-86428261D01*
X119920356Y-86421899D01*
X119920397Y-86412945D01*
X119920670Y-86412343D01*
X119953414Y-86345495D01*
X119953990Y-86344459D01*
X119987802Y-86290342D01*
X120015183Y-86242621D01*
X120033391Y-86184830D01*
X120039159Y-86110790D01*
X120043218Y-86102809D01*
X120050824Y-86100000D01*
X120149176Y-86100000D01*
X120157449Y-86103427D01*
G37*
%TD.AperFunction*%
%TD*%
%TA.AperFunction,Conductor*%
%TO.N,m2_PH*%
G36*
X130382251Y-90029276D02*
G01*
X130388554Y-90035637D01*
X130388793Y-90036274D01*
X130412899Y-90106671D01*
X130413228Y-90107821D01*
X130427583Y-90169990D01*
X130441967Y-90223099D01*
X130451822Y-90242021D01*
X130469956Y-90276837D01*
X130469958Y-90276839D01*
X130518231Y-90333271D01*
X130521005Y-90341785D01*
X130517613Y-90349149D01*
X130448069Y-90418693D01*
X130439796Y-90422120D01*
X130432191Y-90419311D01*
X130375759Y-90371038D01*
X130375757Y-90371036D01*
X130333734Y-90349149D01*
X130322019Y-90343047D01*
X130268910Y-90328663D01*
X130206741Y-90314308D01*
X130205591Y-90313979D01*
X130135194Y-90289873D01*
X130128478Y-90283951D01*
X130127916Y-90275013D01*
X130128140Y-90274414D01*
X130197435Y-90104916D01*
X130203738Y-90098556D01*
X130203780Y-90098538D01*
X130373299Y-90029235D01*
X130382251Y-90029276D01*
G37*
%TD.AperFunction*%
%TD*%
%TA.AperFunction,Conductor*%
%TO.N,p38*%
G36*
X164427986Y-61326023D02*
G01*
X164428158Y-61326413D01*
X164499100Y-61495473D01*
X164499141Y-61504428D01*
X164499100Y-61504527D01*
X164428379Y-61673058D01*
X164422017Y-61679361D01*
X164413063Y-61679320D01*
X164412190Y-61678910D01*
X164345657Y-61644292D01*
X164344115Y-61643331D01*
X164291584Y-61604611D01*
X164245632Y-61571221D01*
X164245628Y-61571218D01*
X164245625Y-61571217D01*
X164245624Y-61571216D01*
X164189131Y-61548050D01*
X164114615Y-61540446D01*
X164106733Y-61536196D01*
X164104103Y-61528806D01*
X164104103Y-61430434D01*
X164107530Y-61422161D01*
X164115144Y-61418752D01*
X164186915Y-61414712D01*
X164244385Y-61401224D01*
X164292385Y-61379651D01*
X164346515Y-61350880D01*
X164347043Y-61350617D01*
X164412453Y-61320322D01*
X164421399Y-61319956D01*
X164427986Y-61326023D01*
G37*
%TD.AperFunction*%
%TD*%
%TA.AperFunction,Conductor*%
%TO.N,/connectors.enc2.cs*%
G36*
X132709263Y-89824441D02*
G01*
X132709278Y-89824455D01*
X132760758Y-89876115D01*
X132760773Y-89876130D01*
X132802995Y-89918850D01*
X132803006Y-89918876D01*
X132803014Y-89918869D01*
X132839403Y-89955853D01*
X132881635Y-89998584D01*
X132881636Y-89998584D01*
X132933217Y-90050347D01*
X132936629Y-90058627D01*
X132933243Y-90066838D01*
X132804157Y-90197221D01*
X132795901Y-90200689D01*
X132795802Y-90200689D01*
X132613551Y-90200047D01*
X132605290Y-90196591D01*
X132601892Y-90188306D01*
X132602023Y-90186600D01*
X132611641Y-90122906D01*
X132612339Y-90120329D01*
X132636174Y-90060566D01*
X132656200Y-90008867D01*
X132655124Y-89958380D01*
X132655124Y-89958379D01*
X132655123Y-89958378D01*
X132621590Y-89909010D01*
X132619776Y-89900241D01*
X132622993Y-89894165D01*
X132692718Y-89824440D01*
X132700990Y-89821014D01*
X132709263Y-89824441D01*
G37*
%TD.AperFunction*%
%TD*%
%TA.AperFunction,Conductor*%
%TO.N,gpio36*%
G36*
X144127979Y-61326039D02*
G01*
X144128261Y-61326659D01*
X144199100Y-61495473D01*
X144199141Y-61504427D01*
X144199100Y-61504527D01*
X144128261Y-61673340D01*
X144121899Y-61679643D01*
X144112945Y-61679602D01*
X144112325Y-61679320D01*
X144045505Y-61646589D01*
X144044452Y-61646004D01*
X143990344Y-61612197D01*
X143942620Y-61584814D01*
X143942613Y-61584811D01*
X143894972Y-61569803D01*
X143884830Y-61566608D01*
X143876144Y-61565931D01*
X143810791Y-61560840D01*
X143802809Y-61556781D01*
X143800000Y-61549175D01*
X143800000Y-61450824D01*
X143803427Y-61442551D01*
X143810790Y-61439159D01*
X143884830Y-61433391D01*
X143942621Y-61415183D01*
X143990342Y-61387802D01*
X144044461Y-61353988D01*
X144045495Y-61353414D01*
X144112326Y-61320678D01*
X144121263Y-61320117D01*
X144127979Y-61326039D01*
G37*
%TD.AperFunction*%
%TD*%
%TA.AperFunction,Conductor*%
%TO.N,+3.3V*%
G36*
X139787417Y-74899937D02*
G01*
X139795672Y-74903405D01*
X139799058Y-74911696D01*
X139799023Y-74912545D01*
X139792283Y-74999134D01*
X139791925Y-75001235D01*
X139773740Y-75069571D01*
X139773402Y-75070634D01*
X139751400Y-75129896D01*
X139732801Y-75199793D01*
X139732800Y-75199795D01*
X139725840Y-75289208D01*
X139721781Y-75297190D01*
X139714175Y-75300000D01*
X139485825Y-75300000D01*
X139477552Y-75296573D01*
X139474160Y-75289208D01*
X139473719Y-75283551D01*
X139467200Y-75199796D01*
X139448600Y-75129898D01*
X139426598Y-75070634D01*
X139426259Y-75069571D01*
X139425307Y-75065995D01*
X139408072Y-75001228D01*
X139407717Y-74999142D01*
X139400976Y-74912543D01*
X139403751Y-74904031D01*
X139411733Y-74899972D01*
X139412579Y-74899937D01*
X139600000Y-74899000D01*
X139787417Y-74899937D01*
G37*
%TD.AperFunction*%
%TD*%
%TA.AperFunction,Conductor*%
%TO.N,/i2c_1.scl*%
G36*
X154369745Y-72570982D02*
G01*
X154539204Y-72640261D01*
X154545565Y-72646564D01*
X154545606Y-72646663D01*
X154614885Y-72816122D01*
X154614844Y-72825077D01*
X154608483Y-72831380D01*
X154607845Y-72831619D01*
X154537456Y-72855722D01*
X154536299Y-72856053D01*
X154474123Y-72870411D01*
X154421020Y-72884793D01*
X154383175Y-72904504D01*
X154367283Y-72912782D01*
X154367281Y-72912783D01*
X154367280Y-72912784D01*
X154310851Y-72961057D01*
X154302336Y-72963831D01*
X154294972Y-72960439D01*
X154225427Y-72890894D01*
X154222000Y-72882621D01*
X154224807Y-72875018D01*
X154273085Y-72818583D01*
X154301073Y-72764844D01*
X154315456Y-72711739D01*
X154315457Y-72711737D01*
X154329812Y-72649570D01*
X154330140Y-72648420D01*
X154354248Y-72578020D01*
X154360170Y-72571305D01*
X154369108Y-72570743D01*
X154369745Y-72570982D01*
G37*
%TD.AperFunction*%
%TD*%
%TA.AperFunction,Conductor*%
%TO.N,GND*%
G36*
X154185370Y-61067849D02*
G01*
X154186946Y-61070130D01*
X154252487Y-61194187D01*
X154252490Y-61194192D01*
X154324961Y-61312825D01*
X154324970Y-61312840D01*
X154397448Y-61412949D01*
X154397453Y-61412955D01*
X154397455Y-61412957D01*
X154469940Y-61494535D01*
X154532962Y-61549342D01*
X154536955Y-61557355D01*
X154534112Y-61565847D01*
X154533556Y-61566442D01*
X154457640Y-61642358D01*
X154457533Y-61642464D01*
X154402057Y-61696527D01*
X154346540Y-61765789D01*
X154291028Y-61850196D01*
X154235514Y-61949763D01*
X154235507Y-61949777D01*
X154187647Y-62048680D01*
X154180958Y-62054635D01*
X154172019Y-62054116D01*
X154168357Y-62051342D01*
X153990161Y-61850197D01*
X153854024Y-61696527D01*
X153687062Y-61508062D01*
X153684141Y-61499597D01*
X153688061Y-61491547D01*
X154168857Y-61066825D01*
X154177324Y-61063917D01*
X154185370Y-61067849D01*
G37*
%TD.AperFunction*%
%TD*%
%TA.AperFunction,Conductor*%
%TO.N,+3.3V*%
G36*
X121633601Y-112946262D02*
G01*
X121633922Y-112946596D01*
X121682204Y-112998862D01*
X121682907Y-112999698D01*
X121718668Y-113046504D01*
X121719013Y-113046980D01*
X121748231Y-113089489D01*
X121748243Y-113089506D01*
X121761054Y-113106273D01*
X121784507Y-113136968D01*
X121784510Y-113136971D01*
X121784513Y-113136975D01*
X121833828Y-113190359D01*
X121836925Y-113198761D01*
X121833548Y-113206530D01*
X121704157Y-113337221D01*
X121695901Y-113340689D01*
X121695802Y-113340689D01*
X121513494Y-113340047D01*
X121505233Y-113336591D01*
X121501835Y-113328306D01*
X121501959Y-113326648D01*
X121510937Y-113265459D01*
X121511594Y-113262954D01*
X121533884Y-113205146D01*
X121552330Y-113155121D01*
X121550524Y-113106275D01*
X121539028Y-113089489D01*
X121518015Y-113058806D01*
X121516167Y-113050044D01*
X121519393Y-113043924D01*
X121617056Y-112946261D01*
X121625328Y-112942835D01*
X121633601Y-112946262D01*
G37*
%TD.AperFunction*%
%TD*%
%TA.AperFunction,Conductor*%
%TO.N,p33*%
G36*
X159250307Y-65684068D02*
G01*
X159254871Y-65688676D01*
X159295763Y-65763553D01*
X159295775Y-65763574D01*
X159346824Y-65844298D01*
X159346830Y-65844307D01*
X159397886Y-65912291D01*
X159397891Y-65912297D01*
X159448942Y-65967521D01*
X159448943Y-65967522D01*
X159495783Y-66006492D01*
X159499951Y-66014416D01*
X159500000Y-66015485D01*
X159500000Y-66186959D01*
X159498520Y-66192655D01*
X159452000Y-66276126D01*
X159404003Y-66382586D01*
X159403993Y-66382609D01*
X159355999Y-66509396D01*
X159355998Y-66509400D01*
X159307996Y-66656545D01*
X159264093Y-66809732D01*
X159258520Y-66816741D01*
X159249623Y-66817756D01*
X159247076Y-66816687D01*
X158769112Y-66545732D01*
X158763605Y-66538671D01*
X158764665Y-66529852D01*
X159234389Y-65688578D01*
X159241413Y-65683027D01*
X159250307Y-65684068D01*
G37*
%TD.AperFunction*%
%TD*%
%TA.AperFunction,Conductor*%
%TO.N,p37*%
G36*
X164343565Y-66026437D02*
G01*
X164346493Y-66030891D01*
X164383514Y-66131760D01*
X164427029Y-66235478D01*
X164470543Y-66324353D01*
X164514058Y-66398386D01*
X164557573Y-66457575D01*
X164557577Y-66457580D01*
X164634173Y-66534175D01*
X164637600Y-66542448D01*
X164634194Y-66550700D01*
X164581943Y-66603218D01*
X164521449Y-66680847D01*
X164460980Y-66775261D01*
X164460971Y-66775275D01*
X164400489Y-66886531D01*
X164346895Y-67000027D01*
X164340263Y-67006045D01*
X164331319Y-67005611D01*
X164328272Y-67003528D01*
X163847802Y-66548761D01*
X163844149Y-66540585D01*
X163847348Y-66532221D01*
X163847359Y-66532209D01*
X163974383Y-66398386D01*
X164327024Y-66026867D01*
X164335205Y-66023227D01*
X164343565Y-66026437D01*
G37*
%TD.AperFunction*%
%TD*%
%TA.AperFunction,Conductor*%
%TO.N,+5V*%
G36*
X121843039Y-60519685D02*
G01*
X121888794Y-60572489D01*
X121900000Y-60624000D01*
X121900000Y-70490535D01*
X121880315Y-70557574D01*
X121827511Y-70603329D01*
X121791380Y-70613577D01*
X117993979Y-71088252D01*
X117925016Y-71077035D01*
X117873065Y-71030314D01*
X117863939Y-71012423D01*
X117204951Y-69412024D01*
X117197651Y-69387212D01*
X117005162Y-68339216D01*
X117012412Y-68269726D01*
X117056082Y-68215185D01*
X117070812Y-68206342D01*
X117108587Y-68187095D01*
X117187095Y-68108587D01*
X117237500Y-68009661D01*
X117237500Y-68009659D01*
X117237501Y-68009658D01*
X117253027Y-67911631D01*
X117256618Y-67904054D01*
X117256523Y-67903905D01*
X117255204Y-67898041D01*
X117490963Y-67898041D01*
X117498477Y-67915136D01*
X117499500Y-67931029D01*
X117499500Y-68051874D01*
X117506489Y-68087014D01*
X117506490Y-68087015D01*
X117506490Y-68087016D01*
X117506491Y-68087017D01*
X117533124Y-68126876D01*
X117572983Y-68153509D01*
X117572984Y-68153509D01*
X117572985Y-68153510D01*
X117608125Y-68160499D01*
X117608129Y-68160500D01*
X117608130Y-68160500D01*
X118631871Y-68160500D01*
X118631872Y-68160499D01*
X118643692Y-68158148D01*
X118667014Y-68153510D01*
X118667014Y-68153509D01*
X118667017Y-68153509D01*
X118706876Y-68126876D01*
X118733509Y-68087017D01*
X118740500Y-68051870D01*
X118740500Y-65028130D01*
X118740499Y-65028125D01*
X120039500Y-65028125D01*
X120039500Y-68051874D01*
X120046489Y-68087014D01*
X120046490Y-68087015D01*
X120046490Y-68087016D01*
X120046491Y-68087017D01*
X120073124Y-68126876D01*
X120112983Y-68153509D01*
X120112984Y-68153509D01*
X120112985Y-68153510D01*
X120148125Y-68160499D01*
X120148129Y-68160500D01*
X120148130Y-68160500D01*
X121171871Y-68160500D01*
X121171872Y-68160499D01*
X121183692Y-68158148D01*
X121207014Y-68153510D01*
X121207014Y-68153509D01*
X121207017Y-68153509D01*
X121246876Y-68126876D01*
X121273509Y-68087017D01*
X121280500Y-68051870D01*
X121280500Y-65028130D01*
X121280436Y-65027809D01*
X121273510Y-64992985D01*
X121273509Y-64992984D01*
X121273509Y-64992983D01*
X121246876Y-64953124D01*
X121207017Y-64926491D01*
X121207016Y-64926490D01*
X121207015Y-64926490D01*
X121207014Y-64926489D01*
X121171874Y-64919500D01*
X121171870Y-64919500D01*
X120148130Y-64919500D01*
X120148125Y-64919500D01*
X120112985Y-64926489D01*
X120112984Y-64926490D01*
X120073124Y-64953124D01*
X120046490Y-64992984D01*
X120046489Y-64992985D01*
X120039500Y-65028125D01*
X118740499Y-65028125D01*
X118740436Y-65027809D01*
X118733510Y-64992985D01*
X118733509Y-64992984D01*
X118733509Y-64992983D01*
X118706876Y-64953124D01*
X118667017Y-64926491D01*
X118667016Y-64926490D01*
X118667015Y-64926490D01*
X118667014Y-64926489D01*
X118631874Y-64919500D01*
X118631870Y-64919500D01*
X117608130Y-64919500D01*
X117608125Y-64919500D01*
X117572985Y-64926489D01*
X117572984Y-64926490D01*
X117533124Y-64953124D01*
X117506490Y-64992984D01*
X117506489Y-64992985D01*
X117499500Y-65028125D01*
X117499500Y-67868970D01*
X117490963Y-67898041D01*
X117255204Y-67898041D01*
X117253027Y-67888368D01*
X117237501Y-67790341D01*
X117237500Y-67790339D01*
X117187095Y-67691413D01*
X117187092Y-67691410D01*
X117187090Y-67691407D01*
X117108592Y-67612909D01*
X117108588Y-67612906D01*
X117108587Y-67612905D01*
X117009661Y-67562500D01*
X117009659Y-67562499D01*
X117009658Y-67562499D01*
X116944793Y-67552225D01*
X116881659Y-67522295D01*
X116844728Y-67462984D01*
X116842232Y-67452153D01*
X116302040Y-64511106D01*
X116300000Y-64488705D01*
X116300000Y-60624000D01*
X116319685Y-60556961D01*
X116372489Y-60511206D01*
X116424000Y-60500000D01*
X121776000Y-60500000D01*
X121843039Y-60519685D01*
G37*
%TD.AperFunction*%
%TD*%
%TA.AperFunction,Conductor*%
%TO.N,GND*%
G36*
X149327979Y-66326039D02*
G01*
X149328261Y-66326659D01*
X149399100Y-66495473D01*
X149399141Y-66504427D01*
X149399100Y-66504527D01*
X149328261Y-66673340D01*
X149321899Y-66679643D01*
X149312945Y-66679602D01*
X149312325Y-66679320D01*
X149245505Y-66646589D01*
X149244452Y-66646004D01*
X149190344Y-66612197D01*
X149142620Y-66584814D01*
X149142613Y-66584811D01*
X149094972Y-66569803D01*
X149084830Y-66566608D01*
X149076144Y-66565931D01*
X149010791Y-66560840D01*
X149002809Y-66556781D01*
X149000000Y-66549175D01*
X149000000Y-66450824D01*
X149003427Y-66442551D01*
X149010790Y-66439159D01*
X149084830Y-66433391D01*
X149142621Y-66415183D01*
X149190342Y-66387802D01*
X149244461Y-66353988D01*
X149245495Y-66353414D01*
X149312326Y-66320678D01*
X149321263Y-66320117D01*
X149327979Y-66326039D01*
G37*
%TD.AperFunction*%
%TD*%
%TA.AperFunction,Conductor*%
%TO.N,/connectors.enc_sda*%
G36*
X122987054Y-114020397D02*
G01*
X122987666Y-114020675D01*
X122999882Y-114026659D01*
X123054490Y-114053408D01*
X123055541Y-114053991D01*
X123109657Y-114087802D01*
X123157378Y-114115183D01*
X123215169Y-114133391D01*
X123289209Y-114139159D01*
X123297191Y-114143218D01*
X123300000Y-114150824D01*
X123300000Y-114249175D01*
X123296573Y-114257448D01*
X123289209Y-114260840D01*
X123215169Y-114266608D01*
X123157385Y-114284811D01*
X123157378Y-114284814D01*
X123109661Y-114312193D01*
X123055544Y-114346005D01*
X123054492Y-114346589D01*
X122987674Y-114379320D01*
X122978737Y-114379882D01*
X122972020Y-114373960D01*
X122971738Y-114373340D01*
X122900898Y-114204525D01*
X122900858Y-114195573D01*
X122900871Y-114195540D01*
X122971738Y-114026658D01*
X122978100Y-114020356D01*
X122987054Y-114020397D01*
G37*
%TD.AperFunction*%
%TD*%
%TA.AperFunction,Conductor*%
%TO.N,reset*%
G36*
X142367809Y-65481768D02*
G01*
X142413959Y-65521247D01*
X142424241Y-65530043D01*
X142466266Y-65551930D01*
X142477980Y-65558031D01*
X142531086Y-65572415D01*
X142564094Y-65580036D01*
X142593268Y-65586773D01*
X142594393Y-65587094D01*
X142664805Y-65611206D01*
X142671521Y-65617128D01*
X142672083Y-65626066D01*
X142671844Y-65626703D01*
X142602564Y-65796162D01*
X142596261Y-65802523D01*
X142596162Y-65802564D01*
X142426703Y-65871844D01*
X142417748Y-65871803D01*
X142411445Y-65865442D01*
X142411211Y-65864820D01*
X142387094Y-65794393D01*
X142386773Y-65793268D01*
X142380036Y-65764094D01*
X142372415Y-65731086D01*
X142358031Y-65677980D01*
X142330042Y-65624240D01*
X142281768Y-65567809D01*
X142278994Y-65559294D01*
X142282385Y-65551931D01*
X142351931Y-65482385D01*
X142360203Y-65478959D01*
X142367809Y-65481768D01*
G37*
%TD.AperFunction*%
%TD*%
%TA.AperFunction,Conductor*%
%TO.N,+3.3V*%
G36*
X126681974Y-113267971D02*
G01*
X126711614Y-113294495D01*
X126736301Y-113316587D01*
X126736303Y-113316588D01*
X126736304Y-113316589D01*
X126736305Y-113316590D01*
X126752084Y-113326431D01*
X126787012Y-113348215D01*
X126787017Y-113348217D01*
X126787016Y-113348217D01*
X126810052Y-113357065D01*
X126836716Y-113367308D01*
X126895968Y-113385605D01*
X126896555Y-113385803D01*
X126965157Y-113411038D01*
X126971739Y-113417111D01*
X126972099Y-113426058D01*
X126971948Y-113426447D01*
X126902564Y-113596162D01*
X126896261Y-113602523D01*
X126896162Y-113602564D01*
X126726447Y-113671948D01*
X126717492Y-113671907D01*
X126711189Y-113665546D01*
X126711038Y-113665157D01*
X126685803Y-113596555D01*
X126685605Y-113595968D01*
X126667309Y-113536720D01*
X126667308Y-113536716D01*
X126648215Y-113487012D01*
X126632569Y-113461926D01*
X126616590Y-113436305D01*
X126616589Y-113436304D01*
X126616588Y-113436303D01*
X126616587Y-113436301D01*
X126571220Y-113385605D01*
X126567971Y-113381974D01*
X126565008Y-113373524D01*
X126568416Y-113365900D01*
X126665900Y-113268416D01*
X126674172Y-113264990D01*
X126681974Y-113267971D01*
G37*
%TD.AperFunction*%
%TD*%
%TA.AperFunction,Conductor*%
%TO.N,/i2c_1.sda*%
G36*
X157282251Y-70782740D02*
G01*
X157288554Y-70789101D01*
X157288793Y-70789738D01*
X157312899Y-70860135D01*
X157313228Y-70861285D01*
X157327583Y-70923454D01*
X157341967Y-70976563D01*
X157351822Y-70995485D01*
X157369956Y-71030301D01*
X157369958Y-71030303D01*
X157418231Y-71086735D01*
X157421005Y-71095249D01*
X157417613Y-71102613D01*
X157348069Y-71172157D01*
X157339796Y-71175584D01*
X157332191Y-71172775D01*
X157275759Y-71124502D01*
X157275757Y-71124500D01*
X157233734Y-71102613D01*
X157222019Y-71096511D01*
X157168910Y-71082127D01*
X157106741Y-71067772D01*
X157105591Y-71067443D01*
X157035194Y-71043337D01*
X157028478Y-71037415D01*
X157027916Y-71028477D01*
X157028140Y-71027878D01*
X157097435Y-70858380D01*
X157103738Y-70852020D01*
X157103780Y-70852002D01*
X157273299Y-70782699D01*
X157282251Y-70782740D01*
G37*
%TD.AperFunction*%
%TD*%
%TA.AperFunction,Conductor*%
%TO.N,m1_PH*%
G36*
X126327979Y-90749429D02*
G01*
X126328261Y-90750049D01*
X126399100Y-90918863D01*
X126399141Y-90927817D01*
X126399100Y-90927917D01*
X126328261Y-91096730D01*
X126321899Y-91103033D01*
X126312945Y-91102992D01*
X126312325Y-91102710D01*
X126245505Y-91069979D01*
X126244452Y-91069394D01*
X126190344Y-91035587D01*
X126142620Y-91008204D01*
X126142613Y-91008201D01*
X126094972Y-90993193D01*
X126084830Y-90989998D01*
X126076144Y-90989321D01*
X126010791Y-90984230D01*
X126002809Y-90980171D01*
X126000000Y-90972565D01*
X126000000Y-90874214D01*
X126003427Y-90865941D01*
X126010790Y-90862549D01*
X126084830Y-90856781D01*
X126142621Y-90838573D01*
X126190342Y-90811192D01*
X126244461Y-90777378D01*
X126245495Y-90776804D01*
X126312326Y-90744068D01*
X126321263Y-90743507D01*
X126327979Y-90749429D01*
G37*
%TD.AperFunction*%
%TD*%
%TA.AperFunction,Conductor*%
%TO.N,sda*%
G36*
X168727979Y-96226039D02*
G01*
X168728261Y-96226659D01*
X168799100Y-96395473D01*
X168799141Y-96404427D01*
X168799100Y-96404527D01*
X168728261Y-96573340D01*
X168721899Y-96579643D01*
X168712945Y-96579602D01*
X168712325Y-96579320D01*
X168645505Y-96546589D01*
X168644452Y-96546004D01*
X168590344Y-96512197D01*
X168542620Y-96484814D01*
X168542613Y-96484811D01*
X168494972Y-96469803D01*
X168484830Y-96466608D01*
X168476144Y-96465931D01*
X168410791Y-96460840D01*
X168402809Y-96456781D01*
X168400000Y-96449175D01*
X168400000Y-96350824D01*
X168403427Y-96342551D01*
X168410790Y-96339159D01*
X168484830Y-96333391D01*
X168542621Y-96315183D01*
X168590342Y-96287802D01*
X168644461Y-96253988D01*
X168645495Y-96253414D01*
X168712326Y-96220678D01*
X168721263Y-96220117D01*
X168727979Y-96226039D01*
G37*
%TD.AperFunction*%
%TD*%
%TA.AperFunction,Conductor*%
%TO.N,GND*%
G36*
X159264625Y-61011682D02*
G01*
X159266987Y-61015089D01*
X159316490Y-61123615D01*
X159316492Y-61123619D01*
X159372958Y-61231281D01*
X159372965Y-61231294D01*
X159372970Y-61231302D01*
X159429455Y-61322863D01*
X159429459Y-61322869D01*
X159429462Y-61322873D01*
X159429463Y-61322875D01*
X159485938Y-61398285D01*
X159534548Y-61449305D01*
X159537774Y-61457659D01*
X159534350Y-61465649D01*
X159457575Y-61542424D01*
X159418059Y-61604003D01*
X159418057Y-61604006D01*
X159378542Y-61680530D01*
X159339025Y-61772004D01*
X159299513Y-61878411D01*
X159265905Y-61981633D01*
X159260085Y-61988439D01*
X159251158Y-61989136D01*
X159246509Y-61986286D01*
X158767579Y-61507575D01*
X158764150Y-61499303D01*
X158767573Y-61491031D01*
X159248080Y-61011661D01*
X159256356Y-61008245D01*
X159264625Y-61011682D01*
G37*
%TD.AperFunction*%
%TD*%
%TA.AperFunction,Conductor*%
%TO.N,+5V*%
G36*
X113826703Y-101028156D02*
G01*
X113996162Y-101097435D01*
X114002523Y-101103738D01*
X114002564Y-101103837D01*
X114071843Y-101273296D01*
X114071802Y-101282251D01*
X114065441Y-101288554D01*
X114064803Y-101288793D01*
X113994414Y-101312896D01*
X113993257Y-101313227D01*
X113931081Y-101327585D01*
X113877978Y-101341967D01*
X113840133Y-101361678D01*
X113824241Y-101369956D01*
X113824239Y-101369957D01*
X113824238Y-101369958D01*
X113767809Y-101418231D01*
X113759294Y-101421005D01*
X113751930Y-101417613D01*
X113682385Y-101348068D01*
X113678958Y-101339795D01*
X113681765Y-101332192D01*
X113730043Y-101275757D01*
X113758031Y-101222018D01*
X113772414Y-101168913D01*
X113772415Y-101168911D01*
X113786770Y-101106744D01*
X113787098Y-101105594D01*
X113811206Y-101035194D01*
X113817128Y-101028479D01*
X113826066Y-101027917D01*
X113826703Y-101028156D01*
G37*
%TD.AperFunction*%
%TD*%
%TA.AperFunction,Conductor*%
%TO.N,p32*%
G36*
X156725213Y-61011071D02*
G01*
X156727331Y-61013976D01*
X156784485Y-61124909D01*
X156784490Y-61124918D01*
X156784493Y-61124923D01*
X156784497Y-61124932D01*
X156848961Y-61233260D01*
X156848965Y-61233266D01*
X156848970Y-61233274D01*
X156913455Y-61324839D01*
X156977939Y-61399605D01*
X157033249Y-61449325D01*
X157037110Y-61457404D01*
X157034128Y-61465848D01*
X157033700Y-61466299D01*
X156957570Y-61542429D01*
X156910063Y-61602962D01*
X156910059Y-61602969D01*
X156862544Y-61678973D01*
X156815029Y-61770437D01*
X156767515Y-61877356D01*
X156726491Y-61983025D01*
X156720302Y-61989498D01*
X156711350Y-61989698D01*
X156707314Y-61987067D01*
X156227579Y-61507575D01*
X156224151Y-61499304D01*
X156227576Y-61491030D01*
X156227587Y-61491018D01*
X156708668Y-61011050D01*
X156716944Y-61007635D01*
X156725213Y-61011071D01*
G37*
%TD.AperFunction*%
%TD*%
%TA.AperFunction,Conductor*%
%TO.N,/connectors.enc3.cs*%
G36*
X151582251Y-112128196D02*
G01*
X151588554Y-112134557D01*
X151588793Y-112135194D01*
X151612899Y-112205591D01*
X151613228Y-112206741D01*
X151627583Y-112268910D01*
X151641967Y-112322019D01*
X151651822Y-112340941D01*
X151669956Y-112375757D01*
X151669958Y-112375759D01*
X151718231Y-112432191D01*
X151721005Y-112440705D01*
X151717613Y-112448069D01*
X151648069Y-112517613D01*
X151639796Y-112521040D01*
X151632191Y-112518231D01*
X151575759Y-112469958D01*
X151575757Y-112469956D01*
X151533734Y-112448069D01*
X151522019Y-112441967D01*
X151468910Y-112427583D01*
X151406741Y-112413228D01*
X151405591Y-112412899D01*
X151335194Y-112388793D01*
X151328478Y-112382871D01*
X151327916Y-112373933D01*
X151328140Y-112373334D01*
X151397435Y-112203836D01*
X151403738Y-112197476D01*
X151403780Y-112197458D01*
X151573299Y-112128155D01*
X151582251Y-112128196D01*
G37*
%TD.AperFunction*%
%TD*%
M02*
