M48
; DRILL file {KiCad 8.0.6} date 2024-10-16T15:49:12-0400
; FORMAT={-:-/ absolute / inch / decimal}
; #@! TF.CreationDate,2024-10-16T15:49:12-04:00
; #@! TF.GenerationSoftware,Kicad,Pcbnew,8.0.6
; #@! TF.FileFunction,Plated,1,4,PTH
FMAT,2
INCH
; #@! TA.AperFunction,Plated,PTH,ViaDrill
T1C0.0118
; #@! TA.AperFunction,Plated,PTH,ComponentDrill
T2C0.0120
; #@! TA.AperFunction,Plated,PTH,ComponentDrill
T3C0.0240
; #@! TA.AperFunction,Plated,PTH,ComponentDrill
T4C0.0469
; #@! TA.AperFunction,Plated,PTH,ComponentDrill
T5C0.0472
%
G90
G05
T1
X4.4055Y-4.126
X4.4134Y-4.2953
X4.4882Y-3.9803
X4.4882Y-4.0315
X4.498Y-4.2126
X4.5193Y-4.1177
X4.5354Y-4.3425
X4.5398Y-4.2402
X4.5435Y-4.1197
X4.5632Y-4.2436
X4.5665Y-4.1142
X4.5868Y-4.242
X4.5994Y-4.4537
X4.6024Y-2.6732
X4.6157Y-3.9566
X4.622Y-2.4409
X4.622Y-3.3543
X4.626Y-3.4331
X4.626Y-3.937
X4.6299Y-2.5157
X4.6319Y-3.563
X4.6379Y-4.3348
X4.6388Y-4.4547
X4.6457Y-2.8307
X4.6535Y-3.1732
X4.6535Y-3.563
X4.6575Y-4.5315
X4.6772Y-2.5354
X4.6969Y-3.122
X4.7008Y-2.3937
X4.7008Y-2.4921
X4.7159Y-4.405
X4.7283Y-2.5354
X4.7283Y-3.3346
X4.7283Y-3.4055
X4.7328Y-4.0797
X4.7343Y-4.0443
X4.748Y-4.064
X4.7502Y-2.6186
X4.7795Y-2.4409
X4.7795Y-2.5157
X4.7913Y-4.4622
X4.8188Y-2.689
X4.8189Y-2.6299
X4.8386Y-3.4331
X4.8386Y-4.4961
X4.8543Y-4.4764
X4.8622Y-4.3661
X4.874Y-3.1693
X4.874Y-3.2244
X4.8819Y-2.4213
X4.8858Y-3.6181
X4.888Y-3.9859
X4.888Y-4.0233
X4.888Y-4.0627
X4.8898Y-4.3661
X4.9016Y-3.1417
X4.9016Y-3.1969
X4.9016Y-3.252
X4.9173Y-2.6142
X4.9201Y-3.9284
X4.9213Y-3.6181
X4.9252Y-4.4173
X4.9291Y-3.1693
X4.9299Y-3.2244
X4.939Y-3.6791
X4.9409Y-3.9173
X4.9488Y-3.6181
X4.9567Y-3.1417
X4.9567Y-3.1969
X4.9567Y-3.252
X4.9657Y-4.4713
X4.9744Y-3.6791
X4.9764Y-3.5797
X4.9778Y-3.9281
X4.9803Y-2.4252
X4.9843Y-3.1693
X4.9843Y-3.2244
X4.9961Y-3.6417
X4.9961Y-4.4724
X4.9974Y-3.9094
X5.0005Y-3.5434
X5.0098Y-3.6791
X5.0118Y-3.5906
X5.0181Y-4.251
X5.0197Y-3.9173
X5.0237Y-3.5476
X5.0248Y-4.2283
X5.0394Y-4.3898
X5.0433Y-3.6791
X5.0472Y-3.5446
X5.0591Y-2.5512
X5.0752Y-3.5474
X5.0785Y-4.1142
X5.0827Y-2.4173
X5.0846Y-3.6791
X5.0886Y-3.7224
X5.0886Y-3.7598
X5.0984Y-3.5433
X5.1112Y-4.4577
X5.1142Y-2.622
X5.1142Y-3.9488
X5.1142Y-3.9724
X5.126Y-3.5473
X5.1506Y-4.4587
X5.1535Y-3.5472
X5.1575Y-3.3622
X5.1575Y-3.3858
X5.1576Y-3.3386
X5.1654Y-4.5079
X5.1772Y-3.5472
X5.189Y-2.4252
X5.2047Y-3.5472
X5.2073Y-3.0466
X5.2081Y-3.1005
X5.2126Y-3.6378
X5.2281Y-3.0618
X5.2283Y-3.109
X5.2283Y-3.5512
X5.2284Y-3.0854
X5.2289Y-3.0382
X5.2313Y-4.4094
X5.2446Y-4.0797
X5.2461Y-4.0443
X5.2482Y-3.1005
X5.2489Y-3.0466
X5.2598Y-4.064
X5.2795Y-2.4213
X5.2795Y-2.6181
X5.3386Y-4.4921
X5.3583Y-3.4921
X5.3597Y-4.4816
X5.378Y-2.4213
X5.378Y-2.5908
X5.3808Y-4.471
X5.3937Y-3.4921
X5.3998Y-3.9859
X5.3998Y-4.0233
X5.3998Y-4.0627
X5.4016Y-3.9606
X5.4148Y-3.1005
X5.4168Y-3.0466
X5.4173Y-3.4921
X5.4173Y-3.5394
X5.4242Y-3.186
X5.4252Y-3.1614
X5.4272Y-4.5335
X5.4357Y-3.1084
X5.4367Y-3.0612
X5.437Y-3.0848
X5.4372Y-3.0376
X5.4409Y-3.2087
X5.4572Y-3.0972
X5.4574Y-3.0466
X5.4603Y-3.2392
X5.4606Y-2.9488
X5.4606Y-3.4921
X5.4606Y-3.5394
X5.4724Y-3.2598
X5.4724Y-3.2835
X5.4803Y-2.4213
X5.4803Y-3.1535
X5.4803Y-3.9882
X5.4882Y-2.6417
X5.4961Y-2.9488
X5.4961Y-3.3898
X5.5138Y-3.4921
X5.5138Y-3.5394
X5.5236Y-2.5906
X5.5276Y-2.9488
X5.5366Y-4.248
X5.5394Y-4.3858
X5.5404Y-4.2247
X5.563Y-3.4921
X5.563Y-3.5374
X5.5672Y-4.1189
X5.5709Y-3.9764
X5.5787Y-2.4213
X5.5903Y-4.1142
X5.6043Y-3.4921
X5.6063Y-3.5374
X5.6142Y-2.5906
X5.624Y-4.4596
X5.6319Y-3.9734
X5.6535Y-3.7717
X5.6614Y-3.2402
X5.6624Y-4.4596
X5.6732Y-2.5748
X5.6772Y-2.4213
X5.6772Y-4.5394
X5.7008Y-3.6063
X5.7008Y-3.6378
X5.7008Y-3.6693
X5.7047Y-3.4961
X5.7047Y-3.5354
X5.7165Y-3.8583
X5.7205Y-2.6496
X5.7205Y-3.5157
X5.7205Y-3.7362
X5.7244Y-3.3504
X5.7244Y-3.374
X5.7323Y-3.6063
X5.7323Y-3.6378
X5.7323Y-3.6693
X5.7323Y-3.7544
X5.7362Y-3.4961
X5.7362Y-3.5354
X5.7402Y-4.4124
X5.748Y-3.7362
X5.752Y-3.5157
X5.7564Y-4.0797
X5.7579Y-4.0443
X5.7638Y-3.6063
X5.7638Y-3.6378
X5.7638Y-3.6693
X5.7677Y-3.4961
X5.7677Y-3.5354
X5.7717Y-4.064
X5.7913Y-2.4528
X5.7953Y-2.5157
X5.7975Y-2.6961
X5.8197Y-3.7906
X5.8201Y-2.9159
X5.8307Y-2.937
X5.8307Y-3.7559
X5.8386Y-3.1024
X5.8386Y-3.3661
X5.8425Y-3.3189
X5.8429Y-2.9583
X5.8465Y-4.4882
X5.8577Y-2.9766
X5.8691Y-4.4813
X5.875Y-2.9928
X5.878Y-2.4213
X5.8819Y-2.6181
X5.8937Y-2.752
X5.8937Y-4.4724
X5.9016Y-3.1024
X5.9016Y-3.6969
X5.9116Y-3.9859
X5.9116Y-4.0233
X5.9116Y-4.0627
X5.9134Y-3.252
X5.9134Y-3.311
X5.9409Y-3.1732
X5.9409Y-4.5315
X5.9528Y-2.9221
X5.9606Y-4.4173
X5.9843Y-2.9291
X5.9941Y-2.813
X6.0Y-2.9488
X6.0039Y-3.1732
X6.0039Y-3.4528
X6.005Y-2.9105
X6.0052Y-2.8316
X6.0079Y-3.7677
X6.0315Y-3.2205
X6.0354Y-2.7598
X6.0645Y-3.1743
X6.0698Y-2.8411
X6.0827Y-2.4252
X6.0827Y-2.6575
X6.0844Y-2.86
X6.0882Y-2.8949
X6.0984Y-3.2165
X6.1032Y-2.8744
X6.1091Y-2.9066
X6.1205Y-2.9277
X6.1299Y-3.248
X6.1377Y-3.1768
X6.1496Y-4.0748
X6.1614Y-3.9606
X6.1811Y-2.4213
X6.1811Y-2.6181
X6.1812Y-2.813
X6.185Y-2.7659
X6.185Y-2.7895
X6.185Y-2.9213
X6.185Y-3.9606
X6.187Y-4.5315
X6.2008Y-4.0022
X6.2047Y-3.5
X6.2126Y-3.8701
X6.2392Y-4.2136
X6.2539Y-4.4094
X6.2717Y-2.8661
X6.2795Y-2.4213
X6.2795Y-2.6024
X6.3583Y-4.5069
X6.378Y-2.6181
X6.378Y-3.7992
X6.378Y-3.8228
X6.378Y-3.8465
X6.3819Y-2.4213
X6.3846Y-4.5008
X6.4016Y-3.1929
X6.4055Y-4.4827
X6.4154Y-3.626
X6.4154Y-3.6634
X6.4154Y-3.7028
X6.4528Y-4.5315
X6.4606Y-3.2283
X6.4764Y-2.4213
X6.4803Y-2.6181
X6.4886Y-3.0511
X6.5315Y-3.0984
X6.5512Y-3.5039
X6.5551Y-3.685
X6.5785Y-3.8278
X6.5787Y-2.6181
X6.5798Y-2.4202
X6.5807Y-3.2992
X6.5895Y-3.7942
X6.5947Y-3.9059
X6.5994Y-3.8169
X6.5994Y-3.8819
X6.6207Y-4.0323
X6.6223Y-3.8761
X6.6385Y-4.0479
X6.6457Y-3.503
X6.6457Y-3.7953
X6.6506Y-3.6939
X6.6762Y-3.2933
X6.6845Y-2.8396
X6.7165Y-3.0236
X6.7165Y-3.0827
X6.7362Y-3.9803
X6.7402Y-4.2047
X6.7441Y-3.874
X6.748Y-3.6535
X6.7825Y-3.0827
X6.7839Y-3.0582
T2
X4.6053Y-4.1594
X4.6053Y-4.1988
X4.6446Y-4.1594
X4.6446Y-4.1988
X5.1171Y-4.1594
X5.1171Y-4.1988
X5.1564Y-4.1594
X5.1564Y-4.1988
X5.6289Y-4.1594
X5.6289Y-4.1988
X5.6682Y-4.1594
X5.6682Y-4.1988
X6.247Y-3.9183
X6.247Y-3.9577
X6.2864Y-3.9183
X6.2864Y-3.9577
T4
X4.8634Y-4.1657
X4.8634Y-4.2657
X5.3752Y-4.1657
X5.3752Y-4.2657
X5.887Y-4.1657
X5.887Y-4.2657
X6.3988Y-4.1657
X6.3988Y-4.2657
T3
G00X6.6309Y-2.9661
M15
G01X6.6309Y-2.9507
M16
G05
G00X6.6309Y-3.155
M15
G01X6.6309Y-3.1397
M16
G05
G00X6.8002Y-2.9661
M15
G01X6.8002Y-2.9507
M16
G05
G00X6.8002Y-3.155
M15
G01X6.8002Y-3.1397
M16
G05
T5
G00X4.626Y-3.7742
M15
G01X4.626Y-3.6757
M16
G05
G00X4.7933Y-3.91
M15
G01X4.6949Y-3.91
M16
G05
G00X4.8622Y-3.6757
M15
G01X4.8622Y-3.7742
M16
G05
M30
