%TF.GenerationSoftware,KiCad,Pcbnew,8.0.6*%
%TF.CreationDate,2024-10-16T15:49:25-04:00*%
%TF.ProjectId,motorgo_plink,6d6f746f-7267-46f5-9f70-6c696e6b2e6b,rev?*%
%TF.SameCoordinates,Original*%
%TF.FileFunction,Paste,Bot*%
%TF.FilePolarity,Positive*%
%FSLAX46Y46*%
G04 Gerber Fmt 4.6, Leading zero omitted, Abs format (unit mm)*
G04 Created by KiCad (PCBNEW 8.0.6) date 2024-10-16 15:49:25*
%MOMM*%
%LPD*%
G01*
G04 APERTURE LIST*
%ADD10R,1.000000X3.000000*%
G04 APERTURE END LIST*
D10*
%TO.C,J7*%
X118120000Y-66540000D03*
X118120000Y-61500000D03*
X120660000Y-66540000D03*
X120660000Y-61500000D03*
X123200000Y-66540000D03*
X123200000Y-61500000D03*
X125740000Y-66540000D03*
X125740000Y-61500000D03*
X128280000Y-66540000D03*
X128280000Y-61500000D03*
X130820000Y-66540000D03*
X130820000Y-61500000D03*
X133360000Y-66540000D03*
X133360000Y-61500000D03*
X135900000Y-66540000D03*
X135900000Y-61500000D03*
X138440000Y-66540000D03*
X138440000Y-61500000D03*
X140980000Y-66540000D03*
X140980000Y-61500000D03*
X143520000Y-66540000D03*
X143520000Y-61500000D03*
X146060000Y-66540000D03*
X146060000Y-61500000D03*
X148600000Y-66540000D03*
X148600000Y-61500000D03*
X151140000Y-66540000D03*
X151140000Y-61500000D03*
X153680000Y-66540000D03*
X153680000Y-61500000D03*
X156220000Y-66540000D03*
X156220000Y-61500000D03*
X158760000Y-66540000D03*
X158760000Y-61500000D03*
X161300000Y-66540000D03*
X161300000Y-61500000D03*
X163840000Y-66540000D03*
X163840000Y-61500000D03*
X166380000Y-66540000D03*
X166380000Y-61500000D03*
%TD*%
M02*
