<?xml version="1.0" encoding="UTF-8"?>
<!DOCTYPE svg PUBLIC "-//W3C//DTD SVG 1.1//EN" "http://www.w3.org/Graphics/SVG/1.1/DTD/svg11.dtd">

<svg xmlns="http://www.w3.org/2000/svg" xmlns:xlink="http://www.w3.org/1999/xlink" xmlns:xs="http://www.w3.org/2001/XMLSchema" xmlns:wb="http://www.ti.com/webench" version="1.1" width="100%" height="100%" viewBox="0 0 1475.0 570.0" preserveAspectRatio="xMidYMid meet">
  <defs>
    <g id="WB_CONTINUATION">
      <circle xmlns="" opacity="0.01" fill="#ffffff" stroke="#000000" stroke-width="0" cx="0" cy="0" r="14" />
      <line fill="none" stroke="#CC0000" stroke-width="2" x1="0" y1="10" x2="0" y2="-10" />
      <line fill="none" stroke="#CC0000" stroke-width="2" x1="-10" y1="-10" x2="10" y2="-10" />
    </g>
    <g id="WB_BLOCK_IO">
      <circle xmlns="" opacity="0.01" fill="#ffffff" stroke="#000000" stroke-width="0" cx="0" cy="0" r="14" />
      <line stroke="#CC0000" fill="none" stroke-width="2" x1="-5" y1="0" x2="5" y2="0" />
    </g>
    <g id="WB_STARTUP_VOLTAGE_SOURCE">
      <circle xmlns="" opacity="0.01" fill="#ffffff" stroke="#000000" stroke-width="0" cx="0" cy="0" r="14" />
      <circle fill-opacity="0.01" fill="#CC0000" stroke="#CC0000" stroke-width="2" cx="0" cy="0" r="14" />
      <polyline fill="none" stroke="#CC0000" stroke-width="2" points="-6,-11 -6,7 5,9 5,12 " />
      <line fill="none" stroke="#CC0000" stroke-width="2" x1="16" y1="-12" x2="16" y2="-18" />
      <line fill="none" stroke="#CC0000" stroke-width="2" x1="-17" y1="-12" x2="-17" y2="-18" />
      <line fill="none" stroke="#CC0000" stroke-width="2" x1="-14" y1="-15" x2="-20" y2="-15" />
      <line fill="none" stroke="#CC0000" stroke-width="2" x1="-15" y1="0" x2="-30" y2="0" />
      <line fill="none" stroke="#CC0000" stroke-width="2" x1="30" y1="0" x2="15" y2="0" />
    </g>
    <g id="WB_SOURCE_RESISTOR">
      <circle xmlns="" opacity="0.01" fill="#ffffff" stroke="#000000" stroke-width="0" cx="0" cy="0" r="14" />
      <polyline fill="none" stroke="#CC0000" stroke-width="2" stroke-linecap="round" stroke-linejoin="round" points="30,0 20,0 15,-6 7.5,6 0,-6 -7.5,6 -15,-6 -20,0 -30,0" />
    </g>
    <g id="WB_PRIM_STARTUP_VOLTAGE_SOURCE">
      <circle xmlns="" opacity="0.01" fill="#ffffff" stroke="#000000" stroke-width="0" cx="0" cy="0" r="14" />
      <circle fill-opacity="0.01" fill="#CC0000" stroke="#CC0000" stroke-width="2" cx="0" cy="0" r="14" />
      <polyline fill="none" stroke="#CC0000" stroke-width="2" points="-6,-11 -6,7 5,9 5,12 " />
      <line fill="none" stroke="#CC0000" stroke-width="2" x1="16" y1="-12" x2="16" y2="-18" />
      <line fill="none" stroke="#CC0000" stroke-width="2" x1="-17" y1="-12" x2="-17" y2="-18" />
      <line fill="none" stroke="#CC0000" stroke-width="2" x1="-14" y1="-15" x2="-20" y2="-15" />
      <line fill="none" stroke="#CC0000" stroke-width="2" x1="-15" y1="0" x2="-30" y2="0" />
      <line fill="none" stroke="#CC0000" stroke-width="2" x1="30" y1="0" x2="15" y2="0" />
    </g>
    <g id="WB_CURRENT_PROBE">
      <circle xmlns="" opacity="0.01" fill="#ffffff" stroke="#000000" stroke-width="0" cx="0" cy="0" r="14" />
      <line stroke="#CC0000" stroke-width="2" stroke-linecap="square" stroke-linejoin="round" x1="-16" y1="0" x2="-10" y2="0" />
      <polyline stroke="#CC0000" stroke-width="2" stroke-linecap="square" stroke-linejoin="round" points="6,0 3,-3.5 3,3.5 6,0 -6,0 " />
      <line stroke="#CC0000" stroke-width="2" stroke-linecap="square" stroke-linejoin="round" x1="10" y1="0" x2="16" y2="0" />
      <rect stroke-width="1" x="-9.5" y="-7" fill="none" stroke="#CC0000" width="19" height="14" />
    </g>
    <g id="WB_PWL_CURRENT_LOAD">
      <circle xmlns="" opacity="0.01" fill="#ffffff" stroke="#000000" stroke-width="0" cx="0" cy="0" r="14" />
      <circle fill-opacity="0.01" fill="#CC0000" stroke="#CC0000" stroke-width="2" cx="0" cy="0" r="14" />
      <line y1="0" x2="-20" stroke="#CC0000" x1="-30" fill="none" stroke-width="2" y2="0" />
      <line y1="0" x2="20" stroke="#CC0000" x1="30" fill="none" stroke-width="2" y2="0" />
      <polyline stroke="#CC0000" points="-7,6 4,8  " stroke-linejoin="round" fill="none" stroke-width="2" stroke-linecap="round" />
      <polyline stroke="#CC0000" points="-7,-6 4,-8  " stroke-linejoin="round" fill="none" stroke-width="2" stroke-linecap="round" />
      <polyline stroke="#CC0000" points="-20,0 -15,0  " stroke-linejoin="round" fill="none" stroke-width="2" stroke-linecap="round" />
      <polyline stroke="#CC0000" points="20,0 15,0  " stroke-linejoin="round" fill="none" stroke-width="2" stroke-linecap="round" />
      <polyline stroke="#CC0000" points="-7,-6 -7,6  " stroke-linejoin="round" fill="none" stroke-width="2" stroke-linecap="round" />
      <polyline stroke="#CC0000" points="4,-8 4,-11  " stroke-linejoin="round" fill="none" stroke-width="2" stroke-linecap="round" />
      <polyline stroke="#CC0000" points="4,8 4,11  " stroke-linejoin="round" fill="none" stroke-width="2" stroke-linecap="round" />
      <line x1="23" y1="-13" x2="23" y2="-7" stroke="#CC0000" fill="none" stroke-width="2" stroke-linecap="round" />
      <line x1="-23" y1="-13" x2="-23" y2="-7" stroke="#CC0000" fill="none" stroke-width="2" stroke-linecap="round" />
      <line x1="-26" y1="-10" x2="-20" y2="-10" stroke="#CC0000" fill="none" stroke-width="2" stroke-linecap="round" />
    </g>
    <g id="WB_CURRENT_LOAD">
      <circle xmlns="" opacity="0.01" fill="#ffffff" stroke="#000000" stroke-width="0" cx="0" cy="0" r="14" />
      <path fill="none" stroke="#CC0000" stroke-width="2" stroke-linecap="round" stroke-linejoin="round" d="M-15,0c 0.1, 4.2, 1.6, 7.7, 4.4, 10.6c 2.8, 2.8, 6.4, 4.3, 10.6, 4.4c 4.3-0.1, 7.8-1.6, 10.6 -4.4c 2.9-2.9, 4.3-6.4, 4.4-10.6" />
      <path fill="none" stroke="#CC0000" stroke-width="2" stroke-linecap="round" stroke-linejoin="round" d="M15,0c -0.1,-4.2,-1.6,-7.7,-4.4,-10.6c-2.8,-2.8,-6.4,-4.3,-10.6,-4.4c-4.3,0.1 -7.8,1.6 -10.6,4.4c-2.9,2.9 -4.3,6.4 -4.4,10.6" />
      <line fill="none" stroke="#CC0000" stroke-width="2" x1="30" y1="0" x2="15" y2="0" />
      <line fill="none" stroke="#CC0000" stroke-width="2" x1="-15" y1="0" x2="-30" y2="0" />
      <line fill="none" stroke="#CC0000" stroke-width="2" stroke-linecap="round" stroke-linejoin="round" x1="3" y1="7" x2="12" y2="0" />
      <line fill="none" stroke="#CC0000" stroke-width="2" stroke-linecap="round" stroke-linejoin="round" x1="3" y1="-7" x2="12" y2="0" />
      <line fill="none" stroke="#CC0000" stroke-width="2" stroke-linecap="round" stroke-linejoin="round" x1="12" y1="0" x2="-12" y2="0" />
    </g>
    <g id="WB_PRIM_PULSE_VOLTAGE_SOURCE">
      <circle xmlns="" opacity="0.01" fill="#ffffff" stroke="#000000" stroke-width="0" cx="0" cy="0" r="14" />
      <circle fill-opacity="0.01" fill="#CC0000" stroke="#CC0000" stroke-width="2" cx="0" cy="0" r="14" />
      <line y1="0" x2="-20" stroke="#CC0000" x1="-30" fill="none" stroke-width="2" y2="0" />
      <line y1="0" x2="20" stroke="#CC0000" x1="30" fill="none" stroke-width="2" y2="0" />
      <polyline stroke="#CC0000" points="-7,6 4,8  " stroke-linejoin="round" fill="none" stroke-width="2" stroke-linecap="round" />
      <polyline stroke="#CC0000" points="-7,-6 4,-8  " stroke-linejoin="round" fill="none" stroke-width="2" stroke-linecap="round" />
      <polyline stroke="#CC0000" points="-20,0 -15,0  " stroke-linejoin="round" fill="none" stroke-width="2" stroke-linecap="round" />
      <polyline stroke="#CC0000" points="20,0 15,0  " stroke-linejoin="round" fill="none" stroke-width="2" stroke-linecap="round" />
      <polyline stroke="#CC0000" points="-7,-6 -7,6  " stroke-linejoin="round" fill="none" stroke-width="2" stroke-linecap="round" />
      <polyline stroke="#CC0000" points="4,-8 4,-11  " stroke-linejoin="round" fill="none" stroke-width="2" stroke-linecap="round" />
      <polyline stroke="#CC0000" points="4,8 4,11  " stroke-linejoin="round" fill="none" stroke-width="2" stroke-linecap="round" />
      <line x1="23" y1="-13" x2="23" y2="-7" stroke="#CC0000" fill="none" stroke-width="2" stroke-linecap="round" />
      <line x1="-23" y1="-13" x2="-23" y2="-7" stroke="#CC0000" fill="none" stroke-width="2" stroke-linecap="round" />
      <line x1="-26" y1="-10" x2="-20" y2="-10" stroke="#CC0000" fill="none" stroke-width="2" stroke-linecap="round" />
    </g>
    <g id="WB_PWL_VOLTAGE_SOURCE">
      <circle xmlns="" opacity="0.01" fill="#ffffff" stroke="#000000" stroke-width="0" cx="0" cy="0" r="14" />
      <circle fill-opacity="0.01" fill="#CC0000" stroke="#CC0000" stroke-width="2" cx="0" cy="0" r="14" />
      <line y1="0" x2="-20" stroke="#CC0000" x1="-30" fill="none" stroke-width="2" y2="0" />
      <line y1="0" x2="20" stroke="#CC0000" x1="30" fill="none" stroke-width="2" y2="0" />
      <polyline stroke="#CC0000" points="-7,6 4,8  " stroke-linejoin="round" fill="none" stroke-width="2" stroke-linecap="round" />
      <polyline stroke="#CC0000" points="-7,-6 4,-8  " stroke-linejoin="round" fill="none" stroke-width="2" stroke-linecap="round" />
      <polyline stroke="#CC0000" points="-20,0 -15,0  " stroke-linejoin="round" fill="none" stroke-width="2" stroke-linecap="round" />
      <polyline stroke="#CC0000" points="20,0 15,0  " stroke-linejoin="round" fill="none" stroke-width="2" stroke-linecap="round" />
      <polyline stroke="#CC0000" points="-7,-6 -7,6  " stroke-linejoin="round" fill="none" stroke-width="2" stroke-linecap="round" />
      <polyline stroke="#CC0000" points="4,-8 4,-11  " stroke-linejoin="round" fill="none" stroke-width="2" stroke-linecap="round" />
      <polyline stroke="#CC0000" points="4,8 4,11  " stroke-linejoin="round" fill="none" stroke-width="2" stroke-linecap="round" />
      <line x1="23" y1="-13" x2="23" y2="-7" stroke="#CC0000" fill="none" stroke-width="2" stroke-linecap="round" />
      <line x1="-23" y1="-13" x2="-23" y2="-7" stroke="#CC0000" fill="none" stroke-width="2" stroke-linecap="round" />
      <line x1="-26" y1="-10" x2="-20" y2="-10" stroke="#CC0000" fill="none" stroke-width="2" stroke-linecap="round" />
    </g>
    <g id="WB_PRIM_PWL_VOLTAGE_SOURCE">
      <circle xmlns="" opacity="0.01" fill="#ffffff" stroke="#000000" stroke-width="0" cx="0" cy="0" r="14" />
      <circle fill-opacity="0.01" fill="#CC0000" stroke="#CC0000" stroke-width="2" cx="0" cy="0" r="14" />
      <line x1="-30" y1="0" x2="-15" y2="0" stroke="#CC0000" fill="none" stroke-width="2" />
      <line x1="30" y1="0" x2="15" y2="0" stroke="#CC0000" fill="none" stroke-width="2" />
      <polyline stroke="#CC0000" points="0,13 0,8 -7,6 -7,0 7,-4 0,-8 0,-13" stroke-linejoin="round" fill="none" stroke-width="2" stroke-linecap="round" />
      <line x1="23" y1="-13" x2="23" y2="-7" stroke="#CC0000" fill="none" stroke-width="2" stroke-linecap="round" />
      <line x1="-23" y1="-13" x2="-23" y2="-7" stroke="#CC0000" fill="none" stroke-width="2" stroke-linecap="round" />
      <line x1="-26" y1="-10" x2="-20" y2="-10" stroke="#CC0000" fill="none" stroke-width="2" stroke-linecap="round" />
    </g>
    <g id="WB_LOAD_RESISTOR">
      <circle xmlns="" opacity="0.01" fill="#ffffff" stroke="#000000" stroke-width="0" cx="0" cy="0" r="14" />
      <polyline fill="none" stroke="#CC0000" stroke-width="2" stroke-linecap="round" stroke-linejoin="round" points="30,0 20,0 15,-6 7.5,6 0,-6 -7.5,6 -15,-6 -20,0 -30,0" />
    </g>
    <g id="WB_PRIMITIVE_CAPACITOR">
      <circle xmlns="" opacity="0.01" fill="#ffffff" stroke="#000000" stroke-width="0" cx="0" cy="0" r="14" />
      <line y1="0" x2="20" stroke="#CC0000" x1="30" fill="none" stroke-width="2" y2="0" />
      <line y1="0" x2="-20" stroke="#CC0000" x1="-30" fill="none" stroke-width="2" y2="0" />
      <polyline stroke="#CC0000" points="3,12 3,-12  " stroke-linejoin="round" fill="none" stroke-width="2" stroke-linecap="round" />
      <polyline stroke="#CC0000" points="-20,0 -3,0  " stroke-linejoin="round" fill="none" stroke-width="2" stroke-linecap="round" />
      <polyline stroke="#CC0000" points="3,0 20,0  " stroke-linejoin="round" fill="none" stroke-width="2" stroke-linecap="round" />
      <polyline stroke="#CC0000" points="-3,12 -3,-12  " stroke-linejoin="round" fill="none" stroke-width="2" stroke-linecap="round" />
    </g>
    <g id="WB_GND">
      <circle xmlns="" opacity="0.01" fill="#ffffff" stroke="#000000" stroke-width="0" cx="0" cy="0" r="14" />
      <line fill="none" stroke="black" stroke-width="2" x1="0" y1="-10" x2="0" y2="0" />
      <line fill="none" stroke="black" stroke-width="2" x1="-13" y1="0" x2="13" y2="0" />
      <line fill="none" stroke="black" stroke-width="2" x1="-9" y1="4" x2="9" y2="4" />
      <line fill="none" stroke="black" stroke-width="2" x1="-3" y1="8" x2="3" y2="8" />
    </g>
    <g id="WB_PRIMITIVE_INDUCTOR">
      <circle xmlns="" opacity="0.01" fill="#ffffff" stroke="#000000" stroke-width="0" cx="0" cy="0" r="14" />
      <path fill="none" stroke="#CC0000" stroke-width="2" stroke-linecap="round" stroke-linejoin="round" d="M-10,0c0-0.6-0.2-1.8-0.6-3.3c-0.5-2.4-2-3.7-4.4-4c-2.4,0.3-3.8,1.6-4.3,4c-0.6,2.3-0.8,3.6-0.7,3M-20,0H-30" />
      <path fill="none" stroke="#CC0000" stroke-width="2" stroke-linecap="round" stroke-linejoin="round" d="M0,0c0-0.6-0.2-1.8-0.6-3.3c-0.5-2.4-2-3.7-4.4-4c-2.4,0.3-3.8,1.6-4.3,4c-0.6,2.3-0.8,3.6-0.7,4" />
      <path fill="none" stroke="#CC0000" stroke-width="2" stroke-linecap="round" stroke-linejoin="round" d="M10,0c0-0.6-0.2-1.8-0.6-3.3c-0.5-2.4-2-3.7-4.4-4c-2.4,0.3-3.8,1.6-4.3,4c-0.6,2.3-0.8,3.6-0.7,4" />
      <path fill="none" stroke="#CC0000" stroke-width="2" stroke-linecap="round" stroke-linejoin="round" d="M30,0H20c0-0.6-0.2-1.8-0.6-3.3c-0.5-2.4-2-3.7-4.4-4c-2.4,0.3-3.8,1.6-4.3,4c-0.6,2.3-0.8,3.6-0.7,4" />
      <path fill="none" stroke="#CC0000" stroke-width="2" stroke-linecap="round" stroke-linejoin="round" d=" M10,0 c0.1,0.4,0.1,0.6,0,0.7" />
      <path fill="none" stroke="#CC0000" stroke-width="2" stroke-linecap="round" stroke-linejoin="round" d=" M0,0  c0.1,0.4,0.1,0.6,0,0.7" />
      <path fill="none" stroke="#CC0000" stroke-width="2" stroke-linecap="round" stroke-linejoin="round" d=" M-10,0c0.1,0.4,0.1,0.6,0,0.7" />
    </g>
    <g id="WB_PRIM_AC_VOLTAGE_SOURCE">
      <circle xmlns="" opacity="0.01" fill="#ffffff" stroke="#000000" stroke-width="0" cx="0" cy="0" r="14" />
      <circle fill-opacity="0.01" fill="#CC0000" stroke="#CC0000" stroke-width="2" cx="0" cy="0" r="14" />
      <line y1="0" x2="-20" stroke="#CC0000" x1="-30" fill="none" stroke-width="2" y2="0" />
      <line y1="0" x2="20" stroke="#CC0000" x1="30" fill="none" stroke-width="2" y2="0" />
      <polyline stroke="#CC0000" points="-20,0 -15,0  " stroke-linejoin="round" fill="none" stroke-width="2" stroke-linecap="round" />
      <polyline stroke="#CC0000" points="20,0 15,0  " stroke-linejoin="round" fill="none" stroke-width="2" stroke-linecap="round" />
      <path stroke="#CC0000" d="M0,10A5,5 0 0,1 0,0 " fill="none" stroke-width="2" stroke-linecap="round" />
      <path stroke="#CC0000" d="M0-10A5,5 0 1,1 0,0 " fill="none" stroke-width="2" stroke-linecap="round" />
      <line x1="23" y1="-13" x2="23" y2="-7" stroke="#CC0000" fill="none" stroke-width="2" stroke-linecap="round" />
      <line x1="-23" y1="-13" x2="-23" y2="-7" stroke="#CC0000" fill="none" stroke-width="2" stroke-linecap="round" />
      <line x1="-26" y1="-10" x2="-20" y2="-10" stroke="#CC0000" fill="none" stroke-width="2" stroke-linecap="round" />
    </g>
    <g id="WB_PRIMITIVE_BATTERY">
      <circle xmlns="" opacity="0.01" fill="#ffffff" stroke="#000000" stroke-width="0" cx="0" cy="0" r="14" />
      <line fill="none" stroke="#CC0000" stroke-width="2" x1="-8" y1="0" x2="-30" y2="0" />
      <line fill="none" stroke="#CC0000" stroke-width="2" x1="-7" y1="12" x2="-7" y2="-12" />
      <line fill="none" stroke="#CC0000" stroke-width="2" x1="4" y1="12" x2="4" y2="-12" />
      <line fill="none" stroke="#CC0000" stroke-width="2" x1="30" y1="0" x2="11" y2="0" />
      <line fill="none" stroke="#CC0000" stroke-width="2" x1="-2" y1="5" x2="-2" y2="-5" />
      <line fill="none" stroke="#CC0000" stroke-width="2" x1="-1" y1="5" x2="-1" y2="-5" />
      <line fill="none" stroke="#CC0000" stroke-width="2" x1="-14" y1="-9" x2="-14" y2="-15" />
      <line fill="none" stroke="#CC0000" stroke-width="2" x1="-11" y1="-12" x2="-17" y2="-12" />
      <line fill="none" stroke="#CC0000" stroke-width="2" x1="13" y1="-10" x2="13" y2="-15" />
      <line fill="none" stroke="#CC0000" stroke-width="2" x1="10" y1="5" x2="10" y2="-5" />
      <line fill="none" stroke="#CC0000" stroke-width="2" x1="9" y1="5" x2="9" y2="-5" />
    </g>
    <g id="WB_BATTERY">
      <circle xmlns="" opacity="0.01" fill="#ffffff" stroke="#000000" stroke-width="0" cx="0" cy="0" r="14" />
      <line fill="none" stroke="#CC0000" stroke-width="2" x1="-8" y1="0" x2="-30" y2="0" />
      <line fill="none" stroke="#CC0000" stroke-width="2" x1="-7" y1="12" x2="-7" y2="-12" />
      <line fill="none" stroke="#CC0000" stroke-width="2" x1="4" y1="12" x2="4" y2="-12" />
      <line fill="none" stroke="#CC0000" stroke-width="2" x1="30" y1="0" x2="11" y2="0" />
      <line fill="none" stroke="#CC0000" stroke-width="2" x1="-2" y1="5" x2="-2" y2="-5" />
      <line fill="none" stroke="#CC0000" stroke-width="2" x1="-1" y1="5" x2="-1" y2="-5" />
      <line fill="none" stroke="#CC0000" stroke-width="2" x1="-14" y1="-9" x2="-14" y2="-15" />
      <line fill="none" stroke="#CC0000" stroke-width="2" x1="-11" y1="-12" x2="-17" y2="-12" />
      <line fill="none" stroke="#CC0000" stroke-width="2" x1="13" y1="-10" x2="13" y2="-15" />
      <line fill="none" stroke="#CC0000" stroke-width="2" x1="10" y1="5" x2="10" y2="-5" />
      <line fill="none" stroke="#CC0000" stroke-width="2" x1="9" y1="5" x2="9" y2="-5" />
    </g>
    <g id="WB_RESISTOR">
      <circle xmlns="" opacity="0.01" fill="#ffffff" stroke="#000000" stroke-width="0" cx="0" cy="0" r="14" />
      <polyline fill="none" stroke="#115566" stroke-width="2" stroke-linecap="round" stroke-linejoin="round" points="30,0 20,0 15,-6 7.5,6 0,-6 -7.5,6 -15,-6 -20,0 -30,0" />
    </g>
    <g id="WB_TPS54620">
      <circle xmlns="" opacity="0.01" fill="#ffffff" stroke="#000000" stroke-width="0" cx="0" cy="0" r="14" />
      <rect width="140" height="220" x="-70" y="-110" stroke="#000000" stroke-width="4" fill="#F2F2F2" stroke-linecap="round" stroke-linejoin="round" />
      <text id="partNumber_label" x="0" y="-24" style="font-family:arial;font-weight:bold;font-size:16;text-anchor:middle;">TPS54620</text>
      <line fill="none" stroke="#000000" stroke-width="2" stroke-linecap="round" stroke-linejoin="round" x1="-80" y1="-100" x2="-70" y2="-100" />
      <text id="1" x="-64" y="-96" style="font-family:arial;font-weight:normal;font-size:11;text-anchor:start;">PWRGD</text>
      <line fill="none" stroke="#000000" stroke-width="2" stroke-linecap="round" stroke-linejoin="round" x1="-80" y1="-50" x2="-70" y2="-50" />
      <text id="2" x="-64" y="-46" style="font-family:arial;font-weight:normal;font-size:11;text-anchor:start;">VIN</text>
      <line fill="none" stroke="#000000" stroke-width="2" stroke-linecap="round" stroke-linejoin="round" x1="-80" y1="10" x2="-70" y2="10" />
      <text id="3" x="-64" y="14" style="font-family:arial;font-weight:normal;font-size:11;text-anchor:start;">EN</text>
      <line fill="none" stroke="#000000" stroke-width="2" stroke-linecap="round" stroke-linejoin="round" x1="-80" y1="50" x2="-70" y2="50" />
      <text id="4" x="-64" y="54" style="font-family:arial;font-weight:normal;font-size:11;text-anchor:start;">RT_CLK</text>
      <line fill="none" stroke="#000000" stroke-width="2" stroke-linecap="round" stroke-linejoin="round" x1="-80" y1="80" x2="-70" y2="80" />
      <text id="5" x="-64" y="84" style="font-family:arial;font-weight:normal;font-size:11;text-anchor:start;">SS_TR</text>
      <line fill="none" stroke="#000000" stroke-width="2" stroke-linecap="round" stroke-linejoin="round" x1="0" y1="120" x2="0" y2="110" />
      <text id="6" x="0" y="105" style="font-family:arial;font-weight:normal;font-size:11;text-anchor:middle;">GND</text>
      <line fill="none" stroke="#000000" stroke-width="2" stroke-linecap="round" stroke-linejoin="round" x1="80" y1="70" x2="70" y2="70" />
      <text id="7" x="64" y="74" style="font-family:arial;font-weight:normal;font-size:11;text-anchor:end;">COMP</text>
      <line fill="none" stroke="#000000" stroke-width="2" stroke-linecap="round" stroke-linejoin="round" x1="80" y1="50" x2="70" y2="50" />
      <text id="8" x="64" y="54" style="font-family:arial;font-weight:normal;font-size:11;text-anchor:end;">VSENSE</text>
      <line fill="none" stroke="#000000" stroke-width="2" stroke-linecap="round" stroke-linejoin="round" x1="80" y1="-50" x2="70" y2="-50" />
      <text id="9" x="64" y="-46" style="font-family:arial;font-weight:normal;font-size:11;text-anchor:end;">PH</text>
      <line fill="none" stroke="#000000" stroke-width="2" stroke-linecap="round" stroke-linejoin="round" x1="80" y1="-100" x2="70" y2="-100" />
      <text id="10" x="64" y="-96" style="font-family:arial;font-weight:normal;font-size:11;text-anchor:end;">BOOT</text>
    </g>
    <g id="WB_VOLTAGE_PROBE">
      <circle xmlns="" opacity="0.01" fill="#ffffff" stroke="#000000" stroke-width="0" cx="0" cy="0" r="14" />
      <rect stroke-width="1" width="20" stroke="#CC0000" x="-10" height="19.5" y="-30" fill="#CC0000" fill-opacity="0.01" />
      <polyline stroke="#CC0000" points="7,-27 4,-22 3,-26 0,-18 -1,-22 -5,-14  " stroke-linejoin="round" fill="none" stroke-width="2" stroke-linecap="round" />
      <line y1="0" x2="0" stroke="#CC0000" x1="0" fill="none" stroke-width="2" y2="-10" />
    </g>
    <g id="WB_CAPACITOR">
      <circle xmlns="" opacity="0.01" fill="#ffffff" stroke="#000000" stroke-width="0" cx="0" cy="0" r="14" />
      <line y1="0" x2="20" stroke="#115566" x1="30" fill="none" stroke-width="2" y2="0" />
      <line y1="0" x2="-20" stroke="#115566" x1="-30" fill="none" stroke-width="2" y2="0" />
      <polyline stroke="#115566" points="3,12 3,-12  " stroke-linejoin="round" fill="none" stroke-width="2" stroke-linecap="round" />
      <polyline stroke="#115566" points="-20,0 -3,0  " stroke-linejoin="round" fill="none" stroke-width="2" stroke-linecap="round" />
      <polyline stroke="#115566" points="3,0 20,0  " stroke-linejoin="round" fill="none" stroke-width="2" stroke-linecap="round" />
      <polyline stroke="#115566" points="-3,12 -3,-12  " stroke-linejoin="round" fill="none" stroke-width="2" stroke-linecap="round" />
    </g>
    <g id="WB_INDUCTOR">
      <circle xmlns="" opacity="0.01" fill="#ffffff" stroke="#000000" stroke-width="0" cx="0" cy="0" r="14" />
      <path fill="none" stroke="#115566" stroke-width="2" stroke-linecap="round" stroke-linejoin="round" d="M-10,0c0-0.6-0.2-1.8-0.6-3.3c-0.5-2.4-2-3.7-4.4-4c-2.4,0.3-3.8,1.6-4.3,4c-0.6,2.3-0.8,3.6-0.7,3M-20,0H-30" />
      <path fill="none" stroke="#115566" stroke-width="2" stroke-linecap="round" stroke-linejoin="round" d="M0,0c0-0.6-0.2-1.8-0.6-3.3c-0.5-2.4-2-3.7-4.4-4c-2.4,0.3-3.8,1.6-4.3,4c-0.6,2.3-0.8,3.6-0.7,4" />
      <path fill="none" stroke="#115566" stroke-width="2" stroke-linecap="round" stroke-linejoin="round" d="M10,0c0-0.6-0.2-1.8-0.6-3.3c-0.5-2.4-2-3.7-4.4-4c-2.4,0.3-3.8,1.6-4.3,4c-0.6,2.3-0.8,3.6-0.7,4" />
      <path fill="none" stroke="#115566" stroke-width="2" stroke-linecap="round" stroke-linejoin="round" d="M30,0H20c0-0.6-0.2-1.8-0.6-3.3c-0.5-2.4-2-3.7-4.4-4c-2.4,0.3-3.8,1.6-4.3,4c-0.6,2.3-0.8,3.6-0.7,4" />
      <path fill="none" stroke="#115566" stroke-width="2" stroke-linecap="round" stroke-linejoin="round" d=" M10,0 c0.1,0.4,0.1,0.6,0,0.7" />
      <path fill="none" stroke="#115566" stroke-width="2" stroke-linecap="round" stroke-linejoin="round" d=" M0,0  c0.1,0.4,0.1,0.6,0,0.7" />
      <path fill="none" stroke="#115566" stroke-width="2" stroke-linecap="round" stroke-linejoin="round" d=" M-10,0c0.1,0.4,0.1,0.6,0,0.7" />
    </g>
  </defs>
  <use id="Rt" class="comp" xlink:href="#WB_RESISTOR" x="550.0" y="330.0" transform="rotate(-90, 550.0, 330.0)" partNo="CRCW040253K6FKED" thermalId="0402" resistance="53.6kOhm" manufacturer="Vishay-Dale" />
  <text for="Rt" x="565.0" y="330.0" style="font-family:arial;font-size:13px;stroke-width:0.5;stroke:#115566;fill:#115566;">Rt</text>
  <text for="Rt" x="565.0" y="340.0" style="font-family:arial;font-size:10px;stroke-width:0.1;stroke:#CC0000;fill:#CC0000;">53.6kOhm</text>
  <use id="Cin" class="comp" xlink:href="#WB_CAPACITOR" x="210.0" y="325.0" transform="rotate(-90, 210.0, 325.0)" cap="10uF" partNo="GRM31CR71E106KA12L" thermalId="1206_180" esr="4mOhm" manufacturer="MuRata" />
  <text for="Cin" x="225.0" y="325.0" style="font-family:arial;font-size:13px;stroke-width:0.5;stroke:#115566;fill:#115566;">Cin</text>
  <text for="Cin" x="225.0" y="335.0" style="font-family:arial;font-size:10px;stroke-width:0.1;stroke:#CC0000;fill:#CC0000;">10uF</text>
  <text for="Cin" x="225.0" y="345.0" style="font-family:arial;font-size:10px;stroke-width:0.1;stroke:#CC0000;fill:#CC0000;">4mOhm</text>
  <text for="Cin" x="225.0" y="355.0" style="font-family:arial;font-size:10px;stroke-width:0.1;stroke:#CC0000;fill:#CC0000;">Qty=3</text>
  <use id="Cboot" class="comp" xlink:href="#WB_CAPACITOR" x="845.0" y="110.0" cap="100nF" partNo="08053C104KAT2A" thermalId="0805" esr="280mOhm" manufacturer="AVX" />
  <text for="Cboot" x="825.0" y="95.0" style="font-family:arial;font-size:13px;stroke-width:0.5;stroke:#115566;fill:#115566;">Cboot</text>
  <text for="Cboot" x="825.0" y="130.0" style="font-family:arial;font-size:10px;stroke-width:0.1;stroke:#CC0000;fill:#CC0000;">100nF</text>
  <text for="Cboot" x="825.0" y="140.0" style="font-family:arial;font-size:10px;stroke-width:0.1;stroke:#CC0000;fill:#CC0000;">280mOhm</text>
  <use id="GND" class="other" xlink:href="#WB_GND" x="670.0" y="470.0" />
  <use id="Css" class="comp" xlink:href="#WB_CAPACITOR" x="620.0" y="380.0" transform="rotate(-90, 620.0, 380.0)" cap="2.2nF" partNo="CL21C222JBFNNNE" thermalId="0805" esr="0Ohm" manufacturer="Samsung Electro-Mechanics" />
  <text for="Css" x="635.0" y="380.0" style="font-family:arial;font-size:13px;stroke-width:0.5;stroke:#115566;fill:#115566;">Css</text>
  <text for="Css" x="635.0" y="390.0" style="font-family:arial;font-size:10px;stroke-width:0.1;stroke:#CC0000;fill:#CC0000;">2.2nF</text>
  <text for="Css" x="635.0" y="400.0" style="font-family:arial;font-size:10px;stroke-width:0.1;stroke:#CC0000;fill:#CC0000;">0Ohm</text>
  <use id="Rcomp" class="comp" xlink:href="#WB_RESISTOR" x="840.0" y="340.0" transform="rotate(-90, 840.0, 340.0)" partNo="CRCW04023K40FKED" thermalId="0402" resistance="3.4kOhm" manufacturer="Vishay-Dale" />
  <text for="Rcomp" x="855.0" y="340.0" style="font-family:arial;font-size:13px;stroke-width:0.5;stroke:#115566;fill:#115566;">Rcomp</text>
  <text for="Rcomp" x="855.0" y="350.0" style="font-family:arial;font-size:10px;stroke-width:0.1;stroke:#CC0000;fill:#CC0000;">3.4kOhm</text>
  <use id="Cinx" class="comp" xlink:href="#WB_CAPACITOR" x="305.0" y="325.0" transform="rotate(-90, 305.0, 325.0)" cap="4.7uF" partNo="TMK212BJ475KG-T" thermalId="0805" esr="1mOhm" manufacturer="Taiyo Yuden" />
  <text for="Cinx" x="320.0" y="325.0" style="font-family:arial;font-size:13px;stroke-width:0.5;stroke:#115566;fill:#115566;">Cinx</text>
  <text for="Cinx" x="320.0" y="335.0" style="font-family:arial;font-size:10px;stroke-width:0.1;stroke:#CC0000;fill:#CC0000;">4.7uF</text>
  <text for="Cinx" x="320.0" y="345.0" style="font-family:arial;font-size:10px;stroke-width:0.1;stroke:#CC0000;fill:#CC0000;">1mOhm</text>
  <use id="Rfbt" class="comp" xlink:href="#WB_RESISTOR" x="1175.0" y="215.0" transform="rotate(-90, 1175.0, 215.0)" partNo="CRCW040252K3FKED" thermalId="0402" resistance="52.3kOhm" manufacturer="Vishay-Dale" />
  <text for="Rfbt" x="1190.0" y="215.0" style="font-family:arial;font-size:13px;stroke-width:0.5;stroke:#115566;fill:#115566;">Rfbt</text>
  <text for="Rfbt" x="1190.0" y="225.0" style="font-family:arial;font-size:10px;stroke-width:0.1;stroke:#CC0000;fill:#CC0000;">52.3kOhm</text>
  <use id="U1" class="comp" xlink:href="#WB_TPS54620" x="710.0" y="210.0" />
  <text for="U1" x="690.0" y="210.0" style="font-family:arial;font-size:13px;stroke-width:0.5;stroke:#115566;fill:#115566;">U1</text>
  <use id="Rfbb" class="comp" xlink:href="#WB_RESISTOR" x="1175.0" y="340.0" transform="rotate(-90, 1175.0, 340.0)" partNo="RC0201FR-0710KL" thermalId="0201" resistance="10kOhm" manufacturer="Yageo" />
  <text for="Rfbb" x="1190.0" y="340.0" style="font-family:arial;font-size:13px;stroke-width:0.5;stroke:#115566;fill:#115566;">Rfbb</text>
  <text for="Rfbb" x="1190.0" y="350.0" style="font-family:arial;font-size:10px;stroke-width:0.1;stroke:#CC0000;fill:#CC0000;">10kOhm</text>
  <use id="L1" class="comp" xlink:href="#WB_INDUCTOR" x="980.0" y="160.0" partNo="NPI52P3R3MTRF" thermalId="IND_NPI52P" l="3.3uH" dcr="14mOhm" manufacturer="NIC Components" />
  <text for="L1" x="960.0" y="145.0" style="font-family:arial;font-size:13px;stroke-width:0.5;stroke:#115566;fill:#115566;">L1</text>
  <text for="L1" x="960.0" y="180.0" style="font-family:arial;font-size:10px;stroke-width:0.1;stroke:#CC0000;fill:#CC0000;">3.3uH</text>
  <text for="L1" x="960.0" y="190.0" style="font-family:arial;font-size:10px;stroke-width:0.1;stroke:#CC0000;fill:#CC0000;">14mOhm</text>
  <use id="Ccomp2" class="comp" xlink:href="#WB_CAPACITOR" x="910.0" y="380.0" transform="rotate(-90, 910.0, 380.0)" cap="43pF" partNo="C0603C430J5GACTU" thermalId="0603" esr="0Ohm" manufacturer="Kemet" />
  <text for="Ccomp2" x="925.0" y="380.0" style="font-family:arial;font-size:13px;stroke-width:0.5;stroke:#115566;fill:#115566;">Ccomp2</text>
  <text for="Ccomp2" x="925.0" y="390.0" style="font-family:arial;font-size:10px;stroke-width:0.1;stroke:#CC0000;fill:#CC0000;">43pF</text>
  <text for="Ccomp2" x="925.0" y="400.0" style="font-family:arial;font-size:10px;stroke-width:0.1;stroke:#CC0000;fill:#CC0000;">0Ohm</text>
  <use id="Rent" class="comp" xlink:href="#WB_RESISTOR" x="385.0" y="250.0" transform="rotate(-90, 385.0, 250.0)" partNo="CRCW0402102KFKED" thermalId="0402" resistance="102kOhm" manufacturer="Vishay-Dale" />
  <text for="Rent" x="400.0" y="250.0" style="font-family:arial;font-size:13px;stroke-width:0.5;stroke:#115566;fill:#115566;">Rent</text>
  <text for="Rent" x="400.0" y="260.0" style="font-family:arial;font-size:10px;stroke-width:0.1;stroke:#CC0000;fill:#CC0000;">102kOhm</text>
  <use id="Renb" class="comp" xlink:href="#WB_RESISTOR" x="385.0" y="330.0" transform="rotate(-90, 385.0, 330.0)" partNo="RC0201FR-0736K5L" thermalId="0201" resistance="36.5kOhm" manufacturer="Yageo" />
  <text for="Renb" x="400.0" y="330.0" style="font-family:arial;font-size:13px;stroke-width:0.5;stroke:#115566;fill:#115566;">Renb</text>
  <text for="Renb" x="400.0" y="340.0" style="font-family:arial;font-size:10px;stroke-width:0.1;stroke:#CC0000;fill:#CC0000;">36.5kOhm</text>
  <use id="Ccomp" class="comp" xlink:href="#WB_CAPACITOR" x="840.0" y="420.0" transform="rotate(-90, 840.0, 420.0)" cap="22nF" partNo="CGA4J2C0G1H223J125AA" thermalId="0805" esr="0Ohm" manufacturer="TDK" />
  <text for="Ccomp" x="855.0" y="420.0" style="font-family:arial;font-size:13px;stroke-width:0.5;stroke:#115566;fill:#115566;">Ccomp</text>
  <text for="Ccomp" x="855.0" y="430.0" style="font-family:arial;font-size:10px;stroke-width:0.1;stroke:#CC0000;fill:#CC0000;">22nF</text>
  <text for="Ccomp" x="855.0" y="440.0" style="font-family:arial;font-size:10px;stroke-width:0.1;stroke:#CC0000;fill:#CC0000;">0Ohm</text>
  <use id="Cout" class="comp" xlink:href="#WB_CAPACITOR" x="1280.0" y="340.0" transform="rotate(-90, 1280.0, 340.0)" cap="47uF" partNo="GRM32ER61C476KE15L" thermalId="1210_280" esr="3.037mOhm" manufacturer="MuRata" />
  <text for="Cout" x="1295.0" y="340.0" style="font-family:arial;font-size:13px;stroke-width:0.5;stroke:#115566;fill:#115566;">Cout</text>
  <text for="Cout" x="1295.0" y="350.0" style="font-family:arial;font-size:10px;stroke-width:0.1;stroke:#CC0000;fill:#CC0000;">47uF</text>
  <text for="Cout" x="1295.0" y="360.0" style="font-family:arial;font-size:10px;stroke-width:0.1;stroke:#CC0000;fill:#CC0000;">3.037mOhm</text>
  <use id="Vin" class="other" xlink:href="#WB_BATTERY" x="100.0" y="240.0" transform="rotate(-270, 100.0, 240.0)" />
  <text for="Vin" x="115.0" y="240.0" style="font-family:arial;font-size:13px;stroke-width:0.5;stroke:#CC0000;fill:#CC0000;">Vin</text>
  <use id="Iout" class="other" xlink:href="#WB_CURRENT_LOAD" x="1360.0" y="300.0" transform="rotate(-270, 1360.0, 300.0)" />
  <text for="Iout" x="1375.0" y="300.0" style="font-family:arial;font-size:13px;stroke-width:0.5;stroke:#CC0000;fill:#CC0000;">Iout</text>
  <line x1="910.0" y1="350.0" x2="910.0" y2="300.0" stroke="#000000" stroke-width="2" fill="none" />
  <line x1="910.0" y1="460.0" x2="910.0" y2="410.0" stroke="#000000" stroke-width="2" fill="none" />
  <line x1="840.0" y1="300.0" x2="910.0" y2="300.0" stroke="#000000" stroke-width="2" fill="none" />
  <line x1="620.0" y1="350.0" x2="620.0" y2="290.0" stroke="#000000" stroke-width="2" fill="none" />
  <line x1="840.0" y1="450.0" x2="840.0" y2="460.0" stroke="#000000" stroke-width="2" fill="none" />
  <line x1="885.0" y1="110.0" x2="885.0" y2="160.0" stroke="#000000" stroke-width="2" fill="none" />
  <line x1="1175.0" y1="185.0" x2="1175.0" y2="160.0" stroke="#000000" stroke-width="2" fill="none" />
  <line x1="550.0" y1="360.0" x2="550.0" y2="460.0" stroke="#000000" stroke-width="2" fill="none" />
  <line x1="210.0" y1="355.0" x2="210.0" y2="460.0" stroke="#000000" stroke-width="2" fill="none" />
  <line x1="630.0" y1="290.0" x2="620.0" y2="290.0" stroke="#000000" stroke-width="2" fill="none" />
  <line x1="840.0" y1="390.0" x2="840.0" y2="370.0" stroke="#000000" stroke-width="2" fill="none" />
  <line x1="875.0" y1="110.0" x2="885.0" y2="110.0" stroke="#000000" stroke-width="2" fill="none" />
  <line x1="1175.0" y1="245.0" x2="1175.0" y2="310.0" stroke="#000000" stroke-width="2" fill="none" />
  <line x1="460.0" y1="220.0" x2="460.0" y2="290.0" stroke="#000000" stroke-width="2" fill="none" />
  <line x1="385.0" y1="360.0" x2="385.0" y2="460.0" stroke="#000000" stroke-width="2" fill="none" />
  <line x1="460.0" y1="290.0" x2="385.0" y2="290.0" stroke="#000000" stroke-width="2" fill="none" />
  <line x1="790.0" y1="260.0" x2="1175.0" y2="260.0" stroke="#000000" stroke-width="2" fill="none" />
  <line x1="840.0" y1="310.0" x2="840.0" y2="280.0" stroke="#000000" stroke-width="2" fill="none" />
  <line x1="620.0" y1="410.0" x2="620.0" y2="460.0" stroke="#000000" stroke-width="2" fill="none" />
  <line x1="790.0" y1="280.0" x2="840.0" y2="280.0" stroke="#000000" stroke-width="2" fill="none" />
  <line x1="1280.0" y1="370.0" x2="1280.0" y2="460.0" stroke="#000000" stroke-width="2" fill="none" />
  <line x1="305.0" y1="295.0" x2="305.0" y2="160.0" stroke="#000000" stroke-width="2" fill="none" />
  <line x1="305.0" y1="355.0" x2="305.0" y2="460.0" stroke="#000000" stroke-width="2" fill="none" />
  <line x1="815.0" y1="110.0" x2="790.0" y2="110.0" stroke="#000000" stroke-width="2" fill="none" />
  <line x1="950.0" y1="160.0" x2="790.0" y2="160.0" stroke="#000000" stroke-width="2" fill="none" />
  <line x1="550.0" y1="300.0" x2="550.0" y2="260.0" stroke="#000000" stroke-width="2" fill="none" />
  <line x1="630.0" y1="260.0" x2="550.0" y2="260.0" stroke="#000000" stroke-width="2" fill="none" />
  <line x1="630.0" y1="220.0" x2="460.0" y2="220.0" stroke="#000000" stroke-width="2" fill="none" />
  <line x1="1175.0" y1="370.0" x2="1175.0" y2="460.0" stroke="#000000" stroke-width="2" fill="none" />
  <line x1="100.0" y1="460.0" x2="1360.0" y2="460.0" stroke="#000000" stroke-width="2" fill="none" />
  <line x1="385.0" y1="220.0" x2="385.0" y2="160.0" stroke="#000000" stroke-width="2" fill="none" />
  <line x1="710.0" y1="330.0" x2="710.0" y2="460.0" stroke="#000000" stroke-width="2" fill="none" />
  <line x1="385.0" y1="280.0" x2="385.0" y2="300.0" stroke="#000000" stroke-width="2" fill="none" />
  <line x1="210.0" y1="295.0" x2="210.0" y2="160.0" stroke="#000000" stroke-width="2" fill="none" />
  <line x1="100.0" y1="160.0" x2="630.0" y2="160.0" stroke="#000000" stroke-width="2" fill="none" />
  <line x1="1010.0" y1="160.0" x2="1360.0" y2="160.0" stroke="#000000" stroke-width="2" fill="none" />
  <line x1="1280.0" y1="310.0" x2="1280.0" y2="160.0" stroke="#000000" stroke-width="2" fill="none" />
  <line x1="100.0" y1="210.0" x2="100.0" y2="160.0" stroke="#000000" stroke-width="2" fill="none" />
  <line x1="100.0" y1="460.0" x2="100.0" y2="270.0" stroke="#000000" stroke-width="2" fill="none" />
  <line x1="1360.0" y1="270.0" x2="1360.0" y2="160.0" stroke="#000000" stroke-width="2" fill="none" />
  <line x1="1360.0" y1="460.0" x2="1360.0" y2="330.0" stroke="#000000" stroke-width="2" fill="none" />
  <circle cx="1175.0" cy="260.0" r="5" stroke="#000000" stroke-width="0" fill="#000000" />
  <circle cx="840.0" cy="300.0" r="5" stroke="#000000" stroke-width="0" fill="#000000" />
  <circle cx="885.0" cy="160.0" r="5" stroke="#000000" stroke-width="0" fill="#000000" />
  <circle cx="910.0" cy="460.0" r="5" stroke="#000000" stroke-width="0" fill="#000000" />
  <circle cx="840.0" cy="460.0" r="5" stroke="#000000" stroke-width="0" fill="#000000" />
  <circle cx="550.0" cy="460.0" r="5" stroke="#000000" stroke-width="0" fill="#000000" />
  <circle cx="210.0" cy="460.0" r="5" stroke="#000000" stroke-width="0" fill="#000000" />
  <circle cx="385.0" cy="460.0" r="5" stroke="#000000" stroke-width="0" fill="#000000" />
  <circle cx="620.0" cy="460.0" r="5" stroke="#000000" stroke-width="0" fill="#000000" />
  <circle cx="1280.0" cy="460.0" r="5" stroke="#000000" stroke-width="0" fill="#000000" />
  <circle cx="305.0" cy="460.0" r="5" stroke="#000000" stroke-width="0" fill="#000000" />
  <circle cx="1175.0" cy="460.0" r="5" stroke="#000000" stroke-width="0" fill="#000000" />
  <circle cx="710.0" cy="460.0" r="5" stroke="#000000" stroke-width="0" fill="#000000" />
  <circle cx="385.0" cy="290.0" r="5" stroke="#000000" stroke-width="0" fill="#000000" />
  <circle cx="305.0" cy="160.0" r="5" stroke="#000000" stroke-width="0" fill="#000000" />
  <circle cx="385.0" cy="160.0" r="5" stroke="#000000" stroke-width="0" fill="#000000" />
  <circle cx="210.0" cy="160.0" r="5" stroke="#000000" stroke-width="0" fill="#000000" />
  <circle cx="1175.0" cy="160.0" r="5" stroke="#000000" stroke-width="0" fill="#000000" />
  <circle cx="1280.0" cy="160.0" r="5" stroke="#000000" stroke-width="0" fill="#000000" />
  <circle cx="670.0" cy="460.0" r="5" stroke="#000000" stroke-width="0" fill="#000000" />
</svg>

